%TF.GenerationSoftware,KiCad,Pcbnew,(6.0.10)*%
%TF.CreationDate,2023-11-27T04:30:22+11:00*%
%TF.ProjectId,Digislate,44696769-736c-4617-9465-2e6b69636164,rev?*%
%TF.SameCoordinates,Original*%
%TF.FileFunction,Soldermask,Top*%
%TF.FilePolarity,Negative*%
%FSLAX46Y46*%
G04 Gerber Fmt 4.6, Leading zero omitted, Abs format (unit mm)*
G04 Created by KiCad (PCBNEW (6.0.10)) date 2023-11-27 04:30:22*
%MOMM*%
%LPD*%
G01*
G04 APERTURE LIST*
G04 Aperture macros list*
%AMRoundRect*
0 Rectangle with rounded corners*
0 $1 Rounding radius*
0 $2 $3 $4 $5 $6 $7 $8 $9 X,Y pos of 4 corners*
0 Add a 4 corners polygon primitive as box body*
4,1,4,$2,$3,$4,$5,$6,$7,$8,$9,$2,$3,0*
0 Add four circle primitives for the rounded corners*
1,1,$1+$1,$2,$3*
1,1,$1+$1,$4,$5*
1,1,$1+$1,$6,$7*
1,1,$1+$1,$8,$9*
0 Add four rect primitives between the rounded corners*
20,1,$1+$1,$2,$3,$4,$5,0*
20,1,$1+$1,$4,$5,$6,$7,0*
20,1,$1+$1,$6,$7,$8,$9,0*
20,1,$1+$1,$8,$9,$2,$3,0*%
G04 Aperture macros list end*
%ADD10C,0.150000*%
%ADD11RoundRect,0.250000X-0.312500X-0.625000X0.312500X-0.625000X0.312500X0.625000X-0.312500X0.625000X0*%
%ADD12R,1.800000X1.800000*%
%ADD13C,1.800000*%
%ADD14RoundRect,0.250000X0.625000X-0.312500X0.625000X0.312500X-0.625000X0.312500X-0.625000X-0.312500X0*%
%ADD15RoundRect,0.150000X-0.512500X-0.150000X0.512500X-0.150000X0.512500X0.150000X-0.512500X0.150000X0*%
%ADD16C,0.800000*%
%ADD17C,6.400000*%
%ADD18RoundRect,0.250000X-0.262500X-0.450000X0.262500X-0.450000X0.262500X0.450000X-0.262500X0.450000X0*%
%ADD19C,1.524000*%
%ADD20R,0.550000X1.600000*%
%ADD21R,1.600000X0.550000*%
%ADD22RoundRect,0.250000X0.312500X0.625000X-0.312500X0.625000X-0.312500X-0.625000X0.312500X-0.625000X0*%
%ADD23RoundRect,0.250000X0.450000X-0.262500X0.450000X0.262500X-0.450000X0.262500X-0.450000X-0.262500X0*%
%ADD24C,2.400000*%
%ADD25O,2.400000X2.400000*%
%ADD26RoundRect,0.150000X0.150000X-0.587500X0.150000X0.587500X-0.150000X0.587500X-0.150000X-0.587500X0*%
%ADD27R,1.500000X0.900000*%
%ADD28R,0.900000X1.500000*%
%ADD29C,0.475000*%
%ADD30C,0.500000*%
%ADD31R,4.200000X4.200000*%
%ADD32RoundRect,0.250000X0.475000X-0.250000X0.475000X0.250000X-0.475000X0.250000X-0.475000X-0.250000X0*%
%ADD33RoundRect,0.250000X0.250000X0.475000X-0.250000X0.475000X-0.250000X-0.475000X0.250000X-0.475000X0*%
%ADD34R,1.600000X1.600000*%
%ADD35O,1.600000X1.600000*%
%ADD36RoundRect,0.250000X0.325000X0.650000X-0.325000X0.650000X-0.325000X-0.650000X0.325000X-0.650000X0*%
%ADD37R,0.650000X1.500000*%
%ADD38R,1.800000X1.350000*%
%ADD39RoundRect,0.250000X0.375000X0.625000X-0.375000X0.625000X-0.375000X-0.625000X0.375000X-0.625000X0*%
%ADD40C,2.000000*%
%ADD41RoundRect,0.250000X0.650000X-0.325000X0.650000X0.325000X-0.650000X0.325000X-0.650000X-0.325000X0*%
%ADD42RoundRect,0.250000X-0.475000X0.250000X-0.475000X-0.250000X0.475000X-0.250000X0.475000X0.250000X0*%
%ADD43RoundRect,0.250000X0.325000X1.100000X-0.325000X1.100000X-0.325000X-1.100000X0.325000X-1.100000X0*%
%ADD44RoundRect,0.250000X0.412500X0.925000X-0.412500X0.925000X-0.412500X-0.925000X0.412500X-0.925000X0*%
%ADD45RoundRect,0.150000X-0.150000X0.587500X-0.150000X-0.587500X0.150000X-0.587500X0.150000X0.587500X0*%
%ADD46RoundRect,0.375000X-0.375000X0.887000X-0.375000X-0.887000X0.375000X-0.887000X0.375000X0.887000X0*%
%ADD47RoundRect,0.250000X-0.650000X0.325000X-0.650000X-0.325000X0.650000X-0.325000X0.650000X0.325000X0*%
%ADD48RoundRect,0.250000X-0.925000X0.412500X-0.925000X-0.412500X0.925000X-0.412500X0.925000X0.412500X0*%
%ADD49RoundRect,0.250000X-0.450000X0.262500X-0.450000X-0.262500X0.450000X-0.262500X0.450000X0.262500X0*%
%ADD50R,1.300000X1.700000*%
%ADD51R,0.400000X1.900000*%
%ADD52RoundRect,0.250000X-1.025000X0.787500X-1.025000X-0.787500X1.025000X-0.787500X1.025000X0.787500X0*%
%ADD53C,1.600000*%
%ADD54R,1.700000X1.700000*%
%ADD55O,1.700000X1.700000*%
%ADD56C,1.440000*%
%ADD57R,4.400000X1.800000*%
%ADD58O,4.000000X1.800000*%
%ADD59O,1.800000X4.000000*%
%ADD60RoundRect,0.250000X0.600000X0.725000X-0.600000X0.725000X-0.600000X-0.725000X0.600000X-0.725000X0*%
%ADD61O,1.700000X1.950000*%
%ADD62O,1.200000X2.200000*%
%ADD63O,2.200000X1.200000*%
%ADD64C,5.000000*%
%ADD65O,6.000000X2.000000*%
%ADD66RoundRect,0.250000X-0.600000X-0.725000X0.600000X-0.725000X0.600000X0.725000X-0.600000X0.725000X0*%
%ADD67C,3.000000*%
%ADD68R,1.800000X2.600000*%
%ADD69O,1.800000X2.600000*%
G04 APERTURE END LIST*
D10*
X18450000Y-92020000D02*
X44960000Y-92020000D01*
X44960000Y-92020000D02*
X44960000Y-107960000D01*
X44960000Y-107960000D02*
X18450000Y-107960000D01*
X18450000Y-107960000D02*
X18450000Y-92020000D01*
G36*
X18450000Y-92020000D02*
G01*
X44960000Y-92020000D01*
X44960000Y-107960000D01*
X18450000Y-107960000D01*
X18450000Y-92020000D01*
G37*
D11*
%TO.C,R13*%
X80327500Y-56630000D03*
X83252500Y-56630000D03*
%TD*%
D12*
%TO.C,LD8*%
X147320000Y-82047000D03*
D13*
X147320000Y-79507000D03*
%TD*%
D14*
%TO.C,R3*%
X105900000Y-124462500D03*
X105900000Y-121537500D03*
%TD*%
D15*
%TO.C,U3*%
X232962500Y-111750000D03*
X232962500Y-112700000D03*
X232962500Y-113650000D03*
X235237500Y-113650000D03*
X235237500Y-112700000D03*
X235237500Y-111750000D03*
%TD*%
D16*
%TO.C,REF6*%
X274652944Y-133672944D03*
D17*
X276350000Y-135370000D03*
D16*
X278047056Y-133672944D03*
X274652944Y-137067056D03*
D17*
X276350000Y-135370000D03*
D16*
X278750000Y-135370000D03*
X276350000Y-132970000D03*
X276350000Y-137770000D03*
X278047056Y-137067056D03*
X273950000Y-135370000D03*
%TD*%
D18*
%TO.C,R6*%
X95787500Y-121800000D03*
X97612500Y-121800000D03*
%TD*%
D19*
%TO.C,HR1*%
X26920000Y-87900000D03*
X29460000Y-87900000D03*
X32000000Y-87882000D03*
X34540000Y-87900000D03*
X37080000Y-87900000D03*
X37080000Y-52340000D03*
X34540000Y-52340000D03*
X32000000Y-52300000D03*
X29460000Y-52340000D03*
X26920000Y-52340000D03*
%TD*%
D20*
%TO.C,U1*%
X155200000Y-116150000D03*
X156000000Y-116150000D03*
X156800000Y-116150000D03*
X157600000Y-116150000D03*
X158400000Y-116150000D03*
X159200000Y-116150000D03*
X160000000Y-116150000D03*
X160800000Y-116150000D03*
D21*
X162250000Y-114700000D03*
X162250000Y-113900000D03*
X162250000Y-113100000D03*
X162250000Y-112300000D03*
X162250000Y-111500000D03*
X162250000Y-110700000D03*
X162250000Y-109900000D03*
X162250000Y-109100000D03*
D20*
X160800000Y-107650000D03*
X160000000Y-107650000D03*
X159200000Y-107650000D03*
X158400000Y-107650000D03*
X157600000Y-107650000D03*
X156800000Y-107650000D03*
X156000000Y-107650000D03*
X155200000Y-107650000D03*
D21*
X153750000Y-109100000D03*
X153750000Y-109900000D03*
X153750000Y-110700000D03*
X153750000Y-111500000D03*
X153750000Y-112300000D03*
X153750000Y-113100000D03*
X153750000Y-113900000D03*
X153750000Y-114700000D03*
%TD*%
D19*
%TO.C,HR2*%
X55920000Y-87900000D03*
X58460000Y-87900000D03*
X61000000Y-87882000D03*
X63540000Y-87900000D03*
X66080000Y-87900000D03*
X66080000Y-52340000D03*
X63540000Y-52340000D03*
X61000000Y-52300000D03*
X58460000Y-52340000D03*
X55920000Y-52340000D03*
%TD*%
D22*
%TO.C,R2*%
X173562500Y-131300000D03*
X170637500Y-131300000D03*
%TD*%
D12*
%TO.C,LD2*%
X80518000Y-34036000D03*
D13*
X80518000Y-36576000D03*
%TD*%
D18*
%TO.C,R5*%
X101487500Y-117500000D03*
X103312500Y-117500000D03*
%TD*%
D16*
%TO.C,REF3*%
X276510000Y-32020000D03*
X274812944Y-27922944D03*
X278207056Y-27922944D03*
D17*
X276510000Y-29620000D03*
D16*
X274110000Y-29620000D03*
X274812944Y-31317056D03*
X278910000Y-29620000D03*
X278207056Y-31317056D03*
D17*
X276510000Y-29620000D03*
D16*
X276510000Y-27220000D03*
%TD*%
D23*
%TO.C,R8*%
X38820000Y-122962500D03*
X38820000Y-121137500D03*
%TD*%
%TO.C,R18*%
X190100000Y-131712500D03*
X190100000Y-129887500D03*
%TD*%
D24*
%TO.C,SW2*%
X17272000Y-27940000D03*
D25*
X42672000Y-27940000D03*
%TD*%
D26*
%TO.C,Q4*%
X95450000Y-119137500D03*
X97350000Y-119137500D03*
X96400000Y-117262500D03*
%TD*%
D27*
%TO.C,U10*%
X35892000Y-128792000D03*
X35892000Y-127522000D03*
X35892000Y-126252000D03*
X35892000Y-117362000D03*
X35892000Y-112282000D03*
D28*
X32852000Y-111032000D03*
X21422000Y-111032000D03*
D27*
X18392000Y-112282000D03*
X18392000Y-128792000D03*
D29*
X28584500Y-122977000D03*
X28584500Y-119927000D03*
X27059500Y-122977000D03*
X27822000Y-120689500D03*
X26297000Y-120689500D03*
X28584500Y-121452000D03*
X29347000Y-122214500D03*
X27059500Y-119927000D03*
X27059500Y-121452000D03*
X26297000Y-122214500D03*
X29347000Y-120689500D03*
D30*
X27822000Y-122214500D03*
D31*
X27822000Y-121452000D03*
%TD*%
D17*
%TO.C,REF4*%
X89990000Y-135230000D03*
D16*
X89990000Y-132830000D03*
X91687056Y-136927056D03*
X88292944Y-133532944D03*
D17*
X89990000Y-135230000D03*
D16*
X87590000Y-135230000D03*
X89990000Y-137630000D03*
X88292944Y-136927056D03*
X92390000Y-135230000D03*
X91687056Y-133532944D03*
%TD*%
D32*
%TO.C,C8*%
X38730000Y-127510000D03*
X38730000Y-125610000D03*
%TD*%
D19*
%TO.C,SC1*%
X162920000Y-87900000D03*
X165460000Y-87900000D03*
X168000000Y-87882000D03*
X170540000Y-87900000D03*
X173080000Y-87900000D03*
X173080000Y-52340000D03*
X170540000Y-52340000D03*
X168000000Y-52300000D03*
X165460000Y-52340000D03*
X162920000Y-52340000D03*
%TD*%
D12*
%TO.C,LD4*%
X79248000Y-82052000D03*
D13*
X79248000Y-79512000D03*
%TD*%
D16*
%TO.C,REF1*%
X23717056Y-36057056D03*
D17*
X22020000Y-34360000D03*
D16*
X19620000Y-34360000D03*
X20322944Y-36057056D03*
X24420000Y-34360000D03*
X23717056Y-32662944D03*
X22020000Y-36760000D03*
X22020000Y-31960000D03*
X20322944Y-32662944D03*
D17*
X22020000Y-34360000D03*
%TD*%
D33*
%TO.C,C1*%
X157780000Y-119080000D03*
X155880000Y-119080000D03*
%TD*%
D11*
%TO.C,R20*%
X233537500Y-116000000D03*
X236462500Y-116000000D03*
%TD*%
D19*
%TO.C,FR2*%
X259920000Y-87900000D03*
X262460000Y-87900000D03*
X265000000Y-87882000D03*
X267540000Y-87900000D03*
X270080000Y-87900000D03*
X270080000Y-52340000D03*
X267540000Y-52340000D03*
X265000000Y-52300000D03*
X262460000Y-52340000D03*
X259920000Y-52340000D03*
%TD*%
D18*
%TO.C,R19*%
X77905000Y-111760000D03*
X79730000Y-111760000D03*
%TD*%
D19*
%TO.C,MN2*%
X123920000Y-87900000D03*
X126460000Y-87900000D03*
X129000000Y-87882000D03*
X131540000Y-87900000D03*
X134080000Y-87900000D03*
X134080000Y-52340000D03*
X131540000Y-52340000D03*
X129000000Y-52300000D03*
X126460000Y-52340000D03*
X123920000Y-52340000D03*
%TD*%
D34*
%TO.C,U8*%
X81395000Y-114800000D03*
D35*
X78855000Y-114800000D03*
X78855000Y-122420000D03*
X81395000Y-122420000D03*
%TD*%
D36*
%TO.C,C10*%
X235275000Y-119800000D03*
X232325000Y-119800000D03*
%TD*%
D19*
%TO.C,SC2*%
X191920000Y-87900000D03*
X194460000Y-87900000D03*
X197000000Y-87882000D03*
X199540000Y-87900000D03*
X202080000Y-87900000D03*
X202080000Y-52340000D03*
X199540000Y-52340000D03*
X197000000Y-52300000D03*
X194460000Y-52340000D03*
X191920000Y-52340000D03*
%TD*%
D37*
%TO.C,U6*%
X195305000Y-107000000D03*
X194035000Y-107000000D03*
X192765000Y-107000000D03*
X191495000Y-107000000D03*
X191495000Y-112400000D03*
X192765000Y-112400000D03*
X194035000Y-112400000D03*
X195305000Y-112400000D03*
D38*
X194300000Y-110375000D03*
X194300000Y-109025000D03*
X192500000Y-109025000D03*
X192500000Y-110375000D03*
%TD*%
D19*
%TO.C,MN1*%
X94920000Y-87900000D03*
X97460000Y-87900000D03*
X100000000Y-87882000D03*
X102540000Y-87900000D03*
X105080000Y-87900000D03*
X105080000Y-52340000D03*
X102540000Y-52340000D03*
X100000000Y-52300000D03*
X97460000Y-52340000D03*
X94920000Y-52340000D03*
%TD*%
D39*
%TO.C,D3*%
X103700000Y-124200000D03*
X100900000Y-124200000D03*
%TD*%
D12*
%TO.C,LD1*%
X216408000Y-34031000D03*
D13*
X216408000Y-36571000D03*
%TD*%
D40*
%TO.C,AE1*%
X53680000Y-135548000D03*
%TD*%
D41*
%TO.C,C11*%
X48520000Y-121915000D03*
X48520000Y-118965000D03*
%TD*%
D42*
%TO.C,C7*%
X41130000Y-123060000D03*
X41130000Y-124960000D03*
%TD*%
D33*
%TO.C,C14*%
X237750000Y-124000000D03*
X235850000Y-124000000D03*
%TD*%
D17*
%TO.C,REF2*%
X147770000Y-29630000D03*
D16*
X146072944Y-31327056D03*
D17*
X147770000Y-29630000D03*
D16*
X147770000Y-27230000D03*
X149467056Y-27932944D03*
X150170000Y-29630000D03*
X147770000Y-32030000D03*
X149467056Y-31327056D03*
X146072944Y-27932944D03*
X145370000Y-29630000D03*
%TD*%
D33*
%TO.C,C4*%
X205550000Y-113800000D03*
X203650000Y-113800000D03*
%TD*%
D43*
%TO.C,C13*%
X237675000Y-127600000D03*
X234725000Y-127600000D03*
%TD*%
D44*
%TO.C,C23*%
X51967500Y-126630000D03*
X48892500Y-126630000D03*
%TD*%
D12*
%TO.C,LD5*%
X215420000Y-79770000D03*
D13*
X215420000Y-82310000D03*
%TD*%
D45*
%TO.C,Q3*%
X103350000Y-119562500D03*
X101450000Y-119562500D03*
X102400000Y-121437500D03*
%TD*%
D12*
%TO.C,LD7*%
X149860000Y-61473000D03*
D13*
X149860000Y-58933000D03*
%TD*%
D22*
%TO.C,R15*%
X151272500Y-56550000D03*
X148347500Y-56550000D03*
%TD*%
D19*
%TO.C,U9*%
X61700000Y-130400000D03*
D46*
X71680000Y-103930000D03*
X69140000Y-103930000D03*
X66600000Y-103930000D03*
X64060000Y-103930000D03*
X61520000Y-103930000D03*
X69140000Y-132000000D03*
X71680000Y-132000000D03*
X66600000Y-132000000D03*
%TD*%
D44*
%TO.C,C21*%
X158335000Y-127060000D03*
X155260000Y-127060000D03*
%TD*%
D47*
%TO.C,C9*%
X204700000Y-127525000D03*
X204700000Y-130475000D03*
%TD*%
D12*
%TO.C,LD3*%
X81788000Y-61473000D03*
D13*
X81788000Y-58933000D03*
%TD*%
D14*
%TO.C,R12*%
X93300000Y-119162500D03*
X93300000Y-116237500D03*
%TD*%
D23*
%TO.C,R4*%
X99600000Y-122012500D03*
X99600000Y-120187500D03*
%TD*%
%TO.C,R17*%
X193300000Y-131712500D03*
X193300000Y-129887500D03*
%TD*%
D11*
%TO.C,R14*%
X213997500Y-84690000D03*
X216922500Y-84690000D03*
%TD*%
D12*
%TO.C,LD6*%
X217932000Y-61468000D03*
D13*
X217932000Y-58928000D03*
%TD*%
D48*
%TO.C,C20*%
X253960000Y-127455000D03*
X253960000Y-130530000D03*
%TD*%
D14*
%TO.C,R16*%
X226600000Y-118662500D03*
X226600000Y-115737500D03*
%TD*%
D49*
%TO.C,R7*%
X41130000Y-126567500D03*
X41130000Y-128392500D03*
%TD*%
D16*
%TO.C,REF5*%
X150037056Y-133562944D03*
X146642944Y-133562944D03*
X145940000Y-135260000D03*
X148340000Y-132860000D03*
D17*
X148340000Y-135260000D03*
D16*
X150037056Y-136957056D03*
X150740000Y-135260000D03*
X146642944Y-136957056D03*
D17*
X148340000Y-135260000D03*
D16*
X148340000Y-137660000D03*
%TD*%
D50*
%TO.C,D1*%
X236250000Y-108200000D03*
X232750000Y-108200000D03*
%TD*%
D19*
%TO.C,FR1*%
X230920000Y-87900000D03*
X233460000Y-87900000D03*
X236000000Y-87882000D03*
X238540000Y-87900000D03*
X241080000Y-87900000D03*
X241080000Y-52340000D03*
X238540000Y-52340000D03*
X236000000Y-52300000D03*
X233460000Y-52340000D03*
X230920000Y-52340000D03*
%TD*%
D51*
%TO.C,Y1*%
X162400000Y-119300000D03*
X161200000Y-119300000D03*
X160000000Y-119300000D03*
%TD*%
D52*
%TO.C,C19*%
X241180000Y-127750000D03*
X241180000Y-133975000D03*
%TD*%
%TO.C,C22*%
X44900000Y-117580000D03*
X44900000Y-123805000D03*
%TD*%
D53*
%TO.C,C2*%
X100900000Y-126900000D03*
X105900000Y-126900000D03*
%TD*%
D54*
%TO.C,SW1*%
X38137000Y-27940000D03*
D55*
X35597000Y-27940000D03*
%TD*%
D56*
%TO.C,RV2*%
X226550000Y-112800000D03*
X224010000Y-112800000D03*
X221470000Y-112800000D03*
%TD*%
D57*
%TO.C,CN5*%
X200900000Y-125950000D03*
D58*
X200900000Y-131750000D03*
D59*
X196100000Y-128950000D03*
%TD*%
D60*
%TO.C,CN1*%
X195050000Y-96800000D03*
D61*
X192550000Y-96800000D03*
%TD*%
D54*
%TO.C,CN4*%
X169475000Y-134225000D03*
D55*
X169475000Y-136765000D03*
X172015000Y-134225000D03*
X172015000Y-136765000D03*
X174555000Y-134225000D03*
X174555000Y-136765000D03*
%TD*%
D62*
%TO.C,CN6*%
X85400000Y-131300000D03*
X82900000Y-131300000D03*
D63*
X80400000Y-136300000D03*
D62*
X75400000Y-131300000D03*
X77900000Y-131300000D03*
%TD*%
D12*
%TO.C,LD9*%
X194150000Y-134000000D03*
D13*
X191610000Y-134000000D03*
X189070000Y-134000000D03*
%TD*%
D64*
%TO.C,CN3*%
X100900000Y-132000000D03*
D65*
X100900000Y-138500000D03*
%TD*%
D66*
%TO.C,CN2*%
X192150000Y-118600000D03*
D61*
X194650000Y-118600000D03*
%TD*%
D67*
%TO.C,DS1*%
X186089100Y-97164500D03*
X186089100Y-128165200D03*
X111090520Y-128165200D03*
X111090000Y-97164500D03*
D68*
X180590000Y-97164500D03*
D69*
X178050000Y-97164500D03*
X175510000Y-97164500D03*
X172970000Y-97164500D03*
X170430000Y-97164500D03*
X167890000Y-97164500D03*
X165350000Y-97164500D03*
X162810000Y-97164500D03*
X160270000Y-97164500D03*
X157730000Y-97164500D03*
X155190000Y-97164500D03*
X152650000Y-97164500D03*
X150110000Y-97164500D03*
X147570000Y-97164500D03*
X145030000Y-97164500D03*
X142490000Y-97164500D03*
%TD*%
M02*
