%TF.GenerationSoftware,KiCad,Pcbnew,(6.0.10)*%
%TF.CreationDate,2023-11-27T04:30:22+11:00*%
%TF.ProjectId,Digislate,44696769-736c-4617-9465-2e6b69636164,rev?*%
%TF.SameCoordinates,Original*%
%TF.FileFunction,Soldermask,Bot*%
%TF.FilePolarity,Negative*%
%FSLAX46Y46*%
G04 Gerber Fmt 4.6, Leading zero omitted, Abs format (unit mm)*
G04 Created by KiCad (PCBNEW (6.0.10)) date 2023-11-27 04:30:22*
%MOMM*%
%LPD*%
G01*
G04 APERTURE LIST*
G04 Aperture macros list*
%AMRoundRect*
0 Rectangle with rounded corners*
0 $1 Rounding radius*
0 $2 $3 $4 $5 $6 $7 $8 $9 X,Y pos of 4 corners*
0 Add a 4 corners polygon primitive as box body*
4,1,4,$2,$3,$4,$5,$6,$7,$8,$9,$2,$3,0*
0 Add four circle primitives for the rounded corners*
1,1,$1+$1,$2,$3*
1,1,$1+$1,$4,$5*
1,1,$1+$1,$6,$7*
1,1,$1+$1,$8,$9*
0 Add four rect primitives between the rounded corners*
20,1,$1+$1,$2,$3,$4,$5,0*
20,1,$1+$1,$4,$5,$6,$7,0*
20,1,$1+$1,$6,$7,$8,$9,0*
20,1,$1+$1,$8,$9,$2,$3,0*%
%AMFreePoly0*
4,1,6,1.000000,0.000000,0.500000,-0.750000,-0.500000,-0.750000,-0.500000,0.750000,0.500000,0.750000,1.000000,0.000000,1.000000,0.000000,$1*%
%AMFreePoly1*
4,1,6,0.500000,-0.750000,-0.650000,-0.750000,-0.150000,0.000000,-0.650000,0.750000,0.500000,0.750000,0.500000,-0.750000,0.500000,-0.750000,$1*%
G04 Aperture macros list end*
%ADD10R,1.800000X1.800000*%
%ADD11C,1.800000*%
%ADD12C,0.800000*%
%ADD13C,6.400000*%
%ADD14C,1.524000*%
%ADD15C,2.400000*%
%ADD16O,2.400000X2.400000*%
%ADD17R,1.600000X1.600000*%
%ADD18O,1.600000X1.600000*%
%ADD19C,2.000000*%
%ADD20RoundRect,0.250000X0.625000X-0.312500X0.625000X0.312500X-0.625000X0.312500X-0.625000X-0.312500X0*%
%ADD21C,1.600000*%
%ADD22R,1.700000X1.700000*%
%ADD23O,1.700000X1.700000*%
%ADD24RoundRect,0.250000X-0.250000X-0.475000X0.250000X-0.475000X0.250000X0.475000X-0.250000X0.475000X0*%
%ADD25RoundRect,0.250000X-0.312500X-0.625000X0.312500X-0.625000X0.312500X0.625000X-0.312500X0.625000X0*%
%ADD26R,1.500000X1.500000*%
%ADD27FreePoly0,90.000000*%
%ADD28FreePoly0,270.000000*%
%ADD29RoundRect,0.250000X1.500000X1.000000X-1.500000X1.000000X-1.500000X-1.000000X1.500000X-1.000000X0*%
%ADD30R,2.000000X1.300000*%
%ADD31R,2.000000X2.000000*%
%ADD32RoundRect,0.150000X0.150000X-0.587500X0.150000X0.587500X-0.150000X0.587500X-0.150000X-0.587500X0*%
%ADD33C,1.440000*%
%ADD34RoundRect,0.250000X-1.025000X0.787500X-1.025000X-0.787500X1.025000X-0.787500X1.025000X0.787500X0*%
%ADD35RoundRect,0.250000X0.312500X0.625000X-0.312500X0.625000X-0.312500X-0.625000X0.312500X-0.625000X0*%
%ADD36R,4.400000X1.800000*%
%ADD37O,4.000000X1.800000*%
%ADD38O,1.800000X4.000000*%
%ADD39R,1.300000X2.000000*%
%ADD40RoundRect,0.250000X0.600000X0.725000X-0.600000X0.725000X-0.600000X-0.725000X0.600000X-0.725000X0*%
%ADD41O,1.700000X1.950000*%
%ADD42R,2.200000X1.500000*%
%ADD43FreePoly0,0.000000*%
%ADD44FreePoly1,0.000000*%
%ADD45RoundRect,0.150000X-0.587500X-0.150000X0.587500X-0.150000X0.587500X0.150000X-0.587500X0.150000X0*%
%ADD46R,1.300000X1.700000*%
%ADD47RoundRect,0.250000X0.250000X0.475000X-0.250000X0.475000X-0.250000X-0.475000X0.250000X-0.475000X0*%
%ADD48O,1.200000X2.200000*%
%ADD49O,2.200000X1.200000*%
%ADD50RoundRect,0.250000X-0.325000X-0.650000X0.325000X-0.650000X0.325000X0.650000X-0.325000X0.650000X0*%
%ADD51RoundRect,0.250000X0.787500X1.025000X-0.787500X1.025000X-0.787500X-1.025000X0.787500X-1.025000X0*%
%ADD52C,5.000000*%
%ADD53O,6.000000X2.000000*%
%ADD54R,1.100000X4.600000*%
%ADD55R,10.800000X9.400000*%
%ADD56R,1.200000X2.200000*%
%ADD57R,5.800000X6.400000*%
%ADD58RoundRect,0.250000X-1.000000X1.500000X-1.000000X-1.500000X1.000000X-1.500000X1.000000X1.500000X0*%
%ADD59RoundRect,0.250000X-0.600000X-0.725000X0.600000X-0.725000X0.600000X0.725000X-0.600000X0.725000X0*%
%ADD60RoundRect,0.250000X0.450000X-0.262500X0.450000X0.262500X-0.450000X0.262500X-0.450000X-0.262500X0*%
%ADD61R,2.000000X1.500000*%
%ADD62R,2.000000X3.800000*%
%ADD63C,3.000000*%
%ADD64R,1.800000X2.600000*%
%ADD65O,1.800000X2.600000*%
%ADD66RoundRect,0.150000X-0.875000X-0.150000X0.875000X-0.150000X0.875000X0.150000X-0.875000X0.150000X0*%
G04 APERTURE END LIST*
D10*
%TO.C,LD8*%
X147320000Y-82047000D03*
D11*
X147320000Y-79507000D03*
%TD*%
D12*
%TO.C,REF6*%
X274652944Y-133672944D03*
D13*
X276350000Y-135370000D03*
D12*
X278047056Y-133672944D03*
X274652944Y-137067056D03*
D13*
X276350000Y-135370000D03*
D12*
X278750000Y-135370000D03*
X276350000Y-132970000D03*
X276350000Y-137770000D03*
X278047056Y-137067056D03*
X273950000Y-135370000D03*
%TD*%
D14*
%TO.C,HR1*%
X26920000Y-87900000D03*
X29460000Y-87900000D03*
X32000000Y-87882000D03*
X34540000Y-87900000D03*
X37080000Y-87900000D03*
X37080000Y-52340000D03*
X34540000Y-52340000D03*
X32000000Y-52300000D03*
X29460000Y-52340000D03*
X26920000Y-52340000D03*
%TD*%
%TO.C,HR2*%
X55920000Y-87900000D03*
X58460000Y-87900000D03*
X61000000Y-87882000D03*
X63540000Y-87900000D03*
X66080000Y-87900000D03*
X66080000Y-52340000D03*
X63540000Y-52340000D03*
X61000000Y-52300000D03*
X58460000Y-52340000D03*
X55920000Y-52340000D03*
%TD*%
D10*
%TO.C,LD2*%
X80518000Y-34036000D03*
D11*
X80518000Y-36576000D03*
%TD*%
D12*
%TO.C,REF3*%
X276510000Y-32020000D03*
X274812944Y-27922944D03*
X278207056Y-27922944D03*
D13*
X276510000Y-29620000D03*
D12*
X274110000Y-29620000D03*
X274812944Y-31317056D03*
X278910000Y-29620000D03*
X278207056Y-31317056D03*
D13*
X276510000Y-29620000D03*
D12*
X276510000Y-27220000D03*
%TD*%
D15*
%TO.C,SW2*%
X17272000Y-27940000D03*
D16*
X42672000Y-27940000D03*
%TD*%
D13*
%TO.C,REF4*%
X89990000Y-135230000D03*
D12*
X89990000Y-132830000D03*
X91687056Y-136927056D03*
X88292944Y-133532944D03*
D13*
X89990000Y-135230000D03*
D12*
X87590000Y-135230000D03*
X89990000Y-137630000D03*
X88292944Y-136927056D03*
X92390000Y-135230000D03*
X91687056Y-133532944D03*
%TD*%
D14*
%TO.C,SC1*%
X162920000Y-87900000D03*
X165460000Y-87900000D03*
X168000000Y-87882000D03*
X170540000Y-87900000D03*
X173080000Y-87900000D03*
X173080000Y-52340000D03*
X170540000Y-52340000D03*
X168000000Y-52300000D03*
X165460000Y-52340000D03*
X162920000Y-52340000D03*
%TD*%
D10*
%TO.C,LD4*%
X79248000Y-82052000D03*
D11*
X79248000Y-79512000D03*
%TD*%
D12*
%TO.C,REF1*%
X23717056Y-36057056D03*
D13*
X22020000Y-34360000D03*
D12*
X19620000Y-34360000D03*
X20322944Y-36057056D03*
X24420000Y-34360000D03*
X23717056Y-32662944D03*
X22020000Y-36760000D03*
X22020000Y-31960000D03*
X20322944Y-32662944D03*
D13*
X22020000Y-34360000D03*
%TD*%
D14*
%TO.C,FR2*%
X259920000Y-87900000D03*
X262460000Y-87900000D03*
X265000000Y-87882000D03*
X267540000Y-87900000D03*
X270080000Y-87900000D03*
X270080000Y-52340000D03*
X267540000Y-52340000D03*
X265000000Y-52300000D03*
X262460000Y-52340000D03*
X259920000Y-52340000D03*
%TD*%
%TO.C,MN2*%
X123920000Y-87900000D03*
X126460000Y-87900000D03*
X129000000Y-87882000D03*
X131540000Y-87900000D03*
X134080000Y-87900000D03*
X134080000Y-52340000D03*
X131540000Y-52340000D03*
X129000000Y-52300000D03*
X126460000Y-52340000D03*
X123920000Y-52340000D03*
%TD*%
D17*
%TO.C,U8*%
X81395000Y-114800000D03*
D18*
X78855000Y-114800000D03*
X78855000Y-122420000D03*
X81395000Y-122420000D03*
%TD*%
D14*
%TO.C,SC2*%
X191920000Y-87900000D03*
X194460000Y-87900000D03*
X197000000Y-87882000D03*
X199540000Y-87900000D03*
X202080000Y-87900000D03*
X202080000Y-52340000D03*
X199540000Y-52340000D03*
X197000000Y-52300000D03*
X194460000Y-52340000D03*
X191920000Y-52340000D03*
%TD*%
%TO.C,MN1*%
X94920000Y-87900000D03*
X97460000Y-87900000D03*
X100000000Y-87882000D03*
X102540000Y-87900000D03*
X105080000Y-87900000D03*
X105080000Y-52340000D03*
X102540000Y-52340000D03*
X100000000Y-52300000D03*
X97460000Y-52340000D03*
X94920000Y-52340000D03*
%TD*%
D10*
%TO.C,LD1*%
X216408000Y-34031000D03*
D11*
X216408000Y-36571000D03*
%TD*%
D19*
%TO.C,AE1*%
X53680000Y-135548000D03*
%TD*%
D13*
%TO.C,REF2*%
X147770000Y-29630000D03*
D12*
X146072944Y-31327056D03*
D13*
X147770000Y-29630000D03*
D12*
X147770000Y-27230000D03*
X149467056Y-27932944D03*
X150170000Y-29630000D03*
X147770000Y-32030000D03*
X149467056Y-31327056D03*
X146072944Y-27932944D03*
X145370000Y-29630000D03*
%TD*%
D10*
%TO.C,LD5*%
X215420000Y-79770000D03*
D11*
X215420000Y-82310000D03*
%TD*%
D10*
%TO.C,LD7*%
X149860000Y-61473000D03*
D11*
X149860000Y-58933000D03*
%TD*%
D14*
%TO.C,U9*%
X61700000Y-130400000D03*
%TD*%
D10*
%TO.C,LD3*%
X81788000Y-61473000D03*
D11*
X81788000Y-58933000D03*
%TD*%
D10*
%TO.C,LD6*%
X217932000Y-61468000D03*
D11*
X217932000Y-58928000D03*
%TD*%
D12*
%TO.C,REF5*%
X150037056Y-133562944D03*
X146642944Y-133562944D03*
X145940000Y-135260000D03*
X148340000Y-132860000D03*
D13*
X148340000Y-135260000D03*
D12*
X150037056Y-136957056D03*
X150740000Y-135260000D03*
X146642944Y-136957056D03*
D13*
X148340000Y-135260000D03*
D12*
X148340000Y-137660000D03*
%TD*%
D14*
%TO.C,FR1*%
X230920000Y-87900000D03*
X233460000Y-87900000D03*
X236000000Y-87882000D03*
X238540000Y-87900000D03*
X241080000Y-87900000D03*
X241080000Y-52340000D03*
X238540000Y-52340000D03*
X236000000Y-52300000D03*
X233460000Y-52340000D03*
X230920000Y-52340000D03*
%TD*%
D20*
%TO.C,R21*%
X233000000Y-115262500D03*
X233000000Y-112337500D03*
%TD*%
D21*
%TO.C,C2*%
X100900000Y-126900000D03*
X105900000Y-126900000D03*
%TD*%
D22*
%TO.C,SW1*%
X38137000Y-27940000D03*
D23*
X35597000Y-27940000D03*
%TD*%
D24*
%TO.C,C12*%
X244720000Y-124920000D03*
X246620000Y-124920000D03*
%TD*%
D25*
%TO.C,R9*%
X211340000Y-36560000D03*
X214265000Y-36560000D03*
%TD*%
D26*
%TO.C,J1*%
X56440000Y-102590000D03*
X56440000Y-100190000D03*
D27*
X56440000Y-103390000D03*
D28*
X56440000Y-99390000D03*
%TD*%
D29*
%TO.C,C16*%
X207907500Y-113900000D03*
X201407500Y-113900000D03*
%TD*%
D30*
%TO.C,RV3*%
X180530000Y-68850000D03*
D31*
X184530000Y-70000000D03*
D30*
X180530000Y-71150000D03*
%TD*%
D32*
%TO.C,Q2*%
X103350000Y-123937500D03*
X101450000Y-123937500D03*
X102400000Y-122062500D03*
%TD*%
D33*
%TO.C,RV2*%
X226550000Y-112800000D03*
X224010000Y-112800000D03*
X221470000Y-112800000D03*
%TD*%
D34*
%TO.C,C17*%
X180570000Y-75050000D03*
X180570000Y-81275000D03*
%TD*%
D35*
%TO.C,R10*%
X85542500Y-36510000D03*
X82617500Y-36510000D03*
%TD*%
D36*
%TO.C,CN5*%
X200900000Y-125950000D03*
D37*
X200900000Y-131750000D03*
D38*
X196100000Y-128950000D03*
%TD*%
D39*
%TO.C,RV1*%
X178350000Y-93100000D03*
D31*
X179500000Y-89100000D03*
D39*
X180650000Y-93100000D03*
%TD*%
D40*
%TO.C,CN1*%
X195050000Y-96800000D03*
D41*
X192550000Y-96800000D03*
%TD*%
D25*
%TO.C,R22*%
X193237500Y-102100000D03*
X196162500Y-102100000D03*
%TD*%
D42*
%TO.C,L2*%
X214500000Y-117300000D03*
X214500000Y-110900000D03*
%TD*%
D22*
%TO.C,CN4*%
X169475000Y-134225000D03*
D23*
X169475000Y-136765000D03*
X172015000Y-134225000D03*
X172015000Y-136765000D03*
X174555000Y-134225000D03*
X174555000Y-136765000D03*
%TD*%
D43*
%TO.C,J4*%
X95275000Y-129810000D03*
D44*
X96725000Y-129810000D03*
%TD*%
D26*
%TO.C,J2*%
X66600000Y-100190000D03*
X66600000Y-102590000D03*
D27*
X66600000Y-103390000D03*
D28*
X66600000Y-99390000D03*
%TD*%
D45*
%TO.C,Q1*%
X75842500Y-34990000D03*
X75842500Y-33090000D03*
X77717500Y-34040000D03*
%TD*%
D46*
%TO.C,D2*%
X220550000Y-117800000D03*
X224050000Y-117800000D03*
%TD*%
D47*
%TO.C,C6*%
X51402500Y-126600000D03*
X49502500Y-126600000D03*
%TD*%
D48*
%TO.C,CN6*%
X85400000Y-131300000D03*
X82900000Y-131300000D03*
D49*
X80400000Y-136300000D03*
D48*
X75400000Y-131300000D03*
X77900000Y-131300000D03*
%TD*%
D10*
%TO.C,LD9*%
X194150000Y-134000000D03*
D11*
X191610000Y-134000000D03*
X189070000Y-134000000D03*
%TD*%
D20*
%TO.C,R11*%
X73120000Y-39622500D03*
X73120000Y-36697500D03*
%TD*%
D50*
%TO.C,C5*%
X176995000Y-84270000D03*
X179945000Y-84270000D03*
%TD*%
D51*
%TO.C,C18*%
X237012500Y-119900000D03*
X230787500Y-119900000D03*
%TD*%
D52*
%TO.C,CN3*%
X100900000Y-132000000D03*
D53*
X100900000Y-138500000D03*
%TD*%
D42*
%TO.C,L1*%
X242900000Y-117500000D03*
X242900000Y-111100000D03*
%TD*%
D54*
%TO.C,U5*%
X218925000Y-122575000D03*
X220625000Y-122575000D03*
X222325000Y-122575000D03*
D55*
X222325000Y-131725000D03*
D54*
X224025000Y-122575000D03*
X225725000Y-122575000D03*
%TD*%
D25*
%TO.C,R23*%
X193237500Y-104400000D03*
X196162500Y-104400000D03*
%TD*%
D56*
%TO.C,U4*%
X245195000Y-127575000D03*
D57*
X247475000Y-133875000D03*
D56*
X249755000Y-127575000D03*
%TD*%
D58*
%TO.C,C15*%
X210700000Y-122550000D03*
X210700000Y-129050000D03*
%TD*%
D59*
%TO.C,CN2*%
X192150000Y-118600000D03*
D41*
X194650000Y-118600000D03*
%TD*%
D26*
%TO.C,J3*%
X61520000Y-102590000D03*
X61520000Y-100190000D03*
D28*
X61520000Y-99390000D03*
D27*
X61520000Y-103390000D03*
%TD*%
D60*
%TO.C,R1*%
X73120000Y-34932500D03*
X73120000Y-33107500D03*
%TD*%
D61*
%TO.C,U7*%
X45450000Y-122900000D03*
D62*
X51750000Y-120600000D03*
D61*
X45450000Y-120600000D03*
X45450000Y-118300000D03*
%TD*%
D24*
%TO.C,C3*%
X248350000Y-124920000D03*
X250250000Y-124920000D03*
%TD*%
D63*
%TO.C,DS1*%
X186089100Y-97164500D03*
X186089100Y-128165200D03*
X111090520Y-128165200D03*
X111090000Y-97164500D03*
D64*
X180590000Y-97164500D03*
D65*
X178050000Y-97164500D03*
X175510000Y-97164500D03*
X172970000Y-97164500D03*
X170430000Y-97164500D03*
X167890000Y-97164500D03*
X165350000Y-97164500D03*
X162810000Y-97164500D03*
X160270000Y-97164500D03*
X157730000Y-97164500D03*
X155190000Y-97164500D03*
X152650000Y-97164500D03*
X150110000Y-97164500D03*
X147570000Y-97164500D03*
X145030000Y-97164500D03*
X142490000Y-97164500D03*
%TD*%
D66*
%TO.C,U2*%
X163570000Y-76995000D03*
X163570000Y-75725000D03*
X163570000Y-74455000D03*
X163570000Y-73185000D03*
X163570000Y-71915000D03*
X163570000Y-70645000D03*
X163570000Y-69375000D03*
X163570000Y-68105000D03*
X163570000Y-66835000D03*
X163570000Y-65565000D03*
X163570000Y-64295000D03*
X163570000Y-63025000D03*
X172870000Y-63025000D03*
X172870000Y-64295000D03*
X172870000Y-65565000D03*
X172870000Y-66835000D03*
X172870000Y-68105000D03*
X172870000Y-69375000D03*
X172870000Y-70645000D03*
X172870000Y-71915000D03*
X172870000Y-73185000D03*
X172870000Y-74455000D03*
X172870000Y-75725000D03*
X172870000Y-76995000D03*
%TD*%
M02*
