%TF.GenerationSoftware,KiCad,Pcbnew,(6.0.10)*%
%TF.CreationDate,2023-11-27T04:30:22+11:00*%
%TF.ProjectId,Digislate,44696769-736c-4617-9465-2e6b69636164,rev?*%
%TF.SameCoordinates,Original*%
%TF.FileFunction,Legend,Top*%
%TF.FilePolarity,Positive*%
%FSLAX46Y46*%
G04 Gerber Fmt 4.6, Leading zero omitted, Abs format (unit mm)*
G04 Created by KiCad (PCBNEW (6.0.10)) date 2023-11-27 04:30:22*
%MOMM*%
%LPD*%
G01*
G04 APERTURE LIST*
%ADD10C,0.150000*%
%ADD11C,1.125000*%
%ADD12C,0.300000*%
%ADD13C,0.450000*%
%ADD14C,1.500000*%
%ADD15C,2.500000*%
%ADD16C,4.500000*%
%ADD17C,0.120000*%
G04 APERTURE END LIST*
D10*
X21676000Y-132754000D02*
X55966000Y-132754000D01*
X55966000Y-132754000D02*
X55966000Y-138088000D01*
X55966000Y-138088000D02*
X21676000Y-138088000D01*
X21676000Y-138088000D02*
X21676000Y-132754000D01*
X25551904Y-31282380D02*
X25218571Y-30806190D01*
X24980476Y-31282380D02*
X24980476Y-30282380D01*
X25361428Y-30282380D01*
X25456666Y-30330000D01*
X25504285Y-30377619D01*
X25551904Y-30472857D01*
X25551904Y-30615714D01*
X25504285Y-30710952D01*
X25456666Y-30758571D01*
X25361428Y-30806190D01*
X24980476Y-30806190D01*
X26361428Y-31234761D02*
X26266190Y-31282380D01*
X26075714Y-31282380D01*
X25980476Y-31234761D01*
X25932857Y-31139523D01*
X25932857Y-30758571D01*
X25980476Y-30663333D01*
X26075714Y-30615714D01*
X26266190Y-30615714D01*
X26361428Y-30663333D01*
X26409047Y-30758571D01*
X26409047Y-30853809D01*
X25932857Y-30949047D01*
X27218571Y-31234761D02*
X27123333Y-31282380D01*
X26932857Y-31282380D01*
X26837619Y-31234761D01*
X26790000Y-31139523D01*
X26790000Y-30758571D01*
X26837619Y-30663333D01*
X26932857Y-30615714D01*
X27123333Y-30615714D01*
X27218571Y-30663333D01*
X27266190Y-30758571D01*
X27266190Y-30853809D01*
X26790000Y-30949047D01*
X28123333Y-31282380D02*
X28123333Y-30282380D01*
X28123333Y-31234761D02*
X28028095Y-31282380D01*
X27837619Y-31282380D01*
X27742380Y-31234761D01*
X27694761Y-31187142D01*
X27647142Y-31091904D01*
X27647142Y-30806190D01*
X27694761Y-30710952D01*
X27742380Y-30663333D01*
X27837619Y-30615714D01*
X28028095Y-30615714D01*
X28123333Y-30663333D01*
X29313809Y-31234761D02*
X29456666Y-31282380D01*
X29694761Y-31282380D01*
X29790000Y-31234761D01*
X29837619Y-31187142D01*
X29885238Y-31091904D01*
X29885238Y-30996666D01*
X29837619Y-30901428D01*
X29790000Y-30853809D01*
X29694761Y-30806190D01*
X29504285Y-30758571D01*
X29409047Y-30710952D01*
X29361428Y-30663333D01*
X29313809Y-30568095D01*
X29313809Y-30472857D01*
X29361428Y-30377619D01*
X29409047Y-30330000D01*
X29504285Y-30282380D01*
X29742380Y-30282380D01*
X29885238Y-30330000D01*
X30218571Y-30615714D02*
X30409047Y-31282380D01*
X30599523Y-30806190D01*
X30790000Y-31282380D01*
X30980476Y-30615714D01*
X31361428Y-31282380D02*
X31361428Y-30615714D01*
X31361428Y-30282380D02*
X31313809Y-30330000D01*
X31361428Y-30377619D01*
X31409047Y-30330000D01*
X31361428Y-30282380D01*
X31361428Y-30377619D01*
X31694761Y-30615714D02*
X32075714Y-30615714D01*
X31837619Y-30282380D02*
X31837619Y-31139523D01*
X31885238Y-31234761D01*
X31980476Y-31282380D01*
X32075714Y-31282380D01*
X32837619Y-31234761D02*
X32742380Y-31282380D01*
X32551904Y-31282380D01*
X32456666Y-31234761D01*
X32409047Y-31187142D01*
X32361428Y-31091904D01*
X32361428Y-30806190D01*
X32409047Y-30710952D01*
X32456666Y-30663333D01*
X32551904Y-30615714D01*
X32742380Y-30615714D01*
X32837619Y-30663333D01*
X33266190Y-31282380D02*
X33266190Y-30282380D01*
X33694761Y-31282380D02*
X33694761Y-30758571D01*
X33647142Y-30663333D01*
X33551904Y-30615714D01*
X33409047Y-30615714D01*
X33313809Y-30663333D01*
X33266190Y-30710952D01*
X34790000Y-30282380D02*
X35361428Y-30282380D01*
X35075714Y-31282380D02*
X35075714Y-30282380D01*
X35694761Y-31282380D02*
X35694761Y-30615714D01*
X35694761Y-30806190D02*
X35742380Y-30710952D01*
X35790000Y-30663333D01*
X35885238Y-30615714D01*
X35980476Y-30615714D01*
X36313809Y-31282380D02*
X36313809Y-30615714D01*
X36313809Y-30282380D02*
X36266190Y-30330000D01*
X36313809Y-30377619D01*
X36361428Y-30330000D01*
X36313809Y-30282380D01*
X36313809Y-30377619D01*
X37218571Y-30615714D02*
X37218571Y-31425238D01*
X37170952Y-31520476D01*
X37123333Y-31568095D01*
X37028095Y-31615714D01*
X36885238Y-31615714D01*
X36790000Y-31568095D01*
X37218571Y-31234761D02*
X37123333Y-31282380D01*
X36932857Y-31282380D01*
X36837619Y-31234761D01*
X36790000Y-31187142D01*
X36742380Y-31091904D01*
X36742380Y-30806190D01*
X36790000Y-30710952D01*
X36837619Y-30663333D01*
X36932857Y-30615714D01*
X37123333Y-30615714D01*
X37218571Y-30663333D01*
X38123333Y-30615714D02*
X38123333Y-31425238D01*
X38075714Y-31520476D01*
X38028095Y-31568095D01*
X37932857Y-31615714D01*
X37790000Y-31615714D01*
X37694761Y-31568095D01*
X38123333Y-31234761D02*
X38028095Y-31282380D01*
X37837619Y-31282380D01*
X37742380Y-31234761D01*
X37694761Y-31187142D01*
X37647142Y-31091904D01*
X37647142Y-30806190D01*
X37694761Y-30710952D01*
X37742380Y-30663333D01*
X37837619Y-30615714D01*
X38028095Y-30615714D01*
X38123333Y-30663333D01*
X38980476Y-31234761D02*
X38885238Y-31282380D01*
X38694761Y-31282380D01*
X38599523Y-31234761D01*
X38551904Y-31139523D01*
X38551904Y-30758571D01*
X38599523Y-30663333D01*
X38694761Y-30615714D01*
X38885238Y-30615714D01*
X38980476Y-30663333D01*
X39028095Y-30758571D01*
X39028095Y-30853809D01*
X38551904Y-30949047D01*
X39456666Y-31282380D02*
X39456666Y-30615714D01*
X39456666Y-30806190D02*
X39504285Y-30710952D01*
X39551904Y-30663333D01*
X39647142Y-30615714D01*
X39742380Y-30615714D01*
D11*
X249244285Y-45958571D02*
X247744285Y-45958571D01*
X247744285Y-48315714D02*
X247744285Y-43815714D01*
X249887142Y-43815714D01*
X253101428Y-45958571D02*
X251601428Y-45958571D01*
X251601428Y-48315714D02*
X251601428Y-43815714D01*
X253744285Y-43815714D01*
X179121428Y-47941428D02*
X179764285Y-48155714D01*
X180835714Y-48155714D01*
X181264285Y-47941428D01*
X181478571Y-47727142D01*
X181692857Y-47298571D01*
X181692857Y-46870000D01*
X181478571Y-46441428D01*
X181264285Y-46227142D01*
X180835714Y-46012857D01*
X179978571Y-45798571D01*
X179550000Y-45584285D01*
X179335714Y-45370000D01*
X179121428Y-44941428D01*
X179121428Y-44512857D01*
X179335714Y-44084285D01*
X179550000Y-43870000D01*
X179978571Y-43655714D01*
X181050000Y-43655714D01*
X181692857Y-43870000D01*
X183407142Y-47941428D02*
X184050000Y-48155714D01*
X185121428Y-48155714D01*
X185550000Y-47941428D01*
X185764285Y-47727142D01*
X185978571Y-47298571D01*
X185978571Y-46870000D01*
X185764285Y-46441428D01*
X185550000Y-46227142D01*
X185121428Y-46012857D01*
X184264285Y-45798571D01*
X183835714Y-45584285D01*
X183621428Y-45370000D01*
X183407142Y-44941428D01*
X183407142Y-44512857D01*
X183621428Y-44084285D01*
X183835714Y-43870000D01*
X184264285Y-43655714D01*
X185335714Y-43655714D01*
X185978571Y-43870000D01*
D12*
X37422857Y-135810000D02*
X38137142Y-135810000D01*
X37280000Y-136238571D02*
X37780000Y-134738571D01*
X38280000Y-136238571D01*
X38780000Y-136238571D02*
X38780000Y-134738571D01*
X39637142Y-136238571D01*
X39637142Y-134738571D01*
X40137142Y-134738571D02*
X40994285Y-134738571D01*
X40565714Y-136238571D02*
X40565714Y-134738571D01*
X41494285Y-135452857D02*
X41994285Y-135452857D01*
X42208571Y-136238571D02*
X41494285Y-136238571D01*
X41494285Y-134738571D01*
X42208571Y-134738571D01*
X42851428Y-136238571D02*
X42851428Y-134738571D01*
X43708571Y-136238571D01*
X43708571Y-134738571D01*
X44422857Y-136238571D02*
X44422857Y-134738571D01*
X45280000Y-136238571D01*
X45280000Y-134738571D01*
X45922857Y-135810000D02*
X46637142Y-135810000D01*
X45780000Y-136238571D02*
X46280000Y-134738571D01*
X46780000Y-136238571D01*
D13*
X236821428Y-96487142D02*
X236821428Y-93487142D01*
X237821428Y-95630000D01*
X238821428Y-93487142D01*
X238821428Y-96487142D01*
X240678571Y-96487142D02*
X240392857Y-96344285D01*
X240250000Y-96201428D01*
X240107142Y-95915714D01*
X240107142Y-95058571D01*
X240250000Y-94772857D01*
X240392857Y-94630000D01*
X240678571Y-94487142D01*
X241107142Y-94487142D01*
X241392857Y-94630000D01*
X241535714Y-94772857D01*
X241678571Y-95058571D01*
X241678571Y-95915714D01*
X241535714Y-96201428D01*
X241392857Y-96344285D01*
X241107142Y-96487142D01*
X240678571Y-96487142D01*
X244250000Y-96487142D02*
X244250000Y-93487142D01*
X244250000Y-96344285D02*
X243964285Y-96487142D01*
X243392857Y-96487142D01*
X243107142Y-96344285D01*
X242964285Y-96201428D01*
X242821428Y-95915714D01*
X242821428Y-95058571D01*
X242964285Y-94772857D01*
X243107142Y-94630000D01*
X243392857Y-94487142D01*
X243964285Y-94487142D01*
X244250000Y-94630000D01*
X246821428Y-96344285D02*
X246535714Y-96487142D01*
X245964285Y-96487142D01*
X245678571Y-96344285D01*
X245535714Y-96058571D01*
X245535714Y-94915714D01*
X245678571Y-94630000D01*
X245964285Y-94487142D01*
X246535714Y-94487142D01*
X246821428Y-94630000D01*
X246964285Y-94915714D01*
X246964285Y-95201428D01*
X245535714Y-95487142D01*
X248678571Y-96487142D02*
X248392857Y-96344285D01*
X248250000Y-96058571D01*
X248250000Y-93487142D01*
X249821428Y-96201428D02*
X249964285Y-96344285D01*
X249821428Y-96487142D01*
X249678571Y-96344285D01*
X249821428Y-96201428D01*
X249821428Y-96487142D01*
X249821428Y-94630000D02*
X249964285Y-94772857D01*
X249821428Y-94915714D01*
X249678571Y-94772857D01*
X249821428Y-94630000D01*
X249821428Y-94915714D01*
X253392857Y-93772857D02*
X253535714Y-93630000D01*
X253821428Y-93487142D01*
X254535714Y-93487142D01*
X254821428Y-93630000D01*
X254964285Y-93772857D01*
X255107142Y-94058571D01*
X255107142Y-94344285D01*
X254964285Y-94772857D01*
X253250000Y-96487142D01*
X255107142Y-96487142D01*
X256250000Y-96344285D02*
X256678571Y-96487142D01*
X257392857Y-96487142D01*
X257678571Y-96344285D01*
X257821428Y-96201428D01*
X257964285Y-95915714D01*
X257964285Y-95630000D01*
X257821428Y-95344285D01*
X257678571Y-95201428D01*
X257392857Y-95058571D01*
X256821428Y-94915714D01*
X256535714Y-94772857D01*
X256392857Y-94630000D01*
X256250000Y-94344285D01*
X256250000Y-94058571D01*
X256392857Y-93772857D01*
X256535714Y-93630000D01*
X256821428Y-93487142D01*
X257535714Y-93487142D01*
X257964285Y-93630000D01*
X258964285Y-93487142D02*
X259678571Y-96487142D01*
X260250000Y-94344285D01*
X260821428Y-96487142D01*
X261535714Y-93487142D01*
X263678571Y-94915714D02*
X262678571Y-94915714D01*
X262678571Y-96487142D02*
X262678571Y-93487142D01*
X264107142Y-93487142D01*
X265392857Y-96487142D02*
X265964285Y-96487142D01*
X266250000Y-96344285D01*
X266392857Y-96201428D01*
X266678571Y-95772857D01*
X266821428Y-95201428D01*
X266821428Y-94058571D01*
X266678571Y-93772857D01*
X266535714Y-93630000D01*
X266250000Y-93487142D01*
X265678571Y-93487142D01*
X265392857Y-93630000D01*
X265250000Y-93772857D01*
X265107142Y-94058571D01*
X265107142Y-94772857D01*
X265250000Y-95058571D01*
X265392857Y-95201428D01*
X265678571Y-95344285D01*
X266250000Y-95344285D01*
X266535714Y-95201428D01*
X266678571Y-95058571D01*
X266821428Y-94772857D01*
D14*
X125200000Y-39774285D02*
X125200000Y-33774285D01*
X126628571Y-33774285D01*
X127485714Y-34060000D01*
X128057142Y-34631428D01*
X128342857Y-35202857D01*
X128628571Y-36345714D01*
X128628571Y-37202857D01*
X128342857Y-38345714D01*
X128057142Y-38917142D01*
X127485714Y-39488571D01*
X126628571Y-39774285D01*
X125200000Y-39774285D01*
X131200000Y-39774285D02*
X131200000Y-33774285D01*
X137200000Y-34060000D02*
X136628571Y-33774285D01*
X135771428Y-33774285D01*
X134914285Y-34060000D01*
X134342857Y-34631428D01*
X134057142Y-35202857D01*
X133771428Y-36345714D01*
X133771428Y-37202857D01*
X134057142Y-38345714D01*
X134342857Y-38917142D01*
X134914285Y-39488571D01*
X135771428Y-39774285D01*
X136342857Y-39774285D01*
X137200000Y-39488571D01*
X137485714Y-39202857D01*
X137485714Y-37202857D01*
X136342857Y-37202857D01*
X140057142Y-39774285D02*
X140057142Y-33774285D01*
X142914285Y-37488571D02*
X147485714Y-37488571D01*
X150057142Y-39488571D02*
X150914285Y-39774285D01*
X152342857Y-39774285D01*
X152914285Y-39488571D01*
X153200000Y-39202857D01*
X153485714Y-38631428D01*
X153485714Y-38060000D01*
X153200000Y-37488571D01*
X152914285Y-37202857D01*
X152342857Y-36917142D01*
X151200000Y-36631428D01*
X150628571Y-36345714D01*
X150342857Y-36060000D01*
X150057142Y-35488571D01*
X150057142Y-34917142D01*
X150342857Y-34345714D01*
X150628571Y-34060000D01*
X151200000Y-33774285D01*
X152628571Y-33774285D01*
X153485714Y-34060000D01*
X158914285Y-39774285D02*
X156057142Y-39774285D01*
X156057142Y-33774285D01*
X160628571Y-38060000D02*
X163485714Y-38060000D01*
X160057142Y-39774285D02*
X162057142Y-33774285D01*
X164057142Y-39774285D01*
X165200000Y-33774285D02*
X168628571Y-33774285D01*
X166914285Y-39774285D02*
X166914285Y-33774285D01*
X170628571Y-36631428D02*
X172628571Y-36631428D01*
X173485714Y-39774285D02*
X170628571Y-39774285D01*
X170628571Y-33774285D01*
X173485714Y-33774285D01*
D10*
X61409047Y-137332380D02*
X61742380Y-138332380D01*
X62075714Y-137332380D01*
X62790000Y-138284761D02*
X62694761Y-138332380D01*
X62504285Y-138332380D01*
X62409047Y-138284761D01*
X62361428Y-138189523D01*
X62361428Y-137808571D01*
X62409047Y-137713333D01*
X62504285Y-137665714D01*
X62694761Y-137665714D01*
X62790000Y-137713333D01*
X62837619Y-137808571D01*
X62837619Y-137903809D01*
X62361428Y-137999047D01*
X63266190Y-138332380D02*
X63266190Y-137665714D01*
X63266190Y-137856190D02*
X63313809Y-137760952D01*
X63361428Y-137713333D01*
X63456666Y-137665714D01*
X63551904Y-137665714D01*
X63885238Y-138237142D02*
X63932857Y-138284761D01*
X63885238Y-138332380D01*
X63837619Y-138284761D01*
X63885238Y-138237142D01*
X63885238Y-138332380D01*
X63885238Y-137713333D02*
X63932857Y-137760952D01*
X63885238Y-137808571D01*
X63837619Y-137760952D01*
X63885238Y-137713333D01*
X63885238Y-137808571D01*
X65647142Y-138332380D02*
X65075714Y-138332380D01*
X65361428Y-138332380D02*
X65361428Y-137332380D01*
X65266190Y-137475238D01*
X65170952Y-137570476D01*
X65075714Y-137618095D01*
X66075714Y-138237142D02*
X66123333Y-138284761D01*
X66075714Y-138332380D01*
X66028095Y-138284761D01*
X66075714Y-138237142D01*
X66075714Y-138332380D01*
X66742380Y-137332380D02*
X66837619Y-137332380D01*
X66932857Y-137380000D01*
X66980476Y-137427619D01*
X67028095Y-137522857D01*
X67075714Y-137713333D01*
X67075714Y-137951428D01*
X67028095Y-138141904D01*
X66980476Y-138237142D01*
X66932857Y-138284761D01*
X66837619Y-138332380D01*
X66742380Y-138332380D01*
X66647142Y-138284761D01*
X66599523Y-138237142D01*
X66551904Y-138141904D01*
X66504285Y-137951428D01*
X66504285Y-137713333D01*
X66551904Y-137522857D01*
X66599523Y-137427619D01*
X66647142Y-137380000D01*
X66742380Y-137332380D01*
D11*
X50192857Y-47565714D02*
X50192857Y-43065714D01*
X50192857Y-45208571D02*
X47621428Y-45208571D01*
X47621428Y-47565714D02*
X47621428Y-43065714D01*
X45478571Y-47565714D02*
X45478571Y-43065714D01*
X45478571Y-45208571D02*
X42907142Y-45208571D01*
X42907142Y-47565714D02*
X42907142Y-43065714D01*
X110348571Y-47885714D02*
X110348571Y-43385714D01*
X111848571Y-46600000D01*
X113348571Y-43385714D01*
X113348571Y-47885714D01*
X115491428Y-47885714D02*
X115491428Y-43385714D01*
X116991428Y-46600000D01*
X118491428Y-43385714D01*
X118491428Y-47885714D01*
D10*
%TO.C,R13*%
X81147142Y-55262380D02*
X80813809Y-54786190D01*
X80575714Y-55262380D02*
X80575714Y-54262380D01*
X80956666Y-54262380D01*
X81051904Y-54310000D01*
X81099523Y-54357619D01*
X81147142Y-54452857D01*
X81147142Y-54595714D01*
X81099523Y-54690952D01*
X81051904Y-54738571D01*
X80956666Y-54786190D01*
X80575714Y-54786190D01*
X82099523Y-55262380D02*
X81528095Y-55262380D01*
X81813809Y-55262380D02*
X81813809Y-54262380D01*
X81718571Y-54405238D01*
X81623333Y-54500476D01*
X81528095Y-54548095D01*
X82432857Y-54262380D02*
X83051904Y-54262380D01*
X82718571Y-54643333D01*
X82861428Y-54643333D01*
X82956666Y-54690952D01*
X83004285Y-54738571D01*
X83051904Y-54833809D01*
X83051904Y-55071904D01*
X83004285Y-55167142D01*
X82956666Y-55214761D01*
X82861428Y-55262380D01*
X82575714Y-55262380D01*
X82480476Y-55214761D01*
X82432857Y-55167142D01*
%TO.C,LD8*%
X146663333Y-78102380D02*
X146187142Y-78102380D01*
X146187142Y-77102380D01*
X146996666Y-78102380D02*
X146996666Y-77102380D01*
X147234761Y-77102380D01*
X147377619Y-77150000D01*
X147472857Y-77245238D01*
X147520476Y-77340476D01*
X147568095Y-77530952D01*
X147568095Y-77673809D01*
X147520476Y-77864285D01*
X147472857Y-77959523D01*
X147377619Y-78054761D01*
X147234761Y-78102380D01*
X146996666Y-78102380D01*
X148139523Y-77530952D02*
X148044285Y-77483333D01*
X147996666Y-77435714D01*
X147949047Y-77340476D01*
X147949047Y-77292857D01*
X147996666Y-77197619D01*
X148044285Y-77150000D01*
X148139523Y-77102380D01*
X148330000Y-77102380D01*
X148425238Y-77150000D01*
X148472857Y-77197619D01*
X148520476Y-77292857D01*
X148520476Y-77340476D01*
X148472857Y-77435714D01*
X148425238Y-77483333D01*
X148330000Y-77530952D01*
X148139523Y-77530952D01*
X148044285Y-77578571D01*
X147996666Y-77626190D01*
X147949047Y-77721428D01*
X147949047Y-77911904D01*
X147996666Y-78007142D01*
X148044285Y-78054761D01*
X148139523Y-78102380D01*
X148330000Y-78102380D01*
X148425238Y-78054761D01*
X148472857Y-78007142D01*
X148520476Y-77911904D01*
X148520476Y-77721428D01*
X148472857Y-77626190D01*
X148425238Y-77578571D01*
X148330000Y-77530952D01*
%TO.C,R3*%
X108152380Y-123166666D02*
X107676190Y-123500000D01*
X108152380Y-123738095D02*
X107152380Y-123738095D01*
X107152380Y-123357142D01*
X107200000Y-123261904D01*
X107247619Y-123214285D01*
X107342857Y-123166666D01*
X107485714Y-123166666D01*
X107580952Y-123214285D01*
X107628571Y-123261904D01*
X107676190Y-123357142D01*
X107676190Y-123738095D01*
X107152380Y-122833333D02*
X107152380Y-122214285D01*
X107533333Y-122547619D01*
X107533333Y-122404761D01*
X107580952Y-122309523D01*
X107628571Y-122261904D01*
X107723809Y-122214285D01*
X107961904Y-122214285D01*
X108057142Y-122261904D01*
X108104761Y-122309523D01*
X108152380Y-122404761D01*
X108152380Y-122690476D01*
X108104761Y-122785714D01*
X108057142Y-122833333D01*
%TO.C,U3*%
X233338095Y-109752380D02*
X233338095Y-110561904D01*
X233385714Y-110657142D01*
X233433333Y-110704761D01*
X233528571Y-110752380D01*
X233719047Y-110752380D01*
X233814285Y-110704761D01*
X233861904Y-110657142D01*
X233909523Y-110561904D01*
X233909523Y-109752380D01*
X234290476Y-109752380D02*
X234909523Y-109752380D01*
X234576190Y-110133333D01*
X234719047Y-110133333D01*
X234814285Y-110180952D01*
X234861904Y-110228571D01*
X234909523Y-110323809D01*
X234909523Y-110561904D01*
X234861904Y-110657142D01*
X234814285Y-110704761D01*
X234719047Y-110752380D01*
X234433333Y-110752380D01*
X234338095Y-110704761D01*
X234290476Y-110657142D01*
%TO.C,R6*%
X93633333Y-122352380D02*
X93300000Y-121876190D01*
X93061904Y-122352380D02*
X93061904Y-121352380D01*
X93442857Y-121352380D01*
X93538095Y-121400000D01*
X93585714Y-121447619D01*
X93633333Y-121542857D01*
X93633333Y-121685714D01*
X93585714Y-121780952D01*
X93538095Y-121828571D01*
X93442857Y-121876190D01*
X93061904Y-121876190D01*
X94490476Y-121352380D02*
X94300000Y-121352380D01*
X94204761Y-121400000D01*
X94157142Y-121447619D01*
X94061904Y-121590476D01*
X94014285Y-121780952D01*
X94014285Y-122161904D01*
X94061904Y-122257142D01*
X94109523Y-122304761D01*
X94204761Y-122352380D01*
X94395238Y-122352380D01*
X94490476Y-122304761D01*
X94538095Y-122257142D01*
X94585714Y-122161904D01*
X94585714Y-121923809D01*
X94538095Y-121828571D01*
X94490476Y-121780952D01*
X94395238Y-121733333D01*
X94204761Y-121733333D01*
X94109523Y-121780952D01*
X94061904Y-121828571D01*
X94014285Y-121923809D01*
%TO.C,HR1*%
X30838095Y-62352380D02*
X30838095Y-61352380D01*
X30838095Y-61828571D02*
X31409523Y-61828571D01*
X31409523Y-62352380D02*
X31409523Y-61352380D01*
X32457142Y-62352380D02*
X32123809Y-61876190D01*
X31885714Y-62352380D02*
X31885714Y-61352380D01*
X32266666Y-61352380D01*
X32361904Y-61400000D01*
X32409523Y-61447619D01*
X32457142Y-61542857D01*
X32457142Y-61685714D01*
X32409523Y-61780952D01*
X32361904Y-61828571D01*
X32266666Y-61876190D01*
X31885714Y-61876190D01*
X33409523Y-62352380D02*
X32838095Y-62352380D01*
X33123809Y-62352380D02*
X33123809Y-61352380D01*
X33028571Y-61495238D01*
X32933333Y-61590476D01*
X32838095Y-61638095D01*
D15*
X39200000Y-83671428D02*
X39676190Y-84147619D01*
X39200000Y-84623809D01*
X38723809Y-84147619D01*
X39200000Y-83671428D01*
X39200000Y-84623809D01*
D16*
X29944404Y-67866666D02*
X28206309Y-66533333D01*
X27420595Y-65200000D01*
X26801547Y-62533333D01*
X26968214Y-61200000D01*
X28253928Y-58533333D01*
X29372976Y-57200000D01*
X31444404Y-55866666D01*
X35253928Y-55866666D01*
X36992023Y-57200000D01*
X37777738Y-58533333D01*
X38396785Y-61200000D01*
X38230119Y-62533333D01*
X36944404Y-65200000D01*
X35825357Y-66533333D01*
X33753928Y-67866666D01*
X29944404Y-67866666D01*
X27872976Y-69200000D01*
X26753928Y-70533333D01*
X25468214Y-73200000D01*
X24801547Y-78533333D01*
X25420595Y-81200000D01*
X26206309Y-82533333D01*
X27944404Y-83866666D01*
X31753928Y-83866666D01*
X33825357Y-82533333D01*
X34944404Y-81200000D01*
X36230119Y-78533333D01*
X36896785Y-73200000D01*
X36277738Y-70533333D01*
X35492023Y-69200000D01*
X33753928Y-67866666D01*
D10*
%TO.C,U1*%
X157138095Y-111252380D02*
X157138095Y-112061904D01*
X157185714Y-112157142D01*
X157233333Y-112204761D01*
X157328571Y-112252380D01*
X157519047Y-112252380D01*
X157614285Y-112204761D01*
X157661904Y-112157142D01*
X157709523Y-112061904D01*
X157709523Y-111252380D01*
X158709523Y-112252380D02*
X158138095Y-112252380D01*
X158423809Y-112252380D02*
X158423809Y-111252380D01*
X158328571Y-111395238D01*
X158233333Y-111490476D01*
X158138095Y-111538095D01*
%TO.C,HR2*%
X59838095Y-62352380D02*
X59838095Y-61352380D01*
X59838095Y-61828571D02*
X60409523Y-61828571D01*
X60409523Y-62352380D02*
X60409523Y-61352380D01*
X61457142Y-62352380D02*
X61123809Y-61876190D01*
X60885714Y-62352380D02*
X60885714Y-61352380D01*
X61266666Y-61352380D01*
X61361904Y-61400000D01*
X61409523Y-61447619D01*
X61457142Y-61542857D01*
X61457142Y-61685714D01*
X61409523Y-61780952D01*
X61361904Y-61828571D01*
X61266666Y-61876190D01*
X60885714Y-61876190D01*
X61838095Y-61447619D02*
X61885714Y-61400000D01*
X61980952Y-61352380D01*
X62219047Y-61352380D01*
X62314285Y-61400000D01*
X62361904Y-61447619D01*
X62409523Y-61542857D01*
X62409523Y-61638095D01*
X62361904Y-61780952D01*
X61790476Y-62352380D01*
X62409523Y-62352380D01*
D16*
X58944404Y-67866666D02*
X57206309Y-66533333D01*
X56420595Y-65200000D01*
X55801547Y-62533333D01*
X55968214Y-61200000D01*
X57253928Y-58533333D01*
X58372976Y-57200000D01*
X60444404Y-55866666D01*
X64253928Y-55866666D01*
X65992023Y-57200000D01*
X66777738Y-58533333D01*
X67396785Y-61200000D01*
X67230119Y-62533333D01*
X65944404Y-65200000D01*
X64825357Y-66533333D01*
X62753928Y-67866666D01*
X58944404Y-67866666D01*
X56872976Y-69200000D01*
X55753928Y-70533333D01*
X54468214Y-73200000D01*
X53801547Y-78533333D01*
X54420595Y-81200000D01*
X55206309Y-82533333D01*
X56944404Y-83866666D01*
X60753928Y-83866666D01*
X62825357Y-82533333D01*
X63944404Y-81200000D01*
X65230119Y-78533333D01*
X65896785Y-73200000D01*
X65277738Y-70533333D01*
X64492023Y-69200000D01*
X62753928Y-67866666D01*
D15*
X68200000Y-83671428D02*
X68676190Y-84147619D01*
X68200000Y-84623809D01*
X67723809Y-84147619D01*
X68200000Y-83671428D01*
X68200000Y-84623809D01*
D10*
%TO.C,R2*%
X171933333Y-129752380D02*
X171600000Y-129276190D01*
X171361904Y-129752380D02*
X171361904Y-128752380D01*
X171742857Y-128752380D01*
X171838095Y-128800000D01*
X171885714Y-128847619D01*
X171933333Y-128942857D01*
X171933333Y-129085714D01*
X171885714Y-129180952D01*
X171838095Y-129228571D01*
X171742857Y-129276190D01*
X171361904Y-129276190D01*
X172314285Y-128847619D02*
X172361904Y-128800000D01*
X172457142Y-128752380D01*
X172695238Y-128752380D01*
X172790476Y-128800000D01*
X172838095Y-128847619D01*
X172885714Y-128942857D01*
X172885714Y-129038095D01*
X172838095Y-129180952D01*
X172266666Y-129752380D01*
X172885714Y-129752380D01*
%TO.C,LD2*%
X79863333Y-39282380D02*
X79387142Y-39282380D01*
X79387142Y-38282380D01*
X80196666Y-39282380D02*
X80196666Y-38282380D01*
X80434761Y-38282380D01*
X80577619Y-38330000D01*
X80672857Y-38425238D01*
X80720476Y-38520476D01*
X80768095Y-38710952D01*
X80768095Y-38853809D01*
X80720476Y-39044285D01*
X80672857Y-39139523D01*
X80577619Y-39234761D01*
X80434761Y-39282380D01*
X80196666Y-39282380D01*
X81149047Y-38377619D02*
X81196666Y-38330000D01*
X81291904Y-38282380D01*
X81530000Y-38282380D01*
X81625238Y-38330000D01*
X81672857Y-38377619D01*
X81720476Y-38472857D01*
X81720476Y-38568095D01*
X81672857Y-38710952D01*
X81101428Y-39282380D01*
X81720476Y-39282380D01*
%TO.C,R5*%
X104933333Y-117952380D02*
X104600000Y-117476190D01*
X104361904Y-117952380D02*
X104361904Y-116952380D01*
X104742857Y-116952380D01*
X104838095Y-117000000D01*
X104885714Y-117047619D01*
X104933333Y-117142857D01*
X104933333Y-117285714D01*
X104885714Y-117380952D01*
X104838095Y-117428571D01*
X104742857Y-117476190D01*
X104361904Y-117476190D01*
X105838095Y-116952380D02*
X105361904Y-116952380D01*
X105314285Y-117428571D01*
X105361904Y-117380952D01*
X105457142Y-117333333D01*
X105695238Y-117333333D01*
X105790476Y-117380952D01*
X105838095Y-117428571D01*
X105885714Y-117523809D01*
X105885714Y-117761904D01*
X105838095Y-117857142D01*
X105790476Y-117904761D01*
X105695238Y-117952380D01*
X105457142Y-117952380D01*
X105361904Y-117904761D01*
X105314285Y-117857142D01*
%TO.C,R8*%
X38673333Y-119902380D02*
X38340000Y-119426190D01*
X38101904Y-119902380D02*
X38101904Y-118902380D01*
X38482857Y-118902380D01*
X38578095Y-118950000D01*
X38625714Y-118997619D01*
X38673333Y-119092857D01*
X38673333Y-119235714D01*
X38625714Y-119330952D01*
X38578095Y-119378571D01*
X38482857Y-119426190D01*
X38101904Y-119426190D01*
X39244761Y-119330952D02*
X39149523Y-119283333D01*
X39101904Y-119235714D01*
X39054285Y-119140476D01*
X39054285Y-119092857D01*
X39101904Y-118997619D01*
X39149523Y-118950000D01*
X39244761Y-118902380D01*
X39435238Y-118902380D01*
X39530476Y-118950000D01*
X39578095Y-118997619D01*
X39625714Y-119092857D01*
X39625714Y-119140476D01*
X39578095Y-119235714D01*
X39530476Y-119283333D01*
X39435238Y-119330952D01*
X39244761Y-119330952D01*
X39149523Y-119378571D01*
X39101904Y-119426190D01*
X39054285Y-119521428D01*
X39054285Y-119711904D01*
X39101904Y-119807142D01*
X39149523Y-119854761D01*
X39244761Y-119902380D01*
X39435238Y-119902380D01*
X39530476Y-119854761D01*
X39578095Y-119807142D01*
X39625714Y-119711904D01*
X39625714Y-119521428D01*
X39578095Y-119426190D01*
X39530476Y-119378571D01*
X39435238Y-119330952D01*
%TO.C,R18*%
X190652380Y-128142857D02*
X190176190Y-128476190D01*
X190652380Y-128714285D02*
X189652380Y-128714285D01*
X189652380Y-128333333D01*
X189700000Y-128238095D01*
X189747619Y-128190476D01*
X189842857Y-128142857D01*
X189985714Y-128142857D01*
X190080952Y-128190476D01*
X190128571Y-128238095D01*
X190176190Y-128333333D01*
X190176190Y-128714285D01*
X190652380Y-127190476D02*
X190652380Y-127761904D01*
X190652380Y-127476190D02*
X189652380Y-127476190D01*
X189795238Y-127571428D01*
X189890476Y-127666666D01*
X189938095Y-127761904D01*
X190080952Y-126619047D02*
X190033333Y-126714285D01*
X189985714Y-126761904D01*
X189890476Y-126809523D01*
X189842857Y-126809523D01*
X189747619Y-126761904D01*
X189700000Y-126714285D01*
X189652380Y-126619047D01*
X189652380Y-126428571D01*
X189700000Y-126333333D01*
X189747619Y-126285714D01*
X189842857Y-126238095D01*
X189890476Y-126238095D01*
X189985714Y-126285714D01*
X190033333Y-126333333D01*
X190080952Y-126428571D01*
X190080952Y-126619047D01*
X190128571Y-126714285D01*
X190176190Y-126761904D01*
X190271428Y-126809523D01*
X190461904Y-126809523D01*
X190557142Y-126761904D01*
X190604761Y-126714285D01*
X190652380Y-126619047D01*
X190652380Y-126428571D01*
X190604761Y-126333333D01*
X190557142Y-126285714D01*
X190461904Y-126238095D01*
X190271428Y-126238095D01*
X190176190Y-126285714D01*
X190128571Y-126333333D01*
X190080952Y-126428571D01*
%TO.C,SW2*%
X29216666Y-28354761D02*
X29359523Y-28402380D01*
X29597619Y-28402380D01*
X29692857Y-28354761D01*
X29740476Y-28307142D01*
X29788095Y-28211904D01*
X29788095Y-28116666D01*
X29740476Y-28021428D01*
X29692857Y-27973809D01*
X29597619Y-27926190D01*
X29407142Y-27878571D01*
X29311904Y-27830952D01*
X29264285Y-27783333D01*
X29216666Y-27688095D01*
X29216666Y-27592857D01*
X29264285Y-27497619D01*
X29311904Y-27450000D01*
X29407142Y-27402380D01*
X29645238Y-27402380D01*
X29788095Y-27450000D01*
X30121428Y-27402380D02*
X30359523Y-28402380D01*
X30550000Y-27688095D01*
X30740476Y-28402380D01*
X30978571Y-27402380D01*
X31311904Y-27497619D02*
X31359523Y-27450000D01*
X31454761Y-27402380D01*
X31692857Y-27402380D01*
X31788095Y-27450000D01*
X31835714Y-27497619D01*
X31883333Y-27592857D01*
X31883333Y-27688095D01*
X31835714Y-27830952D01*
X31264285Y-28402380D01*
X31883333Y-28402380D01*
%TO.C,Q4*%
X96104761Y-115847619D02*
X96009523Y-115800000D01*
X95914285Y-115704761D01*
X95771428Y-115561904D01*
X95676190Y-115514285D01*
X95580952Y-115514285D01*
X95628571Y-115752380D02*
X95533333Y-115704761D01*
X95438095Y-115609523D01*
X95390476Y-115419047D01*
X95390476Y-115085714D01*
X95438095Y-114895238D01*
X95533333Y-114800000D01*
X95628571Y-114752380D01*
X95819047Y-114752380D01*
X95914285Y-114800000D01*
X96009523Y-114895238D01*
X96057142Y-115085714D01*
X96057142Y-115419047D01*
X96009523Y-115609523D01*
X95914285Y-115704761D01*
X95819047Y-115752380D01*
X95628571Y-115752380D01*
X96914285Y-115085714D02*
X96914285Y-115752380D01*
X96676190Y-114704761D02*
X96438095Y-115419047D01*
X97057142Y-115419047D01*
%TO.C,U10*%
X26561904Y-116552380D02*
X26561904Y-117361904D01*
X26609523Y-117457142D01*
X26657142Y-117504761D01*
X26752380Y-117552380D01*
X26942857Y-117552380D01*
X27038095Y-117504761D01*
X27085714Y-117457142D01*
X27133333Y-117361904D01*
X27133333Y-116552380D01*
X28133333Y-117552380D02*
X27561904Y-117552380D01*
X27847619Y-117552380D02*
X27847619Y-116552380D01*
X27752380Y-116695238D01*
X27657142Y-116790476D01*
X27561904Y-116838095D01*
X28752380Y-116552380D02*
X28847619Y-116552380D01*
X28942857Y-116600000D01*
X28990476Y-116647619D01*
X29038095Y-116742857D01*
X29085714Y-116933333D01*
X29085714Y-117171428D01*
X29038095Y-117361904D01*
X28990476Y-117457142D01*
X28942857Y-117504761D01*
X28847619Y-117552380D01*
X28752380Y-117552380D01*
X28657142Y-117504761D01*
X28609523Y-117457142D01*
X28561904Y-117361904D01*
X28514285Y-117171428D01*
X28514285Y-116933333D01*
X28561904Y-116742857D01*
X28609523Y-116647619D01*
X28657142Y-116600000D01*
X28752380Y-116552380D01*
%TO.C,C8*%
X38563333Y-129427142D02*
X38515714Y-129474761D01*
X38372857Y-129522380D01*
X38277619Y-129522380D01*
X38134761Y-129474761D01*
X38039523Y-129379523D01*
X37991904Y-129284285D01*
X37944285Y-129093809D01*
X37944285Y-128950952D01*
X37991904Y-128760476D01*
X38039523Y-128665238D01*
X38134761Y-128570000D01*
X38277619Y-128522380D01*
X38372857Y-128522380D01*
X38515714Y-128570000D01*
X38563333Y-128617619D01*
X39134761Y-128950952D02*
X39039523Y-128903333D01*
X38991904Y-128855714D01*
X38944285Y-128760476D01*
X38944285Y-128712857D01*
X38991904Y-128617619D01*
X39039523Y-128570000D01*
X39134761Y-128522380D01*
X39325238Y-128522380D01*
X39420476Y-128570000D01*
X39468095Y-128617619D01*
X39515714Y-128712857D01*
X39515714Y-128760476D01*
X39468095Y-128855714D01*
X39420476Y-128903333D01*
X39325238Y-128950952D01*
X39134761Y-128950952D01*
X39039523Y-128998571D01*
X38991904Y-129046190D01*
X38944285Y-129141428D01*
X38944285Y-129331904D01*
X38991904Y-129427142D01*
X39039523Y-129474761D01*
X39134761Y-129522380D01*
X39325238Y-129522380D01*
X39420476Y-129474761D01*
X39468095Y-129427142D01*
X39515714Y-129331904D01*
X39515714Y-129141428D01*
X39468095Y-129046190D01*
X39420476Y-128998571D01*
X39325238Y-128950952D01*
%TO.C,SC1*%
X166838095Y-62304761D02*
X166980952Y-62352380D01*
X167219047Y-62352380D01*
X167314285Y-62304761D01*
X167361904Y-62257142D01*
X167409523Y-62161904D01*
X167409523Y-62066666D01*
X167361904Y-61971428D01*
X167314285Y-61923809D01*
X167219047Y-61876190D01*
X167028571Y-61828571D01*
X166933333Y-61780952D01*
X166885714Y-61733333D01*
X166838095Y-61638095D01*
X166838095Y-61542857D01*
X166885714Y-61447619D01*
X166933333Y-61400000D01*
X167028571Y-61352380D01*
X167266666Y-61352380D01*
X167409523Y-61400000D01*
X168409523Y-62257142D02*
X168361904Y-62304761D01*
X168219047Y-62352380D01*
X168123809Y-62352380D01*
X167980952Y-62304761D01*
X167885714Y-62209523D01*
X167838095Y-62114285D01*
X167790476Y-61923809D01*
X167790476Y-61780952D01*
X167838095Y-61590476D01*
X167885714Y-61495238D01*
X167980952Y-61400000D01*
X168123809Y-61352380D01*
X168219047Y-61352380D01*
X168361904Y-61400000D01*
X168409523Y-61447619D01*
X169361904Y-62352380D02*
X168790476Y-62352380D01*
X169076190Y-62352380D02*
X169076190Y-61352380D01*
X168980952Y-61495238D01*
X168885714Y-61590476D01*
X168790476Y-61638095D01*
D15*
X175200000Y-83671428D02*
X175676190Y-84147619D01*
X175200000Y-84623809D01*
X174723809Y-84147619D01*
X175200000Y-83671428D01*
X175200000Y-84623809D01*
D16*
X165944404Y-67866666D02*
X164206309Y-66533333D01*
X163420595Y-65200000D01*
X162801547Y-62533333D01*
X162968214Y-61200000D01*
X164253928Y-58533333D01*
X165372976Y-57200000D01*
X167444404Y-55866666D01*
X171253928Y-55866666D01*
X172992023Y-57200000D01*
X173777738Y-58533333D01*
X174396785Y-61200000D01*
X174230119Y-62533333D01*
X172944404Y-65200000D01*
X171825357Y-66533333D01*
X169753928Y-67866666D01*
X165944404Y-67866666D01*
X163872976Y-69200000D01*
X162753928Y-70533333D01*
X161468214Y-73200000D01*
X160801547Y-78533333D01*
X161420595Y-81200000D01*
X162206309Y-82533333D01*
X163944404Y-83866666D01*
X167753928Y-83866666D01*
X169825357Y-82533333D01*
X170944404Y-81200000D01*
X172230119Y-78533333D01*
X172896785Y-73200000D01*
X172277738Y-70533333D01*
X171492023Y-69200000D01*
X169753928Y-67866666D01*
D10*
%TO.C,LD4*%
X78613333Y-78102380D02*
X78137142Y-78102380D01*
X78137142Y-77102380D01*
X78946666Y-78102380D02*
X78946666Y-77102380D01*
X79184761Y-77102380D01*
X79327619Y-77150000D01*
X79422857Y-77245238D01*
X79470476Y-77340476D01*
X79518095Y-77530952D01*
X79518095Y-77673809D01*
X79470476Y-77864285D01*
X79422857Y-77959523D01*
X79327619Y-78054761D01*
X79184761Y-78102380D01*
X78946666Y-78102380D01*
X80375238Y-77435714D02*
X80375238Y-78102380D01*
X80137142Y-77054761D02*
X79899047Y-77769047D01*
X80518095Y-77769047D01*
%TO.C,C1*%
X156663333Y-121117142D02*
X156615714Y-121164761D01*
X156472857Y-121212380D01*
X156377619Y-121212380D01*
X156234761Y-121164761D01*
X156139523Y-121069523D01*
X156091904Y-120974285D01*
X156044285Y-120783809D01*
X156044285Y-120640952D01*
X156091904Y-120450476D01*
X156139523Y-120355238D01*
X156234761Y-120260000D01*
X156377619Y-120212380D01*
X156472857Y-120212380D01*
X156615714Y-120260000D01*
X156663333Y-120307619D01*
X157615714Y-121212380D02*
X157044285Y-121212380D01*
X157330000Y-121212380D02*
X157330000Y-120212380D01*
X157234761Y-120355238D01*
X157139523Y-120450476D01*
X157044285Y-120498095D01*
%TO.C,R20*%
X230457142Y-116552380D02*
X230123809Y-116076190D01*
X229885714Y-116552380D02*
X229885714Y-115552380D01*
X230266666Y-115552380D01*
X230361904Y-115600000D01*
X230409523Y-115647619D01*
X230457142Y-115742857D01*
X230457142Y-115885714D01*
X230409523Y-115980952D01*
X230361904Y-116028571D01*
X230266666Y-116076190D01*
X229885714Y-116076190D01*
X230838095Y-115647619D02*
X230885714Y-115600000D01*
X230980952Y-115552380D01*
X231219047Y-115552380D01*
X231314285Y-115600000D01*
X231361904Y-115647619D01*
X231409523Y-115742857D01*
X231409523Y-115838095D01*
X231361904Y-115980952D01*
X230790476Y-116552380D01*
X231409523Y-116552380D01*
X232028571Y-115552380D02*
X232123809Y-115552380D01*
X232219047Y-115600000D01*
X232266666Y-115647619D01*
X232314285Y-115742857D01*
X232361904Y-115933333D01*
X232361904Y-116171428D01*
X232314285Y-116361904D01*
X232266666Y-116457142D01*
X232219047Y-116504761D01*
X232123809Y-116552380D01*
X232028571Y-116552380D01*
X231933333Y-116504761D01*
X231885714Y-116457142D01*
X231838095Y-116361904D01*
X231790476Y-116171428D01*
X231790476Y-115933333D01*
X231838095Y-115742857D01*
X231885714Y-115647619D01*
X231933333Y-115600000D01*
X232028571Y-115552380D01*
%TO.C,FR2*%
X264266666Y-61828571D02*
X263933333Y-61828571D01*
X263933333Y-62352380D02*
X263933333Y-61352380D01*
X264409523Y-61352380D01*
X265361904Y-62352380D02*
X265028571Y-61876190D01*
X264790476Y-62352380D02*
X264790476Y-61352380D01*
X265171428Y-61352380D01*
X265266666Y-61400000D01*
X265314285Y-61447619D01*
X265361904Y-61542857D01*
X265361904Y-61685714D01*
X265314285Y-61780952D01*
X265266666Y-61828571D01*
X265171428Y-61876190D01*
X264790476Y-61876190D01*
X265742857Y-61447619D02*
X265790476Y-61400000D01*
X265885714Y-61352380D01*
X266123809Y-61352380D01*
X266219047Y-61400000D01*
X266266666Y-61447619D01*
X266314285Y-61542857D01*
X266314285Y-61638095D01*
X266266666Y-61780952D01*
X265695238Y-62352380D01*
X266314285Y-62352380D01*
D16*
X262944404Y-67866666D02*
X261206309Y-66533333D01*
X260420595Y-65200000D01*
X259801547Y-62533333D01*
X259968214Y-61200000D01*
X261253928Y-58533333D01*
X262372976Y-57200000D01*
X264444404Y-55866666D01*
X268253928Y-55866666D01*
X269992023Y-57200000D01*
X270777738Y-58533333D01*
X271396785Y-61200000D01*
X271230119Y-62533333D01*
X269944404Y-65200000D01*
X268825357Y-66533333D01*
X266753928Y-67866666D01*
X262944404Y-67866666D01*
X260872976Y-69200000D01*
X259753928Y-70533333D01*
X258468214Y-73200000D01*
X257801547Y-78533333D01*
X258420595Y-81200000D01*
X259206309Y-82533333D01*
X260944404Y-83866666D01*
X264753928Y-83866666D01*
X266825357Y-82533333D01*
X267944404Y-81200000D01*
X269230119Y-78533333D01*
X269896785Y-73200000D01*
X269277738Y-70533333D01*
X268492023Y-69200000D01*
X266753928Y-67866666D01*
D15*
X272200000Y-83671428D02*
X272676190Y-84147619D01*
X272200000Y-84623809D01*
X271723809Y-84147619D01*
X272200000Y-83671428D01*
X272200000Y-84623809D01*
D10*
%TO.C,R19*%
X78174642Y-110562380D02*
X77841309Y-110086190D01*
X77603214Y-110562380D02*
X77603214Y-109562380D01*
X77984166Y-109562380D01*
X78079404Y-109610000D01*
X78127023Y-109657619D01*
X78174642Y-109752857D01*
X78174642Y-109895714D01*
X78127023Y-109990952D01*
X78079404Y-110038571D01*
X77984166Y-110086190D01*
X77603214Y-110086190D01*
X79127023Y-110562380D02*
X78555595Y-110562380D01*
X78841309Y-110562380D02*
X78841309Y-109562380D01*
X78746071Y-109705238D01*
X78650833Y-109800476D01*
X78555595Y-109848095D01*
X79603214Y-110562380D02*
X79793690Y-110562380D01*
X79888928Y-110514761D01*
X79936547Y-110467142D01*
X80031785Y-110324285D01*
X80079404Y-110133809D01*
X80079404Y-109752857D01*
X80031785Y-109657619D01*
X79984166Y-109610000D01*
X79888928Y-109562380D01*
X79698452Y-109562380D01*
X79603214Y-109610000D01*
X79555595Y-109657619D01*
X79507976Y-109752857D01*
X79507976Y-109990952D01*
X79555595Y-110086190D01*
X79603214Y-110133809D01*
X79698452Y-110181428D01*
X79888928Y-110181428D01*
X79984166Y-110133809D01*
X80031785Y-110086190D01*
X80079404Y-109990952D01*
%TO.C,MN2*%
X127766666Y-62352380D02*
X127766666Y-61352380D01*
X128100000Y-62066666D01*
X128433333Y-61352380D01*
X128433333Y-62352380D01*
X128909523Y-62352380D02*
X128909523Y-61352380D01*
X129480952Y-62352380D01*
X129480952Y-61352380D01*
X129909523Y-61447619D02*
X129957142Y-61400000D01*
X130052380Y-61352380D01*
X130290476Y-61352380D01*
X130385714Y-61400000D01*
X130433333Y-61447619D01*
X130480952Y-61542857D01*
X130480952Y-61638095D01*
X130433333Y-61780952D01*
X129861904Y-62352380D01*
X130480952Y-62352380D01*
D16*
X126944404Y-67866666D02*
X125206309Y-66533333D01*
X124420595Y-65200000D01*
X123801547Y-62533333D01*
X123968214Y-61200000D01*
X125253928Y-58533333D01*
X126372976Y-57200000D01*
X128444404Y-55866666D01*
X132253928Y-55866666D01*
X133992023Y-57200000D01*
X134777738Y-58533333D01*
X135396785Y-61200000D01*
X135230119Y-62533333D01*
X133944404Y-65200000D01*
X132825357Y-66533333D01*
X130753928Y-67866666D01*
X126944404Y-67866666D01*
X124872976Y-69200000D01*
X123753928Y-70533333D01*
X122468214Y-73200000D01*
X121801547Y-78533333D01*
X122420595Y-81200000D01*
X123206309Y-82533333D01*
X124944404Y-83866666D01*
X128753928Y-83866666D01*
X130825357Y-82533333D01*
X131944404Y-81200000D01*
X133230119Y-78533333D01*
X133896785Y-73200000D01*
X133277738Y-70533333D01*
X132492023Y-69200000D01*
X130753928Y-67866666D01*
D15*
X136200000Y-83671428D02*
X136676190Y-84147619D01*
X136200000Y-84623809D01*
X135723809Y-84147619D01*
X136200000Y-83671428D01*
X136200000Y-84623809D01*
D10*
%TO.C,U8*%
X83177380Y-119371904D02*
X83986904Y-119371904D01*
X84082142Y-119324285D01*
X84129761Y-119276666D01*
X84177380Y-119181428D01*
X84177380Y-118990952D01*
X84129761Y-118895714D01*
X84082142Y-118848095D01*
X83986904Y-118800476D01*
X83177380Y-118800476D01*
X83605952Y-118181428D02*
X83558333Y-118276666D01*
X83510714Y-118324285D01*
X83415476Y-118371904D01*
X83367857Y-118371904D01*
X83272619Y-118324285D01*
X83225000Y-118276666D01*
X83177380Y-118181428D01*
X83177380Y-117990952D01*
X83225000Y-117895714D01*
X83272619Y-117848095D01*
X83367857Y-117800476D01*
X83415476Y-117800476D01*
X83510714Y-117848095D01*
X83558333Y-117895714D01*
X83605952Y-117990952D01*
X83605952Y-118181428D01*
X83653571Y-118276666D01*
X83701190Y-118324285D01*
X83796428Y-118371904D01*
X83986904Y-118371904D01*
X84082142Y-118324285D01*
X84129761Y-118276666D01*
X84177380Y-118181428D01*
X84177380Y-117990952D01*
X84129761Y-117895714D01*
X84082142Y-117848095D01*
X83986904Y-117800476D01*
X83796428Y-117800476D01*
X83701190Y-117848095D01*
X83653571Y-117895714D01*
X83605952Y-117990952D01*
%TO.C,C10*%
X233157142Y-122007142D02*
X233109523Y-122054761D01*
X232966666Y-122102380D01*
X232871428Y-122102380D01*
X232728571Y-122054761D01*
X232633333Y-121959523D01*
X232585714Y-121864285D01*
X232538095Y-121673809D01*
X232538095Y-121530952D01*
X232585714Y-121340476D01*
X232633333Y-121245238D01*
X232728571Y-121150000D01*
X232871428Y-121102380D01*
X232966666Y-121102380D01*
X233109523Y-121150000D01*
X233157142Y-121197619D01*
X234109523Y-122102380D02*
X233538095Y-122102380D01*
X233823809Y-122102380D02*
X233823809Y-121102380D01*
X233728571Y-121245238D01*
X233633333Y-121340476D01*
X233538095Y-121388095D01*
X234728571Y-121102380D02*
X234823809Y-121102380D01*
X234919047Y-121150000D01*
X234966666Y-121197619D01*
X235014285Y-121292857D01*
X235061904Y-121483333D01*
X235061904Y-121721428D01*
X235014285Y-121911904D01*
X234966666Y-122007142D01*
X234919047Y-122054761D01*
X234823809Y-122102380D01*
X234728571Y-122102380D01*
X234633333Y-122054761D01*
X234585714Y-122007142D01*
X234538095Y-121911904D01*
X234490476Y-121721428D01*
X234490476Y-121483333D01*
X234538095Y-121292857D01*
X234585714Y-121197619D01*
X234633333Y-121150000D01*
X234728571Y-121102380D01*
%TO.C,SC2*%
X195838095Y-62304761D02*
X195980952Y-62352380D01*
X196219047Y-62352380D01*
X196314285Y-62304761D01*
X196361904Y-62257142D01*
X196409523Y-62161904D01*
X196409523Y-62066666D01*
X196361904Y-61971428D01*
X196314285Y-61923809D01*
X196219047Y-61876190D01*
X196028571Y-61828571D01*
X195933333Y-61780952D01*
X195885714Y-61733333D01*
X195838095Y-61638095D01*
X195838095Y-61542857D01*
X195885714Y-61447619D01*
X195933333Y-61400000D01*
X196028571Y-61352380D01*
X196266666Y-61352380D01*
X196409523Y-61400000D01*
X197409523Y-62257142D02*
X197361904Y-62304761D01*
X197219047Y-62352380D01*
X197123809Y-62352380D01*
X196980952Y-62304761D01*
X196885714Y-62209523D01*
X196838095Y-62114285D01*
X196790476Y-61923809D01*
X196790476Y-61780952D01*
X196838095Y-61590476D01*
X196885714Y-61495238D01*
X196980952Y-61400000D01*
X197123809Y-61352380D01*
X197219047Y-61352380D01*
X197361904Y-61400000D01*
X197409523Y-61447619D01*
X197790476Y-61447619D02*
X197838095Y-61400000D01*
X197933333Y-61352380D01*
X198171428Y-61352380D01*
X198266666Y-61400000D01*
X198314285Y-61447619D01*
X198361904Y-61542857D01*
X198361904Y-61638095D01*
X198314285Y-61780952D01*
X197742857Y-62352380D01*
X198361904Y-62352380D01*
D16*
X194944404Y-67866666D02*
X193206309Y-66533333D01*
X192420595Y-65200000D01*
X191801547Y-62533333D01*
X191968214Y-61200000D01*
X193253928Y-58533333D01*
X194372976Y-57200000D01*
X196444404Y-55866666D01*
X200253928Y-55866666D01*
X201992023Y-57200000D01*
X202777738Y-58533333D01*
X203396785Y-61200000D01*
X203230119Y-62533333D01*
X201944404Y-65200000D01*
X200825357Y-66533333D01*
X198753928Y-67866666D01*
X194944404Y-67866666D01*
X192872976Y-69200000D01*
X191753928Y-70533333D01*
X190468214Y-73200000D01*
X189801547Y-78533333D01*
X190420595Y-81200000D01*
X191206309Y-82533333D01*
X192944404Y-83866666D01*
X196753928Y-83866666D01*
X198825357Y-82533333D01*
X199944404Y-81200000D01*
X201230119Y-78533333D01*
X201896785Y-73200000D01*
X201277738Y-70533333D01*
X200492023Y-69200000D01*
X198753928Y-67866666D01*
D15*
X204200000Y-83671428D02*
X204676190Y-84147619D01*
X204200000Y-84623809D01*
X203723809Y-84147619D01*
X204200000Y-83671428D01*
X204200000Y-84623809D01*
D10*
%TO.C,U6*%
X196152380Y-110461904D02*
X196961904Y-110461904D01*
X197057142Y-110414285D01*
X197104761Y-110366666D01*
X197152380Y-110271428D01*
X197152380Y-110080952D01*
X197104761Y-109985714D01*
X197057142Y-109938095D01*
X196961904Y-109890476D01*
X196152380Y-109890476D01*
X196152380Y-108985714D02*
X196152380Y-109176190D01*
X196200000Y-109271428D01*
X196247619Y-109319047D01*
X196390476Y-109414285D01*
X196580952Y-109461904D01*
X196961904Y-109461904D01*
X197057142Y-109414285D01*
X197104761Y-109366666D01*
X197152380Y-109271428D01*
X197152380Y-109080952D01*
X197104761Y-108985714D01*
X197057142Y-108938095D01*
X196961904Y-108890476D01*
X196723809Y-108890476D01*
X196628571Y-108938095D01*
X196580952Y-108985714D01*
X196533333Y-109080952D01*
X196533333Y-109271428D01*
X196580952Y-109366666D01*
X196628571Y-109414285D01*
X196723809Y-109461904D01*
%TO.C,MN1*%
X98766666Y-62352380D02*
X98766666Y-61352380D01*
X99100000Y-62066666D01*
X99433333Y-61352380D01*
X99433333Y-62352380D01*
X99909523Y-62352380D02*
X99909523Y-61352380D01*
X100480952Y-62352380D01*
X100480952Y-61352380D01*
X101480952Y-62352380D02*
X100909523Y-62352380D01*
X101195238Y-62352380D02*
X101195238Y-61352380D01*
X101100000Y-61495238D01*
X101004761Y-61590476D01*
X100909523Y-61638095D01*
D16*
X97944404Y-67866666D02*
X96206309Y-66533333D01*
X95420595Y-65200000D01*
X94801547Y-62533333D01*
X94968214Y-61200000D01*
X96253928Y-58533333D01*
X97372976Y-57200000D01*
X99444404Y-55866666D01*
X103253928Y-55866666D01*
X104992023Y-57200000D01*
X105777738Y-58533333D01*
X106396785Y-61200000D01*
X106230119Y-62533333D01*
X104944404Y-65200000D01*
X103825357Y-66533333D01*
X101753928Y-67866666D01*
X97944404Y-67866666D01*
X95872976Y-69200000D01*
X94753928Y-70533333D01*
X93468214Y-73200000D01*
X92801547Y-78533333D01*
X93420595Y-81200000D01*
X94206309Y-82533333D01*
X95944404Y-83866666D01*
X99753928Y-83866666D01*
X101825357Y-82533333D01*
X102944404Y-81200000D01*
X104230119Y-78533333D01*
X104896785Y-73200000D01*
X104277738Y-70533333D01*
X103492023Y-69200000D01*
X101753928Y-67866666D01*
D15*
X107200000Y-83671428D02*
X107676190Y-84147619D01*
X107200000Y-84623809D01*
X106723809Y-84147619D01*
X107200000Y-83671428D01*
X107200000Y-84623809D01*
D10*
%TO.C,D3*%
X98361904Y-124652380D02*
X98361904Y-123652380D01*
X98600000Y-123652380D01*
X98742857Y-123700000D01*
X98838095Y-123795238D01*
X98885714Y-123890476D01*
X98933333Y-124080952D01*
X98933333Y-124223809D01*
X98885714Y-124414285D01*
X98838095Y-124509523D01*
X98742857Y-124604761D01*
X98600000Y-124652380D01*
X98361904Y-124652380D01*
X99266666Y-123652380D02*
X99885714Y-123652380D01*
X99552380Y-124033333D01*
X99695238Y-124033333D01*
X99790476Y-124080952D01*
X99838095Y-124128571D01*
X99885714Y-124223809D01*
X99885714Y-124461904D01*
X99838095Y-124557142D01*
X99790476Y-124604761D01*
X99695238Y-124652380D01*
X99409523Y-124652380D01*
X99314285Y-124604761D01*
X99266666Y-124557142D01*
%TO.C,LD1*%
X215803333Y-39362380D02*
X215327142Y-39362380D01*
X215327142Y-38362380D01*
X216136666Y-39362380D02*
X216136666Y-38362380D01*
X216374761Y-38362380D01*
X216517619Y-38410000D01*
X216612857Y-38505238D01*
X216660476Y-38600476D01*
X216708095Y-38790952D01*
X216708095Y-38933809D01*
X216660476Y-39124285D01*
X216612857Y-39219523D01*
X216517619Y-39314761D01*
X216374761Y-39362380D01*
X216136666Y-39362380D01*
X217660476Y-39362380D02*
X217089047Y-39362380D01*
X217374761Y-39362380D02*
X217374761Y-38362380D01*
X217279523Y-38505238D01*
X217184285Y-38600476D01*
X217089047Y-38648095D01*
%TO.C,AE1*%
X49465333Y-135714666D02*
X49941523Y-135714666D01*
X49370095Y-136000380D02*
X49703428Y-135000380D01*
X50036761Y-136000380D01*
X50370095Y-135476571D02*
X50703428Y-135476571D01*
X50846285Y-136000380D02*
X50370095Y-136000380D01*
X50370095Y-135000380D01*
X50846285Y-135000380D01*
X51798666Y-136000380D02*
X51227238Y-136000380D01*
X51512952Y-136000380D02*
X51512952Y-135000380D01*
X51417714Y-135143238D01*
X51322476Y-135238476D01*
X51227238Y-135286095D01*
%TO.C,C11*%
X48037142Y-117607142D02*
X47989523Y-117654761D01*
X47846666Y-117702380D01*
X47751428Y-117702380D01*
X47608571Y-117654761D01*
X47513333Y-117559523D01*
X47465714Y-117464285D01*
X47418095Y-117273809D01*
X47418095Y-117130952D01*
X47465714Y-116940476D01*
X47513333Y-116845238D01*
X47608571Y-116750000D01*
X47751428Y-116702380D01*
X47846666Y-116702380D01*
X47989523Y-116750000D01*
X48037142Y-116797619D01*
X48989523Y-117702380D02*
X48418095Y-117702380D01*
X48703809Y-117702380D02*
X48703809Y-116702380D01*
X48608571Y-116845238D01*
X48513333Y-116940476D01*
X48418095Y-116988095D01*
X49941904Y-117702380D02*
X49370476Y-117702380D01*
X49656190Y-117702380D02*
X49656190Y-116702380D01*
X49560952Y-116845238D01*
X49465714Y-116940476D01*
X49370476Y-116988095D01*
%TO.C,C7*%
X40923333Y-121957142D02*
X40875714Y-122004761D01*
X40732857Y-122052380D01*
X40637619Y-122052380D01*
X40494761Y-122004761D01*
X40399523Y-121909523D01*
X40351904Y-121814285D01*
X40304285Y-121623809D01*
X40304285Y-121480952D01*
X40351904Y-121290476D01*
X40399523Y-121195238D01*
X40494761Y-121100000D01*
X40637619Y-121052380D01*
X40732857Y-121052380D01*
X40875714Y-121100000D01*
X40923333Y-121147619D01*
X41256666Y-121052380D02*
X41923333Y-121052380D01*
X41494761Y-122052380D01*
%TO.C,C14*%
X232957142Y-124357142D02*
X232909523Y-124404761D01*
X232766666Y-124452380D01*
X232671428Y-124452380D01*
X232528571Y-124404761D01*
X232433333Y-124309523D01*
X232385714Y-124214285D01*
X232338095Y-124023809D01*
X232338095Y-123880952D01*
X232385714Y-123690476D01*
X232433333Y-123595238D01*
X232528571Y-123500000D01*
X232671428Y-123452380D01*
X232766666Y-123452380D01*
X232909523Y-123500000D01*
X232957142Y-123547619D01*
X233909523Y-124452380D02*
X233338095Y-124452380D01*
X233623809Y-124452380D02*
X233623809Y-123452380D01*
X233528571Y-123595238D01*
X233433333Y-123690476D01*
X233338095Y-123738095D01*
X234766666Y-123785714D02*
X234766666Y-124452380D01*
X234528571Y-123404761D02*
X234290476Y-124119047D01*
X234909523Y-124119047D01*
%TO.C,C4*%
X204433333Y-115837142D02*
X204385714Y-115884761D01*
X204242857Y-115932380D01*
X204147619Y-115932380D01*
X204004761Y-115884761D01*
X203909523Y-115789523D01*
X203861904Y-115694285D01*
X203814285Y-115503809D01*
X203814285Y-115360952D01*
X203861904Y-115170476D01*
X203909523Y-115075238D01*
X204004761Y-114980000D01*
X204147619Y-114932380D01*
X204242857Y-114932380D01*
X204385714Y-114980000D01*
X204433333Y-115027619D01*
X205290476Y-115265714D02*
X205290476Y-115932380D01*
X205052380Y-114884761D02*
X204814285Y-115599047D01*
X205433333Y-115599047D01*
%TO.C,C13*%
X231757142Y-127857142D02*
X231709523Y-127904761D01*
X231566666Y-127952380D01*
X231471428Y-127952380D01*
X231328571Y-127904761D01*
X231233333Y-127809523D01*
X231185714Y-127714285D01*
X231138095Y-127523809D01*
X231138095Y-127380952D01*
X231185714Y-127190476D01*
X231233333Y-127095238D01*
X231328571Y-127000000D01*
X231471428Y-126952380D01*
X231566666Y-126952380D01*
X231709523Y-127000000D01*
X231757142Y-127047619D01*
X232709523Y-127952380D02*
X232138095Y-127952380D01*
X232423809Y-127952380D02*
X232423809Y-126952380D01*
X232328571Y-127095238D01*
X232233333Y-127190476D01*
X232138095Y-127238095D01*
X233042857Y-126952380D02*
X233661904Y-126952380D01*
X233328571Y-127333333D01*
X233471428Y-127333333D01*
X233566666Y-127380952D01*
X233614285Y-127428571D01*
X233661904Y-127523809D01*
X233661904Y-127761904D01*
X233614285Y-127857142D01*
X233566666Y-127904761D01*
X233471428Y-127952380D01*
X233185714Y-127952380D01*
X233090476Y-127904761D01*
X233042857Y-127857142D01*
%TO.C,C23*%
X49709642Y-124317142D02*
X49662023Y-124364761D01*
X49519166Y-124412380D01*
X49423928Y-124412380D01*
X49281071Y-124364761D01*
X49185833Y-124269523D01*
X49138214Y-124174285D01*
X49090595Y-123983809D01*
X49090595Y-123840952D01*
X49138214Y-123650476D01*
X49185833Y-123555238D01*
X49281071Y-123460000D01*
X49423928Y-123412380D01*
X49519166Y-123412380D01*
X49662023Y-123460000D01*
X49709642Y-123507619D01*
X50090595Y-123507619D02*
X50138214Y-123460000D01*
X50233452Y-123412380D01*
X50471547Y-123412380D01*
X50566785Y-123460000D01*
X50614404Y-123507619D01*
X50662023Y-123602857D01*
X50662023Y-123698095D01*
X50614404Y-123840952D01*
X50042976Y-124412380D01*
X50662023Y-124412380D01*
X50995357Y-123412380D02*
X51614404Y-123412380D01*
X51281071Y-123793333D01*
X51423928Y-123793333D01*
X51519166Y-123840952D01*
X51566785Y-123888571D01*
X51614404Y-123983809D01*
X51614404Y-124221904D01*
X51566785Y-124317142D01*
X51519166Y-124364761D01*
X51423928Y-124412380D01*
X51138214Y-124412380D01*
X51042976Y-124364761D01*
X50995357Y-124317142D01*
%TO.C,LD5*%
X214683333Y-78392380D02*
X214207142Y-78392380D01*
X214207142Y-77392380D01*
X215016666Y-78392380D02*
X215016666Y-77392380D01*
X215254761Y-77392380D01*
X215397619Y-77440000D01*
X215492857Y-77535238D01*
X215540476Y-77630476D01*
X215588095Y-77820952D01*
X215588095Y-77963809D01*
X215540476Y-78154285D01*
X215492857Y-78249523D01*
X215397619Y-78344761D01*
X215254761Y-78392380D01*
X215016666Y-78392380D01*
X216492857Y-77392380D02*
X216016666Y-77392380D01*
X215969047Y-77868571D01*
X216016666Y-77820952D01*
X216111904Y-77773333D01*
X216350000Y-77773333D01*
X216445238Y-77820952D01*
X216492857Y-77868571D01*
X216540476Y-77963809D01*
X216540476Y-78201904D01*
X216492857Y-78297142D01*
X216445238Y-78344761D01*
X216350000Y-78392380D01*
X216111904Y-78392380D01*
X216016666Y-78344761D01*
X215969047Y-78297142D01*
%TO.C,Q3*%
X105004761Y-120047619D02*
X104909523Y-120000000D01*
X104814285Y-119904761D01*
X104671428Y-119761904D01*
X104576190Y-119714285D01*
X104480952Y-119714285D01*
X104528571Y-119952380D02*
X104433333Y-119904761D01*
X104338095Y-119809523D01*
X104290476Y-119619047D01*
X104290476Y-119285714D01*
X104338095Y-119095238D01*
X104433333Y-119000000D01*
X104528571Y-118952380D01*
X104719047Y-118952380D01*
X104814285Y-119000000D01*
X104909523Y-119095238D01*
X104957142Y-119285714D01*
X104957142Y-119619047D01*
X104909523Y-119809523D01*
X104814285Y-119904761D01*
X104719047Y-119952380D01*
X104528571Y-119952380D01*
X105290476Y-118952380D02*
X105909523Y-118952380D01*
X105576190Y-119333333D01*
X105719047Y-119333333D01*
X105814285Y-119380952D01*
X105861904Y-119428571D01*
X105909523Y-119523809D01*
X105909523Y-119761904D01*
X105861904Y-119857142D01*
X105814285Y-119904761D01*
X105719047Y-119952380D01*
X105433333Y-119952380D01*
X105338095Y-119904761D01*
X105290476Y-119857142D01*
%TO.C,LD7*%
X149203333Y-63902380D02*
X148727142Y-63902380D01*
X148727142Y-62902380D01*
X149536666Y-63902380D02*
X149536666Y-62902380D01*
X149774761Y-62902380D01*
X149917619Y-62950000D01*
X150012857Y-63045238D01*
X150060476Y-63140476D01*
X150108095Y-63330952D01*
X150108095Y-63473809D01*
X150060476Y-63664285D01*
X150012857Y-63759523D01*
X149917619Y-63854761D01*
X149774761Y-63902380D01*
X149536666Y-63902380D01*
X150441428Y-62902380D02*
X151108095Y-62902380D01*
X150679523Y-63902380D01*
%TO.C,R15*%
X149137142Y-55092380D02*
X148803809Y-54616190D01*
X148565714Y-55092380D02*
X148565714Y-54092380D01*
X148946666Y-54092380D01*
X149041904Y-54140000D01*
X149089523Y-54187619D01*
X149137142Y-54282857D01*
X149137142Y-54425714D01*
X149089523Y-54520952D01*
X149041904Y-54568571D01*
X148946666Y-54616190D01*
X148565714Y-54616190D01*
X150089523Y-55092380D02*
X149518095Y-55092380D01*
X149803809Y-55092380D02*
X149803809Y-54092380D01*
X149708571Y-54235238D01*
X149613333Y-54330476D01*
X149518095Y-54378095D01*
X150994285Y-54092380D02*
X150518095Y-54092380D01*
X150470476Y-54568571D01*
X150518095Y-54520952D01*
X150613333Y-54473333D01*
X150851428Y-54473333D01*
X150946666Y-54520952D01*
X150994285Y-54568571D01*
X151041904Y-54663809D01*
X151041904Y-54901904D01*
X150994285Y-54997142D01*
X150946666Y-55044761D01*
X150851428Y-55092380D01*
X150613333Y-55092380D01*
X150518095Y-55044761D01*
X150470476Y-54997142D01*
%TO.C,U9*%
X67647619Y-117138095D02*
X66838095Y-117138095D01*
X66742857Y-117185714D01*
X66695238Y-117233333D01*
X66647619Y-117328571D01*
X66647619Y-117519047D01*
X66695238Y-117614285D01*
X66742857Y-117661904D01*
X66838095Y-117709523D01*
X67647619Y-117709523D01*
X66647619Y-118233333D02*
X66647619Y-118423809D01*
X66695238Y-118519047D01*
X66742857Y-118566666D01*
X66885714Y-118661904D01*
X67076190Y-118709523D01*
X67457142Y-118709523D01*
X67552380Y-118661904D01*
X67600000Y-118614285D01*
X67647619Y-118519047D01*
X67647619Y-118328571D01*
X67600000Y-118233333D01*
X67552380Y-118185714D01*
X67457142Y-118138095D01*
X67219047Y-118138095D01*
X67123809Y-118185714D01*
X67076190Y-118233333D01*
X67028571Y-118328571D01*
X67028571Y-118519047D01*
X67076190Y-118614285D01*
X67123809Y-118661904D01*
X67219047Y-118709523D01*
X67138095Y-129400000D02*
X67042857Y-129352380D01*
X66900000Y-129352380D01*
X66757142Y-129400000D01*
X66661904Y-129495238D01*
X66614285Y-129590476D01*
X66566666Y-129780952D01*
X66566666Y-129923809D01*
X66614285Y-130114285D01*
X66661904Y-130209523D01*
X66757142Y-130304761D01*
X66900000Y-130352380D01*
X66995238Y-130352380D01*
X67138095Y-130304761D01*
X67185714Y-130257142D01*
X67185714Y-129923809D01*
X66995238Y-129923809D01*
X67614285Y-130352380D02*
X67614285Y-129352380D01*
X68185714Y-130352380D01*
X68185714Y-129352380D01*
X68661904Y-130352380D02*
X68661904Y-129352380D01*
X68900000Y-129352380D01*
X69042857Y-129400000D01*
X69138095Y-129495238D01*
X69185714Y-129590476D01*
X69233333Y-129780952D01*
X69233333Y-129923809D01*
X69185714Y-130114285D01*
X69138095Y-130209523D01*
X69042857Y-130304761D01*
X68900000Y-130352380D01*
X68661904Y-130352380D01*
X66147619Y-106033333D02*
X66623809Y-105700000D01*
X66147619Y-105461904D02*
X67147619Y-105461904D01*
X67147619Y-105842857D01*
X67100000Y-105938095D01*
X67052380Y-105985714D01*
X66957142Y-106033333D01*
X66814285Y-106033333D01*
X66719047Y-105985714D01*
X66671428Y-105938095D01*
X66623809Y-105842857D01*
X66623809Y-105461904D01*
X67147619Y-106366666D02*
X66147619Y-107033333D01*
X67147619Y-107033333D02*
X66147619Y-106366666D01*
X66147619Y-107414285D02*
X67147619Y-107414285D01*
X67147619Y-107652380D01*
X67100000Y-107795238D01*
X67004761Y-107890476D01*
X66909523Y-107938095D01*
X66719047Y-107985714D01*
X66576190Y-107985714D01*
X66385714Y-107938095D01*
X66290476Y-107890476D01*
X66195238Y-107795238D01*
X66147619Y-107652380D01*
X66147619Y-107414285D01*
X61095238Y-105580952D02*
X61047619Y-105723809D01*
X61047619Y-105961904D01*
X61095238Y-106057142D01*
X61142857Y-106104761D01*
X61238095Y-106152380D01*
X61333333Y-106152380D01*
X61428571Y-106104761D01*
X61476190Y-106057142D01*
X61523809Y-105961904D01*
X61571428Y-105771428D01*
X61619047Y-105676190D01*
X61666666Y-105628571D01*
X61761904Y-105580952D01*
X61857142Y-105580952D01*
X61952380Y-105628571D01*
X62000000Y-105676190D01*
X62047619Y-105771428D01*
X62047619Y-106009523D01*
X62000000Y-106152380D01*
X61571428Y-106580952D02*
X61571428Y-106914285D01*
X61047619Y-107057142D02*
X61047619Y-106580952D01*
X62047619Y-106580952D01*
X62047619Y-107057142D01*
X62047619Y-107342857D02*
X62047619Y-107914285D01*
X61047619Y-107628571D02*
X62047619Y-107628571D01*
X72833333Y-128380952D02*
X72833333Y-128857142D01*
X72547619Y-128285714D02*
X73547619Y-128619047D01*
X72547619Y-128952380D01*
X72547619Y-129285714D02*
X73547619Y-129285714D01*
X72547619Y-129857142D01*
X73547619Y-129857142D01*
X73547619Y-130190476D02*
X73547619Y-130761904D01*
X72547619Y-130476190D02*
X73547619Y-130476190D01*
X72547619Y-131619047D02*
X72547619Y-131047619D01*
X72547619Y-131333333D02*
X73547619Y-131333333D01*
X73404761Y-131238095D01*
X73309523Y-131142857D01*
X73261904Y-131047619D01*
X71542857Y-129600000D02*
X71495238Y-129647619D01*
X71447619Y-129600000D01*
X71495238Y-129552380D01*
X71542857Y-129600000D01*
X71447619Y-129600000D01*
X69600000Y-105938095D02*
X69647619Y-105842857D01*
X69647619Y-105700000D01*
X69600000Y-105557142D01*
X69504761Y-105461904D01*
X69409523Y-105414285D01*
X69219047Y-105366666D01*
X69076190Y-105366666D01*
X68885714Y-105414285D01*
X68790476Y-105461904D01*
X68695238Y-105557142D01*
X68647619Y-105700000D01*
X68647619Y-105795238D01*
X68695238Y-105938095D01*
X68742857Y-105985714D01*
X69076190Y-105985714D01*
X69076190Y-105795238D01*
X68647619Y-106414285D02*
X69647619Y-106414285D01*
X68647619Y-106985714D01*
X69647619Y-106985714D01*
X68647619Y-107461904D02*
X69647619Y-107461904D01*
X69647619Y-107700000D01*
X69600000Y-107842857D01*
X69504761Y-107938095D01*
X69409523Y-107985714D01*
X69219047Y-108033333D01*
X69076190Y-108033333D01*
X68885714Y-107985714D01*
X68790476Y-107938095D01*
X68695238Y-107842857D01*
X68647619Y-107700000D01*
X68647619Y-107461904D01*
X72247619Y-105366666D02*
X71247619Y-105700000D01*
X72247619Y-106033333D01*
X71342857Y-106938095D02*
X71295238Y-106890476D01*
X71247619Y-106747619D01*
X71247619Y-106652380D01*
X71295238Y-106509523D01*
X71390476Y-106414285D01*
X71485714Y-106366666D01*
X71676190Y-106319047D01*
X71819047Y-106319047D01*
X72009523Y-106366666D01*
X72104761Y-106414285D01*
X72200000Y-106509523D01*
X72247619Y-106652380D01*
X72247619Y-106747619D01*
X72200000Y-106890476D01*
X72152380Y-106938095D01*
X71342857Y-107938095D02*
X71295238Y-107890476D01*
X71247619Y-107747619D01*
X71247619Y-107652380D01*
X71295238Y-107509523D01*
X71390476Y-107414285D01*
X71485714Y-107366666D01*
X71676190Y-107319047D01*
X71819047Y-107319047D01*
X72009523Y-107366666D01*
X72104761Y-107414285D01*
X72200000Y-107509523D01*
X72247619Y-107652380D01*
X72247619Y-107747619D01*
X72200000Y-107890476D01*
X72152380Y-107938095D01*
X64547619Y-105438095D02*
X64547619Y-106009523D01*
X63547619Y-105723809D02*
X64547619Y-105723809D01*
X64547619Y-106247619D02*
X63547619Y-106914285D01*
X64547619Y-106914285D02*
X63547619Y-106247619D01*
X63547619Y-107295238D02*
X64547619Y-107295238D01*
X64547619Y-107533333D01*
X64500000Y-107676190D01*
X64404761Y-107771428D01*
X64309523Y-107819047D01*
X64119047Y-107866666D01*
X63976190Y-107866666D01*
X63785714Y-107819047D01*
X63690476Y-107771428D01*
X63595238Y-107676190D01*
X63547619Y-107533333D01*
X63547619Y-107295238D01*
%TO.C,C21*%
X153904642Y-127702857D02*
X153952261Y-127750476D01*
X153999880Y-127893333D01*
X153999880Y-127988571D01*
X153952261Y-128131428D01*
X153857023Y-128226666D01*
X153761785Y-128274285D01*
X153571309Y-128321904D01*
X153428452Y-128321904D01*
X153237976Y-128274285D01*
X153142738Y-128226666D01*
X153047500Y-128131428D01*
X152999880Y-127988571D01*
X152999880Y-127893333D01*
X153047500Y-127750476D01*
X153095119Y-127702857D01*
X153095119Y-127321904D02*
X153047500Y-127274285D01*
X152999880Y-127179047D01*
X152999880Y-126940952D01*
X153047500Y-126845714D01*
X153095119Y-126798095D01*
X153190357Y-126750476D01*
X153285595Y-126750476D01*
X153428452Y-126798095D01*
X153999880Y-127369523D01*
X153999880Y-126750476D01*
X153999880Y-125798095D02*
X153999880Y-126369523D01*
X153999880Y-126083809D02*
X152999880Y-126083809D01*
X153142738Y-126179047D01*
X153237976Y-126274285D01*
X153285595Y-126369523D01*
%TO.C,C9*%
X202233333Y-129357142D02*
X202185714Y-129404761D01*
X202042857Y-129452380D01*
X201947619Y-129452380D01*
X201804761Y-129404761D01*
X201709523Y-129309523D01*
X201661904Y-129214285D01*
X201614285Y-129023809D01*
X201614285Y-128880952D01*
X201661904Y-128690476D01*
X201709523Y-128595238D01*
X201804761Y-128500000D01*
X201947619Y-128452380D01*
X202042857Y-128452380D01*
X202185714Y-128500000D01*
X202233333Y-128547619D01*
X202709523Y-129452380D02*
X202900000Y-129452380D01*
X202995238Y-129404761D01*
X203042857Y-129357142D01*
X203138095Y-129214285D01*
X203185714Y-129023809D01*
X203185714Y-128642857D01*
X203138095Y-128547619D01*
X203090476Y-128500000D01*
X202995238Y-128452380D01*
X202804761Y-128452380D01*
X202709523Y-128500000D01*
X202661904Y-128547619D01*
X202614285Y-128642857D01*
X202614285Y-128880952D01*
X202661904Y-128976190D01*
X202709523Y-129023809D01*
X202804761Y-129071428D01*
X202995238Y-129071428D01*
X203090476Y-129023809D01*
X203138095Y-128976190D01*
X203185714Y-128880952D01*
%TO.C,LD3*%
X81123333Y-63882380D02*
X80647142Y-63882380D01*
X80647142Y-62882380D01*
X81456666Y-63882380D02*
X81456666Y-62882380D01*
X81694761Y-62882380D01*
X81837619Y-62930000D01*
X81932857Y-63025238D01*
X81980476Y-63120476D01*
X82028095Y-63310952D01*
X82028095Y-63453809D01*
X81980476Y-63644285D01*
X81932857Y-63739523D01*
X81837619Y-63834761D01*
X81694761Y-63882380D01*
X81456666Y-63882380D01*
X82361428Y-62882380D02*
X82980476Y-62882380D01*
X82647142Y-63263333D01*
X82790000Y-63263333D01*
X82885238Y-63310952D01*
X82932857Y-63358571D01*
X82980476Y-63453809D01*
X82980476Y-63691904D01*
X82932857Y-63787142D01*
X82885238Y-63834761D01*
X82790000Y-63882380D01*
X82504285Y-63882380D01*
X82409047Y-63834761D01*
X82361428Y-63787142D01*
%TO.C,R12*%
X91932380Y-118342857D02*
X91456190Y-118676190D01*
X91932380Y-118914285D02*
X90932380Y-118914285D01*
X90932380Y-118533333D01*
X90980000Y-118438095D01*
X91027619Y-118390476D01*
X91122857Y-118342857D01*
X91265714Y-118342857D01*
X91360952Y-118390476D01*
X91408571Y-118438095D01*
X91456190Y-118533333D01*
X91456190Y-118914285D01*
X91932380Y-117390476D02*
X91932380Y-117961904D01*
X91932380Y-117676190D02*
X90932380Y-117676190D01*
X91075238Y-117771428D01*
X91170476Y-117866666D01*
X91218095Y-117961904D01*
X91027619Y-117009523D02*
X90980000Y-116961904D01*
X90932380Y-116866666D01*
X90932380Y-116628571D01*
X90980000Y-116533333D01*
X91027619Y-116485714D01*
X91122857Y-116438095D01*
X91218095Y-116438095D01*
X91360952Y-116485714D01*
X91932380Y-117057142D01*
X91932380Y-116438095D01*
%TO.C,R4*%
X99433333Y-119052380D02*
X99100000Y-118576190D01*
X98861904Y-119052380D02*
X98861904Y-118052380D01*
X99242857Y-118052380D01*
X99338095Y-118100000D01*
X99385714Y-118147619D01*
X99433333Y-118242857D01*
X99433333Y-118385714D01*
X99385714Y-118480952D01*
X99338095Y-118528571D01*
X99242857Y-118576190D01*
X98861904Y-118576190D01*
X100290476Y-118385714D02*
X100290476Y-119052380D01*
X100052380Y-118004761D02*
X99814285Y-118719047D01*
X100433333Y-118719047D01*
%TO.C,R17*%
X193852380Y-128142857D02*
X193376190Y-128476190D01*
X193852380Y-128714285D02*
X192852380Y-128714285D01*
X192852380Y-128333333D01*
X192900000Y-128238095D01*
X192947619Y-128190476D01*
X193042857Y-128142857D01*
X193185714Y-128142857D01*
X193280952Y-128190476D01*
X193328571Y-128238095D01*
X193376190Y-128333333D01*
X193376190Y-128714285D01*
X193852380Y-127190476D02*
X193852380Y-127761904D01*
X193852380Y-127476190D02*
X192852380Y-127476190D01*
X192995238Y-127571428D01*
X193090476Y-127666666D01*
X193138095Y-127761904D01*
X192852380Y-126857142D02*
X192852380Y-126190476D01*
X193852380Y-126619047D01*
%TO.C,R14*%
X214837142Y-86942380D02*
X214503809Y-86466190D01*
X214265714Y-86942380D02*
X214265714Y-85942380D01*
X214646666Y-85942380D01*
X214741904Y-85990000D01*
X214789523Y-86037619D01*
X214837142Y-86132857D01*
X214837142Y-86275714D01*
X214789523Y-86370952D01*
X214741904Y-86418571D01*
X214646666Y-86466190D01*
X214265714Y-86466190D01*
X215789523Y-86942380D02*
X215218095Y-86942380D01*
X215503809Y-86942380D02*
X215503809Y-85942380D01*
X215408571Y-86085238D01*
X215313333Y-86180476D01*
X215218095Y-86228095D01*
X216646666Y-86275714D02*
X216646666Y-86942380D01*
X216408571Y-85894761D02*
X216170476Y-86609047D01*
X216789523Y-86609047D01*
%TO.C,LD6*%
X217153333Y-64092380D02*
X216677142Y-64092380D01*
X216677142Y-63092380D01*
X217486666Y-64092380D02*
X217486666Y-63092380D01*
X217724761Y-63092380D01*
X217867619Y-63140000D01*
X217962857Y-63235238D01*
X218010476Y-63330476D01*
X218058095Y-63520952D01*
X218058095Y-63663809D01*
X218010476Y-63854285D01*
X217962857Y-63949523D01*
X217867619Y-64044761D01*
X217724761Y-64092380D01*
X217486666Y-64092380D01*
X218915238Y-63092380D02*
X218724761Y-63092380D01*
X218629523Y-63140000D01*
X218581904Y-63187619D01*
X218486666Y-63330476D01*
X218439047Y-63520952D01*
X218439047Y-63901904D01*
X218486666Y-63997142D01*
X218534285Y-64044761D01*
X218629523Y-64092380D01*
X218820000Y-64092380D01*
X218915238Y-64044761D01*
X218962857Y-63997142D01*
X219010476Y-63901904D01*
X219010476Y-63663809D01*
X218962857Y-63568571D01*
X218915238Y-63520952D01*
X218820000Y-63473333D01*
X218629523Y-63473333D01*
X218534285Y-63520952D01*
X218486666Y-63568571D01*
X218439047Y-63663809D01*
%TO.C,C20*%
X253337142Y-132667142D02*
X253289523Y-132714761D01*
X253146666Y-132762380D01*
X253051428Y-132762380D01*
X252908571Y-132714761D01*
X252813333Y-132619523D01*
X252765714Y-132524285D01*
X252718095Y-132333809D01*
X252718095Y-132190952D01*
X252765714Y-132000476D01*
X252813333Y-131905238D01*
X252908571Y-131810000D01*
X253051428Y-131762380D01*
X253146666Y-131762380D01*
X253289523Y-131810000D01*
X253337142Y-131857619D01*
X253718095Y-131857619D02*
X253765714Y-131810000D01*
X253860952Y-131762380D01*
X254099047Y-131762380D01*
X254194285Y-131810000D01*
X254241904Y-131857619D01*
X254289523Y-131952857D01*
X254289523Y-132048095D01*
X254241904Y-132190952D01*
X253670476Y-132762380D01*
X254289523Y-132762380D01*
X254908571Y-131762380D02*
X255003809Y-131762380D01*
X255099047Y-131810000D01*
X255146666Y-131857619D01*
X255194285Y-131952857D01*
X255241904Y-132143333D01*
X255241904Y-132381428D01*
X255194285Y-132571904D01*
X255146666Y-132667142D01*
X255099047Y-132714761D01*
X255003809Y-132762380D01*
X254908571Y-132762380D01*
X254813333Y-132714761D01*
X254765714Y-132667142D01*
X254718095Y-132571904D01*
X254670476Y-132381428D01*
X254670476Y-132143333D01*
X254718095Y-131952857D01*
X254765714Y-131857619D01*
X254813333Y-131810000D01*
X254908571Y-131762380D01*
%TO.C,R16*%
X223157142Y-117752380D02*
X222823809Y-117276190D01*
X222585714Y-117752380D02*
X222585714Y-116752380D01*
X222966666Y-116752380D01*
X223061904Y-116800000D01*
X223109523Y-116847619D01*
X223157142Y-116942857D01*
X223157142Y-117085714D01*
X223109523Y-117180952D01*
X223061904Y-117228571D01*
X222966666Y-117276190D01*
X222585714Y-117276190D01*
X224109523Y-117752380D02*
X223538095Y-117752380D01*
X223823809Y-117752380D02*
X223823809Y-116752380D01*
X223728571Y-116895238D01*
X223633333Y-116990476D01*
X223538095Y-117038095D01*
X224966666Y-116752380D02*
X224776190Y-116752380D01*
X224680952Y-116800000D01*
X224633333Y-116847619D01*
X224538095Y-116990476D01*
X224490476Y-117180952D01*
X224490476Y-117561904D01*
X224538095Y-117657142D01*
X224585714Y-117704761D01*
X224680952Y-117752380D01*
X224871428Y-117752380D01*
X224966666Y-117704761D01*
X225014285Y-117657142D01*
X225061904Y-117561904D01*
X225061904Y-117323809D01*
X225014285Y-117228571D01*
X224966666Y-117180952D01*
X224871428Y-117133333D01*
X224680952Y-117133333D01*
X224585714Y-117180952D01*
X224538095Y-117228571D01*
X224490476Y-117323809D01*
%TO.C,R7*%
X40923333Y-130482380D02*
X40590000Y-130006190D01*
X40351904Y-130482380D02*
X40351904Y-129482380D01*
X40732857Y-129482380D01*
X40828095Y-129530000D01*
X40875714Y-129577619D01*
X40923333Y-129672857D01*
X40923333Y-129815714D01*
X40875714Y-129910952D01*
X40828095Y-129958571D01*
X40732857Y-130006190D01*
X40351904Y-130006190D01*
X41256666Y-129482380D02*
X41923333Y-129482380D01*
X41494761Y-130482380D01*
%TO.C,D1*%
X233761904Y-108652380D02*
X233761904Y-107652380D01*
X234000000Y-107652380D01*
X234142857Y-107700000D01*
X234238095Y-107795238D01*
X234285714Y-107890476D01*
X234333333Y-108080952D01*
X234333333Y-108223809D01*
X234285714Y-108414285D01*
X234238095Y-108509523D01*
X234142857Y-108604761D01*
X234000000Y-108652380D01*
X233761904Y-108652380D01*
X235285714Y-108652380D02*
X234714285Y-108652380D01*
X235000000Y-108652380D02*
X235000000Y-107652380D01*
X234904761Y-107795238D01*
X234809523Y-107890476D01*
X234714285Y-107938095D01*
%TO.C,FR1*%
X235266666Y-61828571D02*
X234933333Y-61828571D01*
X234933333Y-62352380D02*
X234933333Y-61352380D01*
X235409523Y-61352380D01*
X236361904Y-62352380D02*
X236028571Y-61876190D01*
X235790476Y-62352380D02*
X235790476Y-61352380D01*
X236171428Y-61352380D01*
X236266666Y-61400000D01*
X236314285Y-61447619D01*
X236361904Y-61542857D01*
X236361904Y-61685714D01*
X236314285Y-61780952D01*
X236266666Y-61828571D01*
X236171428Y-61876190D01*
X235790476Y-61876190D01*
X237314285Y-62352380D02*
X236742857Y-62352380D01*
X237028571Y-62352380D02*
X237028571Y-61352380D01*
X236933333Y-61495238D01*
X236838095Y-61590476D01*
X236742857Y-61638095D01*
D16*
X233944404Y-67866666D02*
X232206309Y-66533333D01*
X231420595Y-65200000D01*
X230801547Y-62533333D01*
X230968214Y-61200000D01*
X232253928Y-58533333D01*
X233372976Y-57200000D01*
X235444404Y-55866666D01*
X239253928Y-55866666D01*
X240992023Y-57200000D01*
X241777738Y-58533333D01*
X242396785Y-61200000D01*
X242230119Y-62533333D01*
X240944404Y-65200000D01*
X239825357Y-66533333D01*
X237753928Y-67866666D01*
X233944404Y-67866666D01*
X231872976Y-69200000D01*
X230753928Y-70533333D01*
X229468214Y-73200000D01*
X228801547Y-78533333D01*
X229420595Y-81200000D01*
X230206309Y-82533333D01*
X231944404Y-83866666D01*
X235753928Y-83866666D01*
X237825357Y-82533333D01*
X238944404Y-81200000D01*
X240230119Y-78533333D01*
X240896785Y-73200000D01*
X240277738Y-70533333D01*
X239492023Y-69200000D01*
X237753928Y-67866666D01*
D15*
X243200000Y-83671428D02*
X243676190Y-84147619D01*
X243200000Y-84623809D01*
X242723809Y-84147619D01*
X243200000Y-83671428D01*
X243200000Y-84623809D01*
D10*
%TO.C,Y1*%
X160723809Y-121276190D02*
X160723809Y-121752380D01*
X160390476Y-120752380D02*
X160723809Y-121276190D01*
X161057142Y-120752380D01*
X161914285Y-121752380D02*
X161342857Y-121752380D01*
X161628571Y-121752380D02*
X161628571Y-120752380D01*
X161533333Y-120895238D01*
X161438095Y-120990476D01*
X161342857Y-121038095D01*
%TO.C,C19*%
X240497142Y-131237142D02*
X240449523Y-131284761D01*
X240306666Y-131332380D01*
X240211428Y-131332380D01*
X240068571Y-131284761D01*
X239973333Y-131189523D01*
X239925714Y-131094285D01*
X239878095Y-130903809D01*
X239878095Y-130760952D01*
X239925714Y-130570476D01*
X239973333Y-130475238D01*
X240068571Y-130380000D01*
X240211428Y-130332380D01*
X240306666Y-130332380D01*
X240449523Y-130380000D01*
X240497142Y-130427619D01*
X241449523Y-131332380D02*
X240878095Y-131332380D01*
X241163809Y-131332380D02*
X241163809Y-130332380D01*
X241068571Y-130475238D01*
X240973333Y-130570476D01*
X240878095Y-130618095D01*
X241925714Y-131332380D02*
X242116190Y-131332380D01*
X242211428Y-131284761D01*
X242259047Y-131237142D01*
X242354285Y-131094285D01*
X242401904Y-130903809D01*
X242401904Y-130522857D01*
X242354285Y-130427619D01*
X242306666Y-130380000D01*
X242211428Y-130332380D01*
X242020952Y-130332380D01*
X241925714Y-130380000D01*
X241878095Y-130427619D01*
X241830476Y-130522857D01*
X241830476Y-130760952D01*
X241878095Y-130856190D01*
X241925714Y-130903809D01*
X242020952Y-130951428D01*
X242211428Y-130951428D01*
X242306666Y-130903809D01*
X242354285Y-130856190D01*
X242401904Y-130760952D01*
%TO.C,C22*%
X44387142Y-121037142D02*
X44339523Y-121084761D01*
X44196666Y-121132380D01*
X44101428Y-121132380D01*
X43958571Y-121084761D01*
X43863333Y-120989523D01*
X43815714Y-120894285D01*
X43768095Y-120703809D01*
X43768095Y-120560952D01*
X43815714Y-120370476D01*
X43863333Y-120275238D01*
X43958571Y-120180000D01*
X44101428Y-120132380D01*
X44196666Y-120132380D01*
X44339523Y-120180000D01*
X44387142Y-120227619D01*
X44768095Y-120227619D02*
X44815714Y-120180000D01*
X44910952Y-120132380D01*
X45149047Y-120132380D01*
X45244285Y-120180000D01*
X45291904Y-120227619D01*
X45339523Y-120322857D01*
X45339523Y-120418095D01*
X45291904Y-120560952D01*
X44720476Y-121132380D01*
X45339523Y-121132380D01*
X45720476Y-120227619D02*
X45768095Y-120180000D01*
X45863333Y-120132380D01*
X46101428Y-120132380D01*
X46196666Y-120180000D01*
X46244285Y-120227619D01*
X46291904Y-120322857D01*
X46291904Y-120418095D01*
X46244285Y-120560952D01*
X45672857Y-121132380D01*
X46291904Y-121132380D01*
D17*
%TO.C,R13*%
X81062936Y-57540000D02*
X82517064Y-57540000D01*
X81062936Y-55720000D02*
X82517064Y-55720000D01*
%TO.C,LD8*%
X148400000Y-82337000D02*
X148556000Y-82337000D01*
X146084000Y-82337000D02*
X146240000Y-82337000D01*
X146241392Y-79104665D02*
G75*
G03*
X146084484Y-82337000I1078608J-1672335D01*
G01*
X148555516Y-82337000D02*
G75*
G03*
X148398608Y-79104665I-1235516J1560000D01*
G01*
X148400000Y-81817961D02*
G75*
G03*
X148399837Y-79735870I-1080000J1040961D01*
G01*
X146240163Y-79735870D02*
G75*
G03*
X146240000Y-81817961I1079837J-1041130D01*
G01*
%TO.C,R3*%
X104990000Y-123727064D02*
X104990000Y-122272936D01*
X106810000Y-123727064D02*
X106810000Y-122272936D01*
%TO.C,U3*%
X234100000Y-114260000D02*
X233300000Y-114260000D01*
X234100000Y-111140000D02*
X232300000Y-111140000D01*
X234100000Y-111140000D02*
X234900000Y-111140000D01*
X234100000Y-114260000D02*
X234900000Y-114260000D01*
%TO.C,R6*%
X96472936Y-122535000D02*
X96927064Y-122535000D01*
X96472936Y-121065000D02*
X96927064Y-121065000D01*
%TO.C,HR1*%
X17600000Y-90400000D02*
X46400000Y-90400000D01*
X46400000Y-90400000D02*
X46400000Y-49600000D01*
X46400000Y-49600000D02*
X17600000Y-49600000D01*
X17600000Y-49600000D02*
X17600000Y-90400000D01*
D10*
%TO.C,U1*%
X161625000Y-108275000D02*
X161625000Y-108600000D01*
X154600000Y-115525000D02*
X154600000Y-116950000D01*
X161625000Y-108275000D02*
X161300000Y-108275000D01*
X161625000Y-115525000D02*
X161300000Y-115525000D01*
X154375000Y-115525000D02*
X154375000Y-115200000D01*
X161625000Y-115525000D02*
X161625000Y-115200000D01*
X154375000Y-108275000D02*
X154700000Y-108275000D01*
X154375000Y-108275000D02*
X154375000Y-108600000D01*
X154375000Y-115525000D02*
X154600000Y-115525000D01*
D17*
%TO.C,HR2*%
X46600000Y-90400000D02*
X75400000Y-90400000D01*
X75400000Y-90400000D02*
X75400000Y-49600000D01*
X75400000Y-49600000D02*
X46600000Y-49600000D01*
X46600000Y-49600000D02*
X46600000Y-90400000D01*
%TO.C,R2*%
X172827064Y-132210000D02*
X171372936Y-132210000D01*
X172827064Y-130390000D02*
X171372936Y-130390000D01*
%TO.C,LD2*%
X82894000Y-30246000D02*
X78142000Y-30246000D01*
X80522741Y-40895998D02*
G75*
G03*
X82893816Y-30246000I-4741J5589998D01*
G01*
X78142184Y-30246000D02*
G75*
G03*
X80513259Y-40895998I2375816J-5060000D01*
G01*
X85518000Y-35306000D02*
G75*
G03*
X85518000Y-35306000I-5000000J0D01*
G01*
%TO.C,R5*%
X102172936Y-116765000D02*
X102627064Y-116765000D01*
X102172936Y-118235000D02*
X102627064Y-118235000D01*
%TO.C,R8*%
X39555000Y-122277064D02*
X39555000Y-121822936D01*
X38085000Y-122277064D02*
X38085000Y-121822936D01*
%TO.C,R18*%
X190835000Y-131027064D02*
X190835000Y-130572936D01*
X189365000Y-131027064D02*
X189365000Y-130572936D01*
%TO.C,SW2*%
X18712000Y-27940000D02*
X24902000Y-27940000D01*
X41232000Y-27940000D02*
X35042000Y-27940000D01*
X35042000Y-26020000D02*
X24902000Y-26020000D01*
X35042000Y-29860000D02*
X35042000Y-26020000D01*
X24902000Y-26020000D02*
X24902000Y-29860000D01*
X24902000Y-29860000D02*
X35042000Y-29860000D01*
%TO.C,Q4*%
X94840000Y-118200000D02*
X94840000Y-117550000D01*
X97960000Y-118200000D02*
X97960000Y-118850000D01*
X94840000Y-118200000D02*
X94840000Y-119875000D01*
X97960000Y-118200000D02*
X97960000Y-117550000D01*
%TO.C,U10*%
X18022000Y-111442000D02*
X18022000Y-110662000D01*
X36262000Y-110662000D02*
X35262000Y-110662000D01*
X18022000Y-110662000D02*
X19022000Y-110662000D01*
X18022000Y-136402000D02*
X18022000Y-129987000D01*
X36262000Y-136402000D02*
X36262000Y-129987000D01*
X36262000Y-129987000D02*
X36642000Y-129987000D01*
X36262000Y-136402000D02*
X18022000Y-136402000D01*
X36262000Y-111442000D02*
X36262000Y-110662000D01*
%TO.C,C8*%
X39465000Y-126821252D02*
X39465000Y-126298748D01*
X37995000Y-126821252D02*
X37995000Y-126298748D01*
%TO.C,SC1*%
X153600000Y-90400000D02*
X182400000Y-90400000D01*
X182400000Y-90400000D02*
X182400000Y-49600000D01*
X182400000Y-49600000D02*
X153600000Y-49600000D01*
X153600000Y-49600000D02*
X153600000Y-90400000D01*
%TO.C,LD4*%
X78012000Y-82342000D02*
X78168000Y-82342000D01*
X80328000Y-82342000D02*
X80484000Y-82342000D01*
X80328000Y-81822961D02*
G75*
G03*
X80327837Y-79740870I-1080000J1040961D01*
G01*
X78169392Y-79109665D02*
G75*
G03*
X78012484Y-82342000I1078608J-1672335D01*
G01*
X80483516Y-82342000D02*
G75*
G03*
X80326608Y-79109665I-1235516J1560000D01*
G01*
X78168163Y-79740870D02*
G75*
G03*
X78168000Y-81822961I1079837J-1041130D01*
G01*
%TO.C,C1*%
X157091252Y-118345000D02*
X156568748Y-118345000D01*
X157091252Y-119815000D02*
X156568748Y-119815000D01*
%TO.C,R20*%
X234272936Y-115090000D02*
X235727064Y-115090000D01*
X234272936Y-116910000D02*
X235727064Y-116910000D01*
%TO.C,FR2*%
X250600000Y-90400000D02*
X279400000Y-90400000D01*
X279400000Y-90400000D02*
X279400000Y-49600000D01*
X279400000Y-49600000D02*
X250600000Y-49600000D01*
X250600000Y-49600000D02*
X250600000Y-90400000D01*
%TO.C,R19*%
X78590436Y-111025000D02*
X79044564Y-111025000D01*
X78590436Y-112495000D02*
X79044564Y-112495000D01*
%TO.C,MN2*%
X114600000Y-90400000D02*
X143400000Y-90400000D01*
X143400000Y-90400000D02*
X143400000Y-49600000D01*
X143400000Y-49600000D02*
X114600000Y-49600000D01*
X114600000Y-49600000D02*
X114600000Y-90400000D01*
%TO.C,U8*%
X82725000Y-117610000D02*
X82725000Y-115960000D01*
X77525000Y-115960000D02*
X77525000Y-121260000D01*
X82725000Y-115960000D02*
X77525000Y-115960000D01*
X82725000Y-121260000D02*
X82725000Y-119610000D01*
X77525000Y-121260000D02*
X82725000Y-121260000D01*
X82725000Y-117610000D02*
G75*
G03*
X82725000Y-119610000I0J-1000000D01*
G01*
%TO.C,C10*%
X234511252Y-120710000D02*
X233088748Y-120710000D01*
X234511252Y-118890000D02*
X233088748Y-118890000D01*
%TO.C,SC2*%
X182600000Y-90400000D02*
X211400000Y-90400000D01*
X211400000Y-90400000D02*
X211400000Y-49600000D01*
X211400000Y-49600000D02*
X182600000Y-49600000D01*
X182600000Y-49600000D02*
X182600000Y-90400000D01*
D10*
%TO.C,U6*%
X195975000Y-107625000D02*
X195975000Y-111775000D01*
X190825000Y-107625000D02*
X190825000Y-111775000D01*
X190825000Y-107625000D02*
X191025000Y-107625000D01*
X195775000Y-107625000D02*
X195775000Y-106325000D01*
X195975000Y-107625000D02*
X195775000Y-107625000D01*
X190825000Y-111775000D02*
X191025000Y-111775000D01*
X195975000Y-111775000D02*
X195775000Y-111775000D01*
D17*
%TO.C,MN1*%
X85600000Y-90400000D02*
X114400000Y-90400000D01*
X114400000Y-90400000D02*
X114400000Y-49600000D01*
X114400000Y-49600000D02*
X85600000Y-49600000D01*
X85600000Y-49600000D02*
X85600000Y-90400000D01*
%TO.C,D3*%
X104585000Y-125335000D02*
X104585000Y-123065000D01*
X104585000Y-123065000D02*
X100700000Y-123065000D01*
X100700000Y-125335000D02*
X104585000Y-125335000D01*
%TO.C,LD1*%
X218784000Y-30241000D02*
X214032000Y-30241000D01*
X214032184Y-30241000D02*
G75*
G03*
X216403259Y-40890998I2375816J-5060000D01*
G01*
X216412741Y-40890998D02*
G75*
G03*
X218783816Y-30241000I-4741J5589998D01*
G01*
X221408000Y-35301000D02*
G75*
G03*
X221408000Y-35301000I-5000000J0D01*
G01*
%TO.C,AE1*%
X54931000Y-135548000D02*
G75*
G03*
X54931000Y-135548000I-1251000J0D01*
G01*
%TO.C,C11*%
X49430000Y-121151252D02*
X49430000Y-119728748D01*
X47610000Y-121151252D02*
X47610000Y-119728748D01*
%TO.C,C7*%
X40395000Y-123748748D02*
X40395000Y-124271252D01*
X41865000Y-123748748D02*
X41865000Y-124271252D01*
%TO.C,C14*%
X237061252Y-124735000D02*
X236538748Y-124735000D01*
X237061252Y-123265000D02*
X236538748Y-123265000D01*
%TO.C,C4*%
X204861252Y-113065000D02*
X204338748Y-113065000D01*
X204861252Y-114535000D02*
X204338748Y-114535000D01*
%TO.C,C13*%
X236911252Y-128960000D02*
X235488748Y-128960000D01*
X236911252Y-126240000D02*
X235488748Y-126240000D01*
%TO.C,C23*%
X52890000Y-128140000D02*
X52890000Y-125120000D01*
X48680000Y-128140000D02*
X52890000Y-128140000D01*
X52890000Y-125120000D02*
X48680000Y-125120000D01*
%TO.C,LD5*%
X216656000Y-79480000D02*
X216500000Y-79480000D01*
X214340000Y-79480000D02*
X214184000Y-79480000D01*
X216499837Y-82081130D02*
G75*
G03*
X216500000Y-79999039I-1079837J1041130D01*
G01*
X214184484Y-79480000D02*
G75*
G03*
X214341392Y-82712335I1235516J-1560000D01*
G01*
X216498608Y-82712335D02*
G75*
G03*
X216655516Y-79480000I-1078608J1672335D01*
G01*
X214340000Y-79999039D02*
G75*
G03*
X214340163Y-82081130I1080000J-1040961D01*
G01*
%TO.C,Q3*%
X100840000Y-120500000D02*
X100840000Y-121150000D01*
X100840000Y-120500000D02*
X100840000Y-119850000D01*
X103960000Y-120500000D02*
X103960000Y-121150000D01*
X103960000Y-120500000D02*
X103960000Y-118825000D01*
%TO.C,LD7*%
X148624000Y-61763000D02*
X148780000Y-61763000D01*
X150940000Y-61763000D02*
X151096000Y-61763000D01*
X150940000Y-61243961D02*
G75*
G03*
X150939837Y-59161870I-1080000J1040961D01*
G01*
X148780163Y-59161870D02*
G75*
G03*
X148780000Y-61243961I1079837J-1041130D01*
G01*
X148781392Y-58530665D02*
G75*
G03*
X148624484Y-61763000I1078608J-1672335D01*
G01*
X151095516Y-61763000D02*
G75*
G03*
X150938608Y-58530665I-1235516J1560000D01*
G01*
%TO.C,R15*%
X150537064Y-57460000D02*
X149082936Y-57460000D01*
X150537064Y-55640000D02*
X149082936Y-55640000D01*
%TO.C,U9*%
X59400000Y-131800000D02*
X59400000Y-104000000D01*
X73800000Y-131800000D02*
X66400000Y-131800000D01*
X73800000Y-104000000D02*
X73800000Y-131800000D01*
X59400000Y-104000000D02*
X73800000Y-104000000D01*
X66600000Y-131800000D02*
X59400000Y-131800000D01*
X72300000Y-128700000D02*
X70500000Y-128700000D01*
X70500000Y-128700000D02*
X70500000Y-130500000D01*
X70500000Y-130500000D02*
X72300000Y-130500000D01*
X72300000Y-130500000D02*
X72300000Y-128700000D01*
X72070820Y-129600000D02*
G75*
G03*
X72070820Y-129600000I-670820J0D01*
G01*
%TO.C,C21*%
X155047500Y-128570000D02*
X159257500Y-128570000D01*
X159257500Y-128570000D02*
X159257500Y-125550000D01*
X159257500Y-125550000D02*
X155047500Y-125550000D01*
%TO.C,C9*%
X203790000Y-128288748D02*
X203790000Y-129711252D01*
X205610000Y-128288748D02*
X205610000Y-129711252D01*
%TO.C,LD3*%
X80552000Y-61763000D02*
X80708000Y-61763000D01*
X82868000Y-61763000D02*
X83024000Y-61763000D01*
X80708163Y-59161870D02*
G75*
G03*
X80708000Y-61243961I1079837J-1041130D01*
G01*
X83023516Y-61763000D02*
G75*
G03*
X82866608Y-58530665I-1235516J1560000D01*
G01*
X82868000Y-61243961D02*
G75*
G03*
X82867837Y-59161870I-1080000J1040961D01*
G01*
X80709392Y-58530665D02*
G75*
G03*
X80552484Y-61763000I1078608J-1672335D01*
G01*
%TO.C,R12*%
X92390000Y-118427064D02*
X92390000Y-116972936D01*
X94210000Y-118427064D02*
X94210000Y-116972936D01*
%TO.C,R4*%
X100335000Y-121327064D02*
X100335000Y-120872936D01*
X98865000Y-121327064D02*
X98865000Y-120872936D01*
%TO.C,R17*%
X194035000Y-131027064D02*
X194035000Y-130572936D01*
X192565000Y-131027064D02*
X192565000Y-130572936D01*
%TO.C,R14*%
X214732936Y-85600000D02*
X216187064Y-85600000D01*
X214732936Y-83780000D02*
X216187064Y-83780000D01*
%TO.C,LD6*%
X216696000Y-61758000D02*
X216852000Y-61758000D01*
X219012000Y-61758000D02*
X219168000Y-61758000D01*
X216852163Y-59156870D02*
G75*
G03*
X216852000Y-61238961I1079837J-1041130D01*
G01*
X219167516Y-61758000D02*
G75*
G03*
X219010608Y-58525665I-1235516J1560000D01*
G01*
X219012000Y-61238961D02*
G75*
G03*
X219011837Y-59156870I-1080000J1040961D01*
G01*
X216853392Y-58525665D02*
G75*
G03*
X216696484Y-61758000I1078608J-1672335D01*
G01*
%TO.C,C20*%
X255470000Y-126532500D02*
X252450000Y-126532500D01*
X255470000Y-130742500D02*
X255470000Y-126532500D01*
X252450000Y-126532500D02*
X252450000Y-130742500D01*
%TO.C,R16*%
X225690000Y-117927064D02*
X225690000Y-116472936D01*
X227510000Y-117927064D02*
X227510000Y-116472936D01*
%TO.C,R7*%
X41865000Y-127252936D02*
X41865000Y-127707064D01*
X40395000Y-127252936D02*
X40395000Y-127707064D01*
%TO.C,D1*%
X237050000Y-109200000D02*
X237050000Y-107200000D01*
X237050000Y-107200000D02*
X232750000Y-107200000D01*
X232750000Y-109200000D02*
X237050000Y-109200000D01*
%TO.C,FR1*%
X221600000Y-90400000D02*
X250400000Y-90400000D01*
X250400000Y-90400000D02*
X250400000Y-49600000D01*
X250400000Y-49600000D02*
X221600000Y-49600000D01*
X221600000Y-49600000D02*
X221600000Y-90400000D01*
%TO.C,Y1*%
X159400000Y-120500000D02*
X159400000Y-118500000D01*
X163000000Y-120500000D02*
X162000000Y-120500000D01*
X162000000Y-118100000D02*
X162000000Y-117700000D01*
X162000000Y-118100000D02*
X163000000Y-118100000D01*
X163200000Y-120500000D02*
X163200000Y-118500000D01*
X160200000Y-120500000D02*
X159400000Y-120500000D01*
X159400000Y-118100000D02*
X160200000Y-118100000D01*
X159400000Y-118500000D02*
X159400000Y-118100000D01*
X163000000Y-118500000D02*
X163000000Y-118100000D01*
X163200000Y-118500000D02*
X163200000Y-118100000D01*
X163000000Y-118500000D02*
X163000000Y-120500000D01*
%TO.C,C19*%
X243440000Y-134512500D02*
X243440000Y-126452500D01*
X243440000Y-126452500D02*
X238920000Y-126452500D01*
X238920000Y-126452500D02*
X238920000Y-134512500D01*
%TO.C,C22*%
X47160000Y-124342500D02*
X47160000Y-116282500D01*
X42640000Y-116282500D02*
X42640000Y-124342500D01*
X47160000Y-116282500D02*
X42640000Y-116282500D01*
%TD*%
M02*
