%TF.GenerationSoftware,KiCad,Pcbnew,(6.0.10)*%
%TF.CreationDate,2023-11-27T04:30:22+11:00*%
%TF.ProjectId,Digislate,44696769-736c-4617-9465-2e6b69636164,rev?*%
%TF.SameCoordinates,Original*%
%TF.FileFunction,Legend,Bot*%
%TF.FilePolarity,Positive*%
%FSLAX46Y46*%
G04 Gerber Fmt 4.6, Leading zero omitted, Abs format (unit mm)*
G04 Created by KiCad (PCBNEW (6.0.10)) date 2023-11-27 04:30:22*
%MOMM*%
%LPD*%
G01*
G04 APERTURE LIST*
%ADD10C,0.300000*%
%ADD11C,0.250000*%
%ADD12C,0.350000*%
%ADD13C,0.200000*%
%ADD14C,0.150000*%
%ADD15C,0.550000*%
%ADD16C,0.120000*%
G04 APERTURE END LIST*
D10*
X174832857Y-90828571D02*
X175975714Y-91257142D01*
X174832857Y-91685714D01*
X172261428Y-91828571D02*
X172975714Y-91828571D01*
X172975714Y-90328571D01*
X170904285Y-91685714D02*
X170975714Y-91757142D01*
X171190000Y-91828571D01*
X171332857Y-91828571D01*
X171547142Y-91757142D01*
X171690000Y-91614285D01*
X171761428Y-91471428D01*
X171832857Y-91185714D01*
X171832857Y-90971428D01*
X171761428Y-90685714D01*
X171690000Y-90542857D01*
X171547142Y-90400000D01*
X171332857Y-90328571D01*
X171190000Y-90328571D01*
X170975714Y-90400000D01*
X170904285Y-90471428D01*
X170261428Y-91828571D02*
X170261428Y-90328571D01*
X169904285Y-90328571D01*
X169690000Y-90400000D01*
X169547142Y-90542857D01*
X169475714Y-90685714D01*
X169404285Y-90971428D01*
X169404285Y-91185714D01*
X169475714Y-91471428D01*
X169547142Y-91614285D01*
X169690000Y-91757142D01*
X169904285Y-91828571D01*
X170261428Y-91828571D01*
X166761428Y-91685714D02*
X166832857Y-91757142D01*
X167047142Y-91828571D01*
X167190000Y-91828571D01*
X167404285Y-91757142D01*
X167547142Y-91614285D01*
X167618571Y-91471428D01*
X167690000Y-91185714D01*
X167690000Y-90971428D01*
X167618571Y-90685714D01*
X167547142Y-90542857D01*
X167404285Y-90400000D01*
X167190000Y-90328571D01*
X167047142Y-90328571D01*
X166832857Y-90400000D01*
X166761428Y-90471428D01*
X165832857Y-90328571D02*
X165547142Y-90328571D01*
X165404285Y-90400000D01*
X165261428Y-90542857D01*
X165190000Y-90828571D01*
X165190000Y-91328571D01*
X165261428Y-91614285D01*
X165404285Y-91757142D01*
X165547142Y-91828571D01*
X165832857Y-91828571D01*
X165975714Y-91757142D01*
X166118571Y-91614285D01*
X166190000Y-91328571D01*
X166190000Y-90828571D01*
X166118571Y-90542857D01*
X165975714Y-90400000D01*
X165832857Y-90328571D01*
X164547142Y-91828571D02*
X164547142Y-90328571D01*
X163690000Y-91828571D01*
X163690000Y-90328571D01*
X163190000Y-90328571D02*
X162332857Y-90328571D01*
X162761428Y-91828571D02*
X162761428Y-90328571D01*
X160975714Y-91828571D02*
X161475714Y-91114285D01*
X161832857Y-91828571D02*
X161832857Y-90328571D01*
X161261428Y-90328571D01*
X161118571Y-90400000D01*
X161047142Y-90471428D01*
X160975714Y-90614285D01*
X160975714Y-90828571D01*
X161047142Y-90971428D01*
X161118571Y-91042857D01*
X161261428Y-91114285D01*
X161832857Y-91114285D01*
X160404285Y-91400000D02*
X159690000Y-91400000D01*
X160547142Y-91828571D02*
X160047142Y-90328571D01*
X159547142Y-91828571D01*
X159118571Y-91757142D02*
X158904285Y-91828571D01*
X158547142Y-91828571D01*
X158404285Y-91757142D01*
X158332857Y-91685714D01*
X158261428Y-91542857D01*
X158261428Y-91400000D01*
X158332857Y-91257142D01*
X158404285Y-91185714D01*
X158547142Y-91114285D01*
X158832857Y-91042857D01*
X158975714Y-90971428D01*
X159047142Y-90900000D01*
X159118571Y-90757142D01*
X159118571Y-90614285D01*
X159047142Y-90471428D01*
X158975714Y-90400000D01*
X158832857Y-90328571D01*
X158475714Y-90328571D01*
X158261428Y-90400000D01*
X157832857Y-90328571D02*
X156975714Y-90328571D01*
X157404285Y-91828571D02*
X157404285Y-90328571D01*
X155404285Y-91400000D02*
X154690000Y-91400000D01*
X155547142Y-91828571D02*
X155047142Y-90328571D01*
X154547142Y-91828571D01*
X154047142Y-91828571D02*
X154047142Y-90328571D01*
X153690000Y-90328571D01*
X153475714Y-90400000D01*
X153332857Y-90542857D01*
X153261428Y-90685714D01*
X153190000Y-90971428D01*
X153190000Y-91185714D01*
X153261428Y-91471428D01*
X153332857Y-91614285D01*
X153475714Y-91757142D01*
X153690000Y-91828571D01*
X154047142Y-91828571D01*
X152118571Y-90328571D02*
X152118571Y-91400000D01*
X152190000Y-91614285D01*
X152332857Y-91757142D01*
X152547142Y-91828571D01*
X152690000Y-91828571D01*
X151404285Y-91685714D02*
X151332857Y-91757142D01*
X151404285Y-91828571D01*
X151475714Y-91757142D01*
X151404285Y-91685714D01*
X151404285Y-91828571D01*
D11*
X212350000Y-95047142D02*
X212064285Y-95142380D01*
X211969047Y-95237619D01*
X211873809Y-95428095D01*
X211873809Y-95713809D01*
X211969047Y-95904285D01*
X212064285Y-95999523D01*
X212254761Y-96094761D01*
X213016666Y-96094761D01*
X213016666Y-94094761D01*
X212350000Y-94094761D01*
X212159523Y-94190000D01*
X212064285Y-94285238D01*
X211969047Y-94475714D01*
X211969047Y-94666190D01*
X212064285Y-94856666D01*
X212159523Y-94951904D01*
X212350000Y-95047142D01*
X213016666Y-95047142D01*
X211111904Y-95523333D02*
X210159523Y-95523333D01*
X211302380Y-96094761D02*
X210635714Y-94094761D01*
X209969047Y-96094761D01*
X209588095Y-94094761D02*
X208445238Y-94094761D01*
X209016666Y-96094761D02*
X209016666Y-94094761D01*
X208064285Y-94094761D02*
X206921428Y-94094761D01*
X207492857Y-96094761D02*
X207492857Y-94094761D01*
X206254761Y-95047142D02*
X205588095Y-95047142D01*
X205302380Y-96094761D02*
X206254761Y-96094761D01*
X206254761Y-94094761D01*
X205302380Y-94094761D01*
X203302380Y-96094761D02*
X203969047Y-95142380D01*
X204445238Y-96094761D02*
X204445238Y-94094761D01*
X203683333Y-94094761D01*
X203492857Y-94190000D01*
X203397619Y-94285238D01*
X203302380Y-94475714D01*
X203302380Y-94761428D01*
X203397619Y-94951904D01*
X203492857Y-95047142D01*
X203683333Y-95142380D01*
X204445238Y-95142380D01*
X202064285Y-95142380D02*
X202064285Y-96094761D01*
X202730952Y-94094761D02*
X202064285Y-95142380D01*
X201397619Y-94094761D01*
D12*
X193342857Y-91614285D02*
X191057142Y-91614285D01*
X192200000Y-92757142D02*
X192200000Y-90471428D01*
D11*
X99514285Y-125904761D02*
X98371428Y-125904761D01*
X98942857Y-127904761D02*
X98942857Y-125904761D01*
X96561904Y-127714285D02*
X96657142Y-127809523D01*
X96942857Y-127904761D01*
X97133333Y-127904761D01*
X97419047Y-127809523D01*
X97609523Y-127619047D01*
X97704761Y-127428571D01*
X97800000Y-127047619D01*
X97800000Y-126761904D01*
X97704761Y-126380952D01*
X97609523Y-126190476D01*
X97419047Y-126000000D01*
X97133333Y-125904761D01*
X96942857Y-125904761D01*
X96657142Y-126000000D01*
X96561904Y-126095238D01*
X94180952Y-127904761D02*
X94180952Y-125904761D01*
X93228571Y-126571428D02*
X93228571Y-127904761D01*
X93228571Y-126761904D02*
X93133333Y-126666666D01*
X92942857Y-126571428D01*
X92657142Y-126571428D01*
X92466666Y-126666666D01*
X92371428Y-126857142D01*
X92371428Y-127904761D01*
X41652380Y-30494761D02*
X40509523Y-30494761D01*
X41080952Y-32494761D02*
X41080952Y-30494761D01*
X39842857Y-32494761D02*
X39842857Y-31161428D01*
X39842857Y-31542380D02*
X39747619Y-31351904D01*
X39652380Y-31256666D01*
X39461904Y-31161428D01*
X39271428Y-31161428D01*
X38604761Y-32494761D02*
X38604761Y-31161428D01*
X38604761Y-30494761D02*
X38700000Y-30590000D01*
X38604761Y-30685238D01*
X38509523Y-30590000D01*
X38604761Y-30494761D01*
X38604761Y-30685238D01*
X36795238Y-31161428D02*
X36795238Y-32780476D01*
X36890476Y-32970952D01*
X36985714Y-33066190D01*
X37176190Y-33161428D01*
X37461904Y-33161428D01*
X37652380Y-33066190D01*
X36795238Y-32399523D02*
X36985714Y-32494761D01*
X37366666Y-32494761D01*
X37557142Y-32399523D01*
X37652380Y-32304285D01*
X37747619Y-32113809D01*
X37747619Y-31542380D01*
X37652380Y-31351904D01*
X37557142Y-31256666D01*
X37366666Y-31161428D01*
X36985714Y-31161428D01*
X36795238Y-31256666D01*
X34985714Y-31161428D02*
X34985714Y-32780476D01*
X35080952Y-32970952D01*
X35176190Y-33066190D01*
X35366666Y-33161428D01*
X35652380Y-33161428D01*
X35842857Y-33066190D01*
X34985714Y-32399523D02*
X35176190Y-32494761D01*
X35557142Y-32494761D01*
X35747619Y-32399523D01*
X35842857Y-32304285D01*
X35938095Y-32113809D01*
X35938095Y-31542380D01*
X35842857Y-31351904D01*
X35747619Y-31256666D01*
X35557142Y-31161428D01*
X35176190Y-31161428D01*
X34985714Y-31256666D01*
X33271428Y-32399523D02*
X33461904Y-32494761D01*
X33842857Y-32494761D01*
X34033333Y-32399523D01*
X34128571Y-32209047D01*
X34128571Y-31447142D01*
X34033333Y-31256666D01*
X33842857Y-31161428D01*
X33461904Y-31161428D01*
X33271428Y-31256666D01*
X33176190Y-31447142D01*
X33176190Y-31637619D01*
X34128571Y-31828095D01*
X32319047Y-32494761D02*
X32319047Y-31161428D01*
X32319047Y-31542380D02*
X32223809Y-31351904D01*
X32128571Y-31256666D01*
X31938095Y-31161428D01*
X31747619Y-31161428D01*
X40414285Y-34667142D02*
X40128571Y-34762380D01*
X40033333Y-34857619D01*
X39938095Y-35048095D01*
X39938095Y-35333809D01*
X40033333Y-35524285D01*
X40128571Y-35619523D01*
X40319047Y-35714761D01*
X41080952Y-35714761D01*
X41080952Y-33714761D01*
X40414285Y-33714761D01*
X40223809Y-33810000D01*
X40128571Y-33905238D01*
X40033333Y-34095714D01*
X40033333Y-34286190D01*
X40128571Y-34476666D01*
X40223809Y-34571904D01*
X40414285Y-34667142D01*
X41080952Y-34667142D01*
X38223809Y-34381428D02*
X38223809Y-35714761D01*
X39080952Y-34381428D02*
X39080952Y-35429047D01*
X38985714Y-35619523D01*
X38795238Y-35714761D01*
X38509523Y-35714761D01*
X38319047Y-35619523D01*
X38223809Y-35524285D01*
X37557142Y-34381428D02*
X36795238Y-34381428D01*
X37271428Y-33714761D02*
X37271428Y-35429047D01*
X37176190Y-35619523D01*
X36985714Y-35714761D01*
X36795238Y-35714761D01*
X36414285Y-34381428D02*
X35652380Y-34381428D01*
X36128571Y-33714761D02*
X36128571Y-35429047D01*
X36033333Y-35619523D01*
X35842857Y-35714761D01*
X35652380Y-35714761D01*
X34700000Y-35714761D02*
X34890476Y-35619523D01*
X34985714Y-35524285D01*
X35080952Y-35333809D01*
X35080952Y-34762380D01*
X34985714Y-34571904D01*
X34890476Y-34476666D01*
X34700000Y-34381428D01*
X34414285Y-34381428D01*
X34223809Y-34476666D01*
X34128571Y-34571904D01*
X34033333Y-34762380D01*
X34033333Y-35333809D01*
X34128571Y-35524285D01*
X34223809Y-35619523D01*
X34414285Y-35714761D01*
X34700000Y-35714761D01*
X33176190Y-34381428D02*
X33176190Y-35714761D01*
X33176190Y-34571904D02*
X33080952Y-34476666D01*
X32890476Y-34381428D01*
X32604761Y-34381428D01*
X32414285Y-34476666D01*
X32319047Y-34667142D01*
X32319047Y-35714761D01*
D13*
X195014285Y-124509523D02*
X194728571Y-124604761D01*
X194252380Y-124604761D01*
X194061904Y-124509523D01*
X193966666Y-124414285D01*
X193871428Y-124223809D01*
X193871428Y-124033333D01*
X193966666Y-123842857D01*
X194061904Y-123747619D01*
X194252380Y-123652380D01*
X194633333Y-123557142D01*
X194823809Y-123461904D01*
X194919047Y-123366666D01*
X195014285Y-123176190D01*
X195014285Y-122985714D01*
X194919047Y-122795238D01*
X194823809Y-122700000D01*
X194633333Y-122604761D01*
X194157142Y-122604761D01*
X193871428Y-122700000D01*
X193204761Y-122604761D02*
X192728571Y-124604761D01*
X192347619Y-123176190D01*
X191966666Y-124604761D01*
X191490476Y-122604761D01*
D11*
X214425714Y-99334761D02*
X215378095Y-99334761D01*
X215378095Y-97334761D01*
X213759047Y-99334761D02*
X213759047Y-98001428D01*
X213759047Y-97334761D02*
X213854285Y-97430000D01*
X213759047Y-97525238D01*
X213663809Y-97430000D01*
X213759047Y-97334761D01*
X213759047Y-97525238D01*
X212806666Y-98572857D02*
X211282857Y-98572857D01*
X210330476Y-99334761D02*
X210330476Y-97334761D01*
X209092380Y-99334761D02*
X209282857Y-99239523D01*
X209378095Y-99144285D01*
X209473333Y-98953809D01*
X209473333Y-98382380D01*
X209378095Y-98191904D01*
X209282857Y-98096666D01*
X209092380Y-98001428D01*
X208806666Y-98001428D01*
X208616190Y-98096666D01*
X208520952Y-98191904D01*
X208425714Y-98382380D01*
X208425714Y-98953809D01*
X208520952Y-99144285D01*
X208616190Y-99239523D01*
X208806666Y-99334761D01*
X209092380Y-99334761D01*
X207568571Y-98001428D02*
X207568571Y-99334761D01*
X207568571Y-98191904D02*
X207473333Y-98096666D01*
X207282857Y-98001428D01*
X206997142Y-98001428D01*
X206806666Y-98096666D01*
X206711428Y-98287142D01*
X206711428Y-99334761D01*
X204425714Y-97334761D02*
X203187619Y-97334761D01*
X203854285Y-98096666D01*
X203568571Y-98096666D01*
X203378095Y-98191904D01*
X203282857Y-98287142D01*
X203187619Y-98477619D01*
X203187619Y-98953809D01*
X203282857Y-99144285D01*
X203378095Y-99239523D01*
X203568571Y-99334761D01*
X204140000Y-99334761D01*
X204330476Y-99239523D01*
X204425714Y-99144285D01*
X202330476Y-99144285D02*
X202235238Y-99239523D01*
X202330476Y-99334761D01*
X202425714Y-99239523D01*
X202330476Y-99144285D01*
X202330476Y-99334761D01*
X201568571Y-97334761D02*
X200235238Y-97334761D01*
X201092380Y-99334761D01*
X199663809Y-98001428D02*
X199187619Y-99334761D01*
X198711428Y-98001428D01*
D10*
X218297142Y-69752857D02*
X218797142Y-69752857D01*
X218797142Y-70538571D02*
X218797142Y-69038571D01*
X218082857Y-69038571D01*
X217511428Y-70538571D02*
X217511428Y-69538571D01*
X217511428Y-69824285D02*
X217440000Y-69681428D01*
X217368571Y-69610000D01*
X217225714Y-69538571D01*
X217082857Y-69538571D01*
X216368571Y-70538571D02*
X216511428Y-70467142D01*
X216582857Y-70395714D01*
X216654285Y-70252857D01*
X216654285Y-69824285D01*
X216582857Y-69681428D01*
X216511428Y-69610000D01*
X216368571Y-69538571D01*
X216154285Y-69538571D01*
X216011428Y-69610000D01*
X215940000Y-69681428D01*
X215868571Y-69824285D01*
X215868571Y-70252857D01*
X215940000Y-70395714D01*
X216011428Y-70467142D01*
X216154285Y-70538571D01*
X216368571Y-70538571D01*
X215225714Y-69538571D02*
X215225714Y-70538571D01*
X215225714Y-69681428D02*
X215154285Y-69610000D01*
X215011428Y-69538571D01*
X214797142Y-69538571D01*
X214654285Y-69610000D01*
X214582857Y-69752857D01*
X214582857Y-70538571D01*
X213225714Y-70538571D02*
X213225714Y-69038571D01*
X213225714Y-70467142D02*
X213368571Y-70538571D01*
X213654285Y-70538571D01*
X213797142Y-70467142D01*
X213868571Y-70395714D01*
X213940000Y-70252857D01*
X213940000Y-69824285D01*
X213868571Y-69681428D01*
X213797142Y-69610000D01*
X213654285Y-69538571D01*
X213368571Y-69538571D01*
X213225714Y-69610000D01*
X211368571Y-70538571D02*
X211368571Y-69038571D01*
X211011428Y-69038571D01*
X210797142Y-69110000D01*
X210654285Y-69252857D01*
X210582857Y-69395714D01*
X210511428Y-69681428D01*
X210511428Y-69895714D01*
X210582857Y-70181428D01*
X210654285Y-70324285D01*
X210797142Y-70467142D01*
X211011428Y-70538571D01*
X211368571Y-70538571D01*
X209868571Y-70538571D02*
X209868571Y-69538571D01*
X209868571Y-69038571D02*
X209940000Y-69110000D01*
X209868571Y-69181428D01*
X209797142Y-69110000D01*
X209868571Y-69038571D01*
X209868571Y-69181428D01*
X209225714Y-70467142D02*
X209082857Y-70538571D01*
X208797142Y-70538571D01*
X208654285Y-70467142D01*
X208582857Y-70324285D01*
X208582857Y-70252857D01*
X208654285Y-70110000D01*
X208797142Y-70038571D01*
X209011428Y-70038571D01*
X209154285Y-69967142D01*
X209225714Y-69824285D01*
X209225714Y-69752857D01*
X209154285Y-69610000D01*
X209011428Y-69538571D01*
X208797142Y-69538571D01*
X208654285Y-69610000D01*
X207940000Y-69538571D02*
X207940000Y-71038571D01*
X207940000Y-69610000D02*
X207797142Y-69538571D01*
X207511428Y-69538571D01*
X207368571Y-69610000D01*
X207297142Y-69681428D01*
X207225714Y-69824285D01*
X207225714Y-70252857D01*
X207297142Y-70395714D01*
X207368571Y-70467142D01*
X207511428Y-70538571D01*
X207797142Y-70538571D01*
X207940000Y-70467142D01*
X206582857Y-70395714D02*
X206511428Y-70467142D01*
X206582857Y-70538571D01*
X206654285Y-70467142D01*
X206582857Y-70395714D01*
X206582857Y-70538571D01*
X204225714Y-69752857D02*
X204011428Y-69824285D01*
X203940000Y-69895714D01*
X203868571Y-70038571D01*
X203868571Y-70252857D01*
X203940000Y-70395714D01*
X204011428Y-70467142D01*
X204154285Y-70538571D01*
X204725714Y-70538571D01*
X204725714Y-69038571D01*
X204225714Y-69038571D01*
X204082857Y-69110000D01*
X204011428Y-69181428D01*
X203940000Y-69324285D01*
X203940000Y-69467142D01*
X204011428Y-69610000D01*
X204082857Y-69681428D01*
X204225714Y-69752857D01*
X204725714Y-69752857D01*
X203225714Y-70538571D02*
X203225714Y-69538571D01*
X203225714Y-69824285D02*
X203154285Y-69681428D01*
X203082857Y-69610000D01*
X202940000Y-69538571D01*
X202797142Y-69538571D01*
X202297142Y-70538571D02*
X202297142Y-69538571D01*
X202297142Y-69038571D02*
X202368571Y-69110000D01*
X202297142Y-69181428D01*
X202225714Y-69110000D01*
X202297142Y-69038571D01*
X202297142Y-69181428D01*
X200940000Y-69538571D02*
X200940000Y-70752857D01*
X201011428Y-70895714D01*
X201082857Y-70967142D01*
X201225714Y-71038571D01*
X201440000Y-71038571D01*
X201582857Y-70967142D01*
X200940000Y-70467142D02*
X201082857Y-70538571D01*
X201368571Y-70538571D01*
X201511428Y-70467142D01*
X201582857Y-70395714D01*
X201654285Y-70252857D01*
X201654285Y-69824285D01*
X201582857Y-69681428D01*
X201511428Y-69610000D01*
X201368571Y-69538571D01*
X201082857Y-69538571D01*
X200940000Y-69610000D01*
X200225714Y-70538571D02*
X200225714Y-69038571D01*
X199582857Y-70538571D02*
X199582857Y-69752857D01*
X199654285Y-69610000D01*
X199797142Y-69538571D01*
X200011428Y-69538571D01*
X200154285Y-69610000D01*
X200225714Y-69681428D01*
X199082857Y-69538571D02*
X198511428Y-69538571D01*
X198868571Y-69038571D02*
X198868571Y-70324285D01*
X198797142Y-70467142D01*
X198654285Y-70538571D01*
X198511428Y-70538571D01*
X198011428Y-69538571D02*
X198011428Y-70538571D01*
X198011428Y-69681428D02*
X197940000Y-69610000D01*
X197797142Y-69538571D01*
X197582857Y-69538571D01*
X197440000Y-69610000D01*
X197368571Y-69752857D01*
X197368571Y-70538571D01*
X196082857Y-70467142D02*
X196225714Y-70538571D01*
X196511428Y-70538571D01*
X196654285Y-70467142D01*
X196725714Y-70324285D01*
X196725714Y-69752857D01*
X196654285Y-69610000D01*
X196511428Y-69538571D01*
X196225714Y-69538571D01*
X196082857Y-69610000D01*
X196011428Y-69752857D01*
X196011428Y-69895714D01*
X196725714Y-70038571D01*
X195440000Y-70467142D02*
X195297142Y-70538571D01*
X195011428Y-70538571D01*
X194868571Y-70467142D01*
X194797142Y-70324285D01*
X194797142Y-70252857D01*
X194868571Y-70110000D01*
X195011428Y-70038571D01*
X195225714Y-70038571D01*
X195368571Y-69967142D01*
X195440000Y-69824285D01*
X195440000Y-69752857D01*
X195368571Y-69610000D01*
X195225714Y-69538571D01*
X195011428Y-69538571D01*
X194868571Y-69610000D01*
X194225714Y-70467142D02*
X194082857Y-70538571D01*
X193797142Y-70538571D01*
X193654285Y-70467142D01*
X193582857Y-70324285D01*
X193582857Y-70252857D01*
X193654285Y-70110000D01*
X193797142Y-70038571D01*
X194011428Y-70038571D01*
X194154285Y-69967142D01*
X194225714Y-69824285D01*
X194225714Y-69752857D01*
X194154285Y-69610000D01*
X194011428Y-69538571D01*
X193797142Y-69538571D01*
X193654285Y-69610000D01*
X191868571Y-70110000D02*
X191154285Y-70110000D01*
X192011428Y-70538571D02*
X191511428Y-69038571D01*
X191011428Y-70538571D01*
X189868571Y-70538571D02*
X189868571Y-69038571D01*
X189868571Y-70467142D02*
X190011428Y-70538571D01*
X190297142Y-70538571D01*
X190440000Y-70467142D01*
X190511428Y-70395714D01*
X190582857Y-70252857D01*
X190582857Y-69824285D01*
X190511428Y-69681428D01*
X190440000Y-69610000D01*
X190297142Y-69538571D01*
X190011428Y-69538571D01*
X189868571Y-69610000D01*
X189154285Y-69538571D02*
X189154285Y-70824285D01*
X189225714Y-70967142D01*
X189368571Y-71038571D01*
X189440000Y-71038571D01*
X189154285Y-69038571D02*
X189225714Y-69110000D01*
X189154285Y-69181428D01*
X189082857Y-69110000D01*
X189154285Y-69038571D01*
X189154285Y-69181428D01*
X188440000Y-70395714D02*
X188368571Y-70467142D01*
X188440000Y-70538571D01*
X188511428Y-70467142D01*
X188440000Y-70395714D01*
X188440000Y-70538571D01*
X187725714Y-69538571D02*
X186582857Y-69967142D01*
X187725714Y-70395714D01*
D12*
X196542857Y-91614285D02*
X194257142Y-91614285D01*
D14*
X193485714Y-137452142D02*
X193533333Y-137499761D01*
X193676190Y-137547380D01*
X193771428Y-137547380D01*
X193914285Y-137499761D01*
X194009523Y-137404523D01*
X194057142Y-137309285D01*
X194104761Y-137118809D01*
X194104761Y-136975952D01*
X194057142Y-136785476D01*
X194009523Y-136690238D01*
X193914285Y-136595000D01*
X193771428Y-136547380D01*
X193676190Y-136547380D01*
X193533333Y-136595000D01*
X193485714Y-136642619D01*
X193057142Y-137547380D02*
X193057142Y-136547380D01*
X192628571Y-137547380D02*
X192628571Y-137023571D01*
X192676190Y-136928333D01*
X192771428Y-136880714D01*
X192914285Y-136880714D01*
X193009523Y-136928333D01*
X193057142Y-136975952D01*
X191723809Y-137547380D02*
X191723809Y-137023571D01*
X191771428Y-136928333D01*
X191866666Y-136880714D01*
X192057142Y-136880714D01*
X192152380Y-136928333D01*
X191723809Y-137499761D02*
X191819047Y-137547380D01*
X192057142Y-137547380D01*
X192152380Y-137499761D01*
X192200000Y-137404523D01*
X192200000Y-137309285D01*
X192152380Y-137214047D01*
X192057142Y-137166428D01*
X191819047Y-137166428D01*
X191723809Y-137118809D01*
X191247619Y-137547380D02*
X191247619Y-136880714D01*
X191247619Y-137071190D02*
X191200000Y-136975952D01*
X191152380Y-136928333D01*
X191057142Y-136880714D01*
X190961904Y-136880714D01*
X190200000Y-136880714D02*
X190200000Y-137690238D01*
X190247619Y-137785476D01*
X190295238Y-137833095D01*
X190390476Y-137880714D01*
X190533333Y-137880714D01*
X190628571Y-137833095D01*
X190200000Y-137499761D02*
X190295238Y-137547380D01*
X190485714Y-137547380D01*
X190580952Y-137499761D01*
X190628571Y-137452142D01*
X190676190Y-137356904D01*
X190676190Y-137071190D01*
X190628571Y-136975952D01*
X190580952Y-136928333D01*
X190485714Y-136880714D01*
X190295238Y-136880714D01*
X190200000Y-136928333D01*
X189342857Y-137499761D02*
X189438095Y-137547380D01*
X189628571Y-137547380D01*
X189723809Y-137499761D01*
X189771428Y-137404523D01*
X189771428Y-137023571D01*
X189723809Y-136928333D01*
X189628571Y-136880714D01*
X189438095Y-136880714D01*
X189342857Y-136928333D01*
X189295238Y-137023571D01*
X189295238Y-137118809D01*
X189771428Y-137214047D01*
X193866666Y-139109761D02*
X193723809Y-139157380D01*
X193485714Y-139157380D01*
X193390476Y-139109761D01*
X193342857Y-139062142D01*
X193295238Y-138966904D01*
X193295238Y-138871666D01*
X193342857Y-138776428D01*
X193390476Y-138728809D01*
X193485714Y-138681190D01*
X193676190Y-138633571D01*
X193771428Y-138585952D01*
X193819047Y-138538333D01*
X193866666Y-138443095D01*
X193866666Y-138347857D01*
X193819047Y-138252619D01*
X193771428Y-138205000D01*
X193676190Y-138157380D01*
X193438095Y-138157380D01*
X193295238Y-138205000D01*
X193009523Y-138490714D02*
X192628571Y-138490714D01*
X192866666Y-138157380D02*
X192866666Y-139014523D01*
X192819047Y-139109761D01*
X192723809Y-139157380D01*
X192628571Y-139157380D01*
X191866666Y-139157380D02*
X191866666Y-138633571D01*
X191914285Y-138538333D01*
X192009523Y-138490714D01*
X192200000Y-138490714D01*
X192295238Y-138538333D01*
X191866666Y-139109761D02*
X191961904Y-139157380D01*
X192200000Y-139157380D01*
X192295238Y-139109761D01*
X192342857Y-139014523D01*
X192342857Y-138919285D01*
X192295238Y-138824047D01*
X192200000Y-138776428D01*
X191961904Y-138776428D01*
X191866666Y-138728809D01*
X191533333Y-138490714D02*
X191152380Y-138490714D01*
X191390476Y-138157380D02*
X191390476Y-139014523D01*
X191342857Y-139109761D01*
X191247619Y-139157380D01*
X191152380Y-139157380D01*
X190390476Y-138490714D02*
X190390476Y-139157380D01*
X190819047Y-138490714D02*
X190819047Y-139014523D01*
X190771428Y-139109761D01*
X190676190Y-139157380D01*
X190533333Y-139157380D01*
X190438095Y-139109761D01*
X190390476Y-139062142D01*
X189961904Y-139109761D02*
X189866666Y-139157380D01*
X189676190Y-139157380D01*
X189580952Y-139109761D01*
X189533333Y-139014523D01*
X189533333Y-138966904D01*
X189580952Y-138871666D01*
X189676190Y-138824047D01*
X189819047Y-138824047D01*
X189914285Y-138776428D01*
X189961904Y-138681190D01*
X189961904Y-138633571D01*
X189914285Y-138538333D01*
X189819047Y-138490714D01*
X189676190Y-138490714D01*
X189580952Y-138538333D01*
X166319047Y-133714285D02*
X167080952Y-133428571D01*
X166319047Y-133142857D01*
D11*
X86104761Y-125304761D02*
X84961904Y-125304761D01*
X85533333Y-127304761D02*
X85533333Y-125304761D01*
X84295238Y-127304761D02*
X84295238Y-125971428D01*
X84295238Y-126352380D02*
X84200000Y-126161904D01*
X84104761Y-126066666D01*
X83914285Y-125971428D01*
X83723809Y-125971428D01*
X83057142Y-127304761D02*
X83057142Y-125971428D01*
X83057142Y-125304761D02*
X83152380Y-125400000D01*
X83057142Y-125495238D01*
X82961904Y-125400000D01*
X83057142Y-125304761D01*
X83057142Y-125495238D01*
X81247619Y-125971428D02*
X81247619Y-127590476D01*
X81342857Y-127780952D01*
X81438095Y-127876190D01*
X81628571Y-127971428D01*
X81914285Y-127971428D01*
X82104761Y-127876190D01*
X81247619Y-127209523D02*
X81438095Y-127304761D01*
X81819047Y-127304761D01*
X82009523Y-127209523D01*
X82104761Y-127114285D01*
X82200000Y-126923809D01*
X82200000Y-126352380D01*
X82104761Y-126161904D01*
X82009523Y-126066666D01*
X81819047Y-125971428D01*
X81438095Y-125971428D01*
X81247619Y-126066666D01*
X80295238Y-127114285D02*
X80200000Y-127209523D01*
X80295238Y-127304761D01*
X80390476Y-127209523D01*
X80295238Y-127114285D01*
X80295238Y-127304761D01*
X78961904Y-125304761D02*
X78580952Y-125304761D01*
X78390476Y-125400000D01*
X78200000Y-125590476D01*
X78104761Y-125971428D01*
X78104761Y-126638095D01*
X78200000Y-127019047D01*
X78390476Y-127209523D01*
X78580952Y-127304761D01*
X78961904Y-127304761D01*
X79152380Y-127209523D01*
X79342857Y-127019047D01*
X79438095Y-126638095D01*
X79438095Y-125971428D01*
X79342857Y-125590476D01*
X79152380Y-125400000D01*
X78961904Y-125304761D01*
X77247619Y-125304761D02*
X77247619Y-126923809D01*
X77152380Y-127114285D01*
X77057142Y-127209523D01*
X76866666Y-127304761D01*
X76485714Y-127304761D01*
X76295238Y-127209523D01*
X76200000Y-127114285D01*
X76104761Y-126923809D01*
X76104761Y-125304761D01*
X75438095Y-125304761D02*
X74295238Y-125304761D01*
X74866666Y-127304761D02*
X74866666Y-125304761D01*
D15*
X165528571Y-136857142D02*
X165528571Y-133857142D01*
X164242857Y-136714285D02*
X163814285Y-136857142D01*
X163100000Y-136857142D01*
X162814285Y-136714285D01*
X162671428Y-136571428D01*
X162528571Y-136285714D01*
X162528571Y-136000000D01*
X162671428Y-135714285D01*
X162814285Y-135571428D01*
X163100000Y-135428571D01*
X163671428Y-135285714D01*
X163957142Y-135142857D01*
X164100000Y-135000000D01*
X164242857Y-134714285D01*
X164242857Y-134428571D01*
X164100000Y-134142857D01*
X163957142Y-134000000D01*
X163671428Y-133857142D01*
X162957142Y-133857142D01*
X162528571Y-134000000D01*
X161242857Y-136857142D02*
X161242857Y-133857142D01*
X160100000Y-133857142D01*
X159814285Y-134000000D01*
X159671428Y-134142857D01*
X159528571Y-134428571D01*
X159528571Y-134857142D01*
X159671428Y-135142857D01*
X159814285Y-135285714D01*
X160100000Y-135428571D01*
X161242857Y-135428571D01*
D14*
%TO.C,R21*%
X233342857Y-110652380D02*
X233676190Y-110176190D01*
X233914285Y-110652380D02*
X233914285Y-109652380D01*
X233533333Y-109652380D01*
X233438095Y-109700000D01*
X233390476Y-109747619D01*
X233342857Y-109842857D01*
X233342857Y-109985714D01*
X233390476Y-110080952D01*
X233438095Y-110128571D01*
X233533333Y-110176190D01*
X233914285Y-110176190D01*
X232961904Y-109747619D02*
X232914285Y-109700000D01*
X232819047Y-109652380D01*
X232580952Y-109652380D01*
X232485714Y-109700000D01*
X232438095Y-109747619D01*
X232390476Y-109842857D01*
X232390476Y-109938095D01*
X232438095Y-110080952D01*
X233009523Y-110652380D01*
X232390476Y-110652380D01*
X231438095Y-110652380D02*
X232009523Y-110652380D01*
X231723809Y-110652380D02*
X231723809Y-109652380D01*
X231819047Y-109795238D01*
X231914285Y-109890476D01*
X232009523Y-109938095D01*
%TO.C,C2*%
X103566666Y-127257142D02*
X103614285Y-127304761D01*
X103757142Y-127352380D01*
X103852380Y-127352380D01*
X103995238Y-127304761D01*
X104090476Y-127209523D01*
X104138095Y-127114285D01*
X104185714Y-126923809D01*
X104185714Y-126780952D01*
X104138095Y-126590476D01*
X104090476Y-126495238D01*
X103995238Y-126400000D01*
X103852380Y-126352380D01*
X103757142Y-126352380D01*
X103614285Y-126400000D01*
X103566666Y-126447619D01*
X103185714Y-126447619D02*
X103138095Y-126400000D01*
X103042857Y-126352380D01*
X102804761Y-126352380D01*
X102709523Y-126400000D01*
X102661904Y-126447619D01*
X102614285Y-126542857D01*
X102614285Y-126638095D01*
X102661904Y-126780952D01*
X103233333Y-127352380D01*
X102614285Y-127352380D01*
%TO.C,SW1*%
X34099333Y-28344761D02*
X33956476Y-28392380D01*
X33718380Y-28392380D01*
X33623142Y-28344761D01*
X33575523Y-28297142D01*
X33527904Y-28201904D01*
X33527904Y-28106666D01*
X33575523Y-28011428D01*
X33623142Y-27963809D01*
X33718380Y-27916190D01*
X33908857Y-27868571D01*
X34004095Y-27820952D01*
X34051714Y-27773333D01*
X34099333Y-27678095D01*
X34099333Y-27582857D01*
X34051714Y-27487619D01*
X34004095Y-27440000D01*
X33908857Y-27392380D01*
X33670761Y-27392380D01*
X33527904Y-27440000D01*
X33194571Y-27392380D02*
X32956476Y-28392380D01*
X32766000Y-27678095D01*
X32575523Y-28392380D01*
X32337428Y-27392380D01*
X31432666Y-28392380D02*
X32004095Y-28392380D01*
X31718380Y-28392380D02*
X31718380Y-27392380D01*
X31813619Y-27535238D01*
X31908857Y-27630476D01*
X32004095Y-27678095D01*
%TO.C,C12*%
X246292857Y-123437142D02*
X246340476Y-123484761D01*
X246483333Y-123532380D01*
X246578571Y-123532380D01*
X246721428Y-123484761D01*
X246816666Y-123389523D01*
X246864285Y-123294285D01*
X246911904Y-123103809D01*
X246911904Y-122960952D01*
X246864285Y-122770476D01*
X246816666Y-122675238D01*
X246721428Y-122580000D01*
X246578571Y-122532380D01*
X246483333Y-122532380D01*
X246340476Y-122580000D01*
X246292857Y-122627619D01*
X245340476Y-123532380D02*
X245911904Y-123532380D01*
X245626190Y-123532380D02*
X245626190Y-122532380D01*
X245721428Y-122675238D01*
X245816666Y-122770476D01*
X245911904Y-122818095D01*
X244959523Y-122627619D02*
X244911904Y-122580000D01*
X244816666Y-122532380D01*
X244578571Y-122532380D01*
X244483333Y-122580000D01*
X244435714Y-122627619D01*
X244388095Y-122722857D01*
X244388095Y-122818095D01*
X244435714Y-122960952D01*
X245007142Y-123532380D01*
X244388095Y-123532380D01*
%TO.C,R9*%
X212969166Y-38832380D02*
X213302500Y-38356190D01*
X213540595Y-38832380D02*
X213540595Y-37832380D01*
X213159642Y-37832380D01*
X213064404Y-37880000D01*
X213016785Y-37927619D01*
X212969166Y-38022857D01*
X212969166Y-38165714D01*
X213016785Y-38260952D01*
X213064404Y-38308571D01*
X213159642Y-38356190D01*
X213540595Y-38356190D01*
X212492976Y-38832380D02*
X212302500Y-38832380D01*
X212207261Y-38784761D01*
X212159642Y-38737142D01*
X212064404Y-38594285D01*
X212016785Y-38403809D01*
X212016785Y-38022857D01*
X212064404Y-37927619D01*
X212112023Y-37880000D01*
X212207261Y-37832380D01*
X212397738Y-37832380D01*
X212492976Y-37880000D01*
X212540595Y-37927619D01*
X212588214Y-38022857D01*
X212588214Y-38260952D01*
X212540595Y-38356190D01*
X212492976Y-38403809D01*
X212397738Y-38451428D01*
X212207261Y-38451428D01*
X212112023Y-38403809D01*
X212064404Y-38356190D01*
X212016785Y-38260952D01*
%TO.C,J1*%
X55892380Y-105628666D02*
X56606666Y-105628666D01*
X56749523Y-105581047D01*
X56844761Y-105485809D01*
X56892380Y-105342952D01*
X56892380Y-105247714D01*
X56892380Y-106628666D02*
X56892380Y-106057238D01*
X56892380Y-106342952D02*
X55892380Y-106342952D01*
X56035238Y-106247714D01*
X56130476Y-106152476D01*
X56178095Y-106057238D01*
%TO.C,C16*%
X205342857Y-114157142D02*
X205390476Y-114204761D01*
X205533333Y-114252380D01*
X205628571Y-114252380D01*
X205771428Y-114204761D01*
X205866666Y-114109523D01*
X205914285Y-114014285D01*
X205961904Y-113823809D01*
X205961904Y-113680952D01*
X205914285Y-113490476D01*
X205866666Y-113395238D01*
X205771428Y-113300000D01*
X205628571Y-113252380D01*
X205533333Y-113252380D01*
X205390476Y-113300000D01*
X205342857Y-113347619D01*
X204390476Y-114252380D02*
X204961904Y-114252380D01*
X204676190Y-114252380D02*
X204676190Y-113252380D01*
X204771428Y-113395238D01*
X204866666Y-113490476D01*
X204961904Y-113538095D01*
X203533333Y-113252380D02*
X203723809Y-113252380D01*
X203819047Y-113300000D01*
X203866666Y-113347619D01*
X203961904Y-113490476D01*
X204009523Y-113680952D01*
X204009523Y-114061904D01*
X203961904Y-114157142D01*
X203914285Y-114204761D01*
X203819047Y-114252380D01*
X203628571Y-114252380D01*
X203533333Y-114204761D01*
X203485714Y-114157142D01*
X203438095Y-114061904D01*
X203438095Y-113823809D01*
X203485714Y-113728571D01*
X203533333Y-113680952D01*
X203628571Y-113633333D01*
X203819047Y-113633333D01*
X203914285Y-113680952D01*
X203961904Y-113728571D01*
X204009523Y-113823809D01*
%TO.C,RV3*%
X183125238Y-66702380D02*
X183458571Y-66226190D01*
X183696666Y-66702380D02*
X183696666Y-65702380D01*
X183315714Y-65702380D01*
X183220476Y-65750000D01*
X183172857Y-65797619D01*
X183125238Y-65892857D01*
X183125238Y-66035714D01*
X183172857Y-66130952D01*
X183220476Y-66178571D01*
X183315714Y-66226190D01*
X183696666Y-66226190D01*
X182839523Y-65702380D02*
X182506190Y-66702380D01*
X182172857Y-65702380D01*
X181934761Y-65702380D02*
X181315714Y-65702380D01*
X181649047Y-66083333D01*
X181506190Y-66083333D01*
X181410952Y-66130952D01*
X181363333Y-66178571D01*
X181315714Y-66273809D01*
X181315714Y-66511904D01*
X181363333Y-66607142D01*
X181410952Y-66654761D01*
X181506190Y-66702380D01*
X181791904Y-66702380D01*
X181887142Y-66654761D01*
X181934761Y-66607142D01*
%TO.C,Q2*%
X105347619Y-122904761D02*
X105300000Y-122809523D01*
X105204761Y-122714285D01*
X105061904Y-122571428D01*
X105014285Y-122476190D01*
X105014285Y-122380952D01*
X105252380Y-122428571D02*
X105204761Y-122333333D01*
X105109523Y-122238095D01*
X104919047Y-122190476D01*
X104585714Y-122190476D01*
X104395238Y-122238095D01*
X104300000Y-122333333D01*
X104252380Y-122428571D01*
X104252380Y-122619047D01*
X104300000Y-122714285D01*
X104395238Y-122809523D01*
X104585714Y-122857142D01*
X104919047Y-122857142D01*
X105109523Y-122809523D01*
X105204761Y-122714285D01*
X105252380Y-122619047D01*
X105252380Y-122428571D01*
X104347619Y-123238095D02*
X104300000Y-123285714D01*
X104252380Y-123380952D01*
X104252380Y-123619047D01*
X104300000Y-123714285D01*
X104347619Y-123761904D01*
X104442857Y-123809523D01*
X104538095Y-123809523D01*
X104680952Y-123761904D01*
X105252380Y-123190476D01*
X105252380Y-123809523D01*
%TO.C,RV2*%
X224595238Y-111552380D02*
X224928571Y-111076190D01*
X225166666Y-111552380D02*
X225166666Y-110552380D01*
X224785714Y-110552380D01*
X224690476Y-110600000D01*
X224642857Y-110647619D01*
X224595238Y-110742857D01*
X224595238Y-110885714D01*
X224642857Y-110980952D01*
X224690476Y-111028571D01*
X224785714Y-111076190D01*
X225166666Y-111076190D01*
X224309523Y-110552380D02*
X223976190Y-111552380D01*
X223642857Y-110552380D01*
X223357142Y-110647619D02*
X223309523Y-110600000D01*
X223214285Y-110552380D01*
X222976190Y-110552380D01*
X222880952Y-110600000D01*
X222833333Y-110647619D01*
X222785714Y-110742857D01*
X222785714Y-110838095D01*
X222833333Y-110980952D01*
X223404761Y-111552380D01*
X222785714Y-111552380D01*
%TO.C,C17*%
X177827142Y-77519642D02*
X177874761Y-77472023D01*
X177922380Y-77329166D01*
X177922380Y-77233928D01*
X177874761Y-77091071D01*
X177779523Y-76995833D01*
X177684285Y-76948214D01*
X177493809Y-76900595D01*
X177350952Y-76900595D01*
X177160476Y-76948214D01*
X177065238Y-76995833D01*
X176970000Y-77091071D01*
X176922380Y-77233928D01*
X176922380Y-77329166D01*
X176970000Y-77472023D01*
X177017619Y-77519642D01*
X177922380Y-78472023D02*
X177922380Y-77900595D01*
X177922380Y-78186309D02*
X176922380Y-78186309D01*
X177065238Y-78091071D01*
X177160476Y-77995833D01*
X177208095Y-77900595D01*
X176922380Y-78805357D02*
X176922380Y-79472023D01*
X177922380Y-79043452D01*
%TO.C,R10*%
X84722857Y-35142380D02*
X85056190Y-34666190D01*
X85294285Y-35142380D02*
X85294285Y-34142380D01*
X84913333Y-34142380D01*
X84818095Y-34190000D01*
X84770476Y-34237619D01*
X84722857Y-34332857D01*
X84722857Y-34475714D01*
X84770476Y-34570952D01*
X84818095Y-34618571D01*
X84913333Y-34666190D01*
X85294285Y-34666190D01*
X83770476Y-35142380D02*
X84341904Y-35142380D01*
X84056190Y-35142380D02*
X84056190Y-34142380D01*
X84151428Y-34285238D01*
X84246666Y-34380476D01*
X84341904Y-34428095D01*
X83151428Y-34142380D02*
X83056190Y-34142380D01*
X82960952Y-34190000D01*
X82913333Y-34237619D01*
X82865714Y-34332857D01*
X82818095Y-34523333D01*
X82818095Y-34761428D01*
X82865714Y-34951904D01*
X82913333Y-35047142D01*
X82960952Y-35094761D01*
X83056190Y-35142380D01*
X83151428Y-35142380D01*
X83246666Y-35094761D01*
X83294285Y-35047142D01*
X83341904Y-34951904D01*
X83389523Y-34761428D01*
X83389523Y-34523333D01*
X83341904Y-34332857D01*
X83294285Y-34237619D01*
X83246666Y-34190000D01*
X83151428Y-34142380D01*
%TO.C,CN5*%
X201490476Y-135857142D02*
X201538095Y-135904761D01*
X201680952Y-135952380D01*
X201776190Y-135952380D01*
X201919047Y-135904761D01*
X202014285Y-135809523D01*
X202061904Y-135714285D01*
X202109523Y-135523809D01*
X202109523Y-135380952D01*
X202061904Y-135190476D01*
X202014285Y-135095238D01*
X201919047Y-135000000D01*
X201776190Y-134952380D01*
X201680952Y-134952380D01*
X201538095Y-135000000D01*
X201490476Y-135047619D01*
X201061904Y-135952380D02*
X201061904Y-134952380D01*
X200490476Y-135952380D01*
X200490476Y-134952380D01*
X199538095Y-134952380D02*
X200014285Y-134952380D01*
X200061904Y-135428571D01*
X200014285Y-135380952D01*
X199919047Y-135333333D01*
X199680952Y-135333333D01*
X199585714Y-135380952D01*
X199538095Y-135428571D01*
X199490476Y-135523809D01*
X199490476Y-135761904D01*
X199538095Y-135857142D01*
X199585714Y-135904761D01*
X199680952Y-135952380D01*
X199919047Y-135952380D01*
X200014285Y-135904761D01*
X200061904Y-135857142D01*
%TO.C,RV1*%
X179995238Y-87452380D02*
X180328571Y-86976190D01*
X180566666Y-87452380D02*
X180566666Y-86452380D01*
X180185714Y-86452380D01*
X180090476Y-86500000D01*
X180042857Y-86547619D01*
X179995238Y-86642857D01*
X179995238Y-86785714D01*
X180042857Y-86880952D01*
X180090476Y-86928571D01*
X180185714Y-86976190D01*
X180566666Y-86976190D01*
X179709523Y-86452380D02*
X179376190Y-87452380D01*
X179042857Y-86452380D01*
X178185714Y-87452380D02*
X178757142Y-87452380D01*
X178471428Y-87452380D02*
X178471428Y-86452380D01*
X178566666Y-86595238D01*
X178661904Y-86690476D01*
X178757142Y-86738095D01*
%TO.C,CN1*%
X194390476Y-99157142D02*
X194438095Y-99204761D01*
X194580952Y-99252380D01*
X194676190Y-99252380D01*
X194819047Y-99204761D01*
X194914285Y-99109523D01*
X194961904Y-99014285D01*
X195009523Y-98823809D01*
X195009523Y-98680952D01*
X194961904Y-98490476D01*
X194914285Y-98395238D01*
X194819047Y-98300000D01*
X194676190Y-98252380D01*
X194580952Y-98252380D01*
X194438095Y-98300000D01*
X194390476Y-98347619D01*
X193961904Y-99252380D02*
X193961904Y-98252380D01*
X193390476Y-99252380D01*
X193390476Y-98252380D01*
X192390476Y-99252380D02*
X192961904Y-99252380D01*
X192676190Y-99252380D02*
X192676190Y-98252380D01*
X192771428Y-98395238D01*
X192866666Y-98490476D01*
X192961904Y-98538095D01*
%TO.C,R22*%
X191402857Y-102552380D02*
X191736190Y-102076190D01*
X191974285Y-102552380D02*
X191974285Y-101552380D01*
X191593333Y-101552380D01*
X191498095Y-101600000D01*
X191450476Y-101647619D01*
X191402857Y-101742857D01*
X191402857Y-101885714D01*
X191450476Y-101980952D01*
X191498095Y-102028571D01*
X191593333Y-102076190D01*
X191974285Y-102076190D01*
X191021904Y-101647619D02*
X190974285Y-101600000D01*
X190879047Y-101552380D01*
X190640952Y-101552380D01*
X190545714Y-101600000D01*
X190498095Y-101647619D01*
X190450476Y-101742857D01*
X190450476Y-101838095D01*
X190498095Y-101980952D01*
X191069523Y-102552380D01*
X190450476Y-102552380D01*
X190069523Y-101647619D02*
X190021904Y-101600000D01*
X189926666Y-101552380D01*
X189688571Y-101552380D01*
X189593333Y-101600000D01*
X189545714Y-101647619D01*
X189498095Y-101742857D01*
X189498095Y-101838095D01*
X189545714Y-101980952D01*
X190117142Y-102552380D01*
X189498095Y-102552380D01*
%TO.C,L2*%
X214566666Y-114552380D02*
X215042857Y-114552380D01*
X215042857Y-113552380D01*
X214280952Y-113647619D02*
X214233333Y-113600000D01*
X214138095Y-113552380D01*
X213900000Y-113552380D01*
X213804761Y-113600000D01*
X213757142Y-113647619D01*
X213709523Y-113742857D01*
X213709523Y-113838095D01*
X213757142Y-113980952D01*
X214328571Y-114552380D01*
X213709523Y-114552380D01*
%TO.C,CN4*%
X172890476Y-129557142D02*
X172938095Y-129604761D01*
X173080952Y-129652380D01*
X173176190Y-129652380D01*
X173319047Y-129604761D01*
X173414285Y-129509523D01*
X173461904Y-129414285D01*
X173509523Y-129223809D01*
X173509523Y-129080952D01*
X173461904Y-128890476D01*
X173414285Y-128795238D01*
X173319047Y-128700000D01*
X173176190Y-128652380D01*
X173080952Y-128652380D01*
X172938095Y-128700000D01*
X172890476Y-128747619D01*
X172461904Y-129652380D02*
X172461904Y-128652380D01*
X171890476Y-129652380D01*
X171890476Y-128652380D01*
X170985714Y-128985714D02*
X170985714Y-129652380D01*
X171223809Y-128604761D02*
X171461904Y-129319047D01*
X170842857Y-129319047D01*
%TO.C,J4*%
X96333333Y-131262380D02*
X96333333Y-131976666D01*
X96380952Y-132119523D01*
X96476190Y-132214761D01*
X96619047Y-132262380D01*
X96714285Y-132262380D01*
X95428571Y-131595714D02*
X95428571Y-132262380D01*
X95666666Y-131214761D02*
X95904761Y-131929047D01*
X95285714Y-131929047D01*
%TO.C,J2*%
X66052380Y-105882666D02*
X66766666Y-105882666D01*
X66909523Y-105835047D01*
X67004761Y-105739809D01*
X67052380Y-105596952D01*
X67052380Y-105501714D01*
X66147619Y-106311238D02*
X66100000Y-106358857D01*
X66052380Y-106454095D01*
X66052380Y-106692190D01*
X66100000Y-106787428D01*
X66147619Y-106835047D01*
X66242857Y-106882666D01*
X66338095Y-106882666D01*
X66480952Y-106835047D01*
X67052380Y-106263619D01*
X67052380Y-106882666D01*
%TO.C,Q1*%
X76875238Y-36987619D02*
X76970476Y-36940000D01*
X77065714Y-36844761D01*
X77208571Y-36701904D01*
X77303809Y-36654285D01*
X77399047Y-36654285D01*
X77351428Y-36892380D02*
X77446666Y-36844761D01*
X77541904Y-36749523D01*
X77589523Y-36559047D01*
X77589523Y-36225714D01*
X77541904Y-36035238D01*
X77446666Y-35940000D01*
X77351428Y-35892380D01*
X77160952Y-35892380D01*
X77065714Y-35940000D01*
X76970476Y-36035238D01*
X76922857Y-36225714D01*
X76922857Y-36559047D01*
X76970476Y-36749523D01*
X77065714Y-36844761D01*
X77160952Y-36892380D01*
X77351428Y-36892380D01*
X75970476Y-36892380D02*
X76541904Y-36892380D01*
X76256190Y-36892380D02*
X76256190Y-35892380D01*
X76351428Y-36035238D01*
X76446666Y-36130476D01*
X76541904Y-36178095D01*
%TO.C,D2*%
X223038095Y-118252380D02*
X223038095Y-117252380D01*
X222800000Y-117252380D01*
X222657142Y-117300000D01*
X222561904Y-117395238D01*
X222514285Y-117490476D01*
X222466666Y-117680952D01*
X222466666Y-117823809D01*
X222514285Y-118014285D01*
X222561904Y-118109523D01*
X222657142Y-118204761D01*
X222800000Y-118252380D01*
X223038095Y-118252380D01*
X222085714Y-117347619D02*
X222038095Y-117300000D01*
X221942857Y-117252380D01*
X221704761Y-117252380D01*
X221609523Y-117300000D01*
X221561904Y-117347619D01*
X221514285Y-117442857D01*
X221514285Y-117538095D01*
X221561904Y-117680952D01*
X222133333Y-118252380D01*
X221514285Y-118252380D01*
%TO.C,C6*%
X50619166Y-125277142D02*
X50666785Y-125324761D01*
X50809642Y-125372380D01*
X50904880Y-125372380D01*
X51047738Y-125324761D01*
X51142976Y-125229523D01*
X51190595Y-125134285D01*
X51238214Y-124943809D01*
X51238214Y-124800952D01*
X51190595Y-124610476D01*
X51142976Y-124515238D01*
X51047738Y-124420000D01*
X50904880Y-124372380D01*
X50809642Y-124372380D01*
X50666785Y-124420000D01*
X50619166Y-124467619D01*
X49762023Y-124372380D02*
X49952500Y-124372380D01*
X50047738Y-124420000D01*
X50095357Y-124467619D01*
X50190595Y-124610476D01*
X50238214Y-124800952D01*
X50238214Y-125181904D01*
X50190595Y-125277142D01*
X50142976Y-125324761D01*
X50047738Y-125372380D01*
X49857261Y-125372380D01*
X49762023Y-125324761D01*
X49714404Y-125277142D01*
X49666785Y-125181904D01*
X49666785Y-124943809D01*
X49714404Y-124848571D01*
X49762023Y-124800952D01*
X49857261Y-124753333D01*
X50047738Y-124753333D01*
X50142976Y-124800952D01*
X50190595Y-124848571D01*
X50238214Y-124943809D01*
%TO.C,CN6*%
X81090476Y-134657142D02*
X81138095Y-134704761D01*
X81280952Y-134752380D01*
X81376190Y-134752380D01*
X81519047Y-134704761D01*
X81614285Y-134609523D01*
X81661904Y-134514285D01*
X81709523Y-134323809D01*
X81709523Y-134180952D01*
X81661904Y-133990476D01*
X81614285Y-133895238D01*
X81519047Y-133800000D01*
X81376190Y-133752380D01*
X81280952Y-133752380D01*
X81138095Y-133800000D01*
X81090476Y-133847619D01*
X80661904Y-134752380D02*
X80661904Y-133752380D01*
X80090476Y-134752380D01*
X80090476Y-133752380D01*
X79185714Y-133752380D02*
X79376190Y-133752380D01*
X79471428Y-133800000D01*
X79519047Y-133847619D01*
X79614285Y-133990476D01*
X79661904Y-134180952D01*
X79661904Y-134561904D01*
X79614285Y-134657142D01*
X79566666Y-134704761D01*
X79471428Y-134752380D01*
X79280952Y-134752380D01*
X79185714Y-134704761D01*
X79138095Y-134657142D01*
X79090476Y-134561904D01*
X79090476Y-134323809D01*
X79138095Y-134228571D01*
X79185714Y-134180952D01*
X79280952Y-134133333D01*
X79471428Y-134133333D01*
X79566666Y-134180952D01*
X79614285Y-134228571D01*
X79661904Y-134323809D01*
%TO.C,LD9*%
X192316666Y-130952380D02*
X192792857Y-130952380D01*
X192792857Y-129952380D01*
X191983333Y-130952380D02*
X191983333Y-129952380D01*
X191745238Y-129952380D01*
X191602380Y-130000000D01*
X191507142Y-130095238D01*
X191459523Y-130190476D01*
X191411904Y-130380952D01*
X191411904Y-130523809D01*
X191459523Y-130714285D01*
X191507142Y-130809523D01*
X191602380Y-130904761D01*
X191745238Y-130952380D01*
X191983333Y-130952380D01*
X190935714Y-130952380D02*
X190745238Y-130952380D01*
X190650000Y-130904761D01*
X190602380Y-130857142D01*
X190507142Y-130714285D01*
X190459523Y-130523809D01*
X190459523Y-130142857D01*
X190507142Y-130047619D01*
X190554761Y-130000000D01*
X190650000Y-129952380D01*
X190840476Y-129952380D01*
X190935714Y-130000000D01*
X190983333Y-130047619D01*
X191030952Y-130142857D01*
X191030952Y-130380952D01*
X190983333Y-130476190D01*
X190935714Y-130523809D01*
X190840476Y-130571428D01*
X190650000Y-130571428D01*
X190554761Y-130523809D01*
X190507142Y-130476190D01*
X190459523Y-130380952D01*
%TO.C,R11*%
X73682857Y-41752380D02*
X74016190Y-41276190D01*
X74254285Y-41752380D02*
X74254285Y-40752380D01*
X73873333Y-40752380D01*
X73778095Y-40800000D01*
X73730476Y-40847619D01*
X73682857Y-40942857D01*
X73682857Y-41085714D01*
X73730476Y-41180952D01*
X73778095Y-41228571D01*
X73873333Y-41276190D01*
X74254285Y-41276190D01*
X72730476Y-41752380D02*
X73301904Y-41752380D01*
X73016190Y-41752380D02*
X73016190Y-40752380D01*
X73111428Y-40895238D01*
X73206666Y-40990476D01*
X73301904Y-41038095D01*
X71778095Y-41752380D02*
X72349523Y-41752380D01*
X72063809Y-41752380D02*
X72063809Y-40752380D01*
X72159047Y-40895238D01*
X72254285Y-40990476D01*
X72349523Y-41038095D01*
%TO.C,C5*%
X182426666Y-84597142D02*
X182474285Y-84644761D01*
X182617142Y-84692380D01*
X182712380Y-84692380D01*
X182855238Y-84644761D01*
X182950476Y-84549523D01*
X182998095Y-84454285D01*
X183045714Y-84263809D01*
X183045714Y-84120952D01*
X182998095Y-83930476D01*
X182950476Y-83835238D01*
X182855238Y-83740000D01*
X182712380Y-83692380D01*
X182617142Y-83692380D01*
X182474285Y-83740000D01*
X182426666Y-83787619D01*
X181521904Y-83692380D02*
X181998095Y-83692380D01*
X182045714Y-84168571D01*
X181998095Y-84120952D01*
X181902857Y-84073333D01*
X181664761Y-84073333D01*
X181569523Y-84120952D01*
X181521904Y-84168571D01*
X181474285Y-84263809D01*
X181474285Y-84501904D01*
X181521904Y-84597142D01*
X181569523Y-84644761D01*
X181664761Y-84692380D01*
X181902857Y-84692380D01*
X181998095Y-84644761D01*
X182045714Y-84597142D01*
%TO.C,C18*%
X234542857Y-120257142D02*
X234590476Y-120304761D01*
X234733333Y-120352380D01*
X234828571Y-120352380D01*
X234971428Y-120304761D01*
X235066666Y-120209523D01*
X235114285Y-120114285D01*
X235161904Y-119923809D01*
X235161904Y-119780952D01*
X235114285Y-119590476D01*
X235066666Y-119495238D01*
X234971428Y-119400000D01*
X234828571Y-119352380D01*
X234733333Y-119352380D01*
X234590476Y-119400000D01*
X234542857Y-119447619D01*
X233590476Y-120352380D02*
X234161904Y-120352380D01*
X233876190Y-120352380D02*
X233876190Y-119352380D01*
X233971428Y-119495238D01*
X234066666Y-119590476D01*
X234161904Y-119638095D01*
X233019047Y-119780952D02*
X233114285Y-119733333D01*
X233161904Y-119685714D01*
X233209523Y-119590476D01*
X233209523Y-119542857D01*
X233161904Y-119447619D01*
X233114285Y-119400000D01*
X233019047Y-119352380D01*
X232828571Y-119352380D01*
X232733333Y-119400000D01*
X232685714Y-119447619D01*
X232638095Y-119542857D01*
X232638095Y-119590476D01*
X232685714Y-119685714D01*
X232733333Y-119733333D01*
X232828571Y-119780952D01*
X233019047Y-119780952D01*
X233114285Y-119828571D01*
X233161904Y-119876190D01*
X233209523Y-119971428D01*
X233209523Y-120161904D01*
X233161904Y-120257142D01*
X233114285Y-120304761D01*
X233019047Y-120352380D01*
X232828571Y-120352380D01*
X232733333Y-120304761D01*
X232685714Y-120257142D01*
X232638095Y-120161904D01*
X232638095Y-119971428D01*
X232685714Y-119876190D01*
X232733333Y-119828571D01*
X232828571Y-119780952D01*
%TO.C,CN3*%
X101590476Y-136157142D02*
X101638095Y-136204761D01*
X101780952Y-136252380D01*
X101876190Y-136252380D01*
X102019047Y-136204761D01*
X102114285Y-136109523D01*
X102161904Y-136014285D01*
X102209523Y-135823809D01*
X102209523Y-135680952D01*
X102161904Y-135490476D01*
X102114285Y-135395238D01*
X102019047Y-135300000D01*
X101876190Y-135252380D01*
X101780952Y-135252380D01*
X101638095Y-135300000D01*
X101590476Y-135347619D01*
X101161904Y-136252380D02*
X101161904Y-135252380D01*
X100590476Y-136252380D01*
X100590476Y-135252380D01*
X100209523Y-135252380D02*
X99590476Y-135252380D01*
X99923809Y-135633333D01*
X99780952Y-135633333D01*
X99685714Y-135680952D01*
X99638095Y-135728571D01*
X99590476Y-135823809D01*
X99590476Y-136061904D01*
X99638095Y-136157142D01*
X99685714Y-136204761D01*
X99780952Y-136252380D01*
X100066666Y-136252380D01*
X100161904Y-136204761D01*
X100209523Y-136157142D01*
%TO.C,L1*%
X243066666Y-114752380D02*
X243542857Y-114752380D01*
X243542857Y-113752380D01*
X242209523Y-114752380D02*
X242780952Y-114752380D01*
X242495238Y-114752380D02*
X242495238Y-113752380D01*
X242590476Y-113895238D01*
X242685714Y-113990476D01*
X242780952Y-114038095D01*
%TO.C,U5*%
X223061904Y-137452380D02*
X223061904Y-138261904D01*
X223014285Y-138357142D01*
X222966666Y-138404761D01*
X222871428Y-138452380D01*
X222680952Y-138452380D01*
X222585714Y-138404761D01*
X222538095Y-138357142D01*
X222490476Y-138261904D01*
X222490476Y-137452380D01*
X221538095Y-137452380D02*
X222014285Y-137452380D01*
X222061904Y-137928571D01*
X222014285Y-137880952D01*
X221919047Y-137833333D01*
X221680952Y-137833333D01*
X221585714Y-137880952D01*
X221538095Y-137928571D01*
X221490476Y-138023809D01*
X221490476Y-138261904D01*
X221538095Y-138357142D01*
X221585714Y-138404761D01*
X221680952Y-138452380D01*
X221919047Y-138452380D01*
X222014285Y-138404761D01*
X222061904Y-138357142D01*
%TO.C,R23*%
X191442857Y-104852380D02*
X191776190Y-104376190D01*
X192014285Y-104852380D02*
X192014285Y-103852380D01*
X191633333Y-103852380D01*
X191538095Y-103900000D01*
X191490476Y-103947619D01*
X191442857Y-104042857D01*
X191442857Y-104185714D01*
X191490476Y-104280952D01*
X191538095Y-104328571D01*
X191633333Y-104376190D01*
X192014285Y-104376190D01*
X191061904Y-103947619D02*
X191014285Y-103900000D01*
X190919047Y-103852380D01*
X190680952Y-103852380D01*
X190585714Y-103900000D01*
X190538095Y-103947619D01*
X190490476Y-104042857D01*
X190490476Y-104138095D01*
X190538095Y-104280952D01*
X191109523Y-104852380D01*
X190490476Y-104852380D01*
X190157142Y-103852380D02*
X189538095Y-103852380D01*
X189871428Y-104233333D01*
X189728571Y-104233333D01*
X189633333Y-104280952D01*
X189585714Y-104328571D01*
X189538095Y-104423809D01*
X189538095Y-104661904D01*
X189585714Y-104757142D01*
X189633333Y-104804761D01*
X189728571Y-104852380D01*
X190014285Y-104852380D01*
X190109523Y-104804761D01*
X190157142Y-104757142D01*
%TO.C,U4*%
X248231904Y-128492380D02*
X248231904Y-129301904D01*
X248184285Y-129397142D01*
X248136666Y-129444761D01*
X248041428Y-129492380D01*
X247850952Y-129492380D01*
X247755714Y-129444761D01*
X247708095Y-129397142D01*
X247660476Y-129301904D01*
X247660476Y-128492380D01*
X246755714Y-128825714D02*
X246755714Y-129492380D01*
X246993809Y-128444761D02*
X247231904Y-129159047D01*
X246612857Y-129159047D01*
%TO.C,C15*%
X211342857Y-126157142D02*
X211390476Y-126204761D01*
X211533333Y-126252380D01*
X211628571Y-126252380D01*
X211771428Y-126204761D01*
X211866666Y-126109523D01*
X211914285Y-126014285D01*
X211961904Y-125823809D01*
X211961904Y-125680952D01*
X211914285Y-125490476D01*
X211866666Y-125395238D01*
X211771428Y-125300000D01*
X211628571Y-125252380D01*
X211533333Y-125252380D01*
X211390476Y-125300000D01*
X211342857Y-125347619D01*
X210390476Y-126252380D02*
X210961904Y-126252380D01*
X210676190Y-126252380D02*
X210676190Y-125252380D01*
X210771428Y-125395238D01*
X210866666Y-125490476D01*
X210961904Y-125538095D01*
X209485714Y-125252380D02*
X209961904Y-125252380D01*
X210009523Y-125728571D01*
X209961904Y-125680952D01*
X209866666Y-125633333D01*
X209628571Y-125633333D01*
X209533333Y-125680952D01*
X209485714Y-125728571D01*
X209438095Y-125823809D01*
X209438095Y-126061904D01*
X209485714Y-126157142D01*
X209533333Y-126204761D01*
X209628571Y-126252380D01*
X209866666Y-126252380D01*
X209961904Y-126204761D01*
X210009523Y-126157142D01*
%TO.C,CN2*%
X194190476Y-117157142D02*
X194238095Y-117204761D01*
X194380952Y-117252380D01*
X194476190Y-117252380D01*
X194619047Y-117204761D01*
X194714285Y-117109523D01*
X194761904Y-117014285D01*
X194809523Y-116823809D01*
X194809523Y-116680952D01*
X194761904Y-116490476D01*
X194714285Y-116395238D01*
X194619047Y-116300000D01*
X194476190Y-116252380D01*
X194380952Y-116252380D01*
X194238095Y-116300000D01*
X194190476Y-116347619D01*
X193761904Y-117252380D02*
X193761904Y-116252380D01*
X193190476Y-117252380D01*
X193190476Y-116252380D01*
X192761904Y-116347619D02*
X192714285Y-116300000D01*
X192619047Y-116252380D01*
X192380952Y-116252380D01*
X192285714Y-116300000D01*
X192238095Y-116347619D01*
X192190476Y-116442857D01*
X192190476Y-116538095D01*
X192238095Y-116680952D01*
X192809523Y-117252380D01*
X192190476Y-117252380D01*
%TO.C,J3*%
X60972380Y-105882666D02*
X61686666Y-105882666D01*
X61829523Y-105835047D01*
X61924761Y-105739809D01*
X61972380Y-105596952D01*
X61972380Y-105501714D01*
X60972380Y-106263619D02*
X60972380Y-106882666D01*
X61353333Y-106549333D01*
X61353333Y-106692190D01*
X61400952Y-106787428D01*
X61448571Y-106835047D01*
X61543809Y-106882666D01*
X61781904Y-106882666D01*
X61877142Y-106835047D01*
X61924761Y-106787428D01*
X61972380Y-106692190D01*
X61972380Y-106406476D01*
X61924761Y-106311238D01*
X61877142Y-106263619D01*
%TO.C,R1*%
X73236666Y-32082380D02*
X73570000Y-31606190D01*
X73808095Y-32082380D02*
X73808095Y-31082380D01*
X73427142Y-31082380D01*
X73331904Y-31130000D01*
X73284285Y-31177619D01*
X73236666Y-31272857D01*
X73236666Y-31415714D01*
X73284285Y-31510952D01*
X73331904Y-31558571D01*
X73427142Y-31606190D01*
X73808095Y-31606190D01*
X72284285Y-32082380D02*
X72855714Y-32082380D01*
X72570000Y-32082380D02*
X72570000Y-31082380D01*
X72665238Y-31225238D01*
X72760476Y-31320476D01*
X72855714Y-31368095D01*
%TO.C,U7*%
X49361904Y-120152380D02*
X49361904Y-120961904D01*
X49314285Y-121057142D01*
X49266666Y-121104761D01*
X49171428Y-121152380D01*
X48980952Y-121152380D01*
X48885714Y-121104761D01*
X48838095Y-121057142D01*
X48790476Y-120961904D01*
X48790476Y-120152380D01*
X48409523Y-120152380D02*
X47742857Y-120152380D01*
X48171428Y-121152380D01*
%TO.C,C3*%
X249476666Y-123427142D02*
X249524285Y-123474761D01*
X249667142Y-123522380D01*
X249762380Y-123522380D01*
X249905238Y-123474761D01*
X250000476Y-123379523D01*
X250048095Y-123284285D01*
X250095714Y-123093809D01*
X250095714Y-122950952D01*
X250048095Y-122760476D01*
X250000476Y-122665238D01*
X249905238Y-122570000D01*
X249762380Y-122522380D01*
X249667142Y-122522380D01*
X249524285Y-122570000D01*
X249476666Y-122617619D01*
X249143333Y-122522380D02*
X248524285Y-122522380D01*
X248857619Y-122903333D01*
X248714761Y-122903333D01*
X248619523Y-122950952D01*
X248571904Y-122998571D01*
X248524285Y-123093809D01*
X248524285Y-123331904D01*
X248571904Y-123427142D01*
X248619523Y-123474761D01*
X248714761Y-123522380D01*
X249000476Y-123522380D01*
X249095714Y-123474761D01*
X249143333Y-123427142D01*
%TO.C,DS1*%
X137114285Y-97752380D02*
X137114285Y-96752380D01*
X136876190Y-96752380D01*
X136733333Y-96800000D01*
X136638095Y-96895238D01*
X136590476Y-96990476D01*
X136542857Y-97180952D01*
X136542857Y-97323809D01*
X136590476Y-97514285D01*
X136638095Y-97609523D01*
X136733333Y-97704761D01*
X136876190Y-97752380D01*
X137114285Y-97752380D01*
X136161904Y-97704761D02*
X136019047Y-97752380D01*
X135780952Y-97752380D01*
X135685714Y-97704761D01*
X135638095Y-97657142D01*
X135590476Y-97561904D01*
X135590476Y-97466666D01*
X135638095Y-97371428D01*
X135685714Y-97323809D01*
X135780952Y-97276190D01*
X135971428Y-97228571D01*
X136066666Y-97180952D01*
X136114285Y-97133333D01*
X136161904Y-97038095D01*
X136161904Y-96942857D01*
X136114285Y-96847619D01*
X136066666Y-96800000D01*
X135971428Y-96752380D01*
X135733333Y-96752380D01*
X135590476Y-96800000D01*
X134638095Y-97752380D02*
X135209523Y-97752380D01*
X134923809Y-97752380D02*
X134923809Y-96752380D01*
X135019047Y-96895238D01*
X135114285Y-96990476D01*
X135209523Y-97038095D01*
%TO.C,U2*%
X168981904Y-78112380D02*
X168981904Y-78921904D01*
X168934285Y-79017142D01*
X168886666Y-79064761D01*
X168791428Y-79112380D01*
X168600952Y-79112380D01*
X168505714Y-79064761D01*
X168458095Y-79017142D01*
X168410476Y-78921904D01*
X168410476Y-78112380D01*
X167981904Y-78207619D02*
X167934285Y-78160000D01*
X167839047Y-78112380D01*
X167600952Y-78112380D01*
X167505714Y-78160000D01*
X167458095Y-78207619D01*
X167410476Y-78302857D01*
X167410476Y-78398095D01*
X167458095Y-78540952D01*
X168029523Y-79112380D01*
X167410476Y-79112380D01*
D16*
%TO.C,R21*%
X232090000Y-114527064D02*
X232090000Y-113072936D01*
X233910000Y-114527064D02*
X233910000Y-113072936D01*
%TO.C,C2*%
X100780000Y-128270000D02*
X106020000Y-128270000D01*
X100780000Y-125845000D02*
X100780000Y-125530000D01*
X100780000Y-128270000D02*
X100780000Y-127955000D01*
X106020000Y-128270000D02*
X106020000Y-127955000D01*
X100780000Y-125530000D02*
X106020000Y-125530000D01*
X106020000Y-125845000D02*
X106020000Y-125530000D01*
%TO.C,SW1*%
X39467000Y-29270000D02*
X39467000Y-27940000D01*
X36867000Y-29270000D02*
X36867000Y-26610000D01*
X34267000Y-29270000D02*
X34267000Y-26610000D01*
X36867000Y-26610000D02*
X34267000Y-26610000D01*
X38137000Y-29270000D02*
X39467000Y-29270000D01*
X36867000Y-29270000D02*
X34267000Y-29270000D01*
%TO.C,C12*%
X245408748Y-125655000D02*
X245931252Y-125655000D01*
X245408748Y-124185000D02*
X245931252Y-124185000D01*
%TO.C,R9*%
X212075436Y-35650000D02*
X213529564Y-35650000D01*
X212075436Y-37470000D02*
X213529564Y-37470000D01*
%TO.C,J1*%
X54940000Y-103090000D02*
X54940000Y-102490000D01*
X55490000Y-104140000D02*
X57440000Y-104140000D01*
X57440000Y-98640000D02*
X55490000Y-98640000D01*
X55490000Y-98640000D02*
X55490000Y-104140000D01*
X54940000Y-102490000D02*
X55240000Y-102790000D01*
X57440000Y-104140000D02*
X57440000Y-98640000D01*
X55240000Y-102790000D02*
X54940000Y-103090000D01*
%TO.C,C16*%
X210157500Y-111390000D02*
X209157500Y-111390000D01*
X208917500Y-117095563D02*
X207853063Y-118160000D01*
X209657500Y-110890000D02*
X209657500Y-111890000D01*
X208917500Y-117095563D02*
X208917500Y-115410000D01*
X207853063Y-118160000D02*
X200397500Y-118160000D01*
X208917500Y-110704437D02*
X207853063Y-109640000D01*
X200397500Y-118160000D02*
X200397500Y-115410000D01*
X207853063Y-109640000D02*
X200397500Y-109640000D01*
X208917500Y-110704437D02*
X208917500Y-112390000D01*
X200397500Y-109640000D02*
X200397500Y-112390000D01*
%TO.C,RV3*%
X185150000Y-67380000D02*
X179910000Y-67380000D01*
X185150000Y-72620000D02*
X179910000Y-72620000D01*
X179910000Y-72040000D02*
X179910000Y-72620000D01*
X185150000Y-67380000D02*
X185150000Y-68760000D01*
X179910000Y-69740000D02*
X179910000Y-70260000D01*
X179910000Y-67380000D02*
X179910000Y-67961000D01*
X185150000Y-71240000D02*
X185150000Y-72620000D01*
%TO.C,Q2*%
X100840000Y-123000000D02*
X100840000Y-122350000D01*
X100840000Y-123000000D02*
X100840000Y-123650000D01*
X103960000Y-123000000D02*
X103960000Y-124675000D01*
X103960000Y-123000000D02*
X103960000Y-122350000D01*
%TO.C,RV2*%
X228895000Y-115330000D02*
X228895000Y-110260000D01*
X219125000Y-110260000D02*
X228895000Y-110260000D01*
X219125000Y-115330000D02*
X228895000Y-115330000D01*
X219125000Y-115330000D02*
X219125000Y-110260000D01*
%TO.C,C17*%
X182830000Y-73752500D02*
X182830000Y-81812500D01*
X178310000Y-81812500D02*
X178310000Y-73752500D01*
X178310000Y-73752500D02*
X182830000Y-73752500D01*
%TO.C,R10*%
X84807064Y-35600000D02*
X83352936Y-35600000D01*
X84807064Y-37420000D02*
X83352936Y-37420000D01*
%TO.C,CN5*%
X204100000Y-124650000D02*
X205800000Y-124650000D01*
X196300000Y-124950000D02*
X196300000Y-126750000D01*
X196300000Y-131150000D02*
X196300000Y-139650000D01*
X205500000Y-139650000D02*
X205500000Y-124950000D01*
X205800000Y-124650000D02*
X205800000Y-126250000D01*
X205500000Y-124950000D02*
X203400000Y-124950000D01*
X198400000Y-124950000D02*
X196300000Y-124950000D01*
X196300000Y-139650000D02*
X205500000Y-139650000D01*
%TO.C,RV1*%
X176880000Y-93720000D02*
X177461000Y-93720000D01*
X176880000Y-88480000D02*
X176880000Y-93720000D01*
X180740000Y-88480000D02*
X182120000Y-88480000D01*
X176880000Y-88480000D02*
X178260000Y-88480000D01*
X181540000Y-93720000D02*
X182120000Y-93720000D01*
X179240000Y-93720000D02*
X179760000Y-93720000D01*
X182120000Y-88480000D02*
X182120000Y-93720000D01*
%TO.C,CN1*%
X193400000Y-94490000D02*
X193400000Y-93890000D01*
X196650000Y-99400000D02*
X190950000Y-99400000D01*
X189940000Y-93490000D02*
X192200000Y-93490000D01*
X195400000Y-94490000D02*
X195400000Y-93490000D01*
X196710000Y-93190000D02*
X197960000Y-93190000D01*
X189940000Y-100110000D02*
X189940000Y-93490000D01*
X194200000Y-94490000D02*
X195400000Y-94490000D01*
X197660000Y-93490000D02*
X197660000Y-100110000D01*
X189940000Y-96800000D02*
X190950000Y-96800000D01*
X196650000Y-95100000D02*
X196650000Y-99400000D01*
X195400000Y-93490000D02*
X197660000Y-93490000D01*
X190950000Y-99400000D02*
X190950000Y-95100000D01*
X192200000Y-93490000D02*
X192200000Y-94490000D01*
X197660000Y-96800000D02*
X196650000Y-96800000D01*
X197960000Y-93190000D02*
X197960000Y-94440000D01*
X197660000Y-100110000D02*
X189940000Y-100110000D01*
X190950000Y-95100000D02*
X196650000Y-95100000D01*
X193400000Y-93890000D02*
X194200000Y-93890000D01*
X192200000Y-94490000D02*
X193400000Y-94490000D01*
X194200000Y-93890000D02*
X194200000Y-94490000D01*
%TO.C,R22*%
X193972936Y-101190000D02*
X195427064Y-101190000D01*
X193972936Y-103010000D02*
X195427064Y-103010000D01*
%TO.C,L2*%
X210800000Y-110400000D02*
X210800000Y-117800000D01*
X215900000Y-117800000D02*
X218200000Y-117800000D01*
X213100000Y-110400000D02*
X210800000Y-110400000D01*
X218200000Y-110400000D02*
X215900000Y-110400000D01*
X210800000Y-117800000D02*
X213100000Y-117800000D01*
X218200000Y-117800000D02*
X218200000Y-110400000D01*
%TO.C,CN4*%
X168145000Y-135495000D02*
X168145000Y-138095000D01*
X170745000Y-132895000D02*
X175885000Y-132895000D01*
X169475000Y-132895000D02*
X168145000Y-132895000D01*
X168145000Y-132895000D02*
X168145000Y-134225000D01*
X175885000Y-132895000D02*
X175885000Y-138095000D01*
X168145000Y-138095000D02*
X175885000Y-138095000D01*
X170745000Y-132895000D02*
X170745000Y-135495000D01*
X170745000Y-135495000D02*
X168145000Y-135495000D01*
%TO.C,J4*%
X94600000Y-128810000D02*
X94600000Y-130810000D01*
X97400000Y-130810000D02*
X97400000Y-128810000D01*
X94600000Y-130810000D02*
X97400000Y-130810000D01*
X97400000Y-128810000D02*
X94600000Y-128810000D01*
%TO.C,J2*%
X65100000Y-102490000D02*
X65400000Y-102790000D01*
X65650000Y-104140000D02*
X67600000Y-104140000D01*
X65100000Y-103090000D02*
X65100000Y-102490000D01*
X67600000Y-104140000D02*
X67600000Y-98640000D01*
X67600000Y-98640000D02*
X65650000Y-98640000D01*
X65400000Y-102790000D02*
X65100000Y-103090000D01*
X65650000Y-98640000D02*
X65650000Y-104140000D01*
%TO.C,Q1*%
X76780000Y-32480000D02*
X77430000Y-32480000D01*
X76780000Y-32480000D02*
X76130000Y-32480000D01*
X76780000Y-35600000D02*
X77430000Y-35600000D01*
X76780000Y-35600000D02*
X75105000Y-35600000D01*
%TO.C,D2*%
X219750000Y-118800000D02*
X219750000Y-116800000D01*
X224050000Y-118800000D02*
X219750000Y-118800000D01*
X219750000Y-116800000D02*
X224050000Y-116800000D01*
%TO.C,C6*%
X50713752Y-127335000D02*
X50191248Y-127335000D01*
X50713752Y-125865000D02*
X50191248Y-125865000D01*
%TO.C,CN6*%
X78400000Y-139600000D02*
X82400000Y-139600000D01*
X84900000Y-139600000D02*
X86400000Y-139600000D01*
X74400000Y-128600000D02*
X74400000Y-139600000D01*
X83400000Y-140800000D02*
X84900000Y-140800000D01*
X86400000Y-128600000D02*
X74400000Y-128600000D01*
X74400000Y-139600000D02*
X75900000Y-139600000D01*
X82400000Y-139600000D02*
X82400000Y-142600000D01*
X86400000Y-139600000D02*
X86400000Y-128600000D01*
X75900000Y-139600000D02*
X75900000Y-140800000D01*
X84900000Y-140800000D02*
X84900000Y-139600000D01*
X77400000Y-142600000D02*
X83400000Y-142600000D01*
X77400000Y-140800000D02*
X77400000Y-142600000D01*
X75900000Y-140800000D02*
X77400000Y-140800000D01*
X78400000Y-142600000D02*
X78400000Y-139600000D01*
X83400000Y-142600000D02*
X83400000Y-140800000D01*
%TO.C,LD9*%
X193170000Y-135080000D02*
X193170000Y-135236000D01*
X193170000Y-132764000D02*
X193170000Y-132920000D01*
X190568870Y-135079837D02*
G75*
G03*
X192650961Y-135080000I1041130J1079837D01*
G01*
X193170000Y-132764484D02*
G75*
G03*
X189937665Y-132921392I-1560000J-1235516D01*
G01*
X192650961Y-132920000D02*
G75*
G03*
X190568870Y-132920163I-1040961J-1080000D01*
G01*
X189937665Y-135078608D02*
G75*
G03*
X193170000Y-135235516I1672335J1078608D01*
G01*
%TO.C,R11*%
X74030000Y-38887064D02*
X74030000Y-37432936D01*
X72210000Y-38887064D02*
X72210000Y-37432936D01*
%TO.C,C5*%
X177758748Y-85180000D02*
X179181252Y-85180000D01*
X177758748Y-83360000D02*
X179181252Y-83360000D01*
%TO.C,C18*%
X238310000Y-122160000D02*
X230250000Y-122160000D01*
X238310000Y-117640000D02*
X238310000Y-122160000D01*
X230250000Y-117640000D02*
X238310000Y-117640000D01*
%TO.C,CN3*%
X100900000Y-144300000D02*
X101400000Y-143600000D01*
X100900000Y-144300000D02*
X100400000Y-143600000D01*
X98100000Y-134700000D02*
X103750000Y-134700000D01*
X95170000Y-141825000D02*
X95170000Y-136175000D01*
X106600000Y-136175000D02*
X106600000Y-141825000D01*
%TO.C,L1*%
X241500000Y-110600000D02*
X239200000Y-110600000D01*
X239200000Y-110600000D02*
X239200000Y-118000000D01*
X239200000Y-118000000D02*
X241500000Y-118000000D01*
X246600000Y-118000000D02*
X246600000Y-110600000D01*
X246600000Y-110600000D02*
X244300000Y-110600000D01*
X244300000Y-118000000D02*
X246600000Y-118000000D01*
%TO.C,U5*%
X217125000Y-125400000D02*
X218075000Y-125400000D01*
X227525000Y-125400000D02*
X226575000Y-125400000D01*
X226575000Y-125400000D02*
X226575000Y-124300000D01*
X227525000Y-126900000D02*
X227525000Y-125400000D01*
X217125000Y-126900000D02*
X217125000Y-125400000D01*
X218075000Y-125400000D02*
X218075000Y-120275000D01*
%TO.C,R23*%
X193972936Y-105310000D02*
X195427064Y-105310000D01*
X193972936Y-103490000D02*
X195427064Y-103490000D01*
%TO.C,U4*%
X250655000Y-129305000D02*
X250655000Y-128205000D01*
X244025000Y-129305000D02*
X244295000Y-129305000D01*
X244025000Y-130805000D02*
X244025000Y-129305000D01*
X250925000Y-129305000D02*
X250655000Y-129305000D01*
X244295000Y-129305000D02*
X244295000Y-126475000D01*
X250925000Y-130805000D02*
X250925000Y-129305000D01*
%TO.C,C15*%
X207690000Y-120800000D02*
X208690000Y-120800000D01*
X214960000Y-130060000D02*
X212210000Y-130060000D01*
X206440000Y-122604437D02*
X206440000Y-130060000D01*
X207504437Y-121540000D02*
X209190000Y-121540000D01*
X208190000Y-120300000D02*
X208190000Y-121300000D01*
X206440000Y-130060000D02*
X209190000Y-130060000D01*
X207504437Y-121540000D02*
X206440000Y-122604437D01*
X214960000Y-122604437D02*
X214960000Y-130060000D01*
X213895563Y-121540000D02*
X214960000Y-122604437D01*
X213895563Y-121540000D02*
X212210000Y-121540000D01*
%TO.C,CN2*%
X193000000Y-120910000D02*
X191800000Y-120910000D01*
X189540000Y-115290000D02*
X197260000Y-115290000D01*
X197260000Y-121910000D02*
X195000000Y-121910000D01*
X189540000Y-118600000D02*
X190550000Y-118600000D01*
X193000000Y-121510000D02*
X193000000Y-120910000D01*
X189240000Y-122210000D02*
X189240000Y-120960000D01*
X197260000Y-115290000D02*
X197260000Y-121910000D01*
X197260000Y-118600000D02*
X196250000Y-118600000D01*
X195000000Y-121910000D02*
X195000000Y-120910000D01*
X193800000Y-120910000D02*
X193800000Y-121510000D01*
X196250000Y-116000000D02*
X196250000Y-120300000D01*
X193800000Y-121510000D02*
X193000000Y-121510000D01*
X191800000Y-121910000D02*
X189540000Y-121910000D01*
X190550000Y-120300000D02*
X190550000Y-116000000D01*
X190490000Y-122210000D02*
X189240000Y-122210000D01*
X195000000Y-120910000D02*
X193800000Y-120910000D01*
X191800000Y-120910000D02*
X191800000Y-121910000D01*
X196250000Y-120300000D02*
X190550000Y-120300000D01*
X189540000Y-121910000D02*
X189540000Y-115290000D01*
X190550000Y-116000000D02*
X196250000Y-116000000D01*
%TO.C,J3*%
X62720000Y-99990000D02*
X63020000Y-99690000D01*
X60520000Y-104140000D02*
X62470000Y-104140000D01*
X63020000Y-100290000D02*
X62720000Y-99990000D01*
X60520000Y-98640000D02*
X60520000Y-104140000D01*
X62470000Y-104140000D02*
X62470000Y-98640000D01*
X63020000Y-99690000D02*
X63020000Y-100290000D01*
X62470000Y-98640000D02*
X60520000Y-98640000D01*
%TO.C,R1*%
X73855000Y-34247064D02*
X73855000Y-33792936D01*
X72385000Y-34247064D02*
X72385000Y-33792936D01*
%TO.C,U7*%
X44500000Y-124010000D02*
X50510000Y-124010000D01*
X50510000Y-124010000D02*
X50510000Y-122750000D01*
X46750000Y-117190000D02*
X50510000Y-117190000D01*
X50510000Y-117190000D02*
X50510000Y-118450000D01*
%TO.C,C3*%
X249038748Y-124185000D02*
X249561252Y-124185000D01*
X249038748Y-125655000D02*
X249561252Y-125655000D01*
%TO.C,DS1*%
X188730000Y-94524500D02*
X188730000Y-130804500D01*
X108450000Y-130804500D02*
X108450000Y-94524500D01*
X188730000Y-130804500D02*
X108450000Y-130804500D01*
X116390000Y-105664500D02*
X116390000Y-119664500D01*
X180390000Y-105164500D02*
X116890000Y-105164500D01*
X116889340Y-120164500D02*
X180390000Y-120164500D01*
X112590000Y-125164500D02*
X185590000Y-125164500D01*
X185590000Y-125164500D02*
X185590000Y-100164500D01*
X112590000Y-100164500D02*
X112590000Y-125164500D01*
X108450000Y-94524500D02*
X187930000Y-94524500D01*
X188720000Y-94524500D02*
X187930000Y-94524500D01*
X180889720Y-119663820D02*
X180889720Y-105664500D01*
X185590000Y-100164500D02*
X112590000Y-100164500D01*
X182090000Y-94164500D02*
X179090000Y-94164500D01*
X180889720Y-105663340D02*
G75*
G03*
X180389340Y-105162960I-500380J0D01*
G01*
X180389340Y-120164200D02*
G75*
G03*
X180889720Y-119663820I0J500380D01*
G01*
X116890000Y-105164500D02*
G75*
G03*
X116390000Y-105664500I0J-500000D01*
G01*
X116388900Y-119663820D02*
G75*
G03*
X116889340Y-120164200I500400J20D01*
G01*
%TO.C,U2*%
X172080000Y-77820000D02*
X172080000Y-77555000D01*
X168220000Y-62200000D02*
X164360000Y-62200000D01*
X168220000Y-77820000D02*
X164360000Y-77820000D01*
X164360000Y-77555000D02*
X162545000Y-77555000D01*
X164360000Y-62200000D02*
X164360000Y-62465000D01*
X172080000Y-62200000D02*
X172080000Y-62465000D01*
X168220000Y-62200000D02*
X172080000Y-62200000D01*
X164360000Y-77820000D02*
X164360000Y-77555000D01*
X168220000Y-77820000D02*
X172080000Y-77820000D01*
%TD*%
M02*
