M48
; DRILL file {KiCad (6.0.10)} date Mon Nov 27 04:30:29 2023
; FORMAT={-:-/ absolute / inch / decimal}
; #@! TF.CreationDate,2023-11-27T04:30:29+11:00
; #@! TF.GenerationSoftware,Kicad,Pcbnew,(6.0.10)
; #@! TF.FileFunction,Plated,1,2,PTH
FMAT,2
INCH
; #@! TA.AperFunction,Plated,PTH,ComponentDrill
T1C0.0118
; #@! TA.AperFunction,Plated,PTH,ViaDrill
T2C0.0157
; #@! TA.AperFunction,Plated,PTH,ComponentDrill
T3C0.0157
; #@! TA.AperFunction,Plated,PTH,ComponentDrill
T4C0.0197
; #@! TA.AperFunction,Plated,PTH,ComponentDrill
T5C0.0276
; #@! TA.AperFunction,Plated,PTH,ComponentDrill
T6C0.0315
; #@! TA.AperFunction,Plated,PTH,ComponentDrill
T7C0.0354
; #@! TA.AperFunction,Plated,PTH,ComponentDrill
T8C0.0374
; #@! TA.AperFunction,Plated,PTH,ComponentDrill
T9C0.0394
; #@! TA.AperFunction,Plated,PTH,ComponentDrill
T10C0.0433
; #@! TA.AperFunction,Plated,PTH,ComponentDrill
T11C0.0472
; #@! TA.AperFunction,Plated,PTH,ComponentDrill
T12C0.0984
; #@! TA.AperFunction,Plated,PTH,ComponentDrill
T13C0.1260
%
G90
G05
T1
X1.0954Y-4.8116
T2
X1.7902Y-4.6575
X1.885Y-4.2406
X1.885Y-4.4059
X1.9303Y-3.3445
X2.0237Y-4.9154
X2.0346Y-4.9854
X2.0685Y-2.052
X2.5106Y-4.018
X2.6235Y-4.1656
X2.7327Y-2.0579
X2.8001Y-2.1889
X2.8951Y-3.9676
X2.9563Y-4.8394
X2.9583Y-4.6339
X2.9969Y-2.0661
X3.0496Y-1.7445
X3.05Y-3.4417
X3.1024Y-4.1797
X3.2441Y-1.7445
X3.2517Y-4.7333
X3.2634Y-2.0547
X3.3496Y-2.2264
X3.4992Y-5.0693
X3.5441Y-2.0744
X3.7587Y-1.6929
X3.8405Y-3.9676
X3.8984Y-4.4843
X3.9265Y-4.6858
X4.0315Y-4.8056
X4.0396Y-3.9435
X4.102Y-4.4091
X4.1108Y-4.8049
X4.1212Y-4.9391
X4.1693Y-4.5453
X4.2799Y-1.172
X4.2836Y-4.4528
X4.3866Y-3.4693
X4.5634Y-2.7102
X4.6441Y-4.3421
X5.4594Y-2.7142
X5.465Y-2.0476
X5.4693Y-4.3283
X5.5138Y-3.478
X5.8587Y-4.1098
X5.9126Y-4.3701
X5.9609Y-4.5449
X5.9666Y-3.3687
X5.9764Y-4.1091
X6.1258Y-4.4755
X6.1417Y-4.2939
X6.152Y-3.685
X6.1614Y-3.2961
X6.1844Y-4.495
X6.1941Y-4.0827
X6.2823Y-4.8425
X6.3034Y-4.4401
X6.3083Y-3.9327
X6.3091Y-3.298
X6.3091Y-3.6846
X6.3302Y-4.3034
X6.3323Y-4.5157
X6.3756Y-2.9803
X6.4434Y-4.4528
X6.4437Y-4.4045
X6.4528Y-3.698
X6.4551Y-4.1
X6.4567Y-2.2634
X6.4602Y-3.9236
X6.4658Y-4.2891
X6.5114Y-2.6299
X6.5142Y-2.1623
X6.5288Y-2.7121
X6.5579Y-4.6551
X6.5579Y-4.9925
X6.5666Y-4.2558
X6.5669Y-3.2335
X6.5729Y-2.9083
X6.5878Y-3.3614
X6.6079Y-4.178
X6.6177Y-3.9217
X6.6232Y-2.2524
X6.6776Y-4.372
X6.7283Y-3.2335
X6.7303Y-4.0862
X6.7488Y-4.0063
X6.8177Y-2.2661
X6.835Y-1.172
X6.8921Y-4.0063
X7.1147Y-3.0695
X7.1157Y-2.3524
X7.1184Y-2.8847
X7.3476Y-2.3551
X7.3894Y-3.439
X7.4398Y-4.8709
X7.5417Y-5.0087
X7.5505Y-4.4786
X7.5689Y-1.6803
X7.5724Y-4.7894
X7.6521Y-4.158
X7.9307Y-4.4803
X7.9594Y-4.6969
X8.1039Y-4.7075
X8.1276Y-1.7453
X8.1803Y-4.4803
X8.4236Y-4.715
X8.4528Y-5.3256
X8.5913Y-5.3146
X8.9197Y-5.3185
X9.0861Y-4.6197
X9.1732Y-4.5379
X9.2157Y-4.3739
X9.3013Y-4.6433
X9.4878Y-5.0134
X9.4953Y-5.2746
X9.6462Y-5.0155
X9.7425Y-5.3449
X9.8804Y-5.0179
X9.9959Y-5.0226
X10.215Y-5.0799
X10.2165Y-5.1709
X10.2165Y-5.2654
T4
X0.7724Y-1.3528
X0.8001Y-1.2859
X0.8001Y-1.4196
X0.8669Y-1.2583
X0.8669Y-1.4472
X0.9337Y-1.2859
X0.9337Y-1.4196
X0.9614Y-1.3528
X3.4484Y-5.324
X3.4761Y-5.2572
X3.4761Y-5.3908
X3.5429Y-5.2295
X3.5429Y-5.4185
X3.6097Y-5.2572
X3.6097Y-5.3908
X3.6374Y-5.324
X5.7232Y-1.1665
X5.7457Y-5.3252
X5.7509Y-1.0997
X5.7509Y-1.2333
X5.7733Y-5.2584
X5.7733Y-5.392
X5.8177Y-1.072
X5.8177Y-1.261
X5.8402Y-5.2307
X5.8402Y-5.4197
X5.8845Y-1.0997
X5.8845Y-1.2333
X5.907Y-5.2584
X5.907Y-5.392
X5.9122Y-1.1665
X5.9346Y-5.3252
X10.7854Y-5.3295
X10.7917Y-1.1661
X10.8131Y-5.2627
X10.8131Y-5.3963
X10.8194Y-1.0993
X10.8194Y-1.233
X10.8799Y-5.235
X10.8799Y-5.424
X10.8862Y-1.0717
X10.8862Y-1.2606
X10.9467Y-5.2627
X10.9467Y-5.3963
X10.953Y-1.0993
X10.953Y-1.233
X10.9744Y-5.3295
X10.9807Y-1.1661
T5
X1.0598Y-2.0606
X1.0598Y-3.4606
X1.1598Y-2.0606
X1.1598Y-3.4606
X1.2598Y-2.0591
X1.2598Y-3.4599
X1.3598Y-2.0606
X1.3598Y-3.4606
X1.4598Y-2.0606
X1.4598Y-3.4606
X2.2016Y-2.0606
X2.2016Y-3.4606
X2.3016Y-2.0606
X2.3016Y-3.4606
X2.4016Y-2.0591
X2.4016Y-3.4599
X2.5016Y-2.0606
X2.5016Y-3.4606
X2.6016Y-2.0606
X2.6016Y-3.4606
X3.737Y-2.0606
X3.737Y-3.4606
X3.837Y-2.0606
X3.837Y-3.4606
X3.937Y-2.0591
X3.937Y-3.4599
X4.037Y-2.0606
X4.037Y-3.4606
X4.137Y-2.0606
X4.137Y-3.4606
X4.8787Y-2.0606
X4.8787Y-3.4606
X4.9787Y-2.0606
X4.9787Y-3.4606
X5.0787Y-2.0591
X5.0787Y-3.4599
X5.1787Y-2.0606
X5.1787Y-3.4606
X5.2787Y-2.0606
X5.2787Y-3.4606
X6.4142Y-2.0606
X6.4142Y-3.4606
X6.5142Y-2.0606
X6.5142Y-3.4606
X6.6142Y-2.0591
X6.6142Y-3.4599
X6.7142Y-2.0606
X6.7142Y-3.4606
X6.8142Y-2.0606
X6.8142Y-3.4606
X7.5559Y-2.0606
X7.5559Y-3.4606
X7.6559Y-2.0606
X7.6559Y-3.4606
X7.7559Y-2.0591
X7.7559Y-3.4599
X7.8559Y-2.0606
X7.8559Y-3.4606
X7.9559Y-2.0606
X7.9559Y-3.4606
X9.0913Y-2.0606
X9.0913Y-3.4606
X9.1913Y-2.0606
X9.1913Y-3.4606
X9.2913Y-2.0591
X9.2913Y-3.4599
X9.3913Y-2.0606
X9.3913Y-3.4606
X9.4913Y-2.0606
X9.4913Y-3.4606
X10.2331Y-2.0606
X10.2331Y-3.4606
X10.3331Y-2.0606
X10.3331Y-3.4606
X10.4331Y-2.0591
X10.4331Y-3.4599
X10.5331Y-2.0606
X10.5331Y-3.4606
X10.6331Y-2.0606
X10.6331Y-3.4606
T6
X3.1045Y-4.5197
X3.1045Y-4.8197
X3.2045Y-4.5197
X3.2045Y-4.8197
X3.9724Y-4.9961
X4.1693Y-4.9961
X8.7193Y-4.4409
X8.8193Y-4.4409
X8.9193Y-4.4409
T7
X3.12Y-3.1304
X3.12Y-3.2304
X3.17Y-1.34
X3.17Y-1.44
X3.22Y-2.3202
X3.22Y-2.4202
X5.8Y-3.1302
X5.8Y-3.2302
X5.9Y-2.3202
X5.9Y-2.4202
X7.4437Y-5.2756
X7.5437Y-5.2756
X7.6437Y-5.2756
X8.4811Y-3.1406
X8.4811Y-3.2406
X8.52Y-1.3398
X8.52Y-1.4398
X8.58Y-2.32
X8.58Y-2.42
T8
X7.565Y-4.6693
X7.5807Y-3.811
X7.6634Y-4.6693
X7.6791Y-3.811
T9
X1.4015Y-1.1
X1.5015Y-1.1
X2.1134Y-5.3365
X6.6722Y-5.2844
X6.6722Y-5.3844
X6.7722Y-5.2844
X6.7722Y-5.3844
X6.8722Y-5.2844
X6.8722Y-5.3844
T11
X0.68Y-1.1
X1.68Y-1.1
X5.6098Y-3.8254
X5.7098Y-3.8254
X5.8098Y-3.8254
X5.9098Y-3.8254
X6.0098Y-3.8254
X6.1098Y-3.8254
X6.2098Y-3.8254
X6.3098Y-3.8254
X6.4098Y-3.8254
X6.5098Y-3.8254
X6.6098Y-3.8254
X6.7098Y-3.8254
X6.8098Y-3.8254
X6.9098Y-3.8254
X7.0098Y-3.8254
X7.1098Y-3.8254
T12
X4.3736Y-3.8254
X4.3736Y-5.0459
X7.3263Y-3.8254
X7.3263Y-5.0459
T13
X0.8669Y-1.3528
X0.8669Y-1.3528
X3.5429Y-5.324
X3.5429Y-5.324
X5.8177Y-1.1665
X5.8402Y-5.3252
X5.8402Y-5.3252
X10.8799Y-5.3295
X10.8799Y-5.3295
X10.8862Y-1.1661
X10.8862Y-1.1661
T3
G00X2.9685Y-5.1496
M15
G01X2.9685Y-5.189
M16
G05
G00X3.0669Y-5.1496
M15
G01X3.0669Y-5.189
M16
G05
G00X3.185Y-5.3661
M15
G01X3.1457Y-5.3661
M16
G05
G00X3.2638Y-5.189
M15
G01X3.2638Y-5.1496
M16
G05
G00X3.3622Y-5.189
M15
G01X3.3622Y-5.1496
M16
G05
T6
G00X7.7205Y-5.1201
M15
G01X7.7205Y-5.0335
M16
G05
G00X7.9606Y-4.9587
M15
G01X7.8583Y-4.9587
M16
G05
G00X7.9528Y-5.187
M15
G01X7.8661Y-5.187
M16
G05
T9
G00X3.9528Y-5.4528
M15
G01X3.9921Y-5.4528
M16
G05
T10
G00X3.9331Y-5.1969
M15
G01X4.0118Y-5.1969
M16
G05
T0
M30
