%TF.GenerationSoftware,KiCad,Pcbnew,8.0.4*%
%TF.CreationDate,2024-09-13T12:48:21+02:00*%
%TF.ProjectId,DigiSlatePlus,44696769-536c-4617-9465-506c75732e6b,rev?*%
%TF.SameCoordinates,Original*%
%TF.FileFunction,Paste,Top*%
%TF.FilePolarity,Positive*%
%FSLAX46Y46*%
G04 Gerber Fmt 4.6, Leading zero omitted, Abs format (unit mm)*
G04 Created by KiCad (PCBNEW 8.0.4) date 2024-09-13 12:48:21*
%MOMM*%
%LPD*%
G01*
G04 APERTURE LIST*
G04 Aperture macros list*
%AMRoundRect*
0 Rectangle with rounded corners*
0 $1 Rounding radius*
0 $2 $3 $4 $5 $6 $7 $8 $9 X,Y pos of 4 corners*
0 Add a 4 corners polygon primitive as box body*
4,1,4,$2,$3,$4,$5,$6,$7,$8,$9,$2,$3,0*
0 Add four circle primitives for the rounded corners*
1,1,$1+$1,$2,$3*
1,1,$1+$1,$4,$5*
1,1,$1+$1,$6,$7*
1,1,$1+$1,$8,$9*
0 Add four rect primitives between the rounded corners*
20,1,$1+$1,$2,$3,$4,$5,0*
20,1,$1+$1,$4,$5,$6,$7,0*
20,1,$1+$1,$6,$7,$8,$9,0*
20,1,$1+$1,$8,$9,$2,$3,0*%
G04 Aperture macros list end*
%ADD10RoundRect,0.250000X-0.650000X0.412500X-0.650000X-0.412500X0.650000X-0.412500X0.650000X0.412500X0*%
%ADD11RoundRect,0.250000X-0.450000X0.350000X-0.450000X-0.350000X0.450000X-0.350000X0.450000X0.350000X0*%
%ADD12RoundRect,0.250000X0.650000X-0.412500X0.650000X0.412500X-0.650000X0.412500X-0.650000X-0.412500X0*%
%ADD13RoundRect,0.250000X0.625000X-0.312500X0.625000X0.312500X-0.625000X0.312500X-0.625000X-0.312500X0*%
%ADD14RoundRect,0.250000X-0.412500X-0.650000X0.412500X-0.650000X0.412500X0.650000X-0.412500X0.650000X0*%
%ADD15RoundRect,0.250000X0.312500X0.625000X-0.312500X0.625000X-0.312500X-0.625000X0.312500X-0.625000X0*%
%ADD16R,0.431800X1.333500*%
%ADD17RoundRect,0.150000X-0.512500X-0.150000X0.512500X-0.150000X0.512500X0.150000X-0.512500X0.150000X0*%
%ADD18RoundRect,0.250000X-0.625000X0.312500X-0.625000X-0.312500X0.625000X-0.312500X0.625000X0.312500X0*%
%ADD19RoundRect,0.250000X-0.350000X-0.450000X0.350000X-0.450000X0.350000X0.450000X-0.350000X0.450000X0*%
%ADD20RoundRect,0.250000X0.500000X-0.950000X0.500000X0.950000X-0.500000X0.950000X-0.500000X-0.950000X0*%
%ADD21RoundRect,0.250000X0.500000X-0.275000X0.500000X0.275000X-0.500000X0.275000X-0.500000X-0.275000X0*%
%ADD22RoundRect,0.150000X0.150000X-0.587500X0.150000X0.587500X-0.150000X0.587500X-0.150000X-0.587500X0*%
%ADD23R,1.100000X0.400000*%
G04 APERTURE END LIST*
D10*
%TO.C,C12*%
X235320000Y-166085000D03*
X235320000Y-169210000D03*
%TD*%
D11*
%TO.C,R21*%
X221670000Y-171860000D03*
X221670000Y-173860000D03*
%TD*%
D12*
%TO.C,C21*%
X187960000Y-185420000D03*
X187960000Y-182295000D03*
%TD*%
D13*
%TO.C,R31*%
X191770000Y-177800000D03*
X191770000Y-174875000D03*
%TD*%
%TO.C,R34*%
X176530000Y-185420000D03*
X176530000Y-182495000D03*
%TD*%
%TO.C,R32*%
X192405000Y-185420000D03*
X192405000Y-182495000D03*
%TD*%
D14*
%TO.C,C3*%
X292875000Y-176000000D03*
X296000000Y-176000000D03*
%TD*%
D13*
%TO.C,R33*%
X172280000Y-185420000D03*
X172280000Y-182495000D03*
%TD*%
D15*
%TO.C,R6*%
X299843900Y-196160000D03*
X296918900Y-196160000D03*
%TD*%
D16*
%TO.C,U23*%
X245570001Y-171017250D03*
X246219999Y-171017250D03*
X246870001Y-171017250D03*
X247519999Y-171017250D03*
X247519999Y-166584950D03*
X246870001Y-166584950D03*
X246219999Y-166584950D03*
X245570001Y-166584950D03*
%TD*%
D17*
%TO.C,U22*%
X226170000Y-169110000D03*
X226170000Y-170060000D03*
X226170000Y-171010000D03*
X228445000Y-171010000D03*
X228445000Y-170060000D03*
X228445000Y-169110000D03*
%TD*%
D18*
%TO.C,R17*%
X240570000Y-166372500D03*
X240570000Y-169297500D03*
%TD*%
D15*
%TO.C,R5*%
X299843900Y-192660000D03*
X296918900Y-192660000D03*
%TD*%
D19*
%TO.C,R22*%
X247174000Y-176784000D03*
X249174000Y-176784000D03*
%TD*%
D20*
%TO.C,D14*%
X182245000Y-183045000D03*
D21*
X182245000Y-185420000D03*
%TD*%
D22*
%TO.C,Q4*%
X184785000Y-177165000D03*
X186685000Y-177165000D03*
X185735000Y-175290000D03*
%TD*%
D23*
%TO.C,Q3*%
X229720000Y-178060000D03*
X229720000Y-177410000D03*
X229720000Y-176760000D03*
X229720000Y-176110000D03*
X225420000Y-176110000D03*
X225420000Y-176760000D03*
X225420000Y-177410000D03*
X225420000Y-178060000D03*
%TD*%
M02*
