G04 #@! TF.GenerationSoftware,KiCad,Pcbnew,8.0.4*
G04 #@! TF.CreationDate,2024-09-13T17:14:12+02:00*
G04 #@! TF.ProjectId,DigiSlatePlus,44696769-536c-4617-9465-506c75732e6b,rev?*
G04 #@! TF.SameCoordinates,Original*
G04 #@! TF.FileFunction,Legend,Top*
G04 #@! TF.FilePolarity,Positive*
%FSLAX46Y46*%
G04 Gerber Fmt 4.6, Leading zero omitted, Abs format (unit mm)*
G04 Created by KiCad (PCBNEW 8.0.4) date 2024-09-13 17:14:12*
%MOMM*%
%LPD*%
G01*
G04 APERTURE LIST*
G04 Aperture macros list*
%AMRoundRect*
0 Rectangle with rounded corners*
0 $1 Rounding radius*
0 $2 $3 $4 $5 $6 $7 $8 $9 X,Y pos of 4 corners*
0 Add a 4 corners polygon primitive as box body*
4,1,4,$2,$3,$4,$5,$6,$7,$8,$9,$2,$3,0*
0 Add four circle primitives for the rounded corners*
1,1,$1+$1,$2,$3*
1,1,$1+$1,$4,$5*
1,1,$1+$1,$6,$7*
1,1,$1+$1,$8,$9*
0 Add four rect primitives between the rounded corners*
20,1,$1+$1,$2,$3,$4,$5,0*
20,1,$1+$1,$4,$5,$6,$7,0*
20,1,$1+$1,$6,$7,$8,$9,0*
20,1,$1+$1,$8,$9,$2,$3,0*%
G04 Aperture macros list end*
%ADD10C,0.100000*%
%ADD11C,0.150000*%
%ADD12C,0.120000*%
%ADD13C,3.000000*%
%ADD14C,1.550000*%
%ADD15C,0.152400*%
%ADD16RoundRect,0.250000X-0.650000X0.412500X-0.650000X-0.412500X0.650000X-0.412500X0.650000X0.412500X0*%
%ADD17RoundRect,0.250000X-0.450000X0.350000X-0.450000X-0.350000X0.450000X-0.350000X0.450000X0.350000X0*%
%ADD18RoundRect,0.250000X0.650000X-0.412500X0.650000X0.412500X-0.650000X0.412500X-0.650000X-0.412500X0*%
%ADD19R,1.524000X1.524000*%
%ADD20C,1.524000*%
%ADD21C,5.600000*%
%ADD22RoundRect,0.250000X0.625000X-0.312500X0.625000X0.312500X-0.625000X0.312500X-0.625000X-0.312500X0*%
%ADD23R,1.800000X1.800000*%
%ADD24C,1.800000*%
%ADD25RoundRect,0.250000X-0.412500X-0.650000X0.412500X-0.650000X0.412500X0.650000X-0.412500X0.650000X0*%
%ADD26RoundRect,0.250000X0.312500X0.625000X-0.312500X0.625000X-0.312500X-0.625000X0.312500X-0.625000X0*%
%ADD27R,0.431800X1.333500*%
%ADD28RoundRect,0.150000X-0.512500X-0.150000X0.512500X-0.150000X0.512500X0.150000X-0.512500X0.150000X0*%
%ADD29RoundRect,0.250000X-0.625000X0.312500X-0.625000X-0.312500X0.625000X-0.312500X0.625000X0.312500X0*%
%ADD30RoundRect,0.250000X-0.350000X-0.450000X0.350000X-0.450000X0.350000X0.450000X-0.350000X0.450000X0*%
%ADD31RoundRect,0.250000X0.500000X-0.950000X0.500000X0.950000X-0.500000X0.950000X-0.500000X-0.950000X0*%
%ADD32RoundRect,0.250000X0.500000X-0.275000X0.500000X0.275000X-0.500000X0.275000X-0.500000X-0.275000X0*%
%ADD33RoundRect,0.150000X0.150000X-0.587500X0.150000X0.587500X-0.150000X0.587500X-0.150000X-0.587500X0*%
%ADD34R,1.100000X0.400000*%
%ADD35RoundRect,0.250000X0.512000X-0.512000X0.512000X0.512000X-0.512000X0.512000X-0.512000X-0.512000X0*%
%ADD36RoundRect,0.725000X0.975000X0.725000X-0.975000X0.725000X-0.975000X-0.725000X0.975000X-0.725000X0*%
%ADD37C,1.200000*%
%ADD38O,1.200000X2.200000*%
%ADD39O,1.600000X2.300000*%
%ADD40O,2.200000X1.200000*%
%ADD41O,1.600000X2.500000*%
%ADD42R,0.850000X0.850000*%
%ADD43O,2.200000X3.500000*%
%ADD44R,1.500000X2.500000*%
%ADD45O,1.500000X2.500000*%
%ADD46C,1.440000*%
%ADD47C,1.397000*%
%ADD48RoundRect,0.250000X0.750000X-0.600000X0.750000X0.600000X-0.750000X0.600000X-0.750000X-0.600000X0*%
%ADD49O,2.000000X1.700000*%
%ADD50C,3.000000*%
%ADD51R,1.800000X2.600000*%
%ADD52O,1.800000X2.600000*%
%ADD53R,1.600000X1.600000*%
%ADD54C,1.600000*%
%ADD55C,4.000000*%
%ADD56RoundRect,0.250000X0.600000X0.750000X-0.600000X0.750000X-0.600000X-0.750000X0.600000X-0.750000X0*%
%ADD57O,1.700000X2.000000*%
%ADD58R,2.100000X2.100000*%
%ADD59C,2.100000*%
%ADD60RoundRect,0.250000X-0.725000X0.600000X-0.725000X-0.600000X0.725000X-0.600000X0.725000X0.600000X0*%
%ADD61O,1.950000X1.700000*%
%ADD62R,3.000000X4.500000*%
%ADD63RoundRect,0.750000X0.750000X1.000000X-0.750000X1.000000X-0.750000X-1.000000X0.750000X-1.000000X0*%
%ADD64RoundRect,0.750000X1.000000X0.750000X-1.000000X0.750000X-1.000000X-0.750000X1.000000X-0.750000X0*%
%ADD65C,0.600000*%
%ADD66C,1.000000*%
G04 APERTURE END LIST*
D10*
X297303884Y-202872419D02*
X297303884Y-201872419D01*
X297732455Y-202872419D02*
X297732455Y-202348609D01*
X297732455Y-202348609D02*
X297684836Y-202253371D01*
X297684836Y-202253371D02*
X297589598Y-202205752D01*
X297589598Y-202205752D02*
X297446741Y-202205752D01*
X297446741Y-202205752D02*
X297351503Y-202253371D01*
X297351503Y-202253371D02*
X297303884Y-202300990D01*
X298065789Y-202205752D02*
X298446741Y-202205752D01*
X298208646Y-201872419D02*
X298208646Y-202729561D01*
X298208646Y-202729561D02*
X298256265Y-202824800D01*
X298256265Y-202824800D02*
X298351503Y-202872419D01*
X298351503Y-202872419D02*
X298446741Y-202872419D01*
X298637218Y-202205752D02*
X299018170Y-202205752D01*
X298780075Y-201872419D02*
X298780075Y-202729561D01*
X298780075Y-202729561D02*
X298827694Y-202824800D01*
X298827694Y-202824800D02*
X298922932Y-202872419D01*
X298922932Y-202872419D02*
X299018170Y-202872419D01*
X299351504Y-202205752D02*
X299351504Y-203205752D01*
X299351504Y-202253371D02*
X299446742Y-202205752D01*
X299446742Y-202205752D02*
X299637218Y-202205752D01*
X299637218Y-202205752D02*
X299732456Y-202253371D01*
X299732456Y-202253371D02*
X299780075Y-202300990D01*
X299780075Y-202300990D02*
X299827694Y-202396228D01*
X299827694Y-202396228D02*
X299827694Y-202681942D01*
X299827694Y-202681942D02*
X299780075Y-202777180D01*
X299780075Y-202777180D02*
X299732456Y-202824800D01*
X299732456Y-202824800D02*
X299637218Y-202872419D01*
X299637218Y-202872419D02*
X299446742Y-202872419D01*
X299446742Y-202872419D02*
X299351504Y-202824800D01*
X300208647Y-202824800D02*
X300303885Y-202872419D01*
X300303885Y-202872419D02*
X300494361Y-202872419D01*
X300494361Y-202872419D02*
X300589599Y-202824800D01*
X300589599Y-202824800D02*
X300637218Y-202729561D01*
X300637218Y-202729561D02*
X300637218Y-202681942D01*
X300637218Y-202681942D02*
X300589599Y-202586704D01*
X300589599Y-202586704D02*
X300494361Y-202539085D01*
X300494361Y-202539085D02*
X300351504Y-202539085D01*
X300351504Y-202539085D02*
X300256266Y-202491466D01*
X300256266Y-202491466D02*
X300208647Y-202396228D01*
X300208647Y-202396228D02*
X300208647Y-202348609D01*
X300208647Y-202348609D02*
X300256266Y-202253371D01*
X300256266Y-202253371D02*
X300351504Y-202205752D01*
X300351504Y-202205752D02*
X300494361Y-202205752D01*
X300494361Y-202205752D02*
X300589599Y-202253371D01*
X301065790Y-202777180D02*
X301113409Y-202824800D01*
X301113409Y-202824800D02*
X301065790Y-202872419D01*
X301065790Y-202872419D02*
X301018171Y-202824800D01*
X301018171Y-202824800D02*
X301065790Y-202777180D01*
X301065790Y-202777180D02*
X301065790Y-202872419D01*
X301065790Y-202253371D02*
X301113409Y-202300990D01*
X301113409Y-202300990D02*
X301065790Y-202348609D01*
X301065790Y-202348609D02*
X301018171Y-202300990D01*
X301018171Y-202300990D02*
X301065790Y-202253371D01*
X301065790Y-202253371D02*
X301065790Y-202348609D01*
X302256265Y-201824800D02*
X301399123Y-203110514D01*
X303303884Y-201824800D02*
X302446742Y-203110514D01*
X304065789Y-202872419D02*
X304065789Y-201872419D01*
X304065789Y-202824800D02*
X303970551Y-202872419D01*
X303970551Y-202872419D02*
X303780075Y-202872419D01*
X303780075Y-202872419D02*
X303684837Y-202824800D01*
X303684837Y-202824800D02*
X303637218Y-202777180D01*
X303637218Y-202777180D02*
X303589599Y-202681942D01*
X303589599Y-202681942D02*
X303589599Y-202396228D01*
X303589599Y-202396228D02*
X303637218Y-202300990D01*
X303637218Y-202300990D02*
X303684837Y-202253371D01*
X303684837Y-202253371D02*
X303780075Y-202205752D01*
X303780075Y-202205752D02*
X303970551Y-202205752D01*
X303970551Y-202205752D02*
X304065789Y-202253371D01*
X304541980Y-202872419D02*
X304541980Y-202205752D01*
X304541980Y-201872419D02*
X304494361Y-201920038D01*
X304494361Y-201920038D02*
X304541980Y-201967657D01*
X304541980Y-201967657D02*
X304589599Y-201920038D01*
X304589599Y-201920038D02*
X304541980Y-201872419D01*
X304541980Y-201872419D02*
X304541980Y-201967657D01*
X305446741Y-202205752D02*
X305446741Y-203015276D01*
X305446741Y-203015276D02*
X305399122Y-203110514D01*
X305399122Y-203110514D02*
X305351503Y-203158133D01*
X305351503Y-203158133D02*
X305256265Y-203205752D01*
X305256265Y-203205752D02*
X305113408Y-203205752D01*
X305113408Y-203205752D02*
X305018170Y-203158133D01*
X305446741Y-202824800D02*
X305351503Y-202872419D01*
X305351503Y-202872419D02*
X305161027Y-202872419D01*
X305161027Y-202872419D02*
X305065789Y-202824800D01*
X305065789Y-202824800D02*
X305018170Y-202777180D01*
X305018170Y-202777180D02*
X304970551Y-202681942D01*
X304970551Y-202681942D02*
X304970551Y-202396228D01*
X304970551Y-202396228D02*
X305018170Y-202300990D01*
X305018170Y-202300990D02*
X305065789Y-202253371D01*
X305065789Y-202253371D02*
X305161027Y-202205752D01*
X305161027Y-202205752D02*
X305351503Y-202205752D01*
X305351503Y-202205752D02*
X305446741Y-202253371D01*
X305922932Y-202872419D02*
X305922932Y-202205752D01*
X305922932Y-201872419D02*
X305875313Y-201920038D01*
X305875313Y-201920038D02*
X305922932Y-201967657D01*
X305922932Y-201967657D02*
X305970551Y-201920038D01*
X305970551Y-201920038D02*
X305922932Y-201872419D01*
X305922932Y-201872419D02*
X305922932Y-201967657D01*
X306351503Y-202824800D02*
X306446741Y-202872419D01*
X306446741Y-202872419D02*
X306637217Y-202872419D01*
X306637217Y-202872419D02*
X306732455Y-202824800D01*
X306732455Y-202824800D02*
X306780074Y-202729561D01*
X306780074Y-202729561D02*
X306780074Y-202681942D01*
X306780074Y-202681942D02*
X306732455Y-202586704D01*
X306732455Y-202586704D02*
X306637217Y-202539085D01*
X306637217Y-202539085D02*
X306494360Y-202539085D01*
X306494360Y-202539085D02*
X306399122Y-202491466D01*
X306399122Y-202491466D02*
X306351503Y-202396228D01*
X306351503Y-202396228D02*
X306351503Y-202348609D01*
X306351503Y-202348609D02*
X306399122Y-202253371D01*
X306399122Y-202253371D02*
X306494360Y-202205752D01*
X306494360Y-202205752D02*
X306637217Y-202205752D01*
X306637217Y-202205752D02*
X306732455Y-202253371D01*
X307351503Y-202872419D02*
X307256265Y-202824800D01*
X307256265Y-202824800D02*
X307208646Y-202729561D01*
X307208646Y-202729561D02*
X307208646Y-201872419D01*
X308161027Y-202872419D02*
X308161027Y-202348609D01*
X308161027Y-202348609D02*
X308113408Y-202253371D01*
X308113408Y-202253371D02*
X308018170Y-202205752D01*
X308018170Y-202205752D02*
X307827694Y-202205752D01*
X307827694Y-202205752D02*
X307732456Y-202253371D01*
X308161027Y-202824800D02*
X308065789Y-202872419D01*
X308065789Y-202872419D02*
X307827694Y-202872419D01*
X307827694Y-202872419D02*
X307732456Y-202824800D01*
X307732456Y-202824800D02*
X307684837Y-202729561D01*
X307684837Y-202729561D02*
X307684837Y-202634323D01*
X307684837Y-202634323D02*
X307732456Y-202539085D01*
X307732456Y-202539085D02*
X307827694Y-202491466D01*
X307827694Y-202491466D02*
X308065789Y-202491466D01*
X308065789Y-202491466D02*
X308161027Y-202443847D01*
X308494361Y-202205752D02*
X308875313Y-202205752D01*
X308637218Y-201872419D02*
X308637218Y-202729561D01*
X308637218Y-202729561D02*
X308684837Y-202824800D01*
X308684837Y-202824800D02*
X308780075Y-202872419D01*
X308780075Y-202872419D02*
X308875313Y-202872419D01*
X309589599Y-202824800D02*
X309494361Y-202872419D01*
X309494361Y-202872419D02*
X309303885Y-202872419D01*
X309303885Y-202872419D02*
X309208647Y-202824800D01*
X309208647Y-202824800D02*
X309161028Y-202729561D01*
X309161028Y-202729561D02*
X309161028Y-202348609D01*
X309161028Y-202348609D02*
X309208647Y-202253371D01*
X309208647Y-202253371D02*
X309303885Y-202205752D01*
X309303885Y-202205752D02*
X309494361Y-202205752D01*
X309494361Y-202205752D02*
X309589599Y-202253371D01*
X309589599Y-202253371D02*
X309637218Y-202348609D01*
X309637218Y-202348609D02*
X309637218Y-202443847D01*
X309637218Y-202443847D02*
X309161028Y-202539085D01*
X310065790Y-202205752D02*
X310065790Y-203205752D01*
X310065790Y-202253371D02*
X310161028Y-202205752D01*
X310161028Y-202205752D02*
X310351504Y-202205752D01*
X310351504Y-202205752D02*
X310446742Y-202253371D01*
X310446742Y-202253371D02*
X310494361Y-202300990D01*
X310494361Y-202300990D02*
X310541980Y-202396228D01*
X310541980Y-202396228D02*
X310541980Y-202681942D01*
X310541980Y-202681942D02*
X310494361Y-202777180D01*
X310494361Y-202777180D02*
X310446742Y-202824800D01*
X310446742Y-202824800D02*
X310351504Y-202872419D01*
X310351504Y-202872419D02*
X310161028Y-202872419D01*
X310161028Y-202872419D02*
X310065790Y-202824800D01*
X311113409Y-202872419D02*
X311018171Y-202824800D01*
X311018171Y-202824800D02*
X310970552Y-202729561D01*
X310970552Y-202729561D02*
X310970552Y-201872419D01*
X311922933Y-202205752D02*
X311922933Y-202872419D01*
X311494362Y-202205752D02*
X311494362Y-202729561D01*
X311494362Y-202729561D02*
X311541981Y-202824800D01*
X311541981Y-202824800D02*
X311637219Y-202872419D01*
X311637219Y-202872419D02*
X311780076Y-202872419D01*
X311780076Y-202872419D02*
X311875314Y-202824800D01*
X311875314Y-202824800D02*
X311922933Y-202777180D01*
X312351505Y-202824800D02*
X312446743Y-202872419D01*
X312446743Y-202872419D02*
X312637219Y-202872419D01*
X312637219Y-202872419D02*
X312732457Y-202824800D01*
X312732457Y-202824800D02*
X312780076Y-202729561D01*
X312780076Y-202729561D02*
X312780076Y-202681942D01*
X312780076Y-202681942D02*
X312732457Y-202586704D01*
X312732457Y-202586704D02*
X312637219Y-202539085D01*
X312637219Y-202539085D02*
X312494362Y-202539085D01*
X312494362Y-202539085D02*
X312399124Y-202491466D01*
X312399124Y-202491466D02*
X312351505Y-202396228D01*
X312351505Y-202396228D02*
X312351505Y-202348609D01*
X312351505Y-202348609D02*
X312399124Y-202253371D01*
X312399124Y-202253371D02*
X312494362Y-202205752D01*
X312494362Y-202205752D02*
X312637219Y-202205752D01*
X312637219Y-202205752D02*
X312732457Y-202253371D01*
X313208648Y-202777180D02*
X313256267Y-202824800D01*
X313256267Y-202824800D02*
X313208648Y-202872419D01*
X313208648Y-202872419D02*
X313161029Y-202824800D01*
X313161029Y-202824800D02*
X313208648Y-202777180D01*
X313208648Y-202777180D02*
X313208648Y-202872419D01*
X314113409Y-202205752D02*
X314113409Y-203015276D01*
X314113409Y-203015276D02*
X314065790Y-203110514D01*
X314065790Y-203110514D02*
X314018171Y-203158133D01*
X314018171Y-203158133D02*
X313922933Y-203205752D01*
X313922933Y-203205752D02*
X313780076Y-203205752D01*
X313780076Y-203205752D02*
X313684838Y-203158133D01*
X314113409Y-202824800D02*
X314018171Y-202872419D01*
X314018171Y-202872419D02*
X313827695Y-202872419D01*
X313827695Y-202872419D02*
X313732457Y-202824800D01*
X313732457Y-202824800D02*
X313684838Y-202777180D01*
X313684838Y-202777180D02*
X313637219Y-202681942D01*
X313637219Y-202681942D02*
X313637219Y-202396228D01*
X313637219Y-202396228D02*
X313684838Y-202300990D01*
X313684838Y-202300990D02*
X313732457Y-202253371D01*
X313732457Y-202253371D02*
X313827695Y-202205752D01*
X313827695Y-202205752D02*
X314018171Y-202205752D01*
X314018171Y-202205752D02*
X314113409Y-202253371D01*
X314589600Y-202872419D02*
X314589600Y-202205752D01*
X314589600Y-201872419D02*
X314541981Y-201920038D01*
X314541981Y-201920038D02*
X314589600Y-201967657D01*
X314589600Y-201967657D02*
X314637219Y-201920038D01*
X314637219Y-201920038D02*
X314589600Y-201872419D01*
X314589600Y-201872419D02*
X314589600Y-201967657D01*
X314922933Y-202205752D02*
X315303885Y-202205752D01*
X315065790Y-201872419D02*
X315065790Y-202729561D01*
X315065790Y-202729561D02*
X315113409Y-202824800D01*
X315113409Y-202824800D02*
X315208647Y-202872419D01*
X315208647Y-202872419D02*
X315303885Y-202872419D01*
X315637219Y-202872419D02*
X315637219Y-201872419D01*
X316065790Y-202872419D02*
X316065790Y-202348609D01*
X316065790Y-202348609D02*
X316018171Y-202253371D01*
X316018171Y-202253371D02*
X315922933Y-202205752D01*
X315922933Y-202205752D02*
X315780076Y-202205752D01*
X315780076Y-202205752D02*
X315684838Y-202253371D01*
X315684838Y-202253371D02*
X315637219Y-202300990D01*
X316970552Y-202205752D02*
X316970552Y-202872419D01*
X316541981Y-202205752D02*
X316541981Y-202729561D01*
X316541981Y-202729561D02*
X316589600Y-202824800D01*
X316589600Y-202824800D02*
X316684838Y-202872419D01*
X316684838Y-202872419D02*
X316827695Y-202872419D01*
X316827695Y-202872419D02*
X316922933Y-202824800D01*
X316922933Y-202824800D02*
X316970552Y-202777180D01*
X317446743Y-202872419D02*
X317446743Y-201872419D01*
X317446743Y-202253371D02*
X317541981Y-202205752D01*
X317541981Y-202205752D02*
X317732457Y-202205752D01*
X317732457Y-202205752D02*
X317827695Y-202253371D01*
X317827695Y-202253371D02*
X317875314Y-202300990D01*
X317875314Y-202300990D02*
X317922933Y-202396228D01*
X317922933Y-202396228D02*
X317922933Y-202681942D01*
X317922933Y-202681942D02*
X317875314Y-202777180D01*
X317875314Y-202777180D02*
X317827695Y-202824800D01*
X317827695Y-202824800D02*
X317732457Y-202872419D01*
X317732457Y-202872419D02*
X317541981Y-202872419D01*
X317541981Y-202872419D02*
X317446743Y-202824800D01*
X318351505Y-202777180D02*
X318399124Y-202824800D01*
X318399124Y-202824800D02*
X318351505Y-202872419D01*
X318351505Y-202872419D02*
X318303886Y-202824800D01*
X318303886Y-202824800D02*
X318351505Y-202777180D01*
X318351505Y-202777180D02*
X318351505Y-202872419D01*
X318827695Y-202872419D02*
X318827695Y-202205752D01*
X318827695Y-201872419D02*
X318780076Y-201920038D01*
X318780076Y-201920038D02*
X318827695Y-201967657D01*
X318827695Y-201967657D02*
X318875314Y-201920038D01*
X318875314Y-201920038D02*
X318827695Y-201872419D01*
X318827695Y-201872419D02*
X318827695Y-201967657D01*
X319446742Y-202872419D02*
X319351504Y-202824800D01*
X319351504Y-202824800D02*
X319303885Y-202777180D01*
X319303885Y-202777180D02*
X319256266Y-202681942D01*
X319256266Y-202681942D02*
X319256266Y-202396228D01*
X319256266Y-202396228D02*
X319303885Y-202300990D01*
X319303885Y-202300990D02*
X319351504Y-202253371D01*
X319351504Y-202253371D02*
X319446742Y-202205752D01*
X319446742Y-202205752D02*
X319589599Y-202205752D01*
X319589599Y-202205752D02*
X319684837Y-202253371D01*
X319684837Y-202253371D02*
X319732456Y-202300990D01*
X319732456Y-202300990D02*
X319780075Y-202396228D01*
X319780075Y-202396228D02*
X319780075Y-202681942D01*
X319780075Y-202681942D02*
X319732456Y-202777180D01*
X319732456Y-202777180D02*
X319684837Y-202824800D01*
X319684837Y-202824800D02*
X319589599Y-202872419D01*
X319589599Y-202872419D02*
X319446742Y-202872419D01*
D11*
X237529580Y-168290357D02*
X237577200Y-168337976D01*
X237577200Y-168337976D02*
X237624819Y-168480833D01*
X237624819Y-168480833D02*
X237624819Y-168576071D01*
X237624819Y-168576071D02*
X237577200Y-168718928D01*
X237577200Y-168718928D02*
X237481961Y-168814166D01*
X237481961Y-168814166D02*
X237386723Y-168861785D01*
X237386723Y-168861785D02*
X237196247Y-168909404D01*
X237196247Y-168909404D02*
X237053390Y-168909404D01*
X237053390Y-168909404D02*
X236862914Y-168861785D01*
X236862914Y-168861785D02*
X236767676Y-168814166D01*
X236767676Y-168814166D02*
X236672438Y-168718928D01*
X236672438Y-168718928D02*
X236624819Y-168576071D01*
X236624819Y-168576071D02*
X236624819Y-168480833D01*
X236624819Y-168480833D02*
X236672438Y-168337976D01*
X236672438Y-168337976D02*
X236720057Y-168290357D01*
X237624819Y-167337976D02*
X237624819Y-167909404D01*
X237624819Y-167623690D02*
X236624819Y-167623690D01*
X236624819Y-167623690D02*
X236767676Y-167718928D01*
X236767676Y-167718928D02*
X236862914Y-167814166D01*
X236862914Y-167814166D02*
X236910533Y-167909404D01*
X236720057Y-166957023D02*
X236672438Y-166909404D01*
X236672438Y-166909404D02*
X236624819Y-166814166D01*
X236624819Y-166814166D02*
X236624819Y-166576071D01*
X236624819Y-166576071D02*
X236672438Y-166480833D01*
X236672438Y-166480833D02*
X236720057Y-166433214D01*
X236720057Y-166433214D02*
X236815295Y-166385595D01*
X236815295Y-166385595D02*
X236910533Y-166385595D01*
X236910533Y-166385595D02*
X237053390Y-166433214D01*
X237053390Y-166433214D02*
X237624819Y-167004642D01*
X237624819Y-167004642D02*
X237624819Y-166385595D01*
X223774819Y-173502857D02*
X223298628Y-173836190D01*
X223774819Y-174074285D02*
X222774819Y-174074285D01*
X222774819Y-174074285D02*
X222774819Y-173693333D01*
X222774819Y-173693333D02*
X222822438Y-173598095D01*
X222822438Y-173598095D02*
X222870057Y-173550476D01*
X222870057Y-173550476D02*
X222965295Y-173502857D01*
X222965295Y-173502857D02*
X223108152Y-173502857D01*
X223108152Y-173502857D02*
X223203390Y-173550476D01*
X223203390Y-173550476D02*
X223251009Y-173598095D01*
X223251009Y-173598095D02*
X223298628Y-173693333D01*
X223298628Y-173693333D02*
X223298628Y-174074285D01*
X222870057Y-173121904D02*
X222822438Y-173074285D01*
X222822438Y-173074285D02*
X222774819Y-172979047D01*
X222774819Y-172979047D02*
X222774819Y-172740952D01*
X222774819Y-172740952D02*
X222822438Y-172645714D01*
X222822438Y-172645714D02*
X222870057Y-172598095D01*
X222870057Y-172598095D02*
X222965295Y-172550476D01*
X222965295Y-172550476D02*
X223060533Y-172550476D01*
X223060533Y-172550476D02*
X223203390Y-172598095D01*
X223203390Y-172598095D02*
X223774819Y-173169523D01*
X223774819Y-173169523D02*
X223774819Y-172550476D01*
X223774819Y-171598095D02*
X223774819Y-172169523D01*
X223774819Y-171883809D02*
X222774819Y-171883809D01*
X222774819Y-171883809D02*
X222917676Y-171979047D01*
X222917676Y-171979047D02*
X223012914Y-172074285D01*
X223012914Y-172074285D02*
X223060533Y-172169523D01*
X186469580Y-184500357D02*
X186517200Y-184547976D01*
X186517200Y-184547976D02*
X186564819Y-184690833D01*
X186564819Y-184690833D02*
X186564819Y-184786071D01*
X186564819Y-184786071D02*
X186517200Y-184928928D01*
X186517200Y-184928928D02*
X186421961Y-185024166D01*
X186421961Y-185024166D02*
X186326723Y-185071785D01*
X186326723Y-185071785D02*
X186136247Y-185119404D01*
X186136247Y-185119404D02*
X185993390Y-185119404D01*
X185993390Y-185119404D02*
X185802914Y-185071785D01*
X185802914Y-185071785D02*
X185707676Y-185024166D01*
X185707676Y-185024166D02*
X185612438Y-184928928D01*
X185612438Y-184928928D02*
X185564819Y-184786071D01*
X185564819Y-184786071D02*
X185564819Y-184690833D01*
X185564819Y-184690833D02*
X185612438Y-184547976D01*
X185612438Y-184547976D02*
X185660057Y-184500357D01*
X185660057Y-184119404D02*
X185612438Y-184071785D01*
X185612438Y-184071785D02*
X185564819Y-183976547D01*
X185564819Y-183976547D02*
X185564819Y-183738452D01*
X185564819Y-183738452D02*
X185612438Y-183643214D01*
X185612438Y-183643214D02*
X185660057Y-183595595D01*
X185660057Y-183595595D02*
X185755295Y-183547976D01*
X185755295Y-183547976D02*
X185850533Y-183547976D01*
X185850533Y-183547976D02*
X185993390Y-183595595D01*
X185993390Y-183595595D02*
X186564819Y-184167023D01*
X186564819Y-184167023D02*
X186564819Y-183547976D01*
X186564819Y-182595595D02*
X186564819Y-183167023D01*
X186564819Y-182881309D02*
X185564819Y-182881309D01*
X185564819Y-182881309D02*
X185707676Y-182976547D01*
X185707676Y-182976547D02*
X185802914Y-183071785D01*
X185802914Y-183071785D02*
X185850533Y-183167023D01*
D10*
X221251905Y-116957419D02*
X221251905Y-117766942D01*
X221251905Y-117766942D02*
X221299524Y-117862180D01*
X221299524Y-117862180D02*
X221347143Y-117909800D01*
X221347143Y-117909800D02*
X221442381Y-117957419D01*
X221442381Y-117957419D02*
X221632857Y-117957419D01*
X221632857Y-117957419D02*
X221728095Y-117909800D01*
X221728095Y-117909800D02*
X221775714Y-117862180D01*
X221775714Y-117862180D02*
X221823333Y-117766942D01*
X221823333Y-117766942D02*
X221823333Y-116957419D01*
X222823333Y-117957419D02*
X222251905Y-117957419D01*
X222537619Y-117957419D02*
X222537619Y-116957419D01*
X222537619Y-116957419D02*
X222442381Y-117100276D01*
X222442381Y-117100276D02*
X222347143Y-117195514D01*
X222347143Y-117195514D02*
X222251905Y-117243133D01*
X223775714Y-117957419D02*
X223204286Y-117957419D01*
X223490000Y-117957419D02*
X223490000Y-116957419D01*
X223490000Y-116957419D02*
X223394762Y-117100276D01*
X223394762Y-117100276D02*
X223299524Y-117195514D01*
X223299524Y-117195514D02*
X223204286Y-117243133D01*
X125683095Y-116957419D02*
X125683095Y-117766942D01*
X125683095Y-117766942D02*
X125730714Y-117862180D01*
X125730714Y-117862180D02*
X125778333Y-117909800D01*
X125778333Y-117909800D02*
X125873571Y-117957419D01*
X125873571Y-117957419D02*
X126064047Y-117957419D01*
X126064047Y-117957419D02*
X126159285Y-117909800D01*
X126159285Y-117909800D02*
X126206904Y-117862180D01*
X126206904Y-117862180D02*
X126254523Y-117766942D01*
X126254523Y-117766942D02*
X126254523Y-116957419D01*
X127206904Y-116957419D02*
X126730714Y-116957419D01*
X126730714Y-116957419D02*
X126683095Y-117433609D01*
X126683095Y-117433609D02*
X126730714Y-117385990D01*
X126730714Y-117385990D02*
X126825952Y-117338371D01*
X126825952Y-117338371D02*
X127064047Y-117338371D01*
X127064047Y-117338371D02*
X127159285Y-117385990D01*
X127159285Y-117385990D02*
X127206904Y-117433609D01*
X127206904Y-117433609D02*
X127254523Y-117528847D01*
X127254523Y-117528847D02*
X127254523Y-117766942D01*
X127254523Y-117766942D02*
X127206904Y-117862180D01*
X127206904Y-117862180D02*
X127159285Y-117909800D01*
X127159285Y-117909800D02*
X127064047Y-117957419D01*
X127064047Y-117957419D02*
X126825952Y-117957419D01*
X126825952Y-117957419D02*
X126730714Y-117909800D01*
X126730714Y-117909800D02*
X126683095Y-117862180D01*
D11*
X190404819Y-176980357D02*
X189928628Y-177313690D01*
X190404819Y-177551785D02*
X189404819Y-177551785D01*
X189404819Y-177551785D02*
X189404819Y-177170833D01*
X189404819Y-177170833D02*
X189452438Y-177075595D01*
X189452438Y-177075595D02*
X189500057Y-177027976D01*
X189500057Y-177027976D02*
X189595295Y-176980357D01*
X189595295Y-176980357D02*
X189738152Y-176980357D01*
X189738152Y-176980357D02*
X189833390Y-177027976D01*
X189833390Y-177027976D02*
X189881009Y-177075595D01*
X189881009Y-177075595D02*
X189928628Y-177170833D01*
X189928628Y-177170833D02*
X189928628Y-177551785D01*
X189404819Y-176647023D02*
X189404819Y-176027976D01*
X189404819Y-176027976D02*
X189785771Y-176361309D01*
X189785771Y-176361309D02*
X189785771Y-176218452D01*
X189785771Y-176218452D02*
X189833390Y-176123214D01*
X189833390Y-176123214D02*
X189881009Y-176075595D01*
X189881009Y-176075595D02*
X189976247Y-176027976D01*
X189976247Y-176027976D02*
X190214342Y-176027976D01*
X190214342Y-176027976D02*
X190309580Y-176075595D01*
X190309580Y-176075595D02*
X190357200Y-176123214D01*
X190357200Y-176123214D02*
X190404819Y-176218452D01*
X190404819Y-176218452D02*
X190404819Y-176504166D01*
X190404819Y-176504166D02*
X190357200Y-176599404D01*
X190357200Y-176599404D02*
X190309580Y-176647023D01*
X190404819Y-175075595D02*
X190404819Y-175647023D01*
X190404819Y-175361309D02*
X189404819Y-175361309D01*
X189404819Y-175361309D02*
X189547676Y-175456547D01*
X189547676Y-175456547D02*
X189642914Y-175551785D01*
X189642914Y-175551785D02*
X189690533Y-175647023D01*
D10*
X317176905Y-116957419D02*
X317176905Y-117766942D01*
X317176905Y-117766942D02*
X317224524Y-117862180D01*
X317224524Y-117862180D02*
X317272143Y-117909800D01*
X317272143Y-117909800D02*
X317367381Y-117957419D01*
X317367381Y-117957419D02*
X317557857Y-117957419D01*
X317557857Y-117957419D02*
X317653095Y-117909800D01*
X317653095Y-117909800D02*
X317700714Y-117862180D01*
X317700714Y-117862180D02*
X317748333Y-117766942D01*
X317748333Y-117766942D02*
X317748333Y-116957419D01*
X318129286Y-116957419D02*
X318748333Y-116957419D01*
X318748333Y-116957419D02*
X318415000Y-117338371D01*
X318415000Y-117338371D02*
X318557857Y-117338371D01*
X318557857Y-117338371D02*
X318653095Y-117385990D01*
X318653095Y-117385990D02*
X318700714Y-117433609D01*
X318700714Y-117433609D02*
X318748333Y-117528847D01*
X318748333Y-117528847D02*
X318748333Y-117766942D01*
X318748333Y-117766942D02*
X318700714Y-117862180D01*
X318700714Y-117862180D02*
X318653095Y-117909800D01*
X318653095Y-117909800D02*
X318557857Y-117957419D01*
X318557857Y-117957419D02*
X318272143Y-117957419D01*
X318272143Y-117957419D02*
X318176905Y-117909800D01*
X318176905Y-117909800D02*
X318129286Y-117862180D01*
X319129286Y-117052657D02*
X319176905Y-117005038D01*
X319176905Y-117005038D02*
X319272143Y-116957419D01*
X319272143Y-116957419D02*
X319510238Y-116957419D01*
X319510238Y-116957419D02*
X319605476Y-117005038D01*
X319605476Y-117005038D02*
X319653095Y-117052657D01*
X319653095Y-117052657D02*
X319700714Y-117147895D01*
X319700714Y-117147895D02*
X319700714Y-117243133D01*
X319700714Y-117243133D02*
X319653095Y-117385990D01*
X319653095Y-117385990D02*
X319081667Y-117957419D01*
X319081667Y-117957419D02*
X319700714Y-117957419D01*
X156961905Y-73057419D02*
X156961905Y-73866942D01*
X156961905Y-73866942D02*
X157009524Y-73962180D01*
X157009524Y-73962180D02*
X157057143Y-74009800D01*
X157057143Y-74009800D02*
X157152381Y-74057419D01*
X157152381Y-74057419D02*
X157342857Y-74057419D01*
X157342857Y-74057419D02*
X157438095Y-74009800D01*
X157438095Y-74009800D02*
X157485714Y-73962180D01*
X157485714Y-73962180D02*
X157533333Y-73866942D01*
X157533333Y-73866942D02*
X157533333Y-73057419D01*
X158533333Y-74057419D02*
X157961905Y-74057419D01*
X158247619Y-74057419D02*
X158247619Y-73057419D01*
X158247619Y-73057419D02*
X158152381Y-73200276D01*
X158152381Y-73200276D02*
X158057143Y-73295514D01*
X158057143Y-73295514D02*
X157961905Y-73343133D01*
X159390476Y-73390752D02*
X159390476Y-74057419D01*
X159152381Y-73009800D02*
X158914286Y-73724085D01*
X158914286Y-73724085D02*
X159533333Y-73724085D01*
X225016905Y-73067419D02*
X225016905Y-73876942D01*
X225016905Y-73876942D02*
X225064524Y-73972180D01*
X225064524Y-73972180D02*
X225112143Y-74019800D01*
X225112143Y-74019800D02*
X225207381Y-74067419D01*
X225207381Y-74067419D02*
X225397857Y-74067419D01*
X225397857Y-74067419D02*
X225493095Y-74019800D01*
X225493095Y-74019800D02*
X225540714Y-73972180D01*
X225540714Y-73972180D02*
X225588333Y-73876942D01*
X225588333Y-73876942D02*
X225588333Y-73067419D01*
X226588333Y-74067419D02*
X226016905Y-74067419D01*
X226302619Y-74067419D02*
X226302619Y-73067419D01*
X226302619Y-73067419D02*
X226207381Y-73210276D01*
X226207381Y-73210276D02*
X226112143Y-73305514D01*
X226112143Y-73305514D02*
X226016905Y-73353133D01*
X226921667Y-73067419D02*
X227588333Y-73067419D01*
X227588333Y-73067419D02*
X227159762Y-74067419D01*
X118016905Y-73067419D02*
X118016905Y-73876942D01*
X118016905Y-73876942D02*
X118064524Y-73972180D01*
X118064524Y-73972180D02*
X118112143Y-74019800D01*
X118112143Y-74019800D02*
X118207381Y-74067419D01*
X118207381Y-74067419D02*
X118397857Y-74067419D01*
X118397857Y-74067419D02*
X118493095Y-74019800D01*
X118493095Y-74019800D02*
X118540714Y-73972180D01*
X118540714Y-73972180D02*
X118588333Y-73876942D01*
X118588333Y-73876942D02*
X118588333Y-73067419D01*
X119588333Y-74067419D02*
X119016905Y-74067419D01*
X119302619Y-74067419D02*
X119302619Y-73067419D01*
X119302619Y-73067419D02*
X119207381Y-73210276D01*
X119207381Y-73210276D02*
X119112143Y-73305514D01*
X119112143Y-73305514D02*
X119016905Y-73353133D01*
X119921667Y-73067419D02*
X120540714Y-73067419D01*
X120540714Y-73067419D02*
X120207381Y-73448371D01*
X120207381Y-73448371D02*
X120350238Y-73448371D01*
X120350238Y-73448371D02*
X120445476Y-73495990D01*
X120445476Y-73495990D02*
X120493095Y-73543609D01*
X120493095Y-73543609D02*
X120540714Y-73638847D01*
X120540714Y-73638847D02*
X120540714Y-73876942D01*
X120540714Y-73876942D02*
X120493095Y-73972180D01*
X120493095Y-73972180D02*
X120445476Y-74019800D01*
X120445476Y-74019800D02*
X120350238Y-74067419D01*
X120350238Y-74067419D02*
X120064524Y-74067419D01*
X120064524Y-74067419D02*
X119969286Y-74019800D01*
X119969286Y-74019800D02*
X119921667Y-73972180D01*
D11*
X175164819Y-184600357D02*
X174688628Y-184933690D01*
X175164819Y-185171785D02*
X174164819Y-185171785D01*
X174164819Y-185171785D02*
X174164819Y-184790833D01*
X174164819Y-184790833D02*
X174212438Y-184695595D01*
X174212438Y-184695595D02*
X174260057Y-184647976D01*
X174260057Y-184647976D02*
X174355295Y-184600357D01*
X174355295Y-184600357D02*
X174498152Y-184600357D01*
X174498152Y-184600357D02*
X174593390Y-184647976D01*
X174593390Y-184647976D02*
X174641009Y-184695595D01*
X174641009Y-184695595D02*
X174688628Y-184790833D01*
X174688628Y-184790833D02*
X174688628Y-185171785D01*
X174164819Y-184267023D02*
X174164819Y-183647976D01*
X174164819Y-183647976D02*
X174545771Y-183981309D01*
X174545771Y-183981309D02*
X174545771Y-183838452D01*
X174545771Y-183838452D02*
X174593390Y-183743214D01*
X174593390Y-183743214D02*
X174641009Y-183695595D01*
X174641009Y-183695595D02*
X174736247Y-183647976D01*
X174736247Y-183647976D02*
X174974342Y-183647976D01*
X174974342Y-183647976D02*
X175069580Y-183695595D01*
X175069580Y-183695595D02*
X175117200Y-183743214D01*
X175117200Y-183743214D02*
X175164819Y-183838452D01*
X175164819Y-183838452D02*
X175164819Y-184124166D01*
X175164819Y-184124166D02*
X175117200Y-184219404D01*
X175117200Y-184219404D02*
X175069580Y-184267023D01*
X174498152Y-182790833D02*
X175164819Y-182790833D01*
X174117200Y-183028928D02*
X174831485Y-183267023D01*
X174831485Y-183267023D02*
X174831485Y-182647976D01*
D10*
X285141905Y-116957419D02*
X285141905Y-117766942D01*
X285141905Y-117766942D02*
X285189524Y-117862180D01*
X285189524Y-117862180D02*
X285237143Y-117909800D01*
X285237143Y-117909800D02*
X285332381Y-117957419D01*
X285332381Y-117957419D02*
X285522857Y-117957419D01*
X285522857Y-117957419D02*
X285618095Y-117909800D01*
X285618095Y-117909800D02*
X285665714Y-117862180D01*
X285665714Y-117862180D02*
X285713333Y-117766942D01*
X285713333Y-117766942D02*
X285713333Y-116957419D01*
X286094286Y-116957419D02*
X286713333Y-116957419D01*
X286713333Y-116957419D02*
X286380000Y-117338371D01*
X286380000Y-117338371D02*
X286522857Y-117338371D01*
X286522857Y-117338371D02*
X286618095Y-117385990D01*
X286618095Y-117385990D02*
X286665714Y-117433609D01*
X286665714Y-117433609D02*
X286713333Y-117528847D01*
X286713333Y-117528847D02*
X286713333Y-117766942D01*
X286713333Y-117766942D02*
X286665714Y-117862180D01*
X286665714Y-117862180D02*
X286618095Y-117909800D01*
X286618095Y-117909800D02*
X286522857Y-117957419D01*
X286522857Y-117957419D02*
X286237143Y-117957419D01*
X286237143Y-117957419D02*
X286141905Y-117909800D01*
X286141905Y-117909800D02*
X286094286Y-117862180D01*
X287332381Y-116957419D02*
X287427619Y-116957419D01*
X287427619Y-116957419D02*
X287522857Y-117005038D01*
X287522857Y-117005038D02*
X287570476Y-117052657D01*
X287570476Y-117052657D02*
X287618095Y-117147895D01*
X287618095Y-117147895D02*
X287665714Y-117338371D01*
X287665714Y-117338371D02*
X287665714Y-117576466D01*
X287665714Y-117576466D02*
X287618095Y-117766942D01*
X287618095Y-117766942D02*
X287570476Y-117862180D01*
X287570476Y-117862180D02*
X287522857Y-117909800D01*
X287522857Y-117909800D02*
X287427619Y-117957419D01*
X287427619Y-117957419D02*
X287332381Y-117957419D01*
X287332381Y-117957419D02*
X287237143Y-117909800D01*
X287237143Y-117909800D02*
X287189524Y-117862180D01*
X287189524Y-117862180D02*
X287141905Y-117766942D01*
X287141905Y-117766942D02*
X287094286Y-117576466D01*
X287094286Y-117576466D02*
X287094286Y-117338371D01*
X287094286Y-117338371D02*
X287141905Y-117147895D01*
X287141905Y-117147895D02*
X287189524Y-117052657D01*
X287189524Y-117052657D02*
X287237143Y-117005038D01*
X287237143Y-117005038D02*
X287332381Y-116957419D01*
D11*
X205749819Y-85118094D02*
X204749819Y-85118094D01*
X204749819Y-85118094D02*
X204749819Y-84879999D01*
X204749819Y-84879999D02*
X204797438Y-84737142D01*
X204797438Y-84737142D02*
X204892676Y-84641904D01*
X204892676Y-84641904D02*
X204987914Y-84594285D01*
X204987914Y-84594285D02*
X205178390Y-84546666D01*
X205178390Y-84546666D02*
X205321247Y-84546666D01*
X205321247Y-84546666D02*
X205511723Y-84594285D01*
X205511723Y-84594285D02*
X205606961Y-84641904D01*
X205606961Y-84641904D02*
X205702200Y-84737142D01*
X205702200Y-84737142D02*
X205749819Y-84879999D01*
X205749819Y-84879999D02*
X205749819Y-85118094D01*
X204845057Y-84165713D02*
X204797438Y-84118094D01*
X204797438Y-84118094D02*
X204749819Y-84022856D01*
X204749819Y-84022856D02*
X204749819Y-83784761D01*
X204749819Y-83784761D02*
X204797438Y-83689523D01*
X204797438Y-83689523D02*
X204845057Y-83641904D01*
X204845057Y-83641904D02*
X204940295Y-83594285D01*
X204940295Y-83594285D02*
X205035533Y-83594285D01*
X205035533Y-83594285D02*
X205178390Y-83641904D01*
X205178390Y-83641904D02*
X205749819Y-84213332D01*
X205749819Y-84213332D02*
X205749819Y-83594285D01*
D10*
X189683095Y-116957419D02*
X189683095Y-117766942D01*
X189683095Y-117766942D02*
X189730714Y-117862180D01*
X189730714Y-117862180D02*
X189778333Y-117909800D01*
X189778333Y-117909800D02*
X189873571Y-117957419D01*
X189873571Y-117957419D02*
X190064047Y-117957419D01*
X190064047Y-117957419D02*
X190159285Y-117909800D01*
X190159285Y-117909800D02*
X190206904Y-117862180D01*
X190206904Y-117862180D02*
X190254523Y-117766942D01*
X190254523Y-117766942D02*
X190254523Y-116957419D01*
X190778333Y-117957419D02*
X190968809Y-117957419D01*
X190968809Y-117957419D02*
X191064047Y-117909800D01*
X191064047Y-117909800D02*
X191111666Y-117862180D01*
X191111666Y-117862180D02*
X191206904Y-117719323D01*
X191206904Y-117719323D02*
X191254523Y-117528847D01*
X191254523Y-117528847D02*
X191254523Y-117147895D01*
X191254523Y-117147895D02*
X191206904Y-117052657D01*
X191206904Y-117052657D02*
X191159285Y-117005038D01*
X191159285Y-117005038D02*
X191064047Y-116957419D01*
X191064047Y-116957419D02*
X190873571Y-116957419D01*
X190873571Y-116957419D02*
X190778333Y-117005038D01*
X190778333Y-117005038D02*
X190730714Y-117052657D01*
X190730714Y-117052657D02*
X190683095Y-117147895D01*
X190683095Y-117147895D02*
X190683095Y-117385990D01*
X190683095Y-117385990D02*
X190730714Y-117481228D01*
X190730714Y-117481228D02*
X190778333Y-117528847D01*
X190778333Y-117528847D02*
X190873571Y-117576466D01*
X190873571Y-117576466D02*
X191064047Y-117576466D01*
X191064047Y-117576466D02*
X191159285Y-117528847D01*
X191159285Y-117528847D02*
X191206904Y-117481228D01*
X191206904Y-117481228D02*
X191254523Y-117385990D01*
D11*
X137749819Y-85578094D02*
X136749819Y-85578094D01*
X136749819Y-85578094D02*
X136749819Y-85339999D01*
X136749819Y-85339999D02*
X136797438Y-85197142D01*
X136797438Y-85197142D02*
X136892676Y-85101904D01*
X136892676Y-85101904D02*
X136987914Y-85054285D01*
X136987914Y-85054285D02*
X137178390Y-85006666D01*
X137178390Y-85006666D02*
X137321247Y-85006666D01*
X137321247Y-85006666D02*
X137511723Y-85054285D01*
X137511723Y-85054285D02*
X137606961Y-85101904D01*
X137606961Y-85101904D02*
X137702200Y-85197142D01*
X137702200Y-85197142D02*
X137749819Y-85339999D01*
X137749819Y-85339999D02*
X137749819Y-85578094D01*
X137749819Y-84054285D02*
X137749819Y-84625713D01*
X137749819Y-84339999D02*
X136749819Y-84339999D01*
X136749819Y-84339999D02*
X136892676Y-84435237D01*
X136892676Y-84435237D02*
X136987914Y-84530475D01*
X136987914Y-84530475D02*
X137035533Y-84625713D01*
X191039819Y-184600357D02*
X190563628Y-184933690D01*
X191039819Y-185171785D02*
X190039819Y-185171785D01*
X190039819Y-185171785D02*
X190039819Y-184790833D01*
X190039819Y-184790833D02*
X190087438Y-184695595D01*
X190087438Y-184695595D02*
X190135057Y-184647976D01*
X190135057Y-184647976D02*
X190230295Y-184600357D01*
X190230295Y-184600357D02*
X190373152Y-184600357D01*
X190373152Y-184600357D02*
X190468390Y-184647976D01*
X190468390Y-184647976D02*
X190516009Y-184695595D01*
X190516009Y-184695595D02*
X190563628Y-184790833D01*
X190563628Y-184790833D02*
X190563628Y-185171785D01*
X190039819Y-184267023D02*
X190039819Y-183647976D01*
X190039819Y-183647976D02*
X190420771Y-183981309D01*
X190420771Y-183981309D02*
X190420771Y-183838452D01*
X190420771Y-183838452D02*
X190468390Y-183743214D01*
X190468390Y-183743214D02*
X190516009Y-183695595D01*
X190516009Y-183695595D02*
X190611247Y-183647976D01*
X190611247Y-183647976D02*
X190849342Y-183647976D01*
X190849342Y-183647976D02*
X190944580Y-183695595D01*
X190944580Y-183695595D02*
X190992200Y-183743214D01*
X190992200Y-183743214D02*
X191039819Y-183838452D01*
X191039819Y-183838452D02*
X191039819Y-184124166D01*
X191039819Y-184124166D02*
X190992200Y-184219404D01*
X190992200Y-184219404D02*
X190944580Y-184267023D01*
X190135057Y-183267023D02*
X190087438Y-183219404D01*
X190087438Y-183219404D02*
X190039819Y-183124166D01*
X190039819Y-183124166D02*
X190039819Y-182886071D01*
X190039819Y-182886071D02*
X190087438Y-182790833D01*
X190087438Y-182790833D02*
X190135057Y-182743214D01*
X190135057Y-182743214D02*
X190230295Y-182695595D01*
X190230295Y-182695595D02*
X190325533Y-182695595D01*
X190325533Y-182695595D02*
X190468390Y-182743214D01*
X190468390Y-182743214D02*
X191039819Y-183314642D01*
X191039819Y-183314642D02*
X191039819Y-182695595D01*
X294270833Y-174509580D02*
X294223214Y-174557200D01*
X294223214Y-174557200D02*
X294080357Y-174604819D01*
X294080357Y-174604819D02*
X293985119Y-174604819D01*
X293985119Y-174604819D02*
X293842262Y-174557200D01*
X293842262Y-174557200D02*
X293747024Y-174461961D01*
X293747024Y-174461961D02*
X293699405Y-174366723D01*
X293699405Y-174366723D02*
X293651786Y-174176247D01*
X293651786Y-174176247D02*
X293651786Y-174033390D01*
X293651786Y-174033390D02*
X293699405Y-173842914D01*
X293699405Y-173842914D02*
X293747024Y-173747676D01*
X293747024Y-173747676D02*
X293842262Y-173652438D01*
X293842262Y-173652438D02*
X293985119Y-173604819D01*
X293985119Y-173604819D02*
X294080357Y-173604819D01*
X294080357Y-173604819D02*
X294223214Y-173652438D01*
X294223214Y-173652438D02*
X294270833Y-173700057D01*
X294604167Y-173604819D02*
X295223214Y-173604819D01*
X295223214Y-173604819D02*
X294889881Y-173985771D01*
X294889881Y-173985771D02*
X295032738Y-173985771D01*
X295032738Y-173985771D02*
X295127976Y-174033390D01*
X295127976Y-174033390D02*
X295175595Y-174081009D01*
X295175595Y-174081009D02*
X295223214Y-174176247D01*
X295223214Y-174176247D02*
X295223214Y-174414342D01*
X295223214Y-174414342D02*
X295175595Y-174509580D01*
X295175595Y-174509580D02*
X295127976Y-174557200D01*
X295127976Y-174557200D02*
X295032738Y-174604819D01*
X295032738Y-174604819D02*
X294747024Y-174604819D01*
X294747024Y-174604819D02*
X294651786Y-174557200D01*
X294651786Y-174557200D02*
X294604167Y-174509580D01*
D10*
X186016905Y-73067419D02*
X186016905Y-73876942D01*
X186016905Y-73876942D02*
X186064524Y-73972180D01*
X186064524Y-73972180D02*
X186112143Y-74019800D01*
X186112143Y-74019800D02*
X186207381Y-74067419D01*
X186207381Y-74067419D02*
X186397857Y-74067419D01*
X186397857Y-74067419D02*
X186493095Y-74019800D01*
X186493095Y-74019800D02*
X186540714Y-73972180D01*
X186540714Y-73972180D02*
X186588333Y-73876942D01*
X186588333Y-73876942D02*
X186588333Y-73067419D01*
X187588333Y-74067419D02*
X187016905Y-74067419D01*
X187302619Y-74067419D02*
X187302619Y-73067419D01*
X187302619Y-73067419D02*
X187207381Y-73210276D01*
X187207381Y-73210276D02*
X187112143Y-73305514D01*
X187112143Y-73305514D02*
X187016905Y-73353133D01*
X188493095Y-73067419D02*
X188016905Y-73067419D01*
X188016905Y-73067419D02*
X187969286Y-73543609D01*
X187969286Y-73543609D02*
X188016905Y-73495990D01*
X188016905Y-73495990D02*
X188112143Y-73448371D01*
X188112143Y-73448371D02*
X188350238Y-73448371D01*
X188350238Y-73448371D02*
X188445476Y-73495990D01*
X188445476Y-73495990D02*
X188493095Y-73543609D01*
X188493095Y-73543609D02*
X188540714Y-73638847D01*
X188540714Y-73638847D02*
X188540714Y-73876942D01*
X188540714Y-73876942D02*
X188493095Y-73972180D01*
X188493095Y-73972180D02*
X188445476Y-74019800D01*
X188445476Y-74019800D02*
X188350238Y-74067419D01*
X188350238Y-74067419D02*
X188112143Y-74067419D01*
X188112143Y-74067419D02*
X188016905Y-74019800D01*
X188016905Y-74019800D02*
X187969286Y-73972180D01*
X253061905Y-116957419D02*
X253061905Y-117766942D01*
X253061905Y-117766942D02*
X253109524Y-117862180D01*
X253109524Y-117862180D02*
X253157143Y-117909800D01*
X253157143Y-117909800D02*
X253252381Y-117957419D01*
X253252381Y-117957419D02*
X253442857Y-117957419D01*
X253442857Y-117957419D02*
X253538095Y-117909800D01*
X253538095Y-117909800D02*
X253585714Y-117862180D01*
X253585714Y-117862180D02*
X253633333Y-117766942D01*
X253633333Y-117766942D02*
X253633333Y-116957419D01*
X254061905Y-117052657D02*
X254109524Y-117005038D01*
X254109524Y-117005038D02*
X254204762Y-116957419D01*
X254204762Y-116957419D02*
X254442857Y-116957419D01*
X254442857Y-116957419D02*
X254538095Y-117005038D01*
X254538095Y-117005038D02*
X254585714Y-117052657D01*
X254585714Y-117052657D02*
X254633333Y-117147895D01*
X254633333Y-117147895D02*
X254633333Y-117243133D01*
X254633333Y-117243133D02*
X254585714Y-117385990D01*
X254585714Y-117385990D02*
X254014286Y-117957419D01*
X254014286Y-117957419D02*
X254633333Y-117957419D01*
X255204762Y-117385990D02*
X255109524Y-117338371D01*
X255109524Y-117338371D02*
X255061905Y-117290752D01*
X255061905Y-117290752D02*
X255014286Y-117195514D01*
X255014286Y-117195514D02*
X255014286Y-117147895D01*
X255014286Y-117147895D02*
X255061905Y-117052657D01*
X255061905Y-117052657D02*
X255109524Y-117005038D01*
X255109524Y-117005038D02*
X255204762Y-116957419D01*
X255204762Y-116957419D02*
X255395238Y-116957419D01*
X255395238Y-116957419D02*
X255490476Y-117005038D01*
X255490476Y-117005038D02*
X255538095Y-117052657D01*
X255538095Y-117052657D02*
X255585714Y-117147895D01*
X255585714Y-117147895D02*
X255585714Y-117195514D01*
X255585714Y-117195514D02*
X255538095Y-117290752D01*
X255538095Y-117290752D02*
X255490476Y-117338371D01*
X255490476Y-117338371D02*
X255395238Y-117385990D01*
X255395238Y-117385990D02*
X255204762Y-117385990D01*
X255204762Y-117385990D02*
X255109524Y-117433609D01*
X255109524Y-117433609D02*
X255061905Y-117481228D01*
X255061905Y-117481228D02*
X255014286Y-117576466D01*
X255014286Y-117576466D02*
X255014286Y-117766942D01*
X255014286Y-117766942D02*
X255061905Y-117862180D01*
X255061905Y-117862180D02*
X255109524Y-117909800D01*
X255109524Y-117909800D02*
X255204762Y-117957419D01*
X255204762Y-117957419D02*
X255395238Y-117957419D01*
X255395238Y-117957419D02*
X255490476Y-117909800D01*
X255490476Y-117909800D02*
X255538095Y-117862180D01*
X255538095Y-117862180D02*
X255585714Y-117766942D01*
X255585714Y-117766942D02*
X255585714Y-117576466D01*
X255585714Y-117576466D02*
X255538095Y-117481228D01*
X255538095Y-117481228D02*
X255490476Y-117433609D01*
X255490476Y-117433609D02*
X255395238Y-117385990D01*
D11*
X170914819Y-184600357D02*
X170438628Y-184933690D01*
X170914819Y-185171785D02*
X169914819Y-185171785D01*
X169914819Y-185171785D02*
X169914819Y-184790833D01*
X169914819Y-184790833D02*
X169962438Y-184695595D01*
X169962438Y-184695595D02*
X170010057Y-184647976D01*
X170010057Y-184647976D02*
X170105295Y-184600357D01*
X170105295Y-184600357D02*
X170248152Y-184600357D01*
X170248152Y-184600357D02*
X170343390Y-184647976D01*
X170343390Y-184647976D02*
X170391009Y-184695595D01*
X170391009Y-184695595D02*
X170438628Y-184790833D01*
X170438628Y-184790833D02*
X170438628Y-185171785D01*
X169914819Y-184267023D02*
X169914819Y-183647976D01*
X169914819Y-183647976D02*
X170295771Y-183981309D01*
X170295771Y-183981309D02*
X170295771Y-183838452D01*
X170295771Y-183838452D02*
X170343390Y-183743214D01*
X170343390Y-183743214D02*
X170391009Y-183695595D01*
X170391009Y-183695595D02*
X170486247Y-183647976D01*
X170486247Y-183647976D02*
X170724342Y-183647976D01*
X170724342Y-183647976D02*
X170819580Y-183695595D01*
X170819580Y-183695595D02*
X170867200Y-183743214D01*
X170867200Y-183743214D02*
X170914819Y-183838452D01*
X170914819Y-183838452D02*
X170914819Y-184124166D01*
X170914819Y-184124166D02*
X170867200Y-184219404D01*
X170867200Y-184219404D02*
X170819580Y-184267023D01*
X169914819Y-183314642D02*
X169914819Y-182695595D01*
X169914819Y-182695595D02*
X170295771Y-183028928D01*
X170295771Y-183028928D02*
X170295771Y-182886071D01*
X170295771Y-182886071D02*
X170343390Y-182790833D01*
X170343390Y-182790833D02*
X170391009Y-182743214D01*
X170391009Y-182743214D02*
X170486247Y-182695595D01*
X170486247Y-182695595D02*
X170724342Y-182695595D01*
X170724342Y-182695595D02*
X170819580Y-182743214D01*
X170819580Y-182743214D02*
X170867200Y-182790833D01*
X170867200Y-182790833D02*
X170914819Y-182886071D01*
X170914819Y-182886071D02*
X170914819Y-183171785D01*
X170914819Y-183171785D02*
X170867200Y-183267023D01*
X170867200Y-183267023D02*
X170819580Y-183314642D01*
X298214733Y-198434819D02*
X297881400Y-197958628D01*
X297643305Y-198434819D02*
X297643305Y-197434819D01*
X297643305Y-197434819D02*
X298024257Y-197434819D01*
X298024257Y-197434819D02*
X298119495Y-197482438D01*
X298119495Y-197482438D02*
X298167114Y-197530057D01*
X298167114Y-197530057D02*
X298214733Y-197625295D01*
X298214733Y-197625295D02*
X298214733Y-197768152D01*
X298214733Y-197768152D02*
X298167114Y-197863390D01*
X298167114Y-197863390D02*
X298119495Y-197911009D01*
X298119495Y-197911009D02*
X298024257Y-197958628D01*
X298024257Y-197958628D02*
X297643305Y-197958628D01*
X299071876Y-197434819D02*
X298881400Y-197434819D01*
X298881400Y-197434819D02*
X298786162Y-197482438D01*
X298786162Y-197482438D02*
X298738543Y-197530057D01*
X298738543Y-197530057D02*
X298643305Y-197672914D01*
X298643305Y-197672914D02*
X298595686Y-197863390D01*
X298595686Y-197863390D02*
X298595686Y-198244342D01*
X298595686Y-198244342D02*
X298643305Y-198339580D01*
X298643305Y-198339580D02*
X298690924Y-198387200D01*
X298690924Y-198387200D02*
X298786162Y-198434819D01*
X298786162Y-198434819D02*
X298976638Y-198434819D01*
X298976638Y-198434819D02*
X299071876Y-198387200D01*
X299071876Y-198387200D02*
X299119495Y-198339580D01*
X299119495Y-198339580D02*
X299167114Y-198244342D01*
X299167114Y-198244342D02*
X299167114Y-198006247D01*
X299167114Y-198006247D02*
X299119495Y-197911009D01*
X299119495Y-197911009D02*
X299071876Y-197863390D01*
X299071876Y-197863390D02*
X298976638Y-197815771D01*
X298976638Y-197815771D02*
X298786162Y-197815771D01*
X298786162Y-197815771D02*
X298690924Y-197863390D01*
X298690924Y-197863390D02*
X298643305Y-197911009D01*
X298643305Y-197911009D02*
X298595686Y-198006247D01*
X245999819Y-170039194D02*
X246809342Y-170039194D01*
X246809342Y-170039194D02*
X246904580Y-169991575D01*
X246904580Y-169991575D02*
X246952200Y-169943956D01*
X246952200Y-169943956D02*
X246999819Y-169848718D01*
X246999819Y-169848718D02*
X246999819Y-169658242D01*
X246999819Y-169658242D02*
X246952200Y-169563004D01*
X246952200Y-169563004D02*
X246904580Y-169515385D01*
X246904580Y-169515385D02*
X246809342Y-169467766D01*
X246809342Y-169467766D02*
X245999819Y-169467766D01*
X246095057Y-169039194D02*
X246047438Y-168991575D01*
X246047438Y-168991575D02*
X245999819Y-168896337D01*
X245999819Y-168896337D02*
X245999819Y-168658242D01*
X245999819Y-168658242D02*
X246047438Y-168563004D01*
X246047438Y-168563004D02*
X246095057Y-168515385D01*
X246095057Y-168515385D02*
X246190295Y-168467766D01*
X246190295Y-168467766D02*
X246285533Y-168467766D01*
X246285533Y-168467766D02*
X246428390Y-168515385D01*
X246428390Y-168515385D02*
X246999819Y-169086813D01*
X246999819Y-169086813D02*
X246999819Y-168467766D01*
X245999819Y-168134432D02*
X245999819Y-167515385D01*
X245999819Y-167515385D02*
X246380771Y-167848718D01*
X246380771Y-167848718D02*
X246380771Y-167705861D01*
X246380771Y-167705861D02*
X246428390Y-167610623D01*
X246428390Y-167610623D02*
X246476009Y-167563004D01*
X246476009Y-167563004D02*
X246571247Y-167515385D01*
X246571247Y-167515385D02*
X246809342Y-167515385D01*
X246809342Y-167515385D02*
X246904580Y-167563004D01*
X246904580Y-167563004D02*
X246952200Y-167610623D01*
X246952200Y-167610623D02*
X246999819Y-167705861D01*
X246999819Y-167705861D02*
X246999819Y-167991575D01*
X246999819Y-167991575D02*
X246952200Y-168086813D01*
X246952200Y-168086813D02*
X246904580Y-168134432D01*
X243654819Y-171299999D02*
X243892914Y-171299999D01*
X243797676Y-171538094D02*
X243892914Y-171299999D01*
X243892914Y-171299999D02*
X243797676Y-171061904D01*
X244083390Y-171442856D02*
X243892914Y-171299999D01*
X243892914Y-171299999D02*
X244083390Y-171157142D01*
X203749819Y-106578094D02*
X202749819Y-106578094D01*
X202749819Y-106578094D02*
X202749819Y-106339999D01*
X202749819Y-106339999D02*
X202797438Y-106197142D01*
X202797438Y-106197142D02*
X202892676Y-106101904D01*
X202892676Y-106101904D02*
X202987914Y-106054285D01*
X202987914Y-106054285D02*
X203178390Y-106006666D01*
X203178390Y-106006666D02*
X203321247Y-106006666D01*
X203321247Y-106006666D02*
X203511723Y-106054285D01*
X203511723Y-106054285D02*
X203606961Y-106101904D01*
X203606961Y-106101904D02*
X203702200Y-106197142D01*
X203702200Y-106197142D02*
X203749819Y-106339999D01*
X203749819Y-106339999D02*
X203749819Y-106578094D01*
X202749819Y-105101904D02*
X202749819Y-105578094D01*
X202749819Y-105578094D02*
X203226009Y-105625713D01*
X203226009Y-105625713D02*
X203178390Y-105578094D01*
X203178390Y-105578094D02*
X203130771Y-105482856D01*
X203130771Y-105482856D02*
X203130771Y-105244761D01*
X203130771Y-105244761D02*
X203178390Y-105149523D01*
X203178390Y-105149523D02*
X203226009Y-105101904D01*
X203226009Y-105101904D02*
X203321247Y-105054285D01*
X203321247Y-105054285D02*
X203559342Y-105054285D01*
X203559342Y-105054285D02*
X203654580Y-105101904D01*
X203654580Y-105101904D02*
X203702200Y-105149523D01*
X203702200Y-105149523D02*
X203749819Y-105244761D01*
X203749819Y-105244761D02*
X203749819Y-105482856D01*
X203749819Y-105482856D02*
X203702200Y-105578094D01*
X203702200Y-105578094D02*
X203654580Y-105625713D01*
X226061905Y-166354819D02*
X226061905Y-167164342D01*
X226061905Y-167164342D02*
X226109524Y-167259580D01*
X226109524Y-167259580D02*
X226157143Y-167307200D01*
X226157143Y-167307200D02*
X226252381Y-167354819D01*
X226252381Y-167354819D02*
X226442857Y-167354819D01*
X226442857Y-167354819D02*
X226538095Y-167307200D01*
X226538095Y-167307200D02*
X226585714Y-167259580D01*
X226585714Y-167259580D02*
X226633333Y-167164342D01*
X226633333Y-167164342D02*
X226633333Y-166354819D01*
X227061905Y-166450057D02*
X227109524Y-166402438D01*
X227109524Y-166402438D02*
X227204762Y-166354819D01*
X227204762Y-166354819D02*
X227442857Y-166354819D01*
X227442857Y-166354819D02*
X227538095Y-166402438D01*
X227538095Y-166402438D02*
X227585714Y-166450057D01*
X227585714Y-166450057D02*
X227633333Y-166545295D01*
X227633333Y-166545295D02*
X227633333Y-166640533D01*
X227633333Y-166640533D02*
X227585714Y-166783390D01*
X227585714Y-166783390D02*
X227014286Y-167354819D01*
X227014286Y-167354819D02*
X227633333Y-167354819D01*
X228014286Y-166450057D02*
X228061905Y-166402438D01*
X228061905Y-166402438D02*
X228157143Y-166354819D01*
X228157143Y-166354819D02*
X228395238Y-166354819D01*
X228395238Y-166354819D02*
X228490476Y-166402438D01*
X228490476Y-166402438D02*
X228538095Y-166450057D01*
X228538095Y-166450057D02*
X228585714Y-166545295D01*
X228585714Y-166545295D02*
X228585714Y-166640533D01*
X228585714Y-166640533D02*
X228538095Y-166783390D01*
X228538095Y-166783390D02*
X227966667Y-167354819D01*
X227966667Y-167354819D02*
X228585714Y-167354819D01*
X273749819Y-85118094D02*
X272749819Y-85118094D01*
X272749819Y-85118094D02*
X272749819Y-84879999D01*
X272749819Y-84879999D02*
X272797438Y-84737142D01*
X272797438Y-84737142D02*
X272892676Y-84641904D01*
X272892676Y-84641904D02*
X272987914Y-84594285D01*
X272987914Y-84594285D02*
X273178390Y-84546666D01*
X273178390Y-84546666D02*
X273321247Y-84546666D01*
X273321247Y-84546666D02*
X273511723Y-84594285D01*
X273511723Y-84594285D02*
X273606961Y-84641904D01*
X273606961Y-84641904D02*
X273702200Y-84737142D01*
X273702200Y-84737142D02*
X273749819Y-84879999D01*
X273749819Y-84879999D02*
X273749819Y-85118094D01*
X272749819Y-84213332D02*
X272749819Y-83594285D01*
X272749819Y-83594285D02*
X273130771Y-83927618D01*
X273130771Y-83927618D02*
X273130771Y-83784761D01*
X273130771Y-83784761D02*
X273178390Y-83689523D01*
X273178390Y-83689523D02*
X273226009Y-83641904D01*
X273226009Y-83641904D02*
X273321247Y-83594285D01*
X273321247Y-83594285D02*
X273559342Y-83594285D01*
X273559342Y-83594285D02*
X273654580Y-83641904D01*
X273654580Y-83641904D02*
X273702200Y-83689523D01*
X273702200Y-83689523D02*
X273749819Y-83784761D01*
X273749819Y-83784761D02*
X273749819Y-84070475D01*
X273749819Y-84070475D02*
X273702200Y-84165713D01*
X273702200Y-84165713D02*
X273654580Y-84213332D01*
X242944819Y-168547857D02*
X242468628Y-168881190D01*
X242944819Y-169119285D02*
X241944819Y-169119285D01*
X241944819Y-169119285D02*
X241944819Y-168738333D01*
X241944819Y-168738333D02*
X241992438Y-168643095D01*
X241992438Y-168643095D02*
X242040057Y-168595476D01*
X242040057Y-168595476D02*
X242135295Y-168547857D01*
X242135295Y-168547857D02*
X242278152Y-168547857D01*
X242278152Y-168547857D02*
X242373390Y-168595476D01*
X242373390Y-168595476D02*
X242421009Y-168643095D01*
X242421009Y-168643095D02*
X242468628Y-168738333D01*
X242468628Y-168738333D02*
X242468628Y-169119285D01*
X242944819Y-167595476D02*
X242944819Y-168166904D01*
X242944819Y-167881190D02*
X241944819Y-167881190D01*
X241944819Y-167881190D02*
X242087676Y-167976428D01*
X242087676Y-167976428D02*
X242182914Y-168071666D01*
X242182914Y-168071666D02*
X242230533Y-168166904D01*
X241944819Y-167262142D02*
X241944819Y-166595476D01*
X241944819Y-166595476D02*
X242944819Y-167024047D01*
X205371905Y-153834819D02*
X205371905Y-152834819D01*
X205371905Y-152834819D02*
X205610000Y-152834819D01*
X205610000Y-152834819D02*
X205752857Y-152882438D01*
X205752857Y-152882438D02*
X205848095Y-152977676D01*
X205848095Y-152977676D02*
X205895714Y-153072914D01*
X205895714Y-153072914D02*
X205943333Y-153263390D01*
X205943333Y-153263390D02*
X205943333Y-153406247D01*
X205943333Y-153406247D02*
X205895714Y-153596723D01*
X205895714Y-153596723D02*
X205848095Y-153691961D01*
X205848095Y-153691961D02*
X205752857Y-153787200D01*
X205752857Y-153787200D02*
X205610000Y-153834819D01*
X205610000Y-153834819D02*
X205371905Y-153834819D01*
X206276667Y-152834819D02*
X206943333Y-152834819D01*
X206943333Y-152834819D02*
X206514762Y-153834819D01*
D10*
X322016905Y-73067419D02*
X322016905Y-73876942D01*
X322016905Y-73876942D02*
X322064524Y-73972180D01*
X322064524Y-73972180D02*
X322112143Y-74019800D01*
X322112143Y-74019800D02*
X322207381Y-74067419D01*
X322207381Y-74067419D02*
X322397857Y-74067419D01*
X322397857Y-74067419D02*
X322493095Y-74019800D01*
X322493095Y-74019800D02*
X322540714Y-73972180D01*
X322540714Y-73972180D02*
X322588333Y-73876942D01*
X322588333Y-73876942D02*
X322588333Y-73067419D01*
X323016905Y-73162657D02*
X323064524Y-73115038D01*
X323064524Y-73115038D02*
X323159762Y-73067419D01*
X323159762Y-73067419D02*
X323397857Y-73067419D01*
X323397857Y-73067419D02*
X323493095Y-73115038D01*
X323493095Y-73115038D02*
X323540714Y-73162657D01*
X323540714Y-73162657D02*
X323588333Y-73257895D01*
X323588333Y-73257895D02*
X323588333Y-73353133D01*
X323588333Y-73353133D02*
X323540714Y-73495990D01*
X323540714Y-73495990D02*
X322969286Y-74067419D01*
X322969286Y-74067419D02*
X323588333Y-74067419D01*
X324207381Y-73067419D02*
X324302619Y-73067419D01*
X324302619Y-73067419D02*
X324397857Y-73115038D01*
X324397857Y-73115038D02*
X324445476Y-73162657D01*
X324445476Y-73162657D02*
X324493095Y-73257895D01*
X324493095Y-73257895D02*
X324540714Y-73448371D01*
X324540714Y-73448371D02*
X324540714Y-73686466D01*
X324540714Y-73686466D02*
X324493095Y-73876942D01*
X324493095Y-73876942D02*
X324445476Y-73972180D01*
X324445476Y-73972180D02*
X324397857Y-74019800D01*
X324397857Y-74019800D02*
X324302619Y-74067419D01*
X324302619Y-74067419D02*
X324207381Y-74067419D01*
X324207381Y-74067419D02*
X324112143Y-74019800D01*
X324112143Y-74019800D02*
X324064524Y-73972180D01*
X324064524Y-73972180D02*
X324016905Y-73876942D01*
X324016905Y-73876942D02*
X323969286Y-73686466D01*
X323969286Y-73686466D02*
X323969286Y-73448371D01*
X323969286Y-73448371D02*
X324016905Y-73257895D01*
X324016905Y-73257895D02*
X324064524Y-73162657D01*
X324064524Y-73162657D02*
X324112143Y-73115038D01*
X324112143Y-73115038D02*
X324207381Y-73067419D01*
X157683095Y-116957419D02*
X157683095Y-117766942D01*
X157683095Y-117766942D02*
X157730714Y-117862180D01*
X157730714Y-117862180D02*
X157778333Y-117909800D01*
X157778333Y-117909800D02*
X157873571Y-117957419D01*
X157873571Y-117957419D02*
X158064047Y-117957419D01*
X158064047Y-117957419D02*
X158159285Y-117909800D01*
X158159285Y-117909800D02*
X158206904Y-117862180D01*
X158206904Y-117862180D02*
X158254523Y-117766942D01*
X158254523Y-117766942D02*
X158254523Y-116957419D01*
X158873571Y-117385990D02*
X158778333Y-117338371D01*
X158778333Y-117338371D02*
X158730714Y-117290752D01*
X158730714Y-117290752D02*
X158683095Y-117195514D01*
X158683095Y-117195514D02*
X158683095Y-117147895D01*
X158683095Y-117147895D02*
X158730714Y-117052657D01*
X158730714Y-117052657D02*
X158778333Y-117005038D01*
X158778333Y-117005038D02*
X158873571Y-116957419D01*
X158873571Y-116957419D02*
X159064047Y-116957419D01*
X159064047Y-116957419D02*
X159159285Y-117005038D01*
X159159285Y-117005038D02*
X159206904Y-117052657D01*
X159206904Y-117052657D02*
X159254523Y-117147895D01*
X159254523Y-117147895D02*
X159254523Y-117195514D01*
X159254523Y-117195514D02*
X159206904Y-117290752D01*
X159206904Y-117290752D02*
X159159285Y-117338371D01*
X159159285Y-117338371D02*
X159064047Y-117385990D01*
X159064047Y-117385990D02*
X158873571Y-117385990D01*
X158873571Y-117385990D02*
X158778333Y-117433609D01*
X158778333Y-117433609D02*
X158730714Y-117481228D01*
X158730714Y-117481228D02*
X158683095Y-117576466D01*
X158683095Y-117576466D02*
X158683095Y-117766942D01*
X158683095Y-117766942D02*
X158730714Y-117862180D01*
X158730714Y-117862180D02*
X158778333Y-117909800D01*
X158778333Y-117909800D02*
X158873571Y-117957419D01*
X158873571Y-117957419D02*
X159064047Y-117957419D01*
X159064047Y-117957419D02*
X159159285Y-117909800D01*
X159159285Y-117909800D02*
X159206904Y-117862180D01*
X159206904Y-117862180D02*
X159254523Y-117766942D01*
X159254523Y-117766942D02*
X159254523Y-117576466D01*
X159254523Y-117576466D02*
X159206904Y-117481228D01*
X159206904Y-117481228D02*
X159159285Y-117433609D01*
X159159285Y-117433609D02*
X159064047Y-117385990D01*
X254016905Y-73067419D02*
X254016905Y-73876942D01*
X254016905Y-73876942D02*
X254064524Y-73972180D01*
X254064524Y-73972180D02*
X254112143Y-74019800D01*
X254112143Y-74019800D02*
X254207381Y-74067419D01*
X254207381Y-74067419D02*
X254397857Y-74067419D01*
X254397857Y-74067419D02*
X254493095Y-74019800D01*
X254493095Y-74019800D02*
X254540714Y-73972180D01*
X254540714Y-73972180D02*
X254588333Y-73876942D01*
X254588333Y-73876942D02*
X254588333Y-73067419D01*
X255588333Y-74067419D02*
X255016905Y-74067419D01*
X255302619Y-74067419D02*
X255302619Y-73067419D01*
X255302619Y-73067419D02*
X255207381Y-73210276D01*
X255207381Y-73210276D02*
X255112143Y-73305514D01*
X255112143Y-73305514D02*
X255016905Y-73353133D01*
X256159762Y-73495990D02*
X256064524Y-73448371D01*
X256064524Y-73448371D02*
X256016905Y-73400752D01*
X256016905Y-73400752D02*
X255969286Y-73305514D01*
X255969286Y-73305514D02*
X255969286Y-73257895D01*
X255969286Y-73257895D02*
X256016905Y-73162657D01*
X256016905Y-73162657D02*
X256064524Y-73115038D01*
X256064524Y-73115038D02*
X256159762Y-73067419D01*
X256159762Y-73067419D02*
X256350238Y-73067419D01*
X256350238Y-73067419D02*
X256445476Y-73115038D01*
X256445476Y-73115038D02*
X256493095Y-73162657D01*
X256493095Y-73162657D02*
X256540714Y-73257895D01*
X256540714Y-73257895D02*
X256540714Y-73305514D01*
X256540714Y-73305514D02*
X256493095Y-73400752D01*
X256493095Y-73400752D02*
X256445476Y-73448371D01*
X256445476Y-73448371D02*
X256350238Y-73495990D01*
X256350238Y-73495990D02*
X256159762Y-73495990D01*
X256159762Y-73495990D02*
X256064524Y-73543609D01*
X256064524Y-73543609D02*
X256016905Y-73591228D01*
X256016905Y-73591228D02*
X255969286Y-73686466D01*
X255969286Y-73686466D02*
X255969286Y-73876942D01*
X255969286Y-73876942D02*
X256016905Y-73972180D01*
X256016905Y-73972180D02*
X256064524Y-74019800D01*
X256064524Y-74019800D02*
X256159762Y-74067419D01*
X256159762Y-74067419D02*
X256350238Y-74067419D01*
X256350238Y-74067419D02*
X256445476Y-74019800D01*
X256445476Y-74019800D02*
X256493095Y-73972180D01*
X256493095Y-73972180D02*
X256540714Y-73876942D01*
X256540714Y-73876942D02*
X256540714Y-73686466D01*
X256540714Y-73686466D02*
X256493095Y-73591228D01*
X256493095Y-73591228D02*
X256445476Y-73543609D01*
X256445476Y-73543609D02*
X256350238Y-73495990D01*
X293016905Y-73067419D02*
X293016905Y-73876942D01*
X293016905Y-73876942D02*
X293064524Y-73972180D01*
X293064524Y-73972180D02*
X293112143Y-74019800D01*
X293112143Y-74019800D02*
X293207381Y-74067419D01*
X293207381Y-74067419D02*
X293397857Y-74067419D01*
X293397857Y-74067419D02*
X293493095Y-74019800D01*
X293493095Y-74019800D02*
X293540714Y-73972180D01*
X293540714Y-73972180D02*
X293588333Y-73876942D01*
X293588333Y-73876942D02*
X293588333Y-73067419D01*
X294588333Y-74067419D02*
X294016905Y-74067419D01*
X294302619Y-74067419D02*
X294302619Y-73067419D01*
X294302619Y-73067419D02*
X294207381Y-73210276D01*
X294207381Y-73210276D02*
X294112143Y-73305514D01*
X294112143Y-73305514D02*
X294016905Y-73353133D01*
X295064524Y-74067419D02*
X295255000Y-74067419D01*
X295255000Y-74067419D02*
X295350238Y-74019800D01*
X295350238Y-74019800D02*
X295397857Y-73972180D01*
X295397857Y-73972180D02*
X295493095Y-73829323D01*
X295493095Y-73829323D02*
X295540714Y-73638847D01*
X295540714Y-73638847D02*
X295540714Y-73257895D01*
X295540714Y-73257895D02*
X295493095Y-73162657D01*
X295493095Y-73162657D02*
X295445476Y-73115038D01*
X295445476Y-73115038D02*
X295350238Y-73067419D01*
X295350238Y-73067419D02*
X295159762Y-73067419D01*
X295159762Y-73067419D02*
X295064524Y-73115038D01*
X295064524Y-73115038D02*
X295016905Y-73162657D01*
X295016905Y-73162657D02*
X294969286Y-73257895D01*
X294969286Y-73257895D02*
X294969286Y-73495990D01*
X294969286Y-73495990D02*
X295016905Y-73591228D01*
X295016905Y-73591228D02*
X295064524Y-73638847D01*
X295064524Y-73638847D02*
X295159762Y-73686466D01*
X295159762Y-73686466D02*
X295350238Y-73686466D01*
X295350238Y-73686466D02*
X295445476Y-73638847D01*
X295445476Y-73638847D02*
X295493095Y-73591228D01*
X295493095Y-73591228D02*
X295540714Y-73495990D01*
D11*
X298214733Y-194934819D02*
X297881400Y-194458628D01*
X297643305Y-194934819D02*
X297643305Y-193934819D01*
X297643305Y-193934819D02*
X298024257Y-193934819D01*
X298024257Y-193934819D02*
X298119495Y-193982438D01*
X298119495Y-193982438D02*
X298167114Y-194030057D01*
X298167114Y-194030057D02*
X298214733Y-194125295D01*
X298214733Y-194125295D02*
X298214733Y-194268152D01*
X298214733Y-194268152D02*
X298167114Y-194363390D01*
X298167114Y-194363390D02*
X298119495Y-194411009D01*
X298119495Y-194411009D02*
X298024257Y-194458628D01*
X298024257Y-194458628D02*
X297643305Y-194458628D01*
X299119495Y-193934819D02*
X298643305Y-193934819D01*
X298643305Y-193934819D02*
X298595686Y-194411009D01*
X298595686Y-194411009D02*
X298643305Y-194363390D01*
X298643305Y-194363390D02*
X298738543Y-194315771D01*
X298738543Y-194315771D02*
X298976638Y-194315771D01*
X298976638Y-194315771D02*
X299071876Y-194363390D01*
X299071876Y-194363390D02*
X299119495Y-194411009D01*
X299119495Y-194411009D02*
X299167114Y-194506247D01*
X299167114Y-194506247D02*
X299167114Y-194744342D01*
X299167114Y-194744342D02*
X299119495Y-194839580D01*
X299119495Y-194839580D02*
X299071876Y-194887200D01*
X299071876Y-194887200D02*
X298976638Y-194934819D01*
X298976638Y-194934819D02*
X298738543Y-194934819D01*
X298738543Y-194934819D02*
X298643305Y-194887200D01*
X298643305Y-194887200D02*
X298595686Y-194839580D01*
X247531142Y-175588819D02*
X247197809Y-175112628D01*
X246959714Y-175588819D02*
X246959714Y-174588819D01*
X246959714Y-174588819D02*
X247340666Y-174588819D01*
X247340666Y-174588819D02*
X247435904Y-174636438D01*
X247435904Y-174636438D02*
X247483523Y-174684057D01*
X247483523Y-174684057D02*
X247531142Y-174779295D01*
X247531142Y-174779295D02*
X247531142Y-174922152D01*
X247531142Y-174922152D02*
X247483523Y-175017390D01*
X247483523Y-175017390D02*
X247435904Y-175065009D01*
X247435904Y-175065009D02*
X247340666Y-175112628D01*
X247340666Y-175112628D02*
X246959714Y-175112628D01*
X247912095Y-174684057D02*
X247959714Y-174636438D01*
X247959714Y-174636438D02*
X248054952Y-174588819D01*
X248054952Y-174588819D02*
X248293047Y-174588819D01*
X248293047Y-174588819D02*
X248388285Y-174636438D01*
X248388285Y-174636438D02*
X248435904Y-174684057D01*
X248435904Y-174684057D02*
X248483523Y-174779295D01*
X248483523Y-174779295D02*
X248483523Y-174874533D01*
X248483523Y-174874533D02*
X248435904Y-175017390D01*
X248435904Y-175017390D02*
X247864476Y-175588819D01*
X247864476Y-175588819D02*
X248483523Y-175588819D01*
X248864476Y-174684057D02*
X248912095Y-174636438D01*
X248912095Y-174636438D02*
X249007333Y-174588819D01*
X249007333Y-174588819D02*
X249245428Y-174588819D01*
X249245428Y-174588819D02*
X249340666Y-174636438D01*
X249340666Y-174636438D02*
X249388285Y-174684057D01*
X249388285Y-174684057D02*
X249435904Y-174779295D01*
X249435904Y-174779295D02*
X249435904Y-174874533D01*
X249435904Y-174874533D02*
X249388285Y-175017390D01*
X249388285Y-175017390D02*
X248816857Y-175588819D01*
X248816857Y-175588819D02*
X249435904Y-175588819D01*
X184699819Y-185109285D02*
X183699819Y-185109285D01*
X183699819Y-185109285D02*
X183699819Y-184871190D01*
X183699819Y-184871190D02*
X183747438Y-184728333D01*
X183747438Y-184728333D02*
X183842676Y-184633095D01*
X183842676Y-184633095D02*
X183937914Y-184585476D01*
X183937914Y-184585476D02*
X184128390Y-184537857D01*
X184128390Y-184537857D02*
X184271247Y-184537857D01*
X184271247Y-184537857D02*
X184461723Y-184585476D01*
X184461723Y-184585476D02*
X184556961Y-184633095D01*
X184556961Y-184633095D02*
X184652200Y-184728333D01*
X184652200Y-184728333D02*
X184699819Y-184871190D01*
X184699819Y-184871190D02*
X184699819Y-185109285D01*
X184699819Y-183585476D02*
X184699819Y-184156904D01*
X184699819Y-183871190D02*
X183699819Y-183871190D01*
X183699819Y-183871190D02*
X183842676Y-183966428D01*
X183842676Y-183966428D02*
X183937914Y-184061666D01*
X183937914Y-184061666D02*
X183985533Y-184156904D01*
X184033152Y-182728333D02*
X184699819Y-182728333D01*
X183652200Y-182966428D02*
X184366485Y-183204523D01*
X184366485Y-183204523D02*
X184366485Y-182585476D01*
D10*
X93206905Y-116957419D02*
X93206905Y-117766942D01*
X93206905Y-117766942D02*
X93254524Y-117862180D01*
X93254524Y-117862180D02*
X93302143Y-117909800D01*
X93302143Y-117909800D02*
X93397381Y-117957419D01*
X93397381Y-117957419D02*
X93587857Y-117957419D01*
X93587857Y-117957419D02*
X93683095Y-117909800D01*
X93683095Y-117909800D02*
X93730714Y-117862180D01*
X93730714Y-117862180D02*
X93778333Y-117766942D01*
X93778333Y-117766942D02*
X93778333Y-116957419D01*
X94206905Y-117052657D02*
X94254524Y-117005038D01*
X94254524Y-117005038D02*
X94349762Y-116957419D01*
X94349762Y-116957419D02*
X94587857Y-116957419D01*
X94587857Y-116957419D02*
X94683095Y-117005038D01*
X94683095Y-117005038D02*
X94730714Y-117052657D01*
X94730714Y-117052657D02*
X94778333Y-117147895D01*
X94778333Y-117147895D02*
X94778333Y-117243133D01*
X94778333Y-117243133D02*
X94730714Y-117385990D01*
X94730714Y-117385990D02*
X94159286Y-117957419D01*
X94159286Y-117957419D02*
X94778333Y-117957419D01*
X95635476Y-116957419D02*
X95445000Y-116957419D01*
X95445000Y-116957419D02*
X95349762Y-117005038D01*
X95349762Y-117005038D02*
X95302143Y-117052657D01*
X95302143Y-117052657D02*
X95206905Y-117195514D01*
X95206905Y-117195514D02*
X95159286Y-117385990D01*
X95159286Y-117385990D02*
X95159286Y-117766942D01*
X95159286Y-117766942D02*
X95206905Y-117862180D01*
X95206905Y-117862180D02*
X95254524Y-117909800D01*
X95254524Y-117909800D02*
X95349762Y-117957419D01*
X95349762Y-117957419D02*
X95540238Y-117957419D01*
X95540238Y-117957419D02*
X95635476Y-117909800D01*
X95635476Y-117909800D02*
X95683095Y-117862180D01*
X95683095Y-117862180D02*
X95730714Y-117766942D01*
X95730714Y-117766942D02*
X95730714Y-117528847D01*
X95730714Y-117528847D02*
X95683095Y-117433609D01*
X95683095Y-117433609D02*
X95635476Y-117385990D01*
X95635476Y-117385990D02*
X95540238Y-117338371D01*
X95540238Y-117338371D02*
X95349762Y-117338371D01*
X95349762Y-117338371D02*
X95254524Y-117385990D01*
X95254524Y-117385990D02*
X95206905Y-117433609D01*
X95206905Y-117433609D02*
X95159286Y-117528847D01*
D11*
X135749819Y-107118094D02*
X134749819Y-107118094D01*
X134749819Y-107118094D02*
X134749819Y-106879999D01*
X134749819Y-106879999D02*
X134797438Y-106737142D01*
X134797438Y-106737142D02*
X134892676Y-106641904D01*
X134892676Y-106641904D02*
X134987914Y-106594285D01*
X134987914Y-106594285D02*
X135178390Y-106546666D01*
X135178390Y-106546666D02*
X135321247Y-106546666D01*
X135321247Y-106546666D02*
X135511723Y-106594285D01*
X135511723Y-106594285D02*
X135606961Y-106641904D01*
X135606961Y-106641904D02*
X135702200Y-106737142D01*
X135702200Y-106737142D02*
X135749819Y-106879999D01*
X135749819Y-106879999D02*
X135749819Y-107118094D01*
X135083152Y-105689523D02*
X135749819Y-105689523D01*
X134702200Y-105927618D02*
X135416485Y-106165713D01*
X135416485Y-106165713D02*
X135416485Y-105546666D01*
D10*
X89016905Y-73067419D02*
X89016905Y-73876942D01*
X89016905Y-73876942D02*
X89064524Y-73972180D01*
X89064524Y-73972180D02*
X89112143Y-74019800D01*
X89112143Y-74019800D02*
X89207381Y-74067419D01*
X89207381Y-74067419D02*
X89397857Y-74067419D01*
X89397857Y-74067419D02*
X89493095Y-74019800D01*
X89493095Y-74019800D02*
X89540714Y-73972180D01*
X89540714Y-73972180D02*
X89588333Y-73876942D01*
X89588333Y-73876942D02*
X89588333Y-73067419D01*
X90588333Y-74067419D02*
X90016905Y-74067419D01*
X90302619Y-74067419D02*
X90302619Y-73067419D01*
X90302619Y-73067419D02*
X90207381Y-73210276D01*
X90207381Y-73210276D02*
X90112143Y-73305514D01*
X90112143Y-73305514D02*
X90016905Y-73353133D01*
X90969286Y-73162657D02*
X91016905Y-73115038D01*
X91016905Y-73115038D02*
X91112143Y-73067419D01*
X91112143Y-73067419D02*
X91350238Y-73067419D01*
X91350238Y-73067419D02*
X91445476Y-73115038D01*
X91445476Y-73115038D02*
X91493095Y-73162657D01*
X91493095Y-73162657D02*
X91540714Y-73257895D01*
X91540714Y-73257895D02*
X91540714Y-73353133D01*
X91540714Y-73353133D02*
X91493095Y-73495990D01*
X91493095Y-73495990D02*
X90921667Y-74067419D01*
X90921667Y-74067419D02*
X91540714Y-74067419D01*
D11*
X271749819Y-106578094D02*
X270749819Y-106578094D01*
X270749819Y-106578094D02*
X270749819Y-106339999D01*
X270749819Y-106339999D02*
X270797438Y-106197142D01*
X270797438Y-106197142D02*
X270892676Y-106101904D01*
X270892676Y-106101904D02*
X270987914Y-106054285D01*
X270987914Y-106054285D02*
X271178390Y-106006666D01*
X271178390Y-106006666D02*
X271321247Y-106006666D01*
X271321247Y-106006666D02*
X271511723Y-106054285D01*
X271511723Y-106054285D02*
X271606961Y-106101904D01*
X271606961Y-106101904D02*
X271702200Y-106197142D01*
X271702200Y-106197142D02*
X271749819Y-106339999D01*
X271749819Y-106339999D02*
X271749819Y-106578094D01*
X270749819Y-105149523D02*
X270749819Y-105339999D01*
X270749819Y-105339999D02*
X270797438Y-105435237D01*
X270797438Y-105435237D02*
X270845057Y-105482856D01*
X270845057Y-105482856D02*
X270987914Y-105578094D01*
X270987914Y-105578094D02*
X271178390Y-105625713D01*
X271178390Y-105625713D02*
X271559342Y-105625713D01*
X271559342Y-105625713D02*
X271654580Y-105578094D01*
X271654580Y-105578094D02*
X271702200Y-105530475D01*
X271702200Y-105530475D02*
X271749819Y-105435237D01*
X271749819Y-105435237D02*
X271749819Y-105244761D01*
X271749819Y-105244761D02*
X271702200Y-105149523D01*
X271702200Y-105149523D02*
X271654580Y-105101904D01*
X271654580Y-105101904D02*
X271559342Y-105054285D01*
X271559342Y-105054285D02*
X271321247Y-105054285D01*
X271321247Y-105054285D02*
X271226009Y-105101904D01*
X271226009Y-105101904D02*
X271178390Y-105149523D01*
X271178390Y-105149523D02*
X271130771Y-105244761D01*
X271130771Y-105244761D02*
X271130771Y-105435237D01*
X271130771Y-105435237D02*
X271178390Y-105530475D01*
X271178390Y-105530475D02*
X271226009Y-105578094D01*
X271226009Y-105578094D02*
X271321247Y-105625713D01*
X183885057Y-176322738D02*
X183837438Y-176417976D01*
X183837438Y-176417976D02*
X183742200Y-176513214D01*
X183742200Y-176513214D02*
X183599342Y-176656071D01*
X183599342Y-176656071D02*
X183551723Y-176751309D01*
X183551723Y-176751309D02*
X183551723Y-176846547D01*
X183789819Y-176798928D02*
X183742200Y-176894166D01*
X183742200Y-176894166D02*
X183646961Y-176989404D01*
X183646961Y-176989404D02*
X183456485Y-177037023D01*
X183456485Y-177037023D02*
X183123152Y-177037023D01*
X183123152Y-177037023D02*
X182932676Y-176989404D01*
X182932676Y-176989404D02*
X182837438Y-176894166D01*
X182837438Y-176894166D02*
X182789819Y-176798928D01*
X182789819Y-176798928D02*
X182789819Y-176608452D01*
X182789819Y-176608452D02*
X182837438Y-176513214D01*
X182837438Y-176513214D02*
X182932676Y-176417976D01*
X182932676Y-176417976D02*
X183123152Y-176370357D01*
X183123152Y-176370357D02*
X183456485Y-176370357D01*
X183456485Y-176370357D02*
X183646961Y-176417976D01*
X183646961Y-176417976D02*
X183742200Y-176513214D01*
X183742200Y-176513214D02*
X183789819Y-176608452D01*
X183789819Y-176608452D02*
X183789819Y-176798928D01*
X183123152Y-175513214D02*
X183789819Y-175513214D01*
X182742200Y-175751309D02*
X183456485Y-175989404D01*
X183456485Y-175989404D02*
X183456485Y-175370357D01*
X230798761Y-185908057D02*
X230703523Y-185860438D01*
X230703523Y-185860438D02*
X230608285Y-185765200D01*
X230608285Y-185765200D02*
X230465428Y-185622342D01*
X230465428Y-185622342D02*
X230370190Y-185574723D01*
X230370190Y-185574723D02*
X230274952Y-185574723D01*
X230322571Y-185812819D02*
X230227333Y-185765200D01*
X230227333Y-185765200D02*
X230132095Y-185669961D01*
X230132095Y-185669961D02*
X230084476Y-185479485D01*
X230084476Y-185479485D02*
X230084476Y-185146152D01*
X230084476Y-185146152D02*
X230132095Y-184955676D01*
X230132095Y-184955676D02*
X230227333Y-184860438D01*
X230227333Y-184860438D02*
X230322571Y-184812819D01*
X230322571Y-184812819D02*
X230513047Y-184812819D01*
X230513047Y-184812819D02*
X230608285Y-184860438D01*
X230608285Y-184860438D02*
X230703523Y-184955676D01*
X230703523Y-184955676D02*
X230751142Y-185146152D01*
X230751142Y-185146152D02*
X230751142Y-185479485D01*
X230751142Y-185479485D02*
X230703523Y-185669961D01*
X230703523Y-185669961D02*
X230608285Y-185765200D01*
X230608285Y-185765200D02*
X230513047Y-185812819D01*
X230513047Y-185812819D02*
X230322571Y-185812819D01*
X231084476Y-184812819D02*
X231703523Y-184812819D01*
X231703523Y-184812819D02*
X231370190Y-185193771D01*
X231370190Y-185193771D02*
X231513047Y-185193771D01*
X231513047Y-185193771D02*
X231608285Y-185241390D01*
X231608285Y-185241390D02*
X231655904Y-185289009D01*
X231655904Y-185289009D02*
X231703523Y-185384247D01*
X231703523Y-185384247D02*
X231703523Y-185622342D01*
X231703523Y-185622342D02*
X231655904Y-185717580D01*
X231655904Y-185717580D02*
X231608285Y-185765200D01*
X231608285Y-185765200D02*
X231513047Y-185812819D01*
X231513047Y-185812819D02*
X231227333Y-185812819D01*
X231227333Y-185812819D02*
X231132095Y-185765200D01*
X231132095Y-185765200D02*
X231084476Y-185717580D01*
X316804819Y-194952857D02*
X316328628Y-195286190D01*
X316804819Y-195524285D02*
X315804819Y-195524285D01*
X315804819Y-195524285D02*
X315804819Y-195143333D01*
X315804819Y-195143333D02*
X315852438Y-195048095D01*
X315852438Y-195048095D02*
X315900057Y-195000476D01*
X315900057Y-195000476D02*
X315995295Y-194952857D01*
X315995295Y-194952857D02*
X316138152Y-194952857D01*
X316138152Y-194952857D02*
X316233390Y-195000476D01*
X316233390Y-195000476D02*
X316281009Y-195048095D01*
X316281009Y-195048095D02*
X316328628Y-195143333D01*
X316328628Y-195143333D02*
X316328628Y-195524285D01*
X315900057Y-194571904D02*
X315852438Y-194524285D01*
X315852438Y-194524285D02*
X315804819Y-194429047D01*
X315804819Y-194429047D02*
X315804819Y-194190952D01*
X315804819Y-194190952D02*
X315852438Y-194095714D01*
X315852438Y-194095714D02*
X315900057Y-194048095D01*
X315900057Y-194048095D02*
X315995295Y-194000476D01*
X315995295Y-194000476D02*
X316090533Y-194000476D01*
X316090533Y-194000476D02*
X316233390Y-194048095D01*
X316233390Y-194048095D02*
X316804819Y-194619523D01*
X316804819Y-194619523D02*
X316804819Y-194000476D01*
X315804819Y-193667142D02*
X315804819Y-193048095D01*
X315804819Y-193048095D02*
X316185771Y-193381428D01*
X316185771Y-193381428D02*
X316185771Y-193238571D01*
X316185771Y-193238571D02*
X316233390Y-193143333D01*
X316233390Y-193143333D02*
X316281009Y-193095714D01*
X316281009Y-193095714D02*
X316376247Y-193048095D01*
X316376247Y-193048095D02*
X316614342Y-193048095D01*
X316614342Y-193048095D02*
X316709580Y-193095714D01*
X316709580Y-193095714D02*
X316757200Y-193143333D01*
X316757200Y-193143333D02*
X316804819Y-193238571D01*
X316804819Y-193238571D02*
X316804819Y-193524285D01*
X316804819Y-193524285D02*
X316757200Y-193619523D01*
X316757200Y-193619523D02*
X316709580Y-193667142D01*
D12*
X234410000Y-166936248D02*
X234410000Y-168358752D01*
X236230000Y-166936248D02*
X236230000Y-168358752D01*
X220935000Y-172632936D02*
X220935000Y-173087064D01*
X222405000Y-172632936D02*
X222405000Y-173087064D01*
X187050000Y-184568752D02*
X187050000Y-183146248D01*
X188870000Y-184568752D02*
X188870000Y-183146248D01*
D10*
X206640000Y-120150000D02*
X238340000Y-120150000D01*
X238340000Y-151850000D01*
X206640000Y-151850000D01*
X206640000Y-120150000D01*
X206990000Y-120500000D02*
X209990000Y-120500000D01*
X209990000Y-123500000D01*
X206990000Y-123500000D01*
X206990000Y-120500000D01*
X206990000Y-124500000D02*
X209990000Y-124500000D01*
X209990000Y-127500000D01*
X206990000Y-127500000D01*
X206990000Y-124500000D01*
X206990000Y-128500000D02*
X209990000Y-128500000D01*
X209990000Y-131500000D01*
X206990000Y-131500000D01*
X206990000Y-128500000D01*
X206990000Y-132500000D02*
X209990000Y-132500000D01*
X209990000Y-135500000D01*
X206990000Y-135500000D01*
X206990000Y-132500000D01*
X206990000Y-136300000D02*
X209990000Y-136300000D01*
X209990000Y-139300000D01*
X206990000Y-139300000D01*
X206990000Y-136300000D01*
X206990000Y-140300000D02*
X209990000Y-140300000D01*
X209990000Y-143300000D01*
X206990000Y-143300000D01*
X206990000Y-140300000D01*
X206990000Y-144300000D02*
X209990000Y-144300000D01*
X209990000Y-147300000D01*
X206990000Y-147300000D01*
X206990000Y-144300000D01*
X206990000Y-148300000D02*
X209990000Y-148300000D01*
X209990000Y-151300000D01*
X206990000Y-151300000D01*
X206990000Y-148300000D01*
X210990000Y-120500000D02*
X213990000Y-120500000D01*
X213990000Y-123500000D01*
X210990000Y-123500000D01*
X210990000Y-120500000D01*
X210990000Y-124500000D02*
X213990000Y-124500000D01*
X213990000Y-127500000D01*
X210990000Y-127500000D01*
X210990000Y-124500000D01*
X210990000Y-128500000D02*
X213990000Y-128500000D01*
X213990000Y-131500000D01*
X210990000Y-131500000D01*
X210990000Y-128500000D01*
X210990000Y-132500000D02*
X213990000Y-132500000D01*
X213990000Y-135500000D01*
X210990000Y-135500000D01*
X210990000Y-132500000D01*
X210990000Y-136300000D02*
X213990000Y-136300000D01*
X213990000Y-139300000D01*
X210990000Y-139300000D01*
X210990000Y-136300000D01*
X210990000Y-140300000D02*
X213990000Y-140300000D01*
X213990000Y-143300000D01*
X210990000Y-143300000D01*
X210990000Y-140300000D01*
X210990000Y-144300000D02*
X213990000Y-144300000D01*
X213990000Y-147300000D01*
X210990000Y-147300000D01*
X210990000Y-144300000D01*
X210990000Y-148300000D02*
X213990000Y-148300000D01*
X213990000Y-151300000D01*
X210990000Y-151300000D01*
X210990000Y-148300000D01*
X214990000Y-120500000D02*
X217990000Y-120500000D01*
X217990000Y-123500000D01*
X214990000Y-123500000D01*
X214990000Y-120500000D01*
X214990000Y-124500000D02*
X217990000Y-124500000D01*
X217990000Y-127500000D01*
X214990000Y-127500000D01*
X214990000Y-124500000D01*
X214990000Y-128500000D02*
X217990000Y-128500000D01*
X217990000Y-131500000D01*
X214990000Y-131500000D01*
X214990000Y-128500000D01*
X214990000Y-132500000D02*
X217990000Y-132500000D01*
X217990000Y-135500000D01*
X214990000Y-135500000D01*
X214990000Y-132500000D01*
X214990000Y-136300000D02*
X217990000Y-136300000D01*
X217990000Y-139300000D01*
X214990000Y-139300000D01*
X214990000Y-136300000D01*
X214990000Y-140300000D02*
X217990000Y-140300000D01*
X217990000Y-143300000D01*
X214990000Y-143300000D01*
X214990000Y-140300000D01*
X214990000Y-144300000D02*
X217990000Y-144300000D01*
X217990000Y-147300000D01*
X214990000Y-147300000D01*
X214990000Y-144300000D01*
X214990000Y-148300000D02*
X217990000Y-148300000D01*
X217990000Y-151300000D01*
X214990000Y-151300000D01*
X214990000Y-148300000D01*
X218990000Y-120500000D02*
X221990000Y-120500000D01*
X221990000Y-123500000D01*
X218990000Y-123500000D01*
X218990000Y-120500000D01*
X218990000Y-124500000D02*
X221990000Y-124500000D01*
X221990000Y-127500000D01*
X218990000Y-127500000D01*
X218990000Y-124500000D01*
X218990000Y-128500000D02*
X221990000Y-128500000D01*
X221990000Y-131500000D01*
X218990000Y-131500000D01*
X218990000Y-128500000D01*
X218990000Y-132500000D02*
X221990000Y-132500000D01*
X221990000Y-135500000D01*
X218990000Y-135500000D01*
X218990000Y-132500000D01*
X218990000Y-136300000D02*
X221990000Y-136300000D01*
X221990000Y-139300000D01*
X218990000Y-139300000D01*
X218990000Y-136300000D01*
X218990000Y-140300000D02*
X221990000Y-140300000D01*
X221990000Y-143300000D01*
X218990000Y-143300000D01*
X218990000Y-140300000D01*
X218990000Y-144300000D02*
X221990000Y-144300000D01*
X221990000Y-147300000D01*
X218990000Y-147300000D01*
X218990000Y-144300000D01*
X218990000Y-148300000D02*
X221990000Y-148300000D01*
X221990000Y-151300000D01*
X218990000Y-151300000D01*
X218990000Y-148300000D01*
X222990000Y-120500000D02*
X225990000Y-120500000D01*
X225990000Y-123500000D01*
X222990000Y-123500000D01*
X222990000Y-120500000D01*
X222990000Y-124500000D02*
X225990000Y-124500000D01*
X225990000Y-127500000D01*
X222990000Y-127500000D01*
X222990000Y-124500000D01*
X222990000Y-128500000D02*
X225990000Y-128500000D01*
X225990000Y-131500000D01*
X222990000Y-131500000D01*
X222990000Y-128500000D01*
X222990000Y-132500000D02*
X225990000Y-132500000D01*
X225990000Y-135500000D01*
X222990000Y-135500000D01*
X222990000Y-132500000D01*
X222990000Y-136300000D02*
X225990000Y-136300000D01*
X225990000Y-139300000D01*
X222990000Y-139300000D01*
X222990000Y-136300000D01*
X222990000Y-140300000D02*
X225990000Y-140300000D01*
X225990000Y-143300000D01*
X222990000Y-143300000D01*
X222990000Y-140300000D01*
X222990000Y-144300000D02*
X225990000Y-144300000D01*
X225990000Y-147300000D01*
X222990000Y-147300000D01*
X222990000Y-144300000D01*
X222990000Y-148300000D02*
X225990000Y-148300000D01*
X225990000Y-151300000D01*
X222990000Y-151300000D01*
X222990000Y-148300000D01*
X226990000Y-120500000D02*
X229990000Y-120500000D01*
X229990000Y-123500000D01*
X226990000Y-123500000D01*
X226990000Y-120500000D01*
X226990000Y-124500000D02*
X229990000Y-124500000D01*
X229990000Y-127500000D01*
X226990000Y-127500000D01*
X226990000Y-124500000D01*
X226990000Y-128500000D02*
X229990000Y-128500000D01*
X229990000Y-131500000D01*
X226990000Y-131500000D01*
X226990000Y-128500000D01*
X226990000Y-132500000D02*
X229990000Y-132500000D01*
X229990000Y-135500000D01*
X226990000Y-135500000D01*
X226990000Y-132500000D01*
X226990000Y-136300000D02*
X229990000Y-136300000D01*
X229990000Y-139300000D01*
X226990000Y-139300000D01*
X226990000Y-136300000D01*
X226990000Y-140300000D02*
X229990000Y-140300000D01*
X229990000Y-143300000D01*
X226990000Y-143300000D01*
X226990000Y-140300000D01*
X226990000Y-144300000D02*
X229990000Y-144300000D01*
X229990000Y-147300000D01*
X226990000Y-147300000D01*
X226990000Y-144300000D01*
X226990000Y-148300000D02*
X229990000Y-148300000D01*
X229990000Y-151300000D01*
X226990000Y-151300000D01*
X226990000Y-148300000D01*
X230990000Y-120500000D02*
X233990000Y-120500000D01*
X233990000Y-123500000D01*
X230990000Y-123500000D01*
X230990000Y-120500000D01*
X230990000Y-124500000D02*
X233990000Y-124500000D01*
X233990000Y-127500000D01*
X230990000Y-127500000D01*
X230990000Y-124500000D01*
X230990000Y-128500000D02*
X233990000Y-128500000D01*
X233990000Y-131500000D01*
X230990000Y-131500000D01*
X230990000Y-128500000D01*
X230990000Y-132500000D02*
X233990000Y-132500000D01*
X233990000Y-135500000D01*
X230990000Y-135500000D01*
X230990000Y-132500000D01*
X230990000Y-136300000D02*
X233990000Y-136300000D01*
X233990000Y-139300000D01*
X230990000Y-139300000D01*
X230990000Y-136300000D01*
X230990000Y-140300000D02*
X233990000Y-140300000D01*
X233990000Y-143300000D01*
X230990000Y-143300000D01*
X230990000Y-140300000D01*
X230990000Y-144300000D02*
X233990000Y-144300000D01*
X233990000Y-147300000D01*
X230990000Y-147300000D01*
X230990000Y-144300000D01*
X230990000Y-148300000D02*
X233990000Y-148300000D01*
X233990000Y-151300000D01*
X230990000Y-151300000D01*
X230990000Y-148300000D01*
X234990000Y-120500000D02*
X237990000Y-120500000D01*
X237990000Y-123500000D01*
X234990000Y-123500000D01*
X234990000Y-120500000D01*
X234990000Y-124500000D02*
X237990000Y-124500000D01*
X237990000Y-127500000D01*
X234990000Y-127500000D01*
X234990000Y-124500000D01*
X234990000Y-128500000D02*
X237990000Y-128500000D01*
X237990000Y-131500000D01*
X234990000Y-131500000D01*
X234990000Y-128500000D01*
X234990000Y-132500000D02*
X237990000Y-132500000D01*
X237990000Y-135500000D01*
X234990000Y-135500000D01*
X234990000Y-132500000D01*
X234990000Y-136300000D02*
X237990000Y-136300000D01*
X237990000Y-139300000D01*
X234990000Y-139300000D01*
X234990000Y-136300000D01*
X234990000Y-140300000D02*
X237990000Y-140300000D01*
X237990000Y-143300000D01*
X234990000Y-143300000D01*
X234990000Y-140300000D01*
X234990000Y-144300000D02*
X237990000Y-144300000D01*
X237990000Y-147300000D01*
X234990000Y-147300000D01*
X234990000Y-144300000D01*
X234990000Y-148300000D02*
X237990000Y-148300000D01*
X237990000Y-151300000D01*
X234990000Y-151300000D01*
X234990000Y-148300000D01*
X110595000Y-120150000D02*
X142295000Y-120150000D01*
X142295000Y-151850000D01*
X110595000Y-151850000D01*
X110595000Y-120150000D01*
X110945000Y-120500000D02*
X113945000Y-120500000D01*
X113945000Y-123500000D01*
X110945000Y-123500000D01*
X110945000Y-120500000D01*
X110945000Y-124500000D02*
X113945000Y-124500000D01*
X113945000Y-127500000D01*
X110945000Y-127500000D01*
X110945000Y-124500000D01*
X110945000Y-128500000D02*
X113945000Y-128500000D01*
X113945000Y-131500000D01*
X110945000Y-131500000D01*
X110945000Y-128500000D01*
X110945000Y-132500000D02*
X113945000Y-132500000D01*
X113945000Y-135500000D01*
X110945000Y-135500000D01*
X110945000Y-132500000D01*
X110945000Y-136300000D02*
X113945000Y-136300000D01*
X113945000Y-139300000D01*
X110945000Y-139300000D01*
X110945000Y-136300000D01*
X110945000Y-140300000D02*
X113945000Y-140300000D01*
X113945000Y-143300000D01*
X110945000Y-143300000D01*
X110945000Y-140300000D01*
X110945000Y-144300000D02*
X113945000Y-144300000D01*
X113945000Y-147300000D01*
X110945000Y-147300000D01*
X110945000Y-144300000D01*
X110945000Y-148300000D02*
X113945000Y-148300000D01*
X113945000Y-151300000D01*
X110945000Y-151300000D01*
X110945000Y-148300000D01*
X114945000Y-120500000D02*
X117945000Y-120500000D01*
X117945000Y-123500000D01*
X114945000Y-123500000D01*
X114945000Y-120500000D01*
X114945000Y-124500000D02*
X117945000Y-124500000D01*
X117945000Y-127500000D01*
X114945000Y-127500000D01*
X114945000Y-124500000D01*
X114945000Y-128500000D02*
X117945000Y-128500000D01*
X117945000Y-131500000D01*
X114945000Y-131500000D01*
X114945000Y-128500000D01*
X114945000Y-132500000D02*
X117945000Y-132500000D01*
X117945000Y-135500000D01*
X114945000Y-135500000D01*
X114945000Y-132500000D01*
X114945000Y-136300000D02*
X117945000Y-136300000D01*
X117945000Y-139300000D01*
X114945000Y-139300000D01*
X114945000Y-136300000D01*
X114945000Y-140300000D02*
X117945000Y-140300000D01*
X117945000Y-143300000D01*
X114945000Y-143300000D01*
X114945000Y-140300000D01*
X114945000Y-144300000D02*
X117945000Y-144300000D01*
X117945000Y-147300000D01*
X114945000Y-147300000D01*
X114945000Y-144300000D01*
X114945000Y-148300000D02*
X117945000Y-148300000D01*
X117945000Y-151300000D01*
X114945000Y-151300000D01*
X114945000Y-148300000D01*
X118945000Y-120500000D02*
X121945000Y-120500000D01*
X121945000Y-123500000D01*
X118945000Y-123500000D01*
X118945000Y-120500000D01*
X118945000Y-124500000D02*
X121945000Y-124500000D01*
X121945000Y-127500000D01*
X118945000Y-127500000D01*
X118945000Y-124500000D01*
X118945000Y-128500000D02*
X121945000Y-128500000D01*
X121945000Y-131500000D01*
X118945000Y-131500000D01*
X118945000Y-128500000D01*
X118945000Y-132500000D02*
X121945000Y-132500000D01*
X121945000Y-135500000D01*
X118945000Y-135500000D01*
X118945000Y-132500000D01*
X118945000Y-136300000D02*
X121945000Y-136300000D01*
X121945000Y-139300000D01*
X118945000Y-139300000D01*
X118945000Y-136300000D01*
X118945000Y-140300000D02*
X121945000Y-140300000D01*
X121945000Y-143300000D01*
X118945000Y-143300000D01*
X118945000Y-140300000D01*
X118945000Y-144300000D02*
X121945000Y-144300000D01*
X121945000Y-147300000D01*
X118945000Y-147300000D01*
X118945000Y-144300000D01*
X118945000Y-148300000D02*
X121945000Y-148300000D01*
X121945000Y-151300000D01*
X118945000Y-151300000D01*
X118945000Y-148300000D01*
X122945000Y-120500000D02*
X125945000Y-120500000D01*
X125945000Y-123500000D01*
X122945000Y-123500000D01*
X122945000Y-120500000D01*
X122945000Y-124500000D02*
X125945000Y-124500000D01*
X125945000Y-127500000D01*
X122945000Y-127500000D01*
X122945000Y-124500000D01*
X122945000Y-128500000D02*
X125945000Y-128500000D01*
X125945000Y-131500000D01*
X122945000Y-131500000D01*
X122945000Y-128500000D01*
X122945000Y-132500000D02*
X125945000Y-132500000D01*
X125945000Y-135500000D01*
X122945000Y-135500000D01*
X122945000Y-132500000D01*
X122945000Y-136300000D02*
X125945000Y-136300000D01*
X125945000Y-139300000D01*
X122945000Y-139300000D01*
X122945000Y-136300000D01*
X122945000Y-140300000D02*
X125945000Y-140300000D01*
X125945000Y-143300000D01*
X122945000Y-143300000D01*
X122945000Y-140300000D01*
X122945000Y-144300000D02*
X125945000Y-144300000D01*
X125945000Y-147300000D01*
X122945000Y-147300000D01*
X122945000Y-144300000D01*
X122945000Y-148300000D02*
X125945000Y-148300000D01*
X125945000Y-151300000D01*
X122945000Y-151300000D01*
X122945000Y-148300000D01*
X126945000Y-120500000D02*
X129945000Y-120500000D01*
X129945000Y-123500000D01*
X126945000Y-123500000D01*
X126945000Y-120500000D01*
X126945000Y-124500000D02*
X129945000Y-124500000D01*
X129945000Y-127500000D01*
X126945000Y-127500000D01*
X126945000Y-124500000D01*
X126945000Y-128500000D02*
X129945000Y-128500000D01*
X129945000Y-131500000D01*
X126945000Y-131500000D01*
X126945000Y-128500000D01*
X126945000Y-132500000D02*
X129945000Y-132500000D01*
X129945000Y-135500000D01*
X126945000Y-135500000D01*
X126945000Y-132500000D01*
X126945000Y-136300000D02*
X129945000Y-136300000D01*
X129945000Y-139300000D01*
X126945000Y-139300000D01*
X126945000Y-136300000D01*
X126945000Y-140300000D02*
X129945000Y-140300000D01*
X129945000Y-143300000D01*
X126945000Y-143300000D01*
X126945000Y-140300000D01*
X126945000Y-144300000D02*
X129945000Y-144300000D01*
X129945000Y-147300000D01*
X126945000Y-147300000D01*
X126945000Y-144300000D01*
X126945000Y-148300000D02*
X129945000Y-148300000D01*
X129945000Y-151300000D01*
X126945000Y-151300000D01*
X126945000Y-148300000D01*
X130945000Y-120500000D02*
X133945000Y-120500000D01*
X133945000Y-123500000D01*
X130945000Y-123500000D01*
X130945000Y-120500000D01*
X130945000Y-124500000D02*
X133945000Y-124500000D01*
X133945000Y-127500000D01*
X130945000Y-127500000D01*
X130945000Y-124500000D01*
X130945000Y-128500000D02*
X133945000Y-128500000D01*
X133945000Y-131500000D01*
X130945000Y-131500000D01*
X130945000Y-128500000D01*
X130945000Y-132500000D02*
X133945000Y-132500000D01*
X133945000Y-135500000D01*
X130945000Y-135500000D01*
X130945000Y-132500000D01*
X130945000Y-136300000D02*
X133945000Y-136300000D01*
X133945000Y-139300000D01*
X130945000Y-139300000D01*
X130945000Y-136300000D01*
X130945000Y-140300000D02*
X133945000Y-140300000D01*
X133945000Y-143300000D01*
X130945000Y-143300000D01*
X130945000Y-140300000D01*
X130945000Y-144300000D02*
X133945000Y-144300000D01*
X133945000Y-147300000D01*
X130945000Y-147300000D01*
X130945000Y-144300000D01*
X130945000Y-148300000D02*
X133945000Y-148300000D01*
X133945000Y-151300000D01*
X130945000Y-151300000D01*
X130945000Y-148300000D01*
X134945000Y-120500000D02*
X137945000Y-120500000D01*
X137945000Y-123500000D01*
X134945000Y-123500000D01*
X134945000Y-120500000D01*
X134945000Y-124500000D02*
X137945000Y-124500000D01*
X137945000Y-127500000D01*
X134945000Y-127500000D01*
X134945000Y-124500000D01*
X134945000Y-128500000D02*
X137945000Y-128500000D01*
X137945000Y-131500000D01*
X134945000Y-131500000D01*
X134945000Y-128500000D01*
X134945000Y-132500000D02*
X137945000Y-132500000D01*
X137945000Y-135500000D01*
X134945000Y-135500000D01*
X134945000Y-132500000D01*
X134945000Y-136300000D02*
X137945000Y-136300000D01*
X137945000Y-139300000D01*
X134945000Y-139300000D01*
X134945000Y-136300000D01*
X134945000Y-140300000D02*
X137945000Y-140300000D01*
X137945000Y-143300000D01*
X134945000Y-143300000D01*
X134945000Y-140300000D01*
X134945000Y-144300000D02*
X137945000Y-144300000D01*
X137945000Y-147300000D01*
X134945000Y-147300000D01*
X134945000Y-144300000D01*
X134945000Y-148300000D02*
X137945000Y-148300000D01*
X137945000Y-151300000D01*
X134945000Y-151300000D01*
X134945000Y-148300000D01*
X138945000Y-120500000D02*
X141945000Y-120500000D01*
X141945000Y-123500000D01*
X138945000Y-123500000D01*
X138945000Y-120500000D01*
X138945000Y-124500000D02*
X141945000Y-124500000D01*
X141945000Y-127500000D01*
X138945000Y-127500000D01*
X138945000Y-124500000D01*
X138945000Y-128500000D02*
X141945000Y-128500000D01*
X141945000Y-131500000D01*
X138945000Y-131500000D01*
X138945000Y-128500000D01*
X138945000Y-132500000D02*
X141945000Y-132500000D01*
X141945000Y-135500000D01*
X138945000Y-135500000D01*
X138945000Y-132500000D01*
X138945000Y-136300000D02*
X141945000Y-136300000D01*
X141945000Y-139300000D01*
X138945000Y-139300000D01*
X138945000Y-136300000D01*
X138945000Y-140300000D02*
X141945000Y-140300000D01*
X141945000Y-143300000D01*
X138945000Y-143300000D01*
X138945000Y-140300000D01*
X138945000Y-144300000D02*
X141945000Y-144300000D01*
X141945000Y-147300000D01*
X138945000Y-147300000D01*
X138945000Y-144300000D01*
X138945000Y-148300000D02*
X141945000Y-148300000D01*
X141945000Y-151300000D01*
X138945000Y-151300000D01*
X138945000Y-148300000D01*
D12*
X190860000Y-177064564D02*
X190860000Y-175610436D01*
X192680000Y-177064564D02*
X192680000Y-175610436D01*
D10*
X302565000Y-120150000D02*
X334265000Y-120150000D01*
X334265000Y-151850000D01*
X302565000Y-151850000D01*
X302565000Y-120150000D01*
X302915000Y-120500000D02*
X305915000Y-120500000D01*
X305915000Y-123500000D01*
X302915000Y-123500000D01*
X302915000Y-120500000D01*
X302915000Y-124500000D02*
X305915000Y-124500000D01*
X305915000Y-127500000D01*
X302915000Y-127500000D01*
X302915000Y-124500000D01*
X302915000Y-128500000D02*
X305915000Y-128500000D01*
X305915000Y-131500000D01*
X302915000Y-131500000D01*
X302915000Y-128500000D01*
X302915000Y-132500000D02*
X305915000Y-132500000D01*
X305915000Y-135500000D01*
X302915000Y-135500000D01*
X302915000Y-132500000D01*
X302915000Y-136300000D02*
X305915000Y-136300000D01*
X305915000Y-139300000D01*
X302915000Y-139300000D01*
X302915000Y-136300000D01*
X302915000Y-140300000D02*
X305915000Y-140300000D01*
X305915000Y-143300000D01*
X302915000Y-143300000D01*
X302915000Y-140300000D01*
X302915000Y-144300000D02*
X305915000Y-144300000D01*
X305915000Y-147300000D01*
X302915000Y-147300000D01*
X302915000Y-144300000D01*
X302915000Y-148300000D02*
X305915000Y-148300000D01*
X305915000Y-151300000D01*
X302915000Y-151300000D01*
X302915000Y-148300000D01*
X306915000Y-120500000D02*
X309915000Y-120500000D01*
X309915000Y-123500000D01*
X306915000Y-123500000D01*
X306915000Y-120500000D01*
X306915000Y-124500000D02*
X309915000Y-124500000D01*
X309915000Y-127500000D01*
X306915000Y-127500000D01*
X306915000Y-124500000D01*
X306915000Y-128500000D02*
X309915000Y-128500000D01*
X309915000Y-131500000D01*
X306915000Y-131500000D01*
X306915000Y-128500000D01*
X306915000Y-132500000D02*
X309915000Y-132500000D01*
X309915000Y-135500000D01*
X306915000Y-135500000D01*
X306915000Y-132500000D01*
X306915000Y-136300000D02*
X309915000Y-136300000D01*
X309915000Y-139300000D01*
X306915000Y-139300000D01*
X306915000Y-136300000D01*
X306915000Y-140300000D02*
X309915000Y-140300000D01*
X309915000Y-143300000D01*
X306915000Y-143300000D01*
X306915000Y-140300000D01*
X306915000Y-144300000D02*
X309915000Y-144300000D01*
X309915000Y-147300000D01*
X306915000Y-147300000D01*
X306915000Y-144300000D01*
X306915000Y-148300000D02*
X309915000Y-148300000D01*
X309915000Y-151300000D01*
X306915000Y-151300000D01*
X306915000Y-148300000D01*
X310915000Y-120500000D02*
X313915000Y-120500000D01*
X313915000Y-123500000D01*
X310915000Y-123500000D01*
X310915000Y-120500000D01*
X310915000Y-124500000D02*
X313915000Y-124500000D01*
X313915000Y-127500000D01*
X310915000Y-127500000D01*
X310915000Y-124500000D01*
X310915000Y-128500000D02*
X313915000Y-128500000D01*
X313915000Y-131500000D01*
X310915000Y-131500000D01*
X310915000Y-128500000D01*
X310915000Y-132500000D02*
X313915000Y-132500000D01*
X313915000Y-135500000D01*
X310915000Y-135500000D01*
X310915000Y-132500000D01*
X310915000Y-136300000D02*
X313915000Y-136300000D01*
X313915000Y-139300000D01*
X310915000Y-139300000D01*
X310915000Y-136300000D01*
X310915000Y-140300000D02*
X313915000Y-140300000D01*
X313915000Y-143300000D01*
X310915000Y-143300000D01*
X310915000Y-140300000D01*
X310915000Y-144300000D02*
X313915000Y-144300000D01*
X313915000Y-147300000D01*
X310915000Y-147300000D01*
X310915000Y-144300000D01*
X310915000Y-148300000D02*
X313915000Y-148300000D01*
X313915000Y-151300000D01*
X310915000Y-151300000D01*
X310915000Y-148300000D01*
X314915000Y-120500000D02*
X317915000Y-120500000D01*
X317915000Y-123500000D01*
X314915000Y-123500000D01*
X314915000Y-120500000D01*
X314915000Y-124500000D02*
X317915000Y-124500000D01*
X317915000Y-127500000D01*
X314915000Y-127500000D01*
X314915000Y-124500000D01*
X314915000Y-128500000D02*
X317915000Y-128500000D01*
X317915000Y-131500000D01*
X314915000Y-131500000D01*
X314915000Y-128500000D01*
X314915000Y-132500000D02*
X317915000Y-132500000D01*
X317915000Y-135500000D01*
X314915000Y-135500000D01*
X314915000Y-132500000D01*
X314915000Y-136300000D02*
X317915000Y-136300000D01*
X317915000Y-139300000D01*
X314915000Y-139300000D01*
X314915000Y-136300000D01*
X314915000Y-140300000D02*
X317915000Y-140300000D01*
X317915000Y-143300000D01*
X314915000Y-143300000D01*
X314915000Y-140300000D01*
X314915000Y-144300000D02*
X317915000Y-144300000D01*
X317915000Y-147300000D01*
X314915000Y-147300000D01*
X314915000Y-144300000D01*
X314915000Y-148300000D02*
X317915000Y-148300000D01*
X317915000Y-151300000D01*
X314915000Y-151300000D01*
X314915000Y-148300000D01*
X318915000Y-120500000D02*
X321915000Y-120500000D01*
X321915000Y-123500000D01*
X318915000Y-123500000D01*
X318915000Y-120500000D01*
X318915000Y-124500000D02*
X321915000Y-124500000D01*
X321915000Y-127500000D01*
X318915000Y-127500000D01*
X318915000Y-124500000D01*
X318915000Y-128500000D02*
X321915000Y-128500000D01*
X321915000Y-131500000D01*
X318915000Y-131500000D01*
X318915000Y-128500000D01*
X318915000Y-132500000D02*
X321915000Y-132500000D01*
X321915000Y-135500000D01*
X318915000Y-135500000D01*
X318915000Y-132500000D01*
X318915000Y-136300000D02*
X321915000Y-136300000D01*
X321915000Y-139300000D01*
X318915000Y-139300000D01*
X318915000Y-136300000D01*
X318915000Y-140300000D02*
X321915000Y-140300000D01*
X321915000Y-143300000D01*
X318915000Y-143300000D01*
X318915000Y-140300000D01*
X318915000Y-144300000D02*
X321915000Y-144300000D01*
X321915000Y-147300000D01*
X318915000Y-147300000D01*
X318915000Y-144300000D01*
X318915000Y-148300000D02*
X321915000Y-148300000D01*
X321915000Y-151300000D01*
X318915000Y-151300000D01*
X318915000Y-148300000D01*
X322915000Y-120500000D02*
X325915000Y-120500000D01*
X325915000Y-123500000D01*
X322915000Y-123500000D01*
X322915000Y-120500000D01*
X322915000Y-124500000D02*
X325915000Y-124500000D01*
X325915000Y-127500000D01*
X322915000Y-127500000D01*
X322915000Y-124500000D01*
X322915000Y-128500000D02*
X325915000Y-128500000D01*
X325915000Y-131500000D01*
X322915000Y-131500000D01*
X322915000Y-128500000D01*
X322915000Y-132500000D02*
X325915000Y-132500000D01*
X325915000Y-135500000D01*
X322915000Y-135500000D01*
X322915000Y-132500000D01*
X322915000Y-136300000D02*
X325915000Y-136300000D01*
X325915000Y-139300000D01*
X322915000Y-139300000D01*
X322915000Y-136300000D01*
X322915000Y-140300000D02*
X325915000Y-140300000D01*
X325915000Y-143300000D01*
X322915000Y-143300000D01*
X322915000Y-140300000D01*
X322915000Y-144300000D02*
X325915000Y-144300000D01*
X325915000Y-147300000D01*
X322915000Y-147300000D01*
X322915000Y-144300000D01*
X322915000Y-148300000D02*
X325915000Y-148300000D01*
X325915000Y-151300000D01*
X322915000Y-151300000D01*
X322915000Y-148300000D01*
X326915000Y-120500000D02*
X329915000Y-120500000D01*
X329915000Y-123500000D01*
X326915000Y-123500000D01*
X326915000Y-120500000D01*
X326915000Y-124500000D02*
X329915000Y-124500000D01*
X329915000Y-127500000D01*
X326915000Y-127500000D01*
X326915000Y-124500000D01*
X326915000Y-128500000D02*
X329915000Y-128500000D01*
X329915000Y-131500000D01*
X326915000Y-131500000D01*
X326915000Y-128500000D01*
X326915000Y-132500000D02*
X329915000Y-132500000D01*
X329915000Y-135500000D01*
X326915000Y-135500000D01*
X326915000Y-132500000D01*
X326915000Y-136300000D02*
X329915000Y-136300000D01*
X329915000Y-139300000D01*
X326915000Y-139300000D01*
X326915000Y-136300000D01*
X326915000Y-140300000D02*
X329915000Y-140300000D01*
X329915000Y-143300000D01*
X326915000Y-143300000D01*
X326915000Y-140300000D01*
X326915000Y-144300000D02*
X329915000Y-144300000D01*
X329915000Y-147300000D01*
X326915000Y-147300000D01*
X326915000Y-144300000D01*
X326915000Y-148300000D02*
X329915000Y-148300000D01*
X329915000Y-151300000D01*
X326915000Y-151300000D01*
X326915000Y-148300000D01*
X330915000Y-120500000D02*
X333915000Y-120500000D01*
X333915000Y-123500000D01*
X330915000Y-123500000D01*
X330915000Y-120500000D01*
X330915000Y-124500000D02*
X333915000Y-124500000D01*
X333915000Y-127500000D01*
X330915000Y-127500000D01*
X330915000Y-124500000D01*
X330915000Y-128500000D02*
X333915000Y-128500000D01*
X333915000Y-131500000D01*
X330915000Y-131500000D01*
X330915000Y-128500000D01*
X330915000Y-132500000D02*
X333915000Y-132500000D01*
X333915000Y-135500000D01*
X330915000Y-135500000D01*
X330915000Y-132500000D01*
X330915000Y-136300000D02*
X333915000Y-136300000D01*
X333915000Y-139300000D01*
X330915000Y-139300000D01*
X330915000Y-136300000D01*
X330915000Y-140300000D02*
X333915000Y-140300000D01*
X333915000Y-143300000D01*
X330915000Y-143300000D01*
X330915000Y-140300000D01*
X330915000Y-144300000D02*
X333915000Y-144300000D01*
X333915000Y-147300000D01*
X330915000Y-147300000D01*
X330915000Y-144300000D01*
X330915000Y-148300000D02*
X333915000Y-148300000D01*
X333915000Y-151300000D01*
X330915000Y-151300000D01*
X330915000Y-148300000D01*
D13*
X149005000Y-107110000D02*
X150005000Y-97110000D01*
X150505000Y-92860000D02*
X151505000Y-82860000D01*
X151755000Y-109110000D02*
X161755000Y-109110000D01*
X153005000Y-95110000D02*
X163005000Y-95110000D01*
X154255000Y-80610000D02*
X164255000Y-80610000D01*
X164505000Y-107110000D02*
X165505000Y-97110000D01*
X165755000Y-93110000D02*
X166755000Y-83110000D01*
D10*
X143855000Y-74710000D02*
X172655000Y-74710000D01*
X172655000Y-115510000D01*
X143855000Y-115510000D01*
X143855000Y-74710000D01*
D14*
X169030000Y-109110000D02*
G75*
G02*
X167480000Y-109110000I-775000J0D01*
G01*
X167480000Y-109110000D02*
G75*
G02*
X169030000Y-109110000I775000J0D01*
G01*
D13*
X217005000Y-107110000D02*
X218005000Y-97110000D01*
X218505000Y-92860000D02*
X219505000Y-82860000D01*
X219755000Y-109110000D02*
X229755000Y-109110000D01*
X221005000Y-95110000D02*
X231005000Y-95110000D01*
X222255000Y-80610000D02*
X232255000Y-80610000D01*
X232505000Y-107110000D02*
X233505000Y-97110000D01*
X233755000Y-93110000D02*
X234755000Y-83110000D01*
D10*
X211855000Y-74710000D02*
X240655000Y-74710000D01*
X240655000Y-115510000D01*
X211855000Y-115510000D01*
X211855000Y-74710000D01*
D14*
X237030000Y-109110000D02*
G75*
G02*
X235480000Y-109110000I-775000J0D01*
G01*
X235480000Y-109110000D02*
G75*
G02*
X237030000Y-109110000I775000J0D01*
G01*
D13*
X110005000Y-107110000D02*
X111005000Y-97110000D01*
X111505000Y-92860000D02*
X112505000Y-82860000D01*
X112755000Y-109110000D02*
X122755000Y-109110000D01*
X114005000Y-95110000D02*
X124005000Y-95110000D01*
X115255000Y-80610000D02*
X125255000Y-80610000D01*
X125505000Y-107110000D02*
X126505000Y-97110000D01*
X126755000Y-93110000D02*
X127755000Y-83110000D01*
D10*
X104855000Y-74710000D02*
X133655000Y-74710000D01*
X133655000Y-115510000D01*
X104855000Y-115510000D01*
X104855000Y-74710000D01*
D14*
X130030000Y-109110000D02*
G75*
G02*
X128480000Y-109110000I-775000J0D01*
G01*
X128480000Y-109110000D02*
G75*
G02*
X130030000Y-109110000I775000J0D01*
G01*
D12*
X175620000Y-184684564D02*
X175620000Y-183230436D01*
X177440000Y-184684564D02*
X177440000Y-183230436D01*
D10*
X270530000Y-120150000D02*
X302230000Y-120150000D01*
X302230000Y-151850000D01*
X270530000Y-151850000D01*
X270530000Y-120150000D01*
X270880000Y-120500000D02*
X273880000Y-120500000D01*
X273880000Y-123500000D01*
X270880000Y-123500000D01*
X270880000Y-120500000D01*
X270880000Y-124500000D02*
X273880000Y-124500000D01*
X273880000Y-127500000D01*
X270880000Y-127500000D01*
X270880000Y-124500000D01*
X270880000Y-128500000D02*
X273880000Y-128500000D01*
X273880000Y-131500000D01*
X270880000Y-131500000D01*
X270880000Y-128500000D01*
X270880000Y-132500000D02*
X273880000Y-132500000D01*
X273880000Y-135500000D01*
X270880000Y-135500000D01*
X270880000Y-132500000D01*
X270880000Y-136300000D02*
X273880000Y-136300000D01*
X273880000Y-139300000D01*
X270880000Y-139300000D01*
X270880000Y-136300000D01*
X270880000Y-140300000D02*
X273880000Y-140300000D01*
X273880000Y-143300000D01*
X270880000Y-143300000D01*
X270880000Y-140300000D01*
X270880000Y-144300000D02*
X273880000Y-144300000D01*
X273880000Y-147300000D01*
X270880000Y-147300000D01*
X270880000Y-144300000D01*
X270880000Y-148300000D02*
X273880000Y-148300000D01*
X273880000Y-151300000D01*
X270880000Y-151300000D01*
X270880000Y-148300000D01*
X274880000Y-120500000D02*
X277880000Y-120500000D01*
X277880000Y-123500000D01*
X274880000Y-123500000D01*
X274880000Y-120500000D01*
X274880000Y-124500000D02*
X277880000Y-124500000D01*
X277880000Y-127500000D01*
X274880000Y-127500000D01*
X274880000Y-124500000D01*
X274880000Y-128500000D02*
X277880000Y-128500000D01*
X277880000Y-131500000D01*
X274880000Y-131500000D01*
X274880000Y-128500000D01*
X274880000Y-132500000D02*
X277880000Y-132500000D01*
X277880000Y-135500000D01*
X274880000Y-135500000D01*
X274880000Y-132500000D01*
X274880000Y-136300000D02*
X277880000Y-136300000D01*
X277880000Y-139300000D01*
X274880000Y-139300000D01*
X274880000Y-136300000D01*
X274880000Y-140300000D02*
X277880000Y-140300000D01*
X277880000Y-143300000D01*
X274880000Y-143300000D01*
X274880000Y-140300000D01*
X274880000Y-144300000D02*
X277880000Y-144300000D01*
X277880000Y-147300000D01*
X274880000Y-147300000D01*
X274880000Y-144300000D01*
X274880000Y-148300000D02*
X277880000Y-148300000D01*
X277880000Y-151300000D01*
X274880000Y-151300000D01*
X274880000Y-148300000D01*
X278880000Y-120500000D02*
X281880000Y-120500000D01*
X281880000Y-123500000D01*
X278880000Y-123500000D01*
X278880000Y-120500000D01*
X278880000Y-124500000D02*
X281880000Y-124500000D01*
X281880000Y-127500000D01*
X278880000Y-127500000D01*
X278880000Y-124500000D01*
X278880000Y-128500000D02*
X281880000Y-128500000D01*
X281880000Y-131500000D01*
X278880000Y-131500000D01*
X278880000Y-128500000D01*
X278880000Y-132500000D02*
X281880000Y-132500000D01*
X281880000Y-135500000D01*
X278880000Y-135500000D01*
X278880000Y-132500000D01*
X278880000Y-136300000D02*
X281880000Y-136300000D01*
X281880000Y-139300000D01*
X278880000Y-139300000D01*
X278880000Y-136300000D01*
X278880000Y-140300000D02*
X281880000Y-140300000D01*
X281880000Y-143300000D01*
X278880000Y-143300000D01*
X278880000Y-140300000D01*
X278880000Y-144300000D02*
X281880000Y-144300000D01*
X281880000Y-147300000D01*
X278880000Y-147300000D01*
X278880000Y-144300000D01*
X278880000Y-148300000D02*
X281880000Y-148300000D01*
X281880000Y-151300000D01*
X278880000Y-151300000D01*
X278880000Y-148300000D01*
X282880000Y-120500000D02*
X285880000Y-120500000D01*
X285880000Y-123500000D01*
X282880000Y-123500000D01*
X282880000Y-120500000D01*
X282880000Y-124500000D02*
X285880000Y-124500000D01*
X285880000Y-127500000D01*
X282880000Y-127500000D01*
X282880000Y-124500000D01*
X282880000Y-128500000D02*
X285880000Y-128500000D01*
X285880000Y-131500000D01*
X282880000Y-131500000D01*
X282880000Y-128500000D01*
X282880000Y-132500000D02*
X285880000Y-132500000D01*
X285880000Y-135500000D01*
X282880000Y-135500000D01*
X282880000Y-132500000D01*
X282880000Y-136300000D02*
X285880000Y-136300000D01*
X285880000Y-139300000D01*
X282880000Y-139300000D01*
X282880000Y-136300000D01*
X282880000Y-140300000D02*
X285880000Y-140300000D01*
X285880000Y-143300000D01*
X282880000Y-143300000D01*
X282880000Y-140300000D01*
X282880000Y-144300000D02*
X285880000Y-144300000D01*
X285880000Y-147300000D01*
X282880000Y-147300000D01*
X282880000Y-144300000D01*
X282880000Y-148300000D02*
X285880000Y-148300000D01*
X285880000Y-151300000D01*
X282880000Y-151300000D01*
X282880000Y-148300000D01*
X286880000Y-120500000D02*
X289880000Y-120500000D01*
X289880000Y-123500000D01*
X286880000Y-123500000D01*
X286880000Y-120500000D01*
X286880000Y-124500000D02*
X289880000Y-124500000D01*
X289880000Y-127500000D01*
X286880000Y-127500000D01*
X286880000Y-124500000D01*
X286880000Y-128500000D02*
X289880000Y-128500000D01*
X289880000Y-131500000D01*
X286880000Y-131500000D01*
X286880000Y-128500000D01*
X286880000Y-132500000D02*
X289880000Y-132500000D01*
X289880000Y-135500000D01*
X286880000Y-135500000D01*
X286880000Y-132500000D01*
X286880000Y-136300000D02*
X289880000Y-136300000D01*
X289880000Y-139300000D01*
X286880000Y-139300000D01*
X286880000Y-136300000D01*
X286880000Y-140300000D02*
X289880000Y-140300000D01*
X289880000Y-143300000D01*
X286880000Y-143300000D01*
X286880000Y-140300000D01*
X286880000Y-144300000D02*
X289880000Y-144300000D01*
X289880000Y-147300000D01*
X286880000Y-147300000D01*
X286880000Y-144300000D01*
X286880000Y-148300000D02*
X289880000Y-148300000D01*
X289880000Y-151300000D01*
X286880000Y-151300000D01*
X286880000Y-148300000D01*
X290880000Y-120500000D02*
X293880000Y-120500000D01*
X293880000Y-123500000D01*
X290880000Y-123500000D01*
X290880000Y-120500000D01*
X290880000Y-124500000D02*
X293880000Y-124500000D01*
X293880000Y-127500000D01*
X290880000Y-127500000D01*
X290880000Y-124500000D01*
X290880000Y-128500000D02*
X293880000Y-128500000D01*
X293880000Y-131500000D01*
X290880000Y-131500000D01*
X290880000Y-128500000D01*
X290880000Y-132500000D02*
X293880000Y-132500000D01*
X293880000Y-135500000D01*
X290880000Y-135500000D01*
X290880000Y-132500000D01*
X290880000Y-136300000D02*
X293880000Y-136300000D01*
X293880000Y-139300000D01*
X290880000Y-139300000D01*
X290880000Y-136300000D01*
X290880000Y-140300000D02*
X293880000Y-140300000D01*
X293880000Y-143300000D01*
X290880000Y-143300000D01*
X290880000Y-140300000D01*
X290880000Y-144300000D02*
X293880000Y-144300000D01*
X293880000Y-147300000D01*
X290880000Y-147300000D01*
X290880000Y-144300000D01*
X290880000Y-148300000D02*
X293880000Y-148300000D01*
X293880000Y-151300000D01*
X290880000Y-151300000D01*
X290880000Y-148300000D01*
X294880000Y-120500000D02*
X297880000Y-120500000D01*
X297880000Y-123500000D01*
X294880000Y-123500000D01*
X294880000Y-120500000D01*
X294880000Y-124500000D02*
X297880000Y-124500000D01*
X297880000Y-127500000D01*
X294880000Y-127500000D01*
X294880000Y-124500000D01*
X294880000Y-128500000D02*
X297880000Y-128500000D01*
X297880000Y-131500000D01*
X294880000Y-131500000D01*
X294880000Y-128500000D01*
X294880000Y-132500000D02*
X297880000Y-132500000D01*
X297880000Y-135500000D01*
X294880000Y-135500000D01*
X294880000Y-132500000D01*
X294880000Y-136300000D02*
X297880000Y-136300000D01*
X297880000Y-139300000D01*
X294880000Y-139300000D01*
X294880000Y-136300000D01*
X294880000Y-140300000D02*
X297880000Y-140300000D01*
X297880000Y-143300000D01*
X294880000Y-143300000D01*
X294880000Y-140300000D01*
X294880000Y-144300000D02*
X297880000Y-144300000D01*
X297880000Y-147300000D01*
X294880000Y-147300000D01*
X294880000Y-144300000D01*
X294880000Y-148300000D02*
X297880000Y-148300000D01*
X297880000Y-151300000D01*
X294880000Y-151300000D01*
X294880000Y-148300000D01*
X298880000Y-120500000D02*
X301880000Y-120500000D01*
X301880000Y-123500000D01*
X298880000Y-123500000D01*
X298880000Y-120500000D01*
X298880000Y-124500000D02*
X301880000Y-124500000D01*
X301880000Y-127500000D01*
X298880000Y-127500000D01*
X298880000Y-124500000D01*
X298880000Y-128500000D02*
X301880000Y-128500000D01*
X301880000Y-131500000D01*
X298880000Y-131500000D01*
X298880000Y-128500000D01*
X298880000Y-132500000D02*
X301880000Y-132500000D01*
X301880000Y-135500000D01*
X298880000Y-135500000D01*
X298880000Y-132500000D01*
X298880000Y-136300000D02*
X301880000Y-136300000D01*
X301880000Y-139300000D01*
X298880000Y-139300000D01*
X298880000Y-136300000D01*
X298880000Y-140300000D02*
X301880000Y-140300000D01*
X301880000Y-143300000D01*
X298880000Y-143300000D01*
X298880000Y-140300000D01*
X298880000Y-144300000D02*
X301880000Y-144300000D01*
X301880000Y-147300000D01*
X298880000Y-147300000D01*
X298880000Y-144300000D01*
X298880000Y-148300000D02*
X301880000Y-148300000D01*
X301880000Y-151300000D01*
X298880000Y-151300000D01*
X298880000Y-148300000D01*
D12*
X207019000Y-85940000D02*
X207175000Y-85940000D01*
X209335000Y-85940000D02*
X209491000Y-85940000D01*
X207019484Y-85940000D02*
G75*
G02*
X207176392Y-82707665I1235516J1560000D01*
G01*
X207175000Y-85420961D02*
G75*
G02*
X207175163Y-83338870I1080000J1040961D01*
G01*
X209333608Y-82707665D02*
G75*
G02*
X209490516Y-85940000I-1078608J-1672335D01*
G01*
X209334837Y-83338870D02*
G75*
G02*
X209335000Y-85420961I-1079837J-1041130D01*
G01*
D10*
X174595000Y-120150000D02*
X206295000Y-120150000D01*
X206295000Y-151850000D01*
X174595000Y-151850000D01*
X174595000Y-120150000D01*
X174945000Y-120500000D02*
X177945000Y-120500000D01*
X177945000Y-123500000D01*
X174945000Y-123500000D01*
X174945000Y-120500000D01*
X174945000Y-124500000D02*
X177945000Y-124500000D01*
X177945000Y-127500000D01*
X174945000Y-127500000D01*
X174945000Y-124500000D01*
X174945000Y-128500000D02*
X177945000Y-128500000D01*
X177945000Y-131500000D01*
X174945000Y-131500000D01*
X174945000Y-128500000D01*
X174945000Y-132500000D02*
X177945000Y-132500000D01*
X177945000Y-135500000D01*
X174945000Y-135500000D01*
X174945000Y-132500000D01*
X174945000Y-136300000D02*
X177945000Y-136300000D01*
X177945000Y-139300000D01*
X174945000Y-139300000D01*
X174945000Y-136300000D01*
X174945000Y-140300000D02*
X177945000Y-140300000D01*
X177945000Y-143300000D01*
X174945000Y-143300000D01*
X174945000Y-140300000D01*
X174945000Y-144300000D02*
X177945000Y-144300000D01*
X177945000Y-147300000D01*
X174945000Y-147300000D01*
X174945000Y-144300000D01*
X174945000Y-148300000D02*
X177945000Y-148300000D01*
X177945000Y-151300000D01*
X174945000Y-151300000D01*
X174945000Y-148300000D01*
X178945000Y-120500000D02*
X181945000Y-120500000D01*
X181945000Y-123500000D01*
X178945000Y-123500000D01*
X178945000Y-120500000D01*
X178945000Y-124500000D02*
X181945000Y-124500000D01*
X181945000Y-127500000D01*
X178945000Y-127500000D01*
X178945000Y-124500000D01*
X178945000Y-128500000D02*
X181945000Y-128500000D01*
X181945000Y-131500000D01*
X178945000Y-131500000D01*
X178945000Y-128500000D01*
X178945000Y-132500000D02*
X181945000Y-132500000D01*
X181945000Y-135500000D01*
X178945000Y-135500000D01*
X178945000Y-132500000D01*
X178945000Y-136300000D02*
X181945000Y-136300000D01*
X181945000Y-139300000D01*
X178945000Y-139300000D01*
X178945000Y-136300000D01*
X178945000Y-140300000D02*
X181945000Y-140300000D01*
X181945000Y-143300000D01*
X178945000Y-143300000D01*
X178945000Y-140300000D01*
X178945000Y-144300000D02*
X181945000Y-144300000D01*
X181945000Y-147300000D01*
X178945000Y-147300000D01*
X178945000Y-144300000D01*
X178945000Y-148300000D02*
X181945000Y-148300000D01*
X181945000Y-151300000D01*
X178945000Y-151300000D01*
X178945000Y-148300000D01*
X182945000Y-120500000D02*
X185945000Y-120500000D01*
X185945000Y-123500000D01*
X182945000Y-123500000D01*
X182945000Y-120500000D01*
X182945000Y-124500000D02*
X185945000Y-124500000D01*
X185945000Y-127500000D01*
X182945000Y-127500000D01*
X182945000Y-124500000D01*
X182945000Y-128500000D02*
X185945000Y-128500000D01*
X185945000Y-131500000D01*
X182945000Y-131500000D01*
X182945000Y-128500000D01*
X182945000Y-132500000D02*
X185945000Y-132500000D01*
X185945000Y-135500000D01*
X182945000Y-135500000D01*
X182945000Y-132500000D01*
X182945000Y-136300000D02*
X185945000Y-136300000D01*
X185945000Y-139300000D01*
X182945000Y-139300000D01*
X182945000Y-136300000D01*
X182945000Y-140300000D02*
X185945000Y-140300000D01*
X185945000Y-143300000D01*
X182945000Y-143300000D01*
X182945000Y-140300000D01*
X182945000Y-144300000D02*
X185945000Y-144300000D01*
X185945000Y-147300000D01*
X182945000Y-147300000D01*
X182945000Y-144300000D01*
X182945000Y-148300000D02*
X185945000Y-148300000D01*
X185945000Y-151300000D01*
X182945000Y-151300000D01*
X182945000Y-148300000D01*
X186945000Y-120500000D02*
X189945000Y-120500000D01*
X189945000Y-123500000D01*
X186945000Y-123500000D01*
X186945000Y-120500000D01*
X186945000Y-124500000D02*
X189945000Y-124500000D01*
X189945000Y-127500000D01*
X186945000Y-127500000D01*
X186945000Y-124500000D01*
X186945000Y-128500000D02*
X189945000Y-128500000D01*
X189945000Y-131500000D01*
X186945000Y-131500000D01*
X186945000Y-128500000D01*
X186945000Y-132500000D02*
X189945000Y-132500000D01*
X189945000Y-135500000D01*
X186945000Y-135500000D01*
X186945000Y-132500000D01*
X186945000Y-136300000D02*
X189945000Y-136300000D01*
X189945000Y-139300000D01*
X186945000Y-139300000D01*
X186945000Y-136300000D01*
X186945000Y-140300000D02*
X189945000Y-140300000D01*
X189945000Y-143300000D01*
X186945000Y-143300000D01*
X186945000Y-140300000D01*
X186945000Y-144300000D02*
X189945000Y-144300000D01*
X189945000Y-147300000D01*
X186945000Y-147300000D01*
X186945000Y-144300000D01*
X186945000Y-148300000D02*
X189945000Y-148300000D01*
X189945000Y-151300000D01*
X186945000Y-151300000D01*
X186945000Y-148300000D01*
X190945000Y-120500000D02*
X193945000Y-120500000D01*
X193945000Y-123500000D01*
X190945000Y-123500000D01*
X190945000Y-120500000D01*
X190945000Y-124500000D02*
X193945000Y-124500000D01*
X193945000Y-127500000D01*
X190945000Y-127500000D01*
X190945000Y-124500000D01*
X190945000Y-128500000D02*
X193945000Y-128500000D01*
X193945000Y-131500000D01*
X190945000Y-131500000D01*
X190945000Y-128500000D01*
X190945000Y-132500000D02*
X193945000Y-132500000D01*
X193945000Y-135500000D01*
X190945000Y-135500000D01*
X190945000Y-132500000D01*
X190945000Y-136300000D02*
X193945000Y-136300000D01*
X193945000Y-139300000D01*
X190945000Y-139300000D01*
X190945000Y-136300000D01*
X190945000Y-140300000D02*
X193945000Y-140300000D01*
X193945000Y-143300000D01*
X190945000Y-143300000D01*
X190945000Y-140300000D01*
X190945000Y-144300000D02*
X193945000Y-144300000D01*
X193945000Y-147300000D01*
X190945000Y-147300000D01*
X190945000Y-144300000D01*
X190945000Y-148300000D02*
X193945000Y-148300000D01*
X193945000Y-151300000D01*
X190945000Y-151300000D01*
X190945000Y-148300000D01*
X194945000Y-120500000D02*
X197945000Y-120500000D01*
X197945000Y-123500000D01*
X194945000Y-123500000D01*
X194945000Y-120500000D01*
X194945000Y-124500000D02*
X197945000Y-124500000D01*
X197945000Y-127500000D01*
X194945000Y-127500000D01*
X194945000Y-124500000D01*
X194945000Y-128500000D02*
X197945000Y-128500000D01*
X197945000Y-131500000D01*
X194945000Y-131500000D01*
X194945000Y-128500000D01*
X194945000Y-132500000D02*
X197945000Y-132500000D01*
X197945000Y-135500000D01*
X194945000Y-135500000D01*
X194945000Y-132500000D01*
X194945000Y-136300000D02*
X197945000Y-136300000D01*
X197945000Y-139300000D01*
X194945000Y-139300000D01*
X194945000Y-136300000D01*
X194945000Y-140300000D02*
X197945000Y-140300000D01*
X197945000Y-143300000D01*
X194945000Y-143300000D01*
X194945000Y-140300000D01*
X194945000Y-144300000D02*
X197945000Y-144300000D01*
X197945000Y-147300000D01*
X194945000Y-147300000D01*
X194945000Y-144300000D01*
X194945000Y-148300000D02*
X197945000Y-148300000D01*
X197945000Y-151300000D01*
X194945000Y-151300000D01*
X194945000Y-148300000D01*
X198945000Y-120500000D02*
X201945000Y-120500000D01*
X201945000Y-123500000D01*
X198945000Y-123500000D01*
X198945000Y-120500000D01*
X198945000Y-124500000D02*
X201945000Y-124500000D01*
X201945000Y-127500000D01*
X198945000Y-127500000D01*
X198945000Y-124500000D01*
X198945000Y-128500000D02*
X201945000Y-128500000D01*
X201945000Y-131500000D01*
X198945000Y-131500000D01*
X198945000Y-128500000D01*
X198945000Y-132500000D02*
X201945000Y-132500000D01*
X201945000Y-135500000D01*
X198945000Y-135500000D01*
X198945000Y-132500000D01*
X198945000Y-136300000D02*
X201945000Y-136300000D01*
X201945000Y-139300000D01*
X198945000Y-139300000D01*
X198945000Y-136300000D01*
X198945000Y-140300000D02*
X201945000Y-140300000D01*
X201945000Y-143300000D01*
X198945000Y-143300000D01*
X198945000Y-140300000D01*
X198945000Y-144300000D02*
X201945000Y-144300000D01*
X201945000Y-147300000D01*
X198945000Y-147300000D01*
X198945000Y-144300000D01*
X198945000Y-148300000D02*
X201945000Y-148300000D01*
X201945000Y-151300000D01*
X198945000Y-151300000D01*
X198945000Y-148300000D01*
X202945000Y-120500000D02*
X205945000Y-120500000D01*
X205945000Y-123500000D01*
X202945000Y-123500000D01*
X202945000Y-120500000D01*
X202945000Y-124500000D02*
X205945000Y-124500000D01*
X205945000Y-127500000D01*
X202945000Y-127500000D01*
X202945000Y-124500000D01*
X202945000Y-128500000D02*
X205945000Y-128500000D01*
X205945000Y-131500000D01*
X202945000Y-131500000D01*
X202945000Y-128500000D01*
X202945000Y-132500000D02*
X205945000Y-132500000D01*
X205945000Y-135500000D01*
X202945000Y-135500000D01*
X202945000Y-132500000D01*
X202945000Y-136300000D02*
X205945000Y-136300000D01*
X205945000Y-139300000D01*
X202945000Y-139300000D01*
X202945000Y-136300000D01*
X202945000Y-140300000D02*
X205945000Y-140300000D01*
X205945000Y-143300000D01*
X202945000Y-143300000D01*
X202945000Y-140300000D01*
X202945000Y-144300000D02*
X205945000Y-144300000D01*
X205945000Y-147300000D01*
X202945000Y-147300000D01*
X202945000Y-144300000D01*
X202945000Y-148300000D02*
X205945000Y-148300000D01*
X205945000Y-151300000D01*
X202945000Y-151300000D01*
X202945000Y-148300000D01*
D12*
X139019000Y-86400000D02*
X139175000Y-86400000D01*
X141335000Y-86400000D02*
X141491000Y-86400000D01*
X139019484Y-86400000D02*
G75*
G02*
X139176392Y-83167665I1235516J1560000D01*
G01*
X139175000Y-85880961D02*
G75*
G02*
X139175163Y-83798870I1080000J1040961D01*
G01*
X141333608Y-83167665D02*
G75*
G02*
X141490516Y-86400000I-1078608J-1672335D01*
G01*
X141334837Y-83798870D02*
G75*
G02*
X141335000Y-85880961I-1079837J-1041130D01*
G01*
X191495000Y-184684564D02*
X191495000Y-183230436D01*
X193315000Y-184684564D02*
X193315000Y-183230436D01*
X293726248Y-175090000D02*
X295148752Y-175090000D01*
X293726248Y-176910000D02*
X295148752Y-176910000D01*
D13*
X178005000Y-107110000D02*
X179005000Y-97110000D01*
X179505000Y-92860000D02*
X180505000Y-82860000D01*
X180755000Y-109110000D02*
X190755000Y-109110000D01*
X182005000Y-95110000D02*
X192005000Y-95110000D01*
X183255000Y-80610000D02*
X193255000Y-80610000D01*
X193505000Y-107110000D02*
X194505000Y-97110000D01*
X194755000Y-93110000D02*
X195755000Y-83110000D01*
D10*
X172855000Y-74710000D02*
X201655000Y-74710000D01*
X201655000Y-115510000D01*
X172855000Y-115510000D01*
X172855000Y-74710000D01*
D14*
X198030000Y-109110000D02*
G75*
G02*
X196480000Y-109110000I-775000J0D01*
G01*
X196480000Y-109110000D02*
G75*
G02*
X198030000Y-109110000I775000J0D01*
G01*
D10*
X238450000Y-120150000D02*
X270150000Y-120150000D01*
X270150000Y-151850000D01*
X238450000Y-151850000D01*
X238450000Y-120150000D01*
X238800000Y-120500000D02*
X241800000Y-120500000D01*
X241800000Y-123500000D01*
X238800000Y-123500000D01*
X238800000Y-120500000D01*
X238800000Y-124500000D02*
X241800000Y-124500000D01*
X241800000Y-127500000D01*
X238800000Y-127500000D01*
X238800000Y-124500000D01*
X238800000Y-128500000D02*
X241800000Y-128500000D01*
X241800000Y-131500000D01*
X238800000Y-131500000D01*
X238800000Y-128500000D01*
X238800000Y-132500000D02*
X241800000Y-132500000D01*
X241800000Y-135500000D01*
X238800000Y-135500000D01*
X238800000Y-132500000D01*
X238800000Y-136300000D02*
X241800000Y-136300000D01*
X241800000Y-139300000D01*
X238800000Y-139300000D01*
X238800000Y-136300000D01*
X238800000Y-140300000D02*
X241800000Y-140300000D01*
X241800000Y-143300000D01*
X238800000Y-143300000D01*
X238800000Y-140300000D01*
X238800000Y-144300000D02*
X241800000Y-144300000D01*
X241800000Y-147300000D01*
X238800000Y-147300000D01*
X238800000Y-144300000D01*
X238800000Y-148300000D02*
X241800000Y-148300000D01*
X241800000Y-151300000D01*
X238800000Y-151300000D01*
X238800000Y-148300000D01*
X242800000Y-120500000D02*
X245800000Y-120500000D01*
X245800000Y-123500000D01*
X242800000Y-123500000D01*
X242800000Y-120500000D01*
X242800000Y-124500000D02*
X245800000Y-124500000D01*
X245800000Y-127500000D01*
X242800000Y-127500000D01*
X242800000Y-124500000D01*
X242800000Y-128500000D02*
X245800000Y-128500000D01*
X245800000Y-131500000D01*
X242800000Y-131500000D01*
X242800000Y-128500000D01*
X242800000Y-132500000D02*
X245800000Y-132500000D01*
X245800000Y-135500000D01*
X242800000Y-135500000D01*
X242800000Y-132500000D01*
X242800000Y-136300000D02*
X245800000Y-136300000D01*
X245800000Y-139300000D01*
X242800000Y-139300000D01*
X242800000Y-136300000D01*
X242800000Y-140300000D02*
X245800000Y-140300000D01*
X245800000Y-143300000D01*
X242800000Y-143300000D01*
X242800000Y-140300000D01*
X242800000Y-144300000D02*
X245800000Y-144300000D01*
X245800000Y-147300000D01*
X242800000Y-147300000D01*
X242800000Y-144300000D01*
X242800000Y-148300000D02*
X245800000Y-148300000D01*
X245800000Y-151300000D01*
X242800000Y-151300000D01*
X242800000Y-148300000D01*
X246800000Y-120500000D02*
X249800000Y-120500000D01*
X249800000Y-123500000D01*
X246800000Y-123500000D01*
X246800000Y-120500000D01*
X246800000Y-124500000D02*
X249800000Y-124500000D01*
X249800000Y-127500000D01*
X246800000Y-127500000D01*
X246800000Y-124500000D01*
X246800000Y-128500000D02*
X249800000Y-128500000D01*
X249800000Y-131500000D01*
X246800000Y-131500000D01*
X246800000Y-128500000D01*
X246800000Y-132500000D02*
X249800000Y-132500000D01*
X249800000Y-135500000D01*
X246800000Y-135500000D01*
X246800000Y-132500000D01*
X246800000Y-136300000D02*
X249800000Y-136300000D01*
X249800000Y-139300000D01*
X246800000Y-139300000D01*
X246800000Y-136300000D01*
X246800000Y-140300000D02*
X249800000Y-140300000D01*
X249800000Y-143300000D01*
X246800000Y-143300000D01*
X246800000Y-140300000D01*
X246800000Y-144300000D02*
X249800000Y-144300000D01*
X249800000Y-147300000D01*
X246800000Y-147300000D01*
X246800000Y-144300000D01*
X246800000Y-148300000D02*
X249800000Y-148300000D01*
X249800000Y-151300000D01*
X246800000Y-151300000D01*
X246800000Y-148300000D01*
X250800000Y-120500000D02*
X253800000Y-120500000D01*
X253800000Y-123500000D01*
X250800000Y-123500000D01*
X250800000Y-120500000D01*
X250800000Y-124500000D02*
X253800000Y-124500000D01*
X253800000Y-127500000D01*
X250800000Y-127500000D01*
X250800000Y-124500000D01*
X250800000Y-128500000D02*
X253800000Y-128500000D01*
X253800000Y-131500000D01*
X250800000Y-131500000D01*
X250800000Y-128500000D01*
X250800000Y-132500000D02*
X253800000Y-132500000D01*
X253800000Y-135500000D01*
X250800000Y-135500000D01*
X250800000Y-132500000D01*
X250800000Y-136300000D02*
X253800000Y-136300000D01*
X253800000Y-139300000D01*
X250800000Y-139300000D01*
X250800000Y-136300000D01*
X250800000Y-140300000D02*
X253800000Y-140300000D01*
X253800000Y-143300000D01*
X250800000Y-143300000D01*
X250800000Y-140300000D01*
X250800000Y-144300000D02*
X253800000Y-144300000D01*
X253800000Y-147300000D01*
X250800000Y-147300000D01*
X250800000Y-144300000D01*
X250800000Y-148300000D02*
X253800000Y-148300000D01*
X253800000Y-151300000D01*
X250800000Y-151300000D01*
X250800000Y-148300000D01*
X254800000Y-120500000D02*
X257800000Y-120500000D01*
X257800000Y-123500000D01*
X254800000Y-123500000D01*
X254800000Y-120500000D01*
X254800000Y-124500000D02*
X257800000Y-124500000D01*
X257800000Y-127500000D01*
X254800000Y-127500000D01*
X254800000Y-124500000D01*
X254800000Y-128500000D02*
X257800000Y-128500000D01*
X257800000Y-131500000D01*
X254800000Y-131500000D01*
X254800000Y-128500000D01*
X254800000Y-132500000D02*
X257800000Y-132500000D01*
X257800000Y-135500000D01*
X254800000Y-135500000D01*
X254800000Y-132500000D01*
X254800000Y-136300000D02*
X257800000Y-136300000D01*
X257800000Y-139300000D01*
X254800000Y-139300000D01*
X254800000Y-136300000D01*
X254800000Y-140300000D02*
X257800000Y-140300000D01*
X257800000Y-143300000D01*
X254800000Y-143300000D01*
X254800000Y-140300000D01*
X254800000Y-144300000D02*
X257800000Y-144300000D01*
X257800000Y-147300000D01*
X254800000Y-147300000D01*
X254800000Y-144300000D01*
X254800000Y-148300000D02*
X257800000Y-148300000D01*
X257800000Y-151300000D01*
X254800000Y-151300000D01*
X254800000Y-148300000D01*
X258800000Y-120500000D02*
X261800000Y-120500000D01*
X261800000Y-123500000D01*
X258800000Y-123500000D01*
X258800000Y-120500000D01*
X258800000Y-124500000D02*
X261800000Y-124500000D01*
X261800000Y-127500000D01*
X258800000Y-127500000D01*
X258800000Y-124500000D01*
X258800000Y-128500000D02*
X261800000Y-128500000D01*
X261800000Y-131500000D01*
X258800000Y-131500000D01*
X258800000Y-128500000D01*
X258800000Y-132500000D02*
X261800000Y-132500000D01*
X261800000Y-135500000D01*
X258800000Y-135500000D01*
X258800000Y-132500000D01*
X258800000Y-136300000D02*
X261800000Y-136300000D01*
X261800000Y-139300000D01*
X258800000Y-139300000D01*
X258800000Y-136300000D01*
X258800000Y-140300000D02*
X261800000Y-140300000D01*
X261800000Y-143300000D01*
X258800000Y-143300000D01*
X258800000Y-140300000D01*
X258800000Y-144300000D02*
X261800000Y-144300000D01*
X261800000Y-147300000D01*
X258800000Y-147300000D01*
X258800000Y-144300000D01*
X258800000Y-148300000D02*
X261800000Y-148300000D01*
X261800000Y-151300000D01*
X258800000Y-151300000D01*
X258800000Y-148300000D01*
X262800000Y-120500000D02*
X265800000Y-120500000D01*
X265800000Y-123500000D01*
X262800000Y-123500000D01*
X262800000Y-120500000D01*
X262800000Y-124500000D02*
X265800000Y-124500000D01*
X265800000Y-127500000D01*
X262800000Y-127500000D01*
X262800000Y-124500000D01*
X262800000Y-128500000D02*
X265800000Y-128500000D01*
X265800000Y-131500000D01*
X262800000Y-131500000D01*
X262800000Y-128500000D01*
X262800000Y-132500000D02*
X265800000Y-132500000D01*
X265800000Y-135500000D01*
X262800000Y-135500000D01*
X262800000Y-132500000D01*
X262800000Y-136300000D02*
X265800000Y-136300000D01*
X265800000Y-139300000D01*
X262800000Y-139300000D01*
X262800000Y-136300000D01*
X262800000Y-140300000D02*
X265800000Y-140300000D01*
X265800000Y-143300000D01*
X262800000Y-143300000D01*
X262800000Y-140300000D01*
X262800000Y-144300000D02*
X265800000Y-144300000D01*
X265800000Y-147300000D01*
X262800000Y-147300000D01*
X262800000Y-144300000D01*
X262800000Y-148300000D02*
X265800000Y-148300000D01*
X265800000Y-151300000D01*
X262800000Y-151300000D01*
X262800000Y-148300000D01*
X266800000Y-120500000D02*
X269800000Y-120500000D01*
X269800000Y-123500000D01*
X266800000Y-123500000D01*
X266800000Y-120500000D01*
X266800000Y-124500000D02*
X269800000Y-124500000D01*
X269800000Y-127500000D01*
X266800000Y-127500000D01*
X266800000Y-124500000D01*
X266800000Y-128500000D02*
X269800000Y-128500000D01*
X269800000Y-131500000D01*
X266800000Y-131500000D01*
X266800000Y-128500000D01*
X266800000Y-132500000D02*
X269800000Y-132500000D01*
X269800000Y-135500000D01*
X266800000Y-135500000D01*
X266800000Y-132500000D01*
X266800000Y-136300000D02*
X269800000Y-136300000D01*
X269800000Y-139300000D01*
X266800000Y-139300000D01*
X266800000Y-136300000D01*
X266800000Y-140300000D02*
X269800000Y-140300000D01*
X269800000Y-143300000D01*
X266800000Y-143300000D01*
X266800000Y-140300000D01*
X266800000Y-144300000D02*
X269800000Y-144300000D01*
X269800000Y-147300000D01*
X266800000Y-147300000D01*
X266800000Y-144300000D01*
X266800000Y-148300000D02*
X269800000Y-148300000D01*
X269800000Y-151300000D01*
X266800000Y-151300000D01*
X266800000Y-148300000D01*
D12*
X171370000Y-184684564D02*
X171370000Y-183230436D01*
X173190000Y-184684564D02*
X173190000Y-183230436D01*
X299108464Y-195250000D02*
X297654336Y-195250000D01*
X299108464Y-197070000D02*
X297654336Y-197070000D01*
D15*
X244868600Y-167124700D02*
X244868600Y-170477500D01*
X244868600Y-170477500D02*
X245021361Y-170477500D01*
X245021361Y-167124700D02*
X244868600Y-167124700D01*
X248068639Y-170477500D02*
X248221400Y-170477500D01*
X248221400Y-167124700D02*
X248068639Y-167124700D01*
X248221400Y-170477500D02*
X248221400Y-167124700D01*
D12*
X205019000Y-107400000D02*
X205175000Y-107400000D01*
X207335000Y-107400000D02*
X207491000Y-107400000D01*
X205019484Y-107400000D02*
G75*
G02*
X205176392Y-104167665I1235516J1560000D01*
G01*
X205175000Y-106880961D02*
G75*
G02*
X205175163Y-104798870I1080000J1040961D01*
G01*
X207333608Y-104167665D02*
G75*
G02*
X207490516Y-107400000I-1078608J-1672335D01*
G01*
X207334837Y-104798870D02*
G75*
G02*
X207335000Y-106880961I-1079837J-1041130D01*
G01*
X227307500Y-168500000D02*
X226507500Y-168500000D01*
X227307500Y-168500000D02*
X228107500Y-168500000D01*
X227307500Y-171620000D02*
X226507500Y-171620000D01*
X227307500Y-171620000D02*
X228107500Y-171620000D01*
X226007500Y-168550000D02*
X225767500Y-168220000D01*
X226247500Y-168220000D01*
X226007500Y-168550000D01*
G36*
X226007500Y-168550000D02*
G01*
X225767500Y-168220000D01*
X226247500Y-168220000D01*
X226007500Y-168550000D01*
G37*
X275019000Y-85940000D02*
X275175000Y-85940000D01*
X277335000Y-85940000D02*
X277491000Y-85940000D01*
X275019484Y-85940000D02*
G75*
G02*
X275176392Y-82707665I1235516J1560000D01*
G01*
X275175000Y-85420961D02*
G75*
G02*
X275175163Y-83338870I1080000J1040961D01*
G01*
X277333608Y-82707665D02*
G75*
G02*
X277490516Y-85940000I-1078608J-1672335D01*
G01*
X277334837Y-83338870D02*
G75*
G02*
X277335000Y-85420961I-1079837J-1041130D01*
G01*
X239660000Y-167107936D02*
X239660000Y-168562064D01*
X241480000Y-167107936D02*
X241480000Y-168562064D01*
X201210000Y-157624000D02*
X201210000Y-162376000D01*
X201210000Y-157624184D02*
G75*
G02*
X211859998Y-159995259I5060000J-2375816D01*
G01*
X211859998Y-160004741D02*
G75*
G02*
X201210000Y-162375816I-5589998J4741D01*
G01*
X211270000Y-160000000D02*
G75*
G02*
X201270000Y-160000000I-5000000J0D01*
G01*
X201270000Y-160000000D02*
G75*
G02*
X211270000Y-160000000I5000000J0D01*
G01*
D13*
X314005000Y-107110000D02*
X315005000Y-97110000D01*
X315505000Y-92860000D02*
X316505000Y-82860000D01*
X316755000Y-109110000D02*
X326755000Y-109110000D01*
X318005000Y-95110000D02*
X328005000Y-95110000D01*
X319255000Y-80610000D02*
X329255000Y-80610000D01*
X329505000Y-107110000D02*
X330505000Y-97110000D01*
X330755000Y-93110000D02*
X331755000Y-83110000D01*
D10*
X308855000Y-74710000D02*
X337655000Y-74710000D01*
X337655000Y-115510000D01*
X308855000Y-115510000D01*
X308855000Y-74710000D01*
D14*
X334030000Y-109110000D02*
G75*
G02*
X332480000Y-109110000I-775000J0D01*
G01*
X332480000Y-109110000D02*
G75*
G02*
X334030000Y-109110000I775000J0D01*
G01*
D10*
X142595000Y-120150000D02*
X174295000Y-120150000D01*
X174295000Y-151850000D01*
X142595000Y-151850000D01*
X142595000Y-120150000D01*
X142945000Y-120500000D02*
X145945000Y-120500000D01*
X145945000Y-123500000D01*
X142945000Y-123500000D01*
X142945000Y-120500000D01*
X142945000Y-124500000D02*
X145945000Y-124500000D01*
X145945000Y-127500000D01*
X142945000Y-127500000D01*
X142945000Y-124500000D01*
X142945000Y-128500000D02*
X145945000Y-128500000D01*
X145945000Y-131500000D01*
X142945000Y-131500000D01*
X142945000Y-128500000D01*
X142945000Y-132500000D02*
X145945000Y-132500000D01*
X145945000Y-135500000D01*
X142945000Y-135500000D01*
X142945000Y-132500000D01*
X142945000Y-136300000D02*
X145945000Y-136300000D01*
X145945000Y-139300000D01*
X142945000Y-139300000D01*
X142945000Y-136300000D01*
X142945000Y-140300000D02*
X145945000Y-140300000D01*
X145945000Y-143300000D01*
X142945000Y-143300000D01*
X142945000Y-140300000D01*
X142945000Y-144300000D02*
X145945000Y-144300000D01*
X145945000Y-147300000D01*
X142945000Y-147300000D01*
X142945000Y-144300000D01*
X142945000Y-148300000D02*
X145945000Y-148300000D01*
X145945000Y-151300000D01*
X142945000Y-151300000D01*
X142945000Y-148300000D01*
X146945000Y-120500000D02*
X149945000Y-120500000D01*
X149945000Y-123500000D01*
X146945000Y-123500000D01*
X146945000Y-120500000D01*
X146945000Y-124500000D02*
X149945000Y-124500000D01*
X149945000Y-127500000D01*
X146945000Y-127500000D01*
X146945000Y-124500000D01*
X146945000Y-128500000D02*
X149945000Y-128500000D01*
X149945000Y-131500000D01*
X146945000Y-131500000D01*
X146945000Y-128500000D01*
X146945000Y-132500000D02*
X149945000Y-132500000D01*
X149945000Y-135500000D01*
X146945000Y-135500000D01*
X146945000Y-132500000D01*
X146945000Y-136300000D02*
X149945000Y-136300000D01*
X149945000Y-139300000D01*
X146945000Y-139300000D01*
X146945000Y-136300000D01*
X146945000Y-140300000D02*
X149945000Y-140300000D01*
X149945000Y-143300000D01*
X146945000Y-143300000D01*
X146945000Y-140300000D01*
X146945000Y-144300000D02*
X149945000Y-144300000D01*
X149945000Y-147300000D01*
X146945000Y-147300000D01*
X146945000Y-144300000D01*
X146945000Y-148300000D02*
X149945000Y-148300000D01*
X149945000Y-151300000D01*
X146945000Y-151300000D01*
X146945000Y-148300000D01*
X150945000Y-120500000D02*
X153945000Y-120500000D01*
X153945000Y-123500000D01*
X150945000Y-123500000D01*
X150945000Y-120500000D01*
X150945000Y-124500000D02*
X153945000Y-124500000D01*
X153945000Y-127500000D01*
X150945000Y-127500000D01*
X150945000Y-124500000D01*
X150945000Y-128500000D02*
X153945000Y-128500000D01*
X153945000Y-131500000D01*
X150945000Y-131500000D01*
X150945000Y-128500000D01*
X150945000Y-132500000D02*
X153945000Y-132500000D01*
X153945000Y-135500000D01*
X150945000Y-135500000D01*
X150945000Y-132500000D01*
X150945000Y-136300000D02*
X153945000Y-136300000D01*
X153945000Y-139300000D01*
X150945000Y-139300000D01*
X150945000Y-136300000D01*
X150945000Y-140300000D02*
X153945000Y-140300000D01*
X153945000Y-143300000D01*
X150945000Y-143300000D01*
X150945000Y-140300000D01*
X150945000Y-144300000D02*
X153945000Y-144300000D01*
X153945000Y-147300000D01*
X150945000Y-147300000D01*
X150945000Y-144300000D01*
X150945000Y-148300000D02*
X153945000Y-148300000D01*
X153945000Y-151300000D01*
X150945000Y-151300000D01*
X150945000Y-148300000D01*
X154945000Y-120500000D02*
X157945000Y-120500000D01*
X157945000Y-123500000D01*
X154945000Y-123500000D01*
X154945000Y-120500000D01*
X154945000Y-124500000D02*
X157945000Y-124500000D01*
X157945000Y-127500000D01*
X154945000Y-127500000D01*
X154945000Y-124500000D01*
X154945000Y-128500000D02*
X157945000Y-128500000D01*
X157945000Y-131500000D01*
X154945000Y-131500000D01*
X154945000Y-128500000D01*
X154945000Y-132500000D02*
X157945000Y-132500000D01*
X157945000Y-135500000D01*
X154945000Y-135500000D01*
X154945000Y-132500000D01*
X154945000Y-136300000D02*
X157945000Y-136300000D01*
X157945000Y-139300000D01*
X154945000Y-139300000D01*
X154945000Y-136300000D01*
X154945000Y-140300000D02*
X157945000Y-140300000D01*
X157945000Y-143300000D01*
X154945000Y-143300000D01*
X154945000Y-140300000D01*
X154945000Y-144300000D02*
X157945000Y-144300000D01*
X157945000Y-147300000D01*
X154945000Y-147300000D01*
X154945000Y-144300000D01*
X154945000Y-148300000D02*
X157945000Y-148300000D01*
X157945000Y-151300000D01*
X154945000Y-151300000D01*
X154945000Y-148300000D01*
X158945000Y-120500000D02*
X161945000Y-120500000D01*
X161945000Y-123500000D01*
X158945000Y-123500000D01*
X158945000Y-120500000D01*
X158945000Y-124500000D02*
X161945000Y-124500000D01*
X161945000Y-127500000D01*
X158945000Y-127500000D01*
X158945000Y-124500000D01*
X158945000Y-128500000D02*
X161945000Y-128500000D01*
X161945000Y-131500000D01*
X158945000Y-131500000D01*
X158945000Y-128500000D01*
X158945000Y-132500000D02*
X161945000Y-132500000D01*
X161945000Y-135500000D01*
X158945000Y-135500000D01*
X158945000Y-132500000D01*
X158945000Y-136300000D02*
X161945000Y-136300000D01*
X161945000Y-139300000D01*
X158945000Y-139300000D01*
X158945000Y-136300000D01*
X158945000Y-140300000D02*
X161945000Y-140300000D01*
X161945000Y-143300000D01*
X158945000Y-143300000D01*
X158945000Y-140300000D01*
X158945000Y-144300000D02*
X161945000Y-144300000D01*
X161945000Y-147300000D01*
X158945000Y-147300000D01*
X158945000Y-144300000D01*
X158945000Y-148300000D02*
X161945000Y-148300000D01*
X161945000Y-151300000D01*
X158945000Y-151300000D01*
X158945000Y-148300000D01*
X162945000Y-120500000D02*
X165945000Y-120500000D01*
X165945000Y-123500000D01*
X162945000Y-123500000D01*
X162945000Y-120500000D01*
X162945000Y-124500000D02*
X165945000Y-124500000D01*
X165945000Y-127500000D01*
X162945000Y-127500000D01*
X162945000Y-124500000D01*
X162945000Y-128500000D02*
X165945000Y-128500000D01*
X165945000Y-131500000D01*
X162945000Y-131500000D01*
X162945000Y-128500000D01*
X162945000Y-132500000D02*
X165945000Y-132500000D01*
X165945000Y-135500000D01*
X162945000Y-135500000D01*
X162945000Y-132500000D01*
X162945000Y-136300000D02*
X165945000Y-136300000D01*
X165945000Y-139300000D01*
X162945000Y-139300000D01*
X162945000Y-136300000D01*
X162945000Y-140300000D02*
X165945000Y-140300000D01*
X165945000Y-143300000D01*
X162945000Y-143300000D01*
X162945000Y-140300000D01*
X162945000Y-144300000D02*
X165945000Y-144300000D01*
X165945000Y-147300000D01*
X162945000Y-147300000D01*
X162945000Y-144300000D01*
X162945000Y-148300000D02*
X165945000Y-148300000D01*
X165945000Y-151300000D01*
X162945000Y-151300000D01*
X162945000Y-148300000D01*
X166945000Y-120500000D02*
X169945000Y-120500000D01*
X169945000Y-123500000D01*
X166945000Y-123500000D01*
X166945000Y-120500000D01*
X166945000Y-124500000D02*
X169945000Y-124500000D01*
X169945000Y-127500000D01*
X166945000Y-127500000D01*
X166945000Y-124500000D01*
X166945000Y-128500000D02*
X169945000Y-128500000D01*
X169945000Y-131500000D01*
X166945000Y-131500000D01*
X166945000Y-128500000D01*
X166945000Y-132500000D02*
X169945000Y-132500000D01*
X169945000Y-135500000D01*
X166945000Y-135500000D01*
X166945000Y-132500000D01*
X166945000Y-136300000D02*
X169945000Y-136300000D01*
X169945000Y-139300000D01*
X166945000Y-139300000D01*
X166945000Y-136300000D01*
X166945000Y-140300000D02*
X169945000Y-140300000D01*
X169945000Y-143300000D01*
X166945000Y-143300000D01*
X166945000Y-140300000D01*
X166945000Y-144300000D02*
X169945000Y-144300000D01*
X169945000Y-147300000D01*
X166945000Y-147300000D01*
X166945000Y-144300000D01*
X166945000Y-148300000D02*
X169945000Y-148300000D01*
X169945000Y-151300000D01*
X166945000Y-151300000D01*
X166945000Y-148300000D01*
X170945000Y-120500000D02*
X173945000Y-120500000D01*
X173945000Y-123500000D01*
X170945000Y-123500000D01*
X170945000Y-120500000D01*
X170945000Y-124500000D02*
X173945000Y-124500000D01*
X173945000Y-127500000D01*
X170945000Y-127500000D01*
X170945000Y-124500000D01*
X170945000Y-128500000D02*
X173945000Y-128500000D01*
X173945000Y-131500000D01*
X170945000Y-131500000D01*
X170945000Y-128500000D01*
X170945000Y-132500000D02*
X173945000Y-132500000D01*
X173945000Y-135500000D01*
X170945000Y-135500000D01*
X170945000Y-132500000D01*
X170945000Y-136300000D02*
X173945000Y-136300000D01*
X173945000Y-139300000D01*
X170945000Y-139300000D01*
X170945000Y-136300000D01*
X170945000Y-140300000D02*
X173945000Y-140300000D01*
X173945000Y-143300000D01*
X170945000Y-143300000D01*
X170945000Y-140300000D01*
X170945000Y-144300000D02*
X173945000Y-144300000D01*
X173945000Y-147300000D01*
X170945000Y-147300000D01*
X170945000Y-144300000D01*
X170945000Y-148300000D02*
X173945000Y-148300000D01*
X173945000Y-151300000D01*
X170945000Y-151300000D01*
X170945000Y-148300000D01*
D13*
X246005000Y-107110000D02*
X247005000Y-97110000D01*
X247505000Y-92860000D02*
X248505000Y-82860000D01*
X248755000Y-109110000D02*
X258755000Y-109110000D01*
X250005000Y-95110000D02*
X260005000Y-95110000D01*
X251255000Y-80610000D02*
X261255000Y-80610000D01*
X261505000Y-107110000D02*
X262505000Y-97110000D01*
X262755000Y-93110000D02*
X263755000Y-83110000D01*
D10*
X240855000Y-74710000D02*
X269655000Y-74710000D01*
X269655000Y-115510000D01*
X240855000Y-115510000D01*
X240855000Y-74710000D01*
D14*
X266030000Y-109110000D02*
G75*
G02*
X264480000Y-109110000I-775000J0D01*
G01*
X264480000Y-109110000D02*
G75*
G02*
X266030000Y-109110000I775000J0D01*
G01*
D13*
X285005000Y-107110000D02*
X286005000Y-97110000D01*
X286505000Y-92860000D02*
X287505000Y-82860000D01*
X287755000Y-109110000D02*
X297755000Y-109110000D01*
X289005000Y-95110000D02*
X299005000Y-95110000D01*
X290255000Y-80610000D02*
X300255000Y-80610000D01*
X300505000Y-107110000D02*
X301505000Y-97110000D01*
X301755000Y-93110000D02*
X302755000Y-83110000D01*
D10*
X279855000Y-74710000D02*
X308655000Y-74710000D01*
X308655000Y-115510000D01*
X279855000Y-115510000D01*
X279855000Y-74710000D01*
D14*
X305030000Y-109110000D02*
G75*
G02*
X303480000Y-109110000I-775000J0D01*
G01*
X303480000Y-109110000D02*
G75*
G02*
X305030000Y-109110000I775000J0D01*
G01*
D12*
X299108464Y-191750000D02*
X297654336Y-191750000D01*
X299108464Y-193570000D02*
X297654336Y-193570000D01*
X247946936Y-176049000D02*
X248401064Y-176049000D01*
X247946936Y-177519000D02*
X248401064Y-177519000D01*
X181235000Y-181585000D02*
X181235000Y-184895000D01*
X181235000Y-181585000D02*
X183255000Y-181585000D01*
X183255000Y-184895000D02*
X183255000Y-181585000D01*
D10*
X78595000Y-120150000D02*
X110295000Y-120150000D01*
X110295000Y-151850000D01*
X78595000Y-151850000D01*
X78595000Y-120150000D01*
X78945000Y-120500000D02*
X81945000Y-120500000D01*
X81945000Y-123500000D01*
X78945000Y-123500000D01*
X78945000Y-120500000D01*
X78945000Y-124500000D02*
X81945000Y-124500000D01*
X81945000Y-127500000D01*
X78945000Y-127500000D01*
X78945000Y-124500000D01*
X78945000Y-128500000D02*
X81945000Y-128500000D01*
X81945000Y-131500000D01*
X78945000Y-131500000D01*
X78945000Y-128500000D01*
X78945000Y-132500000D02*
X81945000Y-132500000D01*
X81945000Y-135500000D01*
X78945000Y-135500000D01*
X78945000Y-132500000D01*
X78945000Y-136300000D02*
X81945000Y-136300000D01*
X81945000Y-139300000D01*
X78945000Y-139300000D01*
X78945000Y-136300000D01*
X78945000Y-140300000D02*
X81945000Y-140300000D01*
X81945000Y-143300000D01*
X78945000Y-143300000D01*
X78945000Y-140300000D01*
X78945000Y-144300000D02*
X81945000Y-144300000D01*
X81945000Y-147300000D01*
X78945000Y-147300000D01*
X78945000Y-144300000D01*
X78945000Y-148300000D02*
X81945000Y-148300000D01*
X81945000Y-151300000D01*
X78945000Y-151300000D01*
X78945000Y-148300000D01*
X82945000Y-120500000D02*
X85945000Y-120500000D01*
X85945000Y-123500000D01*
X82945000Y-123500000D01*
X82945000Y-120500000D01*
X82945000Y-124500000D02*
X85945000Y-124500000D01*
X85945000Y-127500000D01*
X82945000Y-127500000D01*
X82945000Y-124500000D01*
X82945000Y-128500000D02*
X85945000Y-128500000D01*
X85945000Y-131500000D01*
X82945000Y-131500000D01*
X82945000Y-128500000D01*
X82945000Y-132500000D02*
X85945000Y-132500000D01*
X85945000Y-135500000D01*
X82945000Y-135500000D01*
X82945000Y-132500000D01*
X82945000Y-136300000D02*
X85945000Y-136300000D01*
X85945000Y-139300000D01*
X82945000Y-139300000D01*
X82945000Y-136300000D01*
X82945000Y-140300000D02*
X85945000Y-140300000D01*
X85945000Y-143300000D01*
X82945000Y-143300000D01*
X82945000Y-140300000D01*
X82945000Y-144300000D02*
X85945000Y-144300000D01*
X85945000Y-147300000D01*
X82945000Y-147300000D01*
X82945000Y-144300000D01*
X82945000Y-148300000D02*
X85945000Y-148300000D01*
X85945000Y-151300000D01*
X82945000Y-151300000D01*
X82945000Y-148300000D01*
X86945000Y-120500000D02*
X89945000Y-120500000D01*
X89945000Y-123500000D01*
X86945000Y-123500000D01*
X86945000Y-120500000D01*
X86945000Y-124500000D02*
X89945000Y-124500000D01*
X89945000Y-127500000D01*
X86945000Y-127500000D01*
X86945000Y-124500000D01*
X86945000Y-128500000D02*
X89945000Y-128500000D01*
X89945000Y-131500000D01*
X86945000Y-131500000D01*
X86945000Y-128500000D01*
X86945000Y-132500000D02*
X89945000Y-132500000D01*
X89945000Y-135500000D01*
X86945000Y-135500000D01*
X86945000Y-132500000D01*
X86945000Y-136300000D02*
X89945000Y-136300000D01*
X89945000Y-139300000D01*
X86945000Y-139300000D01*
X86945000Y-136300000D01*
X86945000Y-140300000D02*
X89945000Y-140300000D01*
X89945000Y-143300000D01*
X86945000Y-143300000D01*
X86945000Y-140300000D01*
X86945000Y-144300000D02*
X89945000Y-144300000D01*
X89945000Y-147300000D01*
X86945000Y-147300000D01*
X86945000Y-144300000D01*
X86945000Y-148300000D02*
X89945000Y-148300000D01*
X89945000Y-151300000D01*
X86945000Y-151300000D01*
X86945000Y-148300000D01*
X90945000Y-120500000D02*
X93945000Y-120500000D01*
X93945000Y-123500000D01*
X90945000Y-123500000D01*
X90945000Y-120500000D01*
X90945000Y-124500000D02*
X93945000Y-124500000D01*
X93945000Y-127500000D01*
X90945000Y-127500000D01*
X90945000Y-124500000D01*
X90945000Y-128500000D02*
X93945000Y-128500000D01*
X93945000Y-131500000D01*
X90945000Y-131500000D01*
X90945000Y-128500000D01*
X90945000Y-132500000D02*
X93945000Y-132500000D01*
X93945000Y-135500000D01*
X90945000Y-135500000D01*
X90945000Y-132500000D01*
X90945000Y-136300000D02*
X93945000Y-136300000D01*
X93945000Y-139300000D01*
X90945000Y-139300000D01*
X90945000Y-136300000D01*
X90945000Y-140300000D02*
X93945000Y-140300000D01*
X93945000Y-143300000D01*
X90945000Y-143300000D01*
X90945000Y-140300000D01*
X90945000Y-144300000D02*
X93945000Y-144300000D01*
X93945000Y-147300000D01*
X90945000Y-147300000D01*
X90945000Y-144300000D01*
X90945000Y-148300000D02*
X93945000Y-148300000D01*
X93945000Y-151300000D01*
X90945000Y-151300000D01*
X90945000Y-148300000D01*
X94945000Y-120500000D02*
X97945000Y-120500000D01*
X97945000Y-123500000D01*
X94945000Y-123500000D01*
X94945000Y-120500000D01*
X94945000Y-124500000D02*
X97945000Y-124500000D01*
X97945000Y-127500000D01*
X94945000Y-127500000D01*
X94945000Y-124500000D01*
X94945000Y-128500000D02*
X97945000Y-128500000D01*
X97945000Y-131500000D01*
X94945000Y-131500000D01*
X94945000Y-128500000D01*
X94945000Y-132500000D02*
X97945000Y-132500000D01*
X97945000Y-135500000D01*
X94945000Y-135500000D01*
X94945000Y-132500000D01*
X94945000Y-136300000D02*
X97945000Y-136300000D01*
X97945000Y-139300000D01*
X94945000Y-139300000D01*
X94945000Y-136300000D01*
X94945000Y-140300000D02*
X97945000Y-140300000D01*
X97945000Y-143300000D01*
X94945000Y-143300000D01*
X94945000Y-140300000D01*
X94945000Y-144300000D02*
X97945000Y-144300000D01*
X97945000Y-147300000D01*
X94945000Y-147300000D01*
X94945000Y-144300000D01*
X94945000Y-148300000D02*
X97945000Y-148300000D01*
X97945000Y-151300000D01*
X94945000Y-151300000D01*
X94945000Y-148300000D01*
X98945000Y-120500000D02*
X101945000Y-120500000D01*
X101945000Y-123500000D01*
X98945000Y-123500000D01*
X98945000Y-120500000D01*
X98945000Y-124500000D02*
X101945000Y-124500000D01*
X101945000Y-127500000D01*
X98945000Y-127500000D01*
X98945000Y-124500000D01*
X98945000Y-128500000D02*
X101945000Y-128500000D01*
X101945000Y-131500000D01*
X98945000Y-131500000D01*
X98945000Y-128500000D01*
X98945000Y-132500000D02*
X101945000Y-132500000D01*
X101945000Y-135500000D01*
X98945000Y-135500000D01*
X98945000Y-132500000D01*
X98945000Y-136300000D02*
X101945000Y-136300000D01*
X101945000Y-139300000D01*
X98945000Y-139300000D01*
X98945000Y-136300000D01*
X98945000Y-140300000D02*
X101945000Y-140300000D01*
X101945000Y-143300000D01*
X98945000Y-143300000D01*
X98945000Y-140300000D01*
X98945000Y-144300000D02*
X101945000Y-144300000D01*
X101945000Y-147300000D01*
X98945000Y-147300000D01*
X98945000Y-144300000D01*
X98945000Y-148300000D02*
X101945000Y-148300000D01*
X101945000Y-151300000D01*
X98945000Y-151300000D01*
X98945000Y-148300000D01*
X102945000Y-120500000D02*
X105945000Y-120500000D01*
X105945000Y-123500000D01*
X102945000Y-123500000D01*
X102945000Y-120500000D01*
X102945000Y-124500000D02*
X105945000Y-124500000D01*
X105945000Y-127500000D01*
X102945000Y-127500000D01*
X102945000Y-124500000D01*
X102945000Y-128500000D02*
X105945000Y-128500000D01*
X105945000Y-131500000D01*
X102945000Y-131500000D01*
X102945000Y-128500000D01*
X102945000Y-132500000D02*
X105945000Y-132500000D01*
X105945000Y-135500000D01*
X102945000Y-135500000D01*
X102945000Y-132500000D01*
X102945000Y-136300000D02*
X105945000Y-136300000D01*
X105945000Y-139300000D01*
X102945000Y-139300000D01*
X102945000Y-136300000D01*
X102945000Y-140300000D02*
X105945000Y-140300000D01*
X105945000Y-143300000D01*
X102945000Y-143300000D01*
X102945000Y-140300000D01*
X102945000Y-144300000D02*
X105945000Y-144300000D01*
X105945000Y-147300000D01*
X102945000Y-147300000D01*
X102945000Y-144300000D01*
X102945000Y-148300000D02*
X105945000Y-148300000D01*
X105945000Y-151300000D01*
X102945000Y-151300000D01*
X102945000Y-148300000D01*
X106945000Y-120500000D02*
X109945000Y-120500000D01*
X109945000Y-123500000D01*
X106945000Y-123500000D01*
X106945000Y-120500000D01*
X106945000Y-124500000D02*
X109945000Y-124500000D01*
X109945000Y-127500000D01*
X106945000Y-127500000D01*
X106945000Y-124500000D01*
X106945000Y-128500000D02*
X109945000Y-128500000D01*
X109945000Y-131500000D01*
X106945000Y-131500000D01*
X106945000Y-128500000D01*
X106945000Y-132500000D02*
X109945000Y-132500000D01*
X109945000Y-135500000D01*
X106945000Y-135500000D01*
X106945000Y-132500000D01*
X106945000Y-136300000D02*
X109945000Y-136300000D01*
X109945000Y-139300000D01*
X106945000Y-139300000D01*
X106945000Y-136300000D01*
X106945000Y-140300000D02*
X109945000Y-140300000D01*
X109945000Y-143300000D01*
X106945000Y-143300000D01*
X106945000Y-140300000D01*
X106945000Y-144300000D02*
X109945000Y-144300000D01*
X109945000Y-147300000D01*
X106945000Y-147300000D01*
X106945000Y-144300000D01*
X106945000Y-148300000D02*
X109945000Y-148300000D01*
X109945000Y-151300000D01*
X106945000Y-151300000D01*
X106945000Y-148300000D01*
D12*
X137019000Y-107940000D02*
X137175000Y-107940000D01*
X139335000Y-107940000D02*
X139491000Y-107940000D01*
X137019484Y-107940000D02*
G75*
G02*
X137176392Y-104707665I1235516J1560000D01*
G01*
X137175000Y-107420961D02*
G75*
G02*
X137175163Y-105338870I1080000J1040961D01*
G01*
X139333608Y-104707665D02*
G75*
G02*
X139490516Y-107940000I-1078608J-1672335D01*
G01*
X139334837Y-105338870D02*
G75*
G02*
X139335000Y-107420961I-1079837J-1041130D01*
G01*
D13*
X81005000Y-107110000D02*
X82005000Y-97110000D01*
X82505000Y-92860000D02*
X83505000Y-82860000D01*
X83755000Y-109110000D02*
X93755000Y-109110000D01*
X85005000Y-95110000D02*
X95005000Y-95110000D01*
X86255000Y-80610000D02*
X96255000Y-80610000D01*
X96505000Y-107110000D02*
X97505000Y-97110000D01*
X97755000Y-93110000D02*
X98755000Y-83110000D01*
D10*
X75855000Y-74710000D02*
X104655000Y-74710000D01*
X104655000Y-115510000D01*
X75855000Y-115510000D01*
X75855000Y-74710000D01*
D14*
X101030000Y-109110000D02*
G75*
G02*
X99480000Y-109110000I-775000J0D01*
G01*
X99480000Y-109110000D02*
G75*
G02*
X101030000Y-109110000I775000J0D01*
G01*
D12*
X273019000Y-107400000D02*
X273175000Y-107400000D01*
X275335000Y-107400000D02*
X275491000Y-107400000D01*
X273019484Y-107400000D02*
G75*
G02*
X273176392Y-104167665I1235516J1560000D01*
G01*
X273175000Y-106880961D02*
G75*
G02*
X273175163Y-104798870I1080000J1040961D01*
G01*
X275333608Y-104167665D02*
G75*
G02*
X275490516Y-107400000I-1078608J-1672335D01*
G01*
X275334837Y-104798870D02*
G75*
G02*
X275335000Y-106880961I-1079837J-1041130D01*
G01*
X184175000Y-176227500D02*
X184175000Y-175577500D01*
X184175000Y-176227500D02*
X184175000Y-176877500D01*
X187295000Y-176227500D02*
X187295000Y-175577500D01*
X187295000Y-176227500D02*
X187295000Y-176877500D01*
X184225000Y-177390000D02*
X183895000Y-177630000D01*
X183895000Y-177150000D01*
X184225000Y-177390000D01*
G36*
X184225000Y-177390000D02*
G01*
X183895000Y-177630000D01*
X183895000Y-177150000D01*
X184225000Y-177390000D01*
G37*
D11*
X225945000Y-175635000D02*
X225945000Y-175460000D01*
X225945000Y-178710000D02*
X225945000Y-178535000D01*
X229195000Y-175460000D02*
X225945000Y-175460000D01*
X229195000Y-175635000D02*
X229195000Y-175460000D01*
X229195000Y-178710000D02*
X225945000Y-178710000D01*
X229195000Y-178710000D02*
X229195000Y-178535000D01*
D12*
X229910000Y-178865000D02*
X229430000Y-178865000D01*
X229670000Y-178535000D01*
X229910000Y-178865000D01*
G36*
X229910000Y-178865000D02*
G01*
X229430000Y-178865000D01*
X229670000Y-178535000D01*
X229910000Y-178865000D01*
G37*
%LPC*%
D16*
X235320000Y-166085000D03*
X235320000Y-169210000D03*
D17*
X221670000Y-171860000D03*
X221670000Y-173860000D03*
D18*
X187960000Y-185420000D03*
X187960000Y-182295000D03*
D19*
X213600000Y-148000000D03*
D20*
X216140000Y-148000000D03*
X218680000Y-148000000D03*
X221220000Y-148000000D03*
X223760000Y-148000000D03*
X226300000Y-148000000D03*
X228840000Y-148000000D03*
X231380000Y-148000000D03*
X231380000Y-124000000D03*
X228840000Y-124000000D03*
X226300000Y-124000000D03*
X223760000Y-124000000D03*
X221220000Y-124000000D03*
X218680000Y-124000000D03*
X216140000Y-124000000D03*
X213600000Y-124000000D03*
D19*
X117555000Y-148000000D03*
D20*
X120095000Y-148000000D03*
X122635000Y-148000000D03*
X125175000Y-148000000D03*
X127715000Y-148000000D03*
X130255000Y-148000000D03*
X132795000Y-148000000D03*
X135335000Y-148000000D03*
X135335000Y-124000000D03*
X132795000Y-124000000D03*
X130255000Y-124000000D03*
X127715000Y-124000000D03*
X125175000Y-124000000D03*
X122635000Y-124000000D03*
X120095000Y-124000000D03*
X117555000Y-124000000D03*
D21*
X207000000Y-70000000D03*
D22*
X191770000Y-177800000D03*
X191770000Y-174875000D03*
D19*
X309525000Y-148000000D03*
D20*
X312065000Y-148000000D03*
X314605000Y-148000000D03*
X317145000Y-148000000D03*
X319685000Y-148000000D03*
X322225000Y-148000000D03*
X324765000Y-148000000D03*
X327305000Y-148000000D03*
X327305000Y-124000000D03*
X324765000Y-124000000D03*
X322225000Y-124000000D03*
X319685000Y-124000000D03*
X317145000Y-124000000D03*
X314605000Y-124000000D03*
X312065000Y-124000000D03*
X309525000Y-124000000D03*
D19*
X153175000Y-112890000D03*
D20*
X155715000Y-112890000D03*
X158255000Y-112890000D03*
X160795000Y-112890000D03*
X163335000Y-112890000D03*
X163335000Y-77330000D03*
X160795000Y-77330000D03*
X158255000Y-77330000D03*
X155715000Y-77330000D03*
X153175000Y-77330000D03*
D19*
X221175000Y-112890000D03*
D20*
X223715000Y-112890000D03*
X226255000Y-112890000D03*
X228795000Y-112890000D03*
X231335000Y-112890000D03*
X231335000Y-77330000D03*
X228795000Y-77330000D03*
X226255000Y-77330000D03*
X223715000Y-77330000D03*
X221175000Y-77330000D03*
D19*
X114175000Y-112890000D03*
D20*
X116715000Y-112890000D03*
X119255000Y-112890000D03*
X121795000Y-112890000D03*
X124335000Y-112890000D03*
X124335000Y-77330000D03*
X121795000Y-77330000D03*
X119255000Y-77330000D03*
X116715000Y-77330000D03*
X114175000Y-77330000D03*
D22*
X176530000Y-185420000D03*
X176530000Y-182495000D03*
D21*
X76000000Y-70000000D03*
D19*
X277490000Y-148000000D03*
D20*
X280030000Y-148000000D03*
X282570000Y-148000000D03*
X285110000Y-148000000D03*
X287650000Y-148000000D03*
X290190000Y-148000000D03*
X292730000Y-148000000D03*
X295270000Y-148000000D03*
X295270000Y-124000000D03*
X292730000Y-124000000D03*
X290190000Y-124000000D03*
X287650000Y-124000000D03*
X285110000Y-124000000D03*
X282570000Y-124000000D03*
X280030000Y-124000000D03*
X277490000Y-124000000D03*
D23*
X208255000Y-85650000D03*
D24*
X208255000Y-83110000D03*
D19*
X181555000Y-148000000D03*
D20*
X184095000Y-148000000D03*
X186635000Y-148000000D03*
X189175000Y-148000000D03*
X191715000Y-148000000D03*
X194255000Y-148000000D03*
X196795000Y-148000000D03*
X199335000Y-148000000D03*
X199335000Y-124000000D03*
X196795000Y-124000000D03*
X194255000Y-124000000D03*
X191715000Y-124000000D03*
X189175000Y-124000000D03*
X186635000Y-124000000D03*
X184095000Y-124000000D03*
X181555000Y-124000000D03*
D23*
X140255000Y-86110000D03*
D24*
X140255000Y-83570000D03*
D22*
X192405000Y-185420000D03*
X192405000Y-182495000D03*
D25*
X292875000Y-176000000D03*
X296000000Y-176000000D03*
D19*
X182175000Y-112890000D03*
D20*
X184715000Y-112890000D03*
X187255000Y-112890000D03*
X189795000Y-112890000D03*
X192335000Y-112890000D03*
X192335000Y-77330000D03*
X189795000Y-77330000D03*
X187255000Y-77330000D03*
X184715000Y-77330000D03*
X182175000Y-77330000D03*
D19*
X245410000Y-148000000D03*
D20*
X247950000Y-148000000D03*
X250490000Y-148000000D03*
X253030000Y-148000000D03*
X255570000Y-148000000D03*
X258110000Y-148000000D03*
X260650000Y-148000000D03*
X263190000Y-148000000D03*
X263190000Y-124000000D03*
X260650000Y-124000000D03*
X258110000Y-124000000D03*
X255570000Y-124000000D03*
X253030000Y-124000000D03*
X250490000Y-124000000D03*
X247950000Y-124000000D03*
X245410000Y-124000000D03*
D22*
X172280000Y-185420000D03*
X172280000Y-182495000D03*
D26*
X299843900Y-196160000D03*
X296918900Y-196160000D03*
D27*
X245570001Y-171017250D03*
X246219999Y-171017250D03*
X246870001Y-171017250D03*
X247519999Y-171017250D03*
X247519999Y-166584950D03*
X246870001Y-166584950D03*
X246219999Y-166584950D03*
X245570001Y-166584950D03*
D23*
X206255000Y-107110000D03*
D24*
X206255000Y-104570000D03*
D28*
X226170000Y-169110000D03*
X226170000Y-170060000D03*
X226170000Y-171010000D03*
X228445000Y-171010000D03*
X228445000Y-170060000D03*
X228445000Y-169110000D03*
D23*
X276255000Y-85650000D03*
D24*
X276255000Y-83110000D03*
D21*
X76000000Y-202000000D03*
D29*
X240570000Y-166372500D03*
X240570000Y-169297500D03*
D21*
X338000000Y-202000000D03*
D23*
X205000000Y-160000000D03*
D24*
X207540000Y-160000000D03*
D19*
X318175000Y-112890000D03*
D20*
X320715000Y-112890000D03*
X323255000Y-112890000D03*
X325795000Y-112890000D03*
X328335000Y-112890000D03*
X328335000Y-77330000D03*
X325795000Y-77330000D03*
X323255000Y-77330000D03*
X320715000Y-77330000D03*
X318175000Y-77330000D03*
D19*
X149555000Y-148000000D03*
D20*
X152095000Y-148000000D03*
X154635000Y-148000000D03*
X157175000Y-148000000D03*
X159715000Y-148000000D03*
X162255000Y-148000000D03*
X164795000Y-148000000D03*
X167335000Y-148000000D03*
X167335000Y-124000000D03*
X164795000Y-124000000D03*
X162255000Y-124000000D03*
X159715000Y-124000000D03*
X157175000Y-124000000D03*
X154635000Y-124000000D03*
X152095000Y-124000000D03*
X149555000Y-124000000D03*
D19*
X250175000Y-112890000D03*
D20*
X252715000Y-112890000D03*
X255255000Y-112890000D03*
X257795000Y-112890000D03*
X260335000Y-112890000D03*
X260335000Y-77330000D03*
X257795000Y-77330000D03*
X255255000Y-77330000D03*
X252715000Y-77330000D03*
X250175000Y-77330000D03*
D21*
X328000000Y-70000000D03*
D19*
X289175000Y-112890000D03*
D20*
X291715000Y-112890000D03*
X294255000Y-112890000D03*
X296795000Y-112890000D03*
X299335000Y-112890000D03*
X299335000Y-77330000D03*
X296795000Y-77330000D03*
X294255000Y-77330000D03*
X291715000Y-77330000D03*
X289175000Y-77330000D03*
D26*
X299843900Y-192660000D03*
X296918900Y-192660000D03*
D30*
X247174000Y-176784000D03*
X249174000Y-176784000D03*
D21*
X207000000Y-202000000D03*
D31*
X182245000Y-183045000D03*
D32*
X182245000Y-185420000D03*
D19*
X85555000Y-148000000D03*
D20*
X88095000Y-148000000D03*
X90635000Y-148000000D03*
X93175000Y-148000000D03*
X95715000Y-148000000D03*
X98255000Y-148000000D03*
X100795000Y-148000000D03*
X103335000Y-148000000D03*
X103335000Y-124000000D03*
X100795000Y-124000000D03*
X98255000Y-124000000D03*
X95715000Y-124000000D03*
X93175000Y-124000000D03*
X90635000Y-124000000D03*
X88095000Y-124000000D03*
X85555000Y-124000000D03*
D23*
X138255000Y-107650000D03*
D24*
X138255000Y-105110000D03*
D19*
X85175000Y-112890000D03*
D20*
X87715000Y-112890000D03*
X90255000Y-112890000D03*
X92795000Y-112890000D03*
X95335000Y-112890000D03*
X95335000Y-77330000D03*
X92795000Y-77330000D03*
X90255000Y-77330000D03*
X87715000Y-77330000D03*
X85175000Y-77330000D03*
D23*
X274255000Y-107110000D03*
D24*
X274255000Y-104570000D03*
D33*
X184785000Y-177165000D03*
X186685000Y-177165000D03*
X185735000Y-175290000D03*
D34*
X229720000Y-178060000D03*
X229720000Y-177410000D03*
X229720000Y-176760000D03*
X229720000Y-176110000D03*
X225420000Y-176110000D03*
X225420000Y-176760000D03*
X225420000Y-177410000D03*
X225420000Y-178060000D03*
D23*
X325000000Y-194310000D03*
D24*
X322460000Y-194310000D03*
D35*
X73799500Y-175135000D03*
D20*
X73799500Y-170135000D03*
X73799500Y-172635000D03*
X76299500Y-175135000D03*
X76299500Y-170135000D03*
D36*
X74849500Y-166185000D03*
X74849500Y-179085000D03*
D23*
X311250000Y-191980000D03*
D24*
X311250000Y-194520000D03*
X311250000Y-197060000D03*
D37*
X182250000Y-203795000D03*
X182250000Y-201295000D03*
X177250000Y-196295000D03*
X172250000Y-203795000D03*
X172250000Y-201295000D03*
D38*
X182250000Y-196295000D03*
D39*
X179750000Y-196295000D03*
D40*
X177250000Y-201295000D03*
D38*
X172250000Y-196295000D03*
D41*
X174750000Y-196295000D03*
D42*
X324200000Y-117400000D03*
D43*
X244475000Y-203740000D03*
X236275000Y-203740000D03*
D44*
X242375000Y-203740000D03*
D45*
X240375000Y-203740000D03*
X238375000Y-203740000D03*
D46*
X272415000Y-170815000D03*
X272415000Y-168275000D03*
X272415000Y-165735000D03*
D47*
X98760000Y-198540000D03*
X106380000Y-198540000D03*
X98760000Y-193460000D03*
X106380000Y-193460000D03*
D37*
X273610000Y-95545000D03*
D48*
X275610000Y-93945000D03*
D49*
X275610000Y-91445000D03*
D47*
X146380000Y-198540000D03*
X154000000Y-198540000D03*
X146380000Y-193460000D03*
X154000000Y-193460000D03*
X130380000Y-198540000D03*
X138000000Y-198540000D03*
X130380000Y-193460000D03*
X138000000Y-193460000D03*
D50*
X164000000Y-187643200D03*
X164000000Y-156642500D03*
X89001420Y-187643200D03*
X89000900Y-156642500D03*
D51*
X158500900Y-156642500D03*
D52*
X155960900Y-156642500D03*
X153420900Y-156642500D03*
X150880900Y-156642500D03*
X148340900Y-156642500D03*
X145800900Y-156642500D03*
X143260900Y-156642500D03*
X140720900Y-156642500D03*
X138180900Y-156642500D03*
X135640900Y-156642500D03*
X133100900Y-156642500D03*
X130560900Y-156642500D03*
X128020900Y-156642500D03*
X125480900Y-156642500D03*
X122940900Y-156642500D03*
X120400900Y-156642500D03*
D53*
X329640000Y-170000000D03*
D54*
X329640000Y-167500000D03*
X331640000Y-167500000D03*
X331640000Y-170000000D03*
D55*
X334500000Y-162750000D03*
X334500000Y-174750000D03*
D37*
X242904000Y-179384000D03*
D56*
X241304000Y-177384000D03*
D57*
X238804000Y-177384000D03*
D47*
X114380000Y-198620000D03*
X122000000Y-198620000D03*
X114380000Y-193540000D03*
X122000000Y-193540000D03*
D58*
X304470000Y-175965000D03*
D59*
X284470000Y-175965000D03*
D37*
X317250000Y-165650000D03*
D60*
X315250000Y-167250000D03*
D61*
X315250000Y-169750000D03*
X315250000Y-172250000D03*
X315250000Y-174750000D03*
X315250000Y-177250000D03*
D62*
X331600000Y-190000000D03*
D63*
X337600000Y-190000000D03*
D64*
X334100000Y-194800000D03*
D42*
X302000000Y-116500000D03*
D37*
X196250000Y-203795000D03*
X196250000Y-201295000D03*
X191250000Y-196295000D03*
X186250000Y-203795000D03*
X186250000Y-201295000D03*
D38*
X196250000Y-196295000D03*
D39*
X193750000Y-196295000D03*
D40*
X191250000Y-201295000D03*
D38*
X186250000Y-196295000D03*
D41*
X188750000Y-196295000D03*
D65*
X277500000Y-163000000D03*
X285750000Y-96520000D03*
X266500000Y-176000000D03*
X134900000Y-137100000D03*
X78500000Y-170100000D03*
X227500000Y-176500000D03*
X315000000Y-81100000D03*
X123500000Y-162600000D03*
X158500000Y-152750000D03*
X276000000Y-186000000D03*
X276000000Y-191000000D03*
X79300000Y-175000000D03*
X134900000Y-135500000D03*
X266500000Y-175000000D03*
X315800000Y-81100000D03*
X244500000Y-128500000D03*
X122600000Y-162600000D03*
X81600000Y-131400000D03*
X291800000Y-104600000D03*
X81600000Y-129800000D03*
X295600000Y-106000000D03*
X81600000Y-132200000D03*
X134900000Y-134700000D03*
X78500000Y-175000000D03*
X81600000Y-130600000D03*
X114500000Y-128400000D03*
X119000000Y-126000000D03*
X275500000Y-163000000D03*
X277000000Y-186000000D03*
X124400000Y-162600000D03*
X279000000Y-186000000D03*
X275000000Y-191000000D03*
X114500000Y-126000000D03*
X148750000Y-152750000D03*
X276500000Y-163000000D03*
X321000000Y-177000000D03*
X81600000Y-133000000D03*
X266500000Y-173000000D03*
X257500000Y-128500000D03*
X273100000Y-120700000D03*
X134900000Y-136300000D03*
X278000000Y-191000000D03*
X126200000Y-162600000D03*
X277000000Y-191000000D03*
X134900000Y-137900000D03*
X114500000Y-127600000D03*
X321000000Y-175000000D03*
X244000000Y-96000000D03*
X273000000Y-94000000D03*
X314200000Y-81100000D03*
X216000000Y-126000000D03*
X240000000Y-94500000D03*
X261500000Y-95500000D03*
X79300000Y-170100000D03*
X266500000Y-172000000D03*
X278000000Y-186000000D03*
X279500000Y-163000000D03*
X321000000Y-176000000D03*
X114500000Y-129200000D03*
X266500000Y-174000000D03*
X331000000Y-89500000D03*
X321000000Y-178000000D03*
X226000000Y-133000000D03*
X275000000Y-186000000D03*
X321000000Y-179000000D03*
X252000000Y-128500000D03*
X278500000Y-163000000D03*
X272300000Y-120700000D03*
X213000000Y-126000000D03*
X279000000Y-191000000D03*
X125300000Y-162600000D03*
X114500000Y-126800000D03*
D66*
X286031400Y-138914100D03*
X296741700Y-141350300D03*
D65*
X322316700Y-88541700D03*
X312984900Y-91711200D03*
X239245700Y-92226100D03*
X326515400Y-120209900D03*
X245785600Y-102003600D03*
X316953000Y-101229100D03*
X198095300Y-165237600D03*
X318793900Y-102608900D03*
X293505100Y-102358100D03*
X329561300Y-108504300D03*
X329253200Y-115186600D03*
X313636600Y-100053300D03*
X293048300Y-100599700D03*
X262502200Y-99269400D03*
X323615300Y-88199700D03*
X237478500Y-100305400D03*
X288158300Y-109273200D03*
X233561000Y-115305400D03*
X218901000Y-115204700D03*
X230757600Y-75503400D03*
X198095300Y-75620300D03*
X318832900Y-109345100D03*
X236276200Y-100179400D03*
X318437100Y-101082900D03*
X304198500Y-101055800D03*
X143826300Y-152109900D03*
X324595700Y-109780300D03*
X328600000Y-89200000D03*
X321831000Y-171842700D03*
X332200000Y-109900000D03*
X328678100Y-91320800D03*
X305727700Y-139497600D03*
X304559700Y-137950100D03*
X271634400Y-136399100D03*
X272194900Y-85155600D03*
X332345500Y-88083900D03*
X274646800Y-136918500D03*
X286164700Y-108269700D03*
X326151800Y-106759200D03*
X308813700Y-118475800D03*
X271599900Y-87644500D03*
X331373500Y-87986200D03*
X272873400Y-136451400D03*
X146764400Y-141556400D03*
X324728200Y-115151000D03*
X311005900Y-92252700D03*
X114446800Y-140021000D03*
X309093200Y-114657800D03*
X313903700Y-90814400D03*
X332769800Y-102472500D03*
X278738800Y-100664200D03*
X183248800Y-163993900D03*
X246140000Y-100867200D03*
X300863000Y-185545900D03*
D66*
X245604100Y-162846500D03*
D65*
X328114600Y-122442500D03*
X260450600Y-164991400D03*
X146792400Y-139944900D03*
X308813700Y-115784700D03*
X132720000Y-142877900D03*
X198482700Y-139791500D03*
X298025800Y-134606600D03*
X233258600Y-88609000D03*
X308439800Y-124993100D03*
X230739600Y-139710500D03*
X103077700Y-142909000D03*
X166324100Y-140582700D03*
X325260300Y-142318200D03*
X317171000Y-91365500D03*
X198495600Y-135974800D03*
X218880400Y-105872800D03*
X247927900Y-99944100D03*
X313456100Y-97524700D03*
X309187400Y-99922200D03*
X301231800Y-111845300D03*
X251331900Y-111292500D03*
X230416000Y-79946200D03*
X141746100Y-75292100D03*
X241391700Y-81055600D03*
X245464900Y-85426000D03*
X94169800Y-115331800D03*
X304201300Y-78179300D03*
X188183500Y-78280500D03*
X116598000Y-75644900D03*
X156912400Y-111154200D03*
X141678600Y-111046500D03*
X227788300Y-114616000D03*
X194192000Y-114538300D03*
D66*
X331315800Y-121619700D03*
X233726900Y-192676500D03*
D65*
X162516600Y-129237700D03*
X155740200Y-129239200D03*
X200407000Y-133016500D03*
X194449700Y-133090700D03*
X188185400Y-132893300D03*
X127399000Y-142218500D03*
X158328700Y-138078600D03*
X222970200Y-138550700D03*
X316461700Y-142566300D03*
X255202000Y-138337900D03*
X287509000Y-138963800D03*
X192298600Y-139081100D03*
X185131800Y-137062500D03*
X96270300Y-142258800D03*
X310927500Y-153449300D03*
X117797700Y-138850700D03*
X93895600Y-136566700D03*
X94788300Y-132925600D03*
X93615000Y-133206200D03*
X94206900Y-142789000D03*
X88694100Y-138622200D03*
X125452100Y-143233100D03*
X124376200Y-138514500D03*
X148459900Y-139315800D03*
X123016600Y-150692800D03*
X127447100Y-144522200D03*
X129543000Y-143663500D03*
X158989500Y-142427700D03*
X160032400Y-127421200D03*
X152768700Y-138780200D03*
X156564600Y-126730900D03*
X156813900Y-133576200D03*
X161773100Y-142448000D03*
X160338800Y-144758900D03*
X193232400Y-137134900D03*
X185769200Y-139075400D03*
X185132900Y-133185200D03*
X190760200Y-135015200D03*
X189501500Y-128864100D03*
X189176400Y-139240800D03*
X229112900Y-137036500D03*
X221306800Y-136775800D03*
X223435700Y-142782900D03*
X225387900Y-129694400D03*
X217352900Y-137905800D03*
X225700500Y-142704200D03*
X253688800Y-138945000D03*
X267345200Y-139032300D03*
X254304400Y-142086500D03*
X255500200Y-127486800D03*
X245438600Y-144784600D03*
X249605100Y-136862600D03*
X255315100Y-133325000D03*
X253716700Y-142750600D03*
X255032700Y-146083100D03*
X285568200Y-142265400D03*
X266013500Y-129500600D03*
X277938100Y-132065200D03*
X308757300Y-139653200D03*
X285196200Y-136262500D03*
X281076600Y-127209600D03*
X326522900Y-139931200D03*
X322040600Y-142566300D03*
X313676400Y-133312800D03*
X317081100Y-135249700D03*
X326997800Y-132387500D03*
X316216300Y-134751000D03*
X313007200Y-138804600D03*
X134746500Y-130033500D03*
X230409300Y-103418900D03*
X196463600Y-129427100D03*
X164519200Y-129770800D03*
X309785400Y-93434600D03*
X230527800Y-131520400D03*
X260067000Y-133276600D03*
X332400000Y-112296349D03*
X325282800Y-129433200D03*
X294757500Y-130559300D03*
%LPD*%
M02*
