%TF.GenerationSoftware,KiCad,Pcbnew,8.0.4*%
%TF.CreationDate,2024-09-13T09:32:51+02:00*%
%TF.ProjectId,DigiSlatePlus,44696769-536c-4617-9465-506c75732e6b,rev?*%
%TF.SameCoordinates,Original*%
%TF.FileFunction,Paste,Bot*%
%TF.FilePolarity,Positive*%
%FSLAX46Y46*%
G04 Gerber Fmt 4.6, Leading zero omitted, Abs format (unit mm)*
G04 Created by KiCad (PCBNEW 8.0.4) date 2024-09-13 09:32:51*
%MOMM*%
%LPD*%
G01*
G04 APERTURE LIST*
G04 Aperture macros list*
%AMRoundRect*
0 Rectangle with rounded corners*
0 $1 Rounding radius*
0 $2 $3 $4 $5 $6 $7 $8 $9 X,Y pos of 4 corners*
0 Add a 4 corners polygon primitive as box body*
4,1,4,$2,$3,$4,$5,$6,$7,$8,$9,$2,$3,0*
0 Add four circle primitives for the rounded corners*
1,1,$1+$1,$2,$3*
1,1,$1+$1,$4,$5*
1,1,$1+$1,$6,$7*
1,1,$1+$1,$8,$9*
0 Add four rect primitives between the rounded corners*
20,1,$1+$1,$2,$3,$4,$5,0*
20,1,$1+$1,$4,$5,$6,$7,0*
20,1,$1+$1,$6,$7,$8,$9,0*
20,1,$1+$1,$8,$9,$2,$3,0*%
G04 Aperture macros list end*
%ADD10RoundRect,0.250000X0.650000X-0.412500X0.650000X0.412500X-0.650000X0.412500X-0.650000X-0.412500X0*%
%ADD11RoundRect,0.250000X0.312500X0.625000X-0.312500X0.625000X-0.312500X-0.625000X0.312500X-0.625000X0*%
%ADD12RoundRect,0.150000X-0.587500X-0.150000X0.587500X-0.150000X0.587500X0.150000X-0.587500X0.150000X0*%
%ADD13RoundRect,0.150000X-0.150000X0.875000X-0.150000X-0.875000X0.150000X-0.875000X0.150000X0.875000X0*%
%ADD14RoundRect,0.250000X0.625000X-0.312500X0.625000X0.312500X-0.625000X0.312500X-0.625000X-0.312500X0*%
%ADD15RoundRect,0.250000X0.412500X0.650000X-0.412500X0.650000X-0.412500X-0.650000X0.412500X-0.650000X0*%
%ADD16RoundRect,0.250000X-0.312500X-0.625000X0.312500X-0.625000X0.312500X0.625000X-0.312500X0.625000X0*%
%ADD17RoundRect,0.250000X1.025000X-0.875000X1.025000X0.875000X-1.025000X0.875000X-1.025000X-0.875000X0*%
%ADD18RoundRect,0.250000X-1.000000X-0.650000X1.000000X-0.650000X1.000000X0.650000X-1.000000X0.650000X0*%
%ADD19RoundRect,0.250000X-0.875000X-1.025000X0.875000X-1.025000X0.875000X1.025000X-0.875000X1.025000X0*%
%ADD20RoundRect,0.250000X-0.625000X0.312500X-0.625000X-0.312500X0.625000X-0.312500X0.625000X0.312500X0*%
%ADD21RoundRect,0.150000X0.875000X0.150000X-0.875000X0.150000X-0.875000X-0.150000X0.875000X-0.150000X0*%
%ADD22RoundRect,0.250000X0.350000X0.450000X-0.350000X0.450000X-0.350000X-0.450000X0.350000X-0.450000X0*%
%ADD23RoundRect,0.250000X-1.025000X0.875000X-1.025000X-0.875000X1.025000X-0.875000X1.025000X0.875000X0*%
%ADD24RoundRect,0.250000X-0.350000X-0.450000X0.350000X-0.450000X0.350000X0.450000X-0.350000X0.450000X0*%
%ADD25RoundRect,0.250000X0.950000X0.500000X-0.950000X0.500000X-0.950000X-0.500000X0.950000X-0.500000X0*%
%ADD26RoundRect,0.250000X0.275000X0.500000X-0.275000X0.500000X-0.275000X-0.500000X0.275000X-0.500000X0*%
%ADD27RoundRect,0.218750X-0.256250X0.218750X-0.256250X-0.218750X0.256250X-0.218750X0.256250X0.218750X0*%
%ADD28RoundRect,0.200000X0.200000X0.800000X-0.200000X0.800000X-0.200000X-0.800000X0.200000X-0.800000X0*%
%ADD29RoundRect,0.250000X0.350000X-0.850000X0.350000X0.850000X-0.350000X0.850000X-0.350000X-0.850000X0*%
%ADD30RoundRect,0.250000X1.125000X-1.275000X1.125000X1.275000X-1.125000X1.275000X-1.125000X-1.275000X0*%
%ADD31RoundRect,0.250000X-0.450000X0.350000X-0.450000X-0.350000X0.450000X-0.350000X0.450000X0.350000X0*%
%ADD32RoundRect,0.250000X-0.650000X0.412500X-0.650000X-0.412500X0.650000X-0.412500X0.650000X0.412500X0*%
%ADD33RoundRect,0.150000X0.587500X0.150000X-0.587500X0.150000X-0.587500X-0.150000X0.587500X-0.150000X0*%
%ADD34R,1.300000X1.300000*%
%ADD35R,2.000000X1.300000*%
%ADD36RoundRect,0.250000X-0.412500X-0.650000X0.412500X-0.650000X0.412500X0.650000X-0.412500X0.650000X0*%
%ADD37RoundRect,0.375000X0.375000X-0.625000X0.375000X0.625000X-0.375000X0.625000X-0.375000X-0.625000X0*%
%ADD38RoundRect,0.500000X1.400000X-0.500000X1.400000X0.500000X-1.400000X0.500000X-1.400000X-0.500000X0*%
%ADD39R,1.300000X2.000000*%
%ADD40RoundRect,0.150000X0.150000X-0.875000X0.150000X0.875000X-0.150000X0.875000X-0.150000X-0.875000X0*%
%ADD41R,1.500000X2.200000*%
%ADD42R,0.900000X0.900000*%
%ADD43R,0.900000X1.500000*%
%ADD44R,1.500000X0.900000*%
%ADD45RoundRect,0.250000X-0.300000X2.050000X-0.300000X-2.050000X0.300000X-2.050000X0.300000X2.050000X0*%
%ADD46RoundRect,0.250000X-2.375000X2.025000X-2.375000X-2.025000X2.375000X-2.025000X2.375000X2.025000X0*%
G04 APERTURE END LIST*
D10*
%TO.C,C1*%
X332400000Y-120000000D03*
X332400000Y-116875000D03*
%TD*%
D11*
%TO.C,R30*%
X276610000Y-99695000D03*
X273685000Y-99695000D03*
%TD*%
D12*
%TO.C,Q2*%
X216525000Y-163950000D03*
X216525000Y-162050000D03*
X218400000Y-163000000D03*
%TD*%
D13*
%TO.C,U4*%
X119460000Y-131350000D03*
X120730000Y-131350000D03*
X122000000Y-131350000D03*
X123270000Y-131350000D03*
X124540000Y-131350000D03*
X125810000Y-131350000D03*
X127080000Y-131350000D03*
X128350000Y-131350000D03*
X129620000Y-131350000D03*
X130890000Y-131350000D03*
X132160000Y-131350000D03*
X133430000Y-131350000D03*
X133430000Y-140650000D03*
X132160000Y-140650000D03*
X130890000Y-140650000D03*
X129620000Y-140650000D03*
X128350000Y-140650000D03*
X127080000Y-140650000D03*
X125810000Y-140650000D03*
X124540000Y-140650000D03*
X123270000Y-140650000D03*
X122000000Y-140650000D03*
X120730000Y-140650000D03*
X119460000Y-140650000D03*
%TD*%
D14*
%TO.C,R26*%
X141765000Y-197835000D03*
X141765000Y-194910000D03*
%TD*%
D15*
%TO.C,C8*%
X255999000Y-186136000D03*
X252874000Y-186136000D03*
%TD*%
D16*
%TO.C,R14*%
X301075000Y-93500000D03*
X304000000Y-93500000D03*
%TD*%
D17*
%TO.C,C35*%
X329780000Y-139750000D03*
X329780000Y-133350000D03*
%TD*%
D18*
%TO.C,D10*%
X258500000Y-172500000D03*
X262500000Y-172500000D03*
%TD*%
D17*
%TO.C,C33*%
X297395000Y-139050000D03*
X297395000Y-132650000D03*
%TD*%
%TO.C,C31*%
X265315000Y-139850000D03*
X265315000Y-133450000D03*
%TD*%
D19*
%TO.C,C9*%
X249174000Y-192786000D03*
X255574000Y-192786000D03*
%TD*%
D15*
%TO.C,C2*%
X297625000Y-94010000D03*
X294500000Y-94010000D03*
%TD*%
D20*
%TO.C,R7*%
X302000000Y-98075000D03*
X302000000Y-101000000D03*
%TD*%
D17*
%TO.C,C18*%
X211074000Y-193548000D03*
X211074000Y-187148000D03*
%TD*%
D10*
%TO.C,C28*%
X212665000Y-136775000D03*
X212665000Y-133650000D03*
%TD*%
D13*
%TO.C,U10*%
X215505000Y-131350000D03*
X216775000Y-131350000D03*
X218045000Y-131350000D03*
X219315000Y-131350000D03*
X220585000Y-131350000D03*
X221855000Y-131350000D03*
X223125000Y-131350000D03*
X224395000Y-131350000D03*
X225665000Y-131350000D03*
X226935000Y-131350000D03*
X228205000Y-131350000D03*
X229475000Y-131350000D03*
X229475000Y-140650000D03*
X228205000Y-140650000D03*
X226935000Y-140650000D03*
X225665000Y-140650000D03*
X224395000Y-140650000D03*
X223125000Y-140650000D03*
X221855000Y-140650000D03*
X220585000Y-140650000D03*
X219315000Y-140650000D03*
X218045000Y-140650000D03*
X216775000Y-140650000D03*
X215505000Y-140650000D03*
%TD*%
D11*
%TO.C,R13*%
X218800000Y-157000000D03*
X215875000Y-157000000D03*
%TD*%
D21*
%TO.C,U2*%
X298000000Y-97610000D03*
X298000000Y-98880000D03*
X298000000Y-100150000D03*
X298000000Y-101420000D03*
X298000000Y-102690000D03*
X298000000Y-103960000D03*
X298000000Y-105230000D03*
X298000000Y-106500000D03*
X288700000Y-106500000D03*
X288700000Y-105230000D03*
X288700000Y-103960000D03*
X288700000Y-102690000D03*
X288700000Y-101420000D03*
X288700000Y-100150000D03*
X288700000Y-98880000D03*
X288700000Y-97610000D03*
%TD*%
D14*
%TO.C,R1*%
X329000000Y-119762500D03*
X329000000Y-116837500D03*
%TD*%
D22*
%TO.C,R24*%
X202500000Y-179615000D03*
X200500000Y-179615000D03*
%TD*%
D14*
%TO.C,R27*%
X126015000Y-197835000D03*
X126015000Y-194910000D03*
%TD*%
D13*
%TO.C,U27*%
X247315000Y-131350000D03*
X248585000Y-131350000D03*
X249855000Y-131350000D03*
X251125000Y-131350000D03*
X252395000Y-131350000D03*
X253665000Y-131350000D03*
X254935000Y-131350000D03*
X256205000Y-131350000D03*
X257475000Y-131350000D03*
X258745000Y-131350000D03*
X260015000Y-131350000D03*
X261285000Y-131350000D03*
X261285000Y-140650000D03*
X260015000Y-140650000D03*
X258745000Y-140650000D03*
X257475000Y-140650000D03*
X256205000Y-140650000D03*
X254935000Y-140650000D03*
X253665000Y-140650000D03*
X252395000Y-140650000D03*
X251125000Y-140650000D03*
X249855000Y-140650000D03*
X248585000Y-140650000D03*
X247315000Y-140650000D03*
%TD*%
D20*
%TO.C,R11*%
X278500000Y-112575000D03*
X278500000Y-115500000D03*
%TD*%
D10*
%TO.C,C26*%
X180285000Y-137475000D03*
X180285000Y-134350000D03*
%TD*%
D23*
%TO.C,C11*%
X251000000Y-165800000D03*
X251000000Y-172200000D03*
%TD*%
D24*
%TO.C,R18*%
X303000000Y-196810000D03*
X305000000Y-196810000D03*
%TD*%
D14*
%TO.C,R29*%
X95015000Y-198085000D03*
X95015000Y-195160000D03*
%TD*%
D10*
%TO.C,C34*%
X308780000Y-137475000D03*
X308780000Y-134350000D03*
%TD*%
%TO.C,C22*%
X116840000Y-137370000D03*
X116840000Y-134245000D03*
%TD*%
D24*
%TO.C,R19*%
X303000000Y-192810000D03*
X305000000Y-192810000D03*
%TD*%
D25*
%TO.C,D8*%
X301125000Y-90000000D03*
D26*
X303500000Y-90000000D03*
%TD*%
D16*
%TO.C,R9*%
X206075000Y-79000000D03*
X209000000Y-79000000D03*
%TD*%
D27*
%TO.C,D12*%
X197750000Y-178760000D03*
X197750000Y-180335000D03*
%TD*%
D20*
%TO.C,R12*%
X274250000Y-112575000D03*
X274250000Y-115500000D03*
%TD*%
D28*
%TO.C,SW6*%
X314000000Y-78000000D03*
X309800000Y-78000000D03*
%TD*%
D13*
%TO.C,U6*%
X151460000Y-131350000D03*
X152730000Y-131350000D03*
X154000000Y-131350000D03*
X155270000Y-131350000D03*
X156540000Y-131350000D03*
X157810000Y-131350000D03*
X159080000Y-131350000D03*
X160350000Y-131350000D03*
X161620000Y-131350000D03*
X162890000Y-131350000D03*
X164160000Y-131350000D03*
X165430000Y-131350000D03*
X165430000Y-140650000D03*
X164160000Y-140650000D03*
X162890000Y-140650000D03*
X161620000Y-140650000D03*
X160350000Y-140650000D03*
X159080000Y-140650000D03*
X157810000Y-140650000D03*
X156540000Y-140650000D03*
X155270000Y-140650000D03*
X154000000Y-140650000D03*
X152730000Y-140650000D03*
X151460000Y-140650000D03*
%TD*%
D17*
%TO.C,C23*%
X137795000Y-139275000D03*
X137795000Y-132875000D03*
%TD*%
D10*
%TO.C,C15*%
X201750000Y-175365000D03*
X201750000Y-172240000D03*
%TD*%
D14*
%TO.C,R28*%
X110515000Y-197835000D03*
X110515000Y-194910000D03*
%TD*%
D13*
%TO.C,U7*%
X183460000Y-131350000D03*
X184730000Y-131350000D03*
X186000000Y-131350000D03*
X187270000Y-131350000D03*
X188540000Y-131350000D03*
X189810000Y-131350000D03*
X191080000Y-131350000D03*
X192350000Y-131350000D03*
X193620000Y-131350000D03*
X194890000Y-131350000D03*
X196160000Y-131350000D03*
X197430000Y-131350000D03*
X197430000Y-140650000D03*
X196160000Y-140650000D03*
X194890000Y-140650000D03*
X193620000Y-140650000D03*
X192350000Y-140650000D03*
X191080000Y-140650000D03*
X189810000Y-140650000D03*
X188540000Y-140650000D03*
X187270000Y-140650000D03*
X186000000Y-140650000D03*
X184730000Y-140650000D03*
X183460000Y-140650000D03*
%TD*%
D16*
%TO.C,R3*%
X81817000Y-175865000D03*
X84742000Y-175865000D03*
%TD*%
D29*
%TO.C,U24*%
X219075000Y-179840000D03*
D30*
X215270000Y-175215000D03*
X218320000Y-175215000D03*
X215270000Y-171865000D03*
X218320000Y-171865000D03*
D29*
X214515000Y-179840000D03*
%TD*%
D10*
%TO.C,C4*%
X85090000Y-137370000D03*
X85090000Y-134245000D03*
%TD*%
D17*
%TO.C,C27*%
X202510000Y-139380000D03*
X202510000Y-132980000D03*
%TD*%
D31*
%TO.C,R23*%
X318000000Y-193310000D03*
X318000000Y-195310000D03*
%TD*%
D23*
%TO.C,C7*%
X253255000Y-90710000D03*
X253255000Y-97110000D03*
%TD*%
D32*
%TO.C,C10*%
X245000000Y-165200000D03*
X245000000Y-168325000D03*
%TD*%
D17*
%TO.C,C25*%
X168860000Y-139975000D03*
X168860000Y-133575000D03*
%TD*%
D10*
%TO.C,C30*%
X244315000Y-137775000D03*
X244315000Y-134650000D03*
%TD*%
D33*
%TO.C,Q1*%
X270750000Y-113175000D03*
X270750000Y-115075000D03*
X268875000Y-114125000D03*
%TD*%
D17*
%TO.C,C29*%
X233665000Y-139050000D03*
X233665000Y-132650000D03*
%TD*%
D11*
%TO.C,R15*%
X225462500Y-157000000D03*
X222537500Y-157000000D03*
%TD*%
D34*
%TO.C,RV1*%
X172808000Y-163442000D03*
D35*
X178308000Y-164592000D03*
D34*
X172808000Y-165742000D03*
%TD*%
D17*
%TO.C,C16*%
X207750000Y-179015000D03*
X207750000Y-172615000D03*
%TD*%
D20*
%TO.C,R8*%
X140255000Y-75185000D03*
X140255000Y-78110000D03*
%TD*%
D14*
%TO.C,R16*%
X222650000Y-164225000D03*
X222650000Y-161300000D03*
%TD*%
D16*
%TO.C,R4*%
X81817000Y-172575000D03*
X84742000Y-172575000D03*
%TD*%
D36*
%TO.C,C19*%
X226636500Y-197973000D03*
X229761500Y-197973000D03*
%TD*%
D13*
%TO.C,U3*%
X87460000Y-131350000D03*
X88730000Y-131350000D03*
X90000000Y-131350000D03*
X91270000Y-131350000D03*
X92540000Y-131350000D03*
X93810000Y-131350000D03*
X95080000Y-131350000D03*
X96350000Y-131350000D03*
X97620000Y-131350000D03*
X98890000Y-131350000D03*
X100160000Y-131350000D03*
X101430000Y-131350000D03*
X101430000Y-140650000D03*
X100160000Y-140650000D03*
X98890000Y-140650000D03*
X97620000Y-140650000D03*
X96350000Y-140650000D03*
X95080000Y-140650000D03*
X93810000Y-140650000D03*
X92540000Y-140650000D03*
X91270000Y-140650000D03*
X90000000Y-140650000D03*
X88730000Y-140650000D03*
X87460000Y-140650000D03*
%TD*%
D34*
%TO.C,RV2*%
X311155000Y-155145000D03*
D35*
X316655000Y-156295000D03*
D34*
X311155000Y-157445000D03*
%TD*%
D37*
%TO.C,U25*%
X222074000Y-193598000D03*
X219774000Y-193598000D03*
D38*
X219774000Y-187298000D03*
D37*
X217474000Y-193598000D03*
%TD*%
D32*
%TO.C,C6*%
X258255000Y-92485000D03*
X258255000Y-95610000D03*
%TD*%
D24*
%TO.C,R25*%
X202079000Y-193683000D03*
X204079000Y-193683000D03*
%TD*%
D34*
%TO.C,RV3*%
X239605000Y-82610000D03*
D39*
X240755000Y-77110000D03*
D34*
X241905000Y-82610000D03*
%TD*%
D17*
%TO.C,C5*%
X105410000Y-139275000D03*
X105410000Y-132875000D03*
%TD*%
D27*
%TO.C,D13*%
X201074000Y-185868000D03*
X201074000Y-187443000D03*
%TD*%
D17*
%TO.C,C20*%
X229596000Y-193782000D03*
X229596000Y-187382000D03*
%TD*%
D40*
%TO.C,U16*%
X248045000Y-98410000D03*
X246775000Y-98410000D03*
X245505000Y-98410000D03*
X244235000Y-98410000D03*
X242965000Y-98410000D03*
X241695000Y-98410000D03*
X240425000Y-98410000D03*
X239155000Y-98410000D03*
X237885000Y-98410000D03*
X236615000Y-98410000D03*
X235345000Y-98410000D03*
X234075000Y-98410000D03*
X234075000Y-89110000D03*
X235345000Y-89110000D03*
X236615000Y-89110000D03*
X237885000Y-89110000D03*
X239155000Y-89110000D03*
X240425000Y-89110000D03*
X241695000Y-89110000D03*
X242965000Y-89110000D03*
X244235000Y-89110000D03*
X245505000Y-89110000D03*
X246775000Y-89110000D03*
X248045000Y-89110000D03*
%TD*%
D10*
%TO.C,C13*%
X231800000Y-175400000D03*
X231800000Y-172275000D03*
%TD*%
%TO.C,C24*%
X147905000Y-138070000D03*
X147905000Y-134945000D03*
%TD*%
D11*
%TO.C,R20*%
X270702500Y-178435000D03*
X267777500Y-178435000D03*
%TD*%
%TO.C,R2*%
X84774500Y-169125000D03*
X81849500Y-169125000D03*
%TD*%
D13*
%TO.C,U29*%
X279395000Y-131350000D03*
X280665000Y-131350000D03*
X281935000Y-131350000D03*
X283205000Y-131350000D03*
X284475000Y-131350000D03*
X285745000Y-131350000D03*
X287015000Y-131350000D03*
X288285000Y-131350000D03*
X289555000Y-131350000D03*
X290825000Y-131350000D03*
X292095000Y-131350000D03*
X293365000Y-131350000D03*
X293365000Y-140650000D03*
X292095000Y-140650000D03*
X290825000Y-140650000D03*
X289555000Y-140650000D03*
X288285000Y-140650000D03*
X287015000Y-140650000D03*
X285745000Y-140650000D03*
X284475000Y-140650000D03*
X283205000Y-140650000D03*
X281935000Y-140650000D03*
X280665000Y-140650000D03*
X279395000Y-140650000D03*
%TD*%
D41*
%TO.C,L1*%
X257350000Y-164925000D03*
X263750000Y-164925000D03*
%TD*%
D10*
%TO.C,C17*%
X204824000Y-189848000D03*
X204824000Y-186723000D03*
%TD*%
D13*
%TO.C,U31*%
X311430000Y-131350000D03*
X312700000Y-131350000D03*
X313970000Y-131350000D03*
X315240000Y-131350000D03*
X316510000Y-131350000D03*
X317780000Y-131350000D03*
X319050000Y-131350000D03*
X320320000Y-131350000D03*
X321590000Y-131350000D03*
X322860000Y-131350000D03*
X324130000Y-131350000D03*
X325400000Y-131350000D03*
X325400000Y-140650000D03*
X324130000Y-140650000D03*
X322860000Y-140650000D03*
X321590000Y-140650000D03*
X320320000Y-140650000D03*
X319050000Y-140650000D03*
X317780000Y-140650000D03*
X316510000Y-140650000D03*
X315240000Y-140650000D03*
X313970000Y-140650000D03*
X312700000Y-140650000D03*
X311430000Y-140650000D03*
%TD*%
D17*
%TO.C,C14*%
X225300000Y-179300000D03*
X225300000Y-172900000D03*
%TD*%
D42*
%TO.C,U1*%
X323880000Y-98150000D03*
X325280000Y-98150000D03*
X326680000Y-98150000D03*
X323880000Y-96750000D03*
X325280000Y-96750000D03*
X326680000Y-96750000D03*
X323880000Y-95350000D03*
X325280000Y-95350000D03*
X326680000Y-95350000D03*
D43*
X333000000Y-104000000D03*
X331730000Y-104000000D03*
X330460000Y-104000000D03*
X329190000Y-104000000D03*
X327920000Y-104000000D03*
X326650000Y-104000000D03*
X325380000Y-104000000D03*
X324110000Y-104000000D03*
X322840000Y-104000000D03*
X321570000Y-104000000D03*
X320300000Y-104000000D03*
X319030000Y-104000000D03*
X317760000Y-104000000D03*
X316490000Y-104000000D03*
D44*
X315240000Y-102235000D03*
X315240000Y-100965000D03*
X315240000Y-99695000D03*
X315240000Y-98425000D03*
X315240000Y-97155000D03*
X315240000Y-95885000D03*
X315240000Y-94615000D03*
X315240000Y-93345000D03*
X315240000Y-92075000D03*
X315240000Y-90805000D03*
X315240000Y-89535000D03*
X315240000Y-88265000D03*
D43*
X316490000Y-86500000D03*
X317760000Y-86500000D03*
X319030000Y-86500000D03*
X320300000Y-86500000D03*
X321570000Y-86500000D03*
X322840000Y-86500000D03*
X324110000Y-86500000D03*
X325380000Y-86500000D03*
X326650000Y-86500000D03*
X327920000Y-86500000D03*
X329190000Y-86500000D03*
X330460000Y-86500000D03*
X331730000Y-86500000D03*
X333000000Y-86500000D03*
%TD*%
D10*
%TO.C,C32*%
X276395000Y-137775000D03*
X276395000Y-134650000D03*
%TD*%
D20*
%TO.C,R10*%
X276255000Y-75185000D03*
X276255000Y-78110000D03*
%TD*%
D45*
%TO.C,U21*%
X263700000Y-185910000D03*
X265400000Y-185910000D03*
X267100000Y-185910000D03*
D46*
X269875000Y-192635000D03*
X264325000Y-192635000D03*
X269875000Y-197485000D03*
X264325000Y-197485000D03*
D45*
X268800000Y-185910000D03*
X270500000Y-185910000D03*
%TD*%
M02*
