G04 #@! TF.GenerationSoftware,KiCad,Pcbnew,8.0.4*
G04 #@! TF.CreationDate,2024-09-13T17:14:12+02:00*
G04 #@! TF.ProjectId,DigiSlatePlus,44696769-536c-4617-9465-506c75732e6b,rev?*
G04 #@! TF.SameCoordinates,Original*
G04 #@! TF.FileFunction,Soldermask,Top*
G04 #@! TF.FilePolarity,Negative*
%FSLAX46Y46*%
G04 Gerber Fmt 4.6, Leading zero omitted, Abs format (unit mm)*
G04 Created by KiCad (PCBNEW 8.0.4) date 2024-09-13 17:14:12*
%MOMM*%
%LPD*%
G01*
G04 APERTURE LIST*
G04 Aperture macros list*
%AMRoundRect*
0 Rectangle with rounded corners*
0 $1 Rounding radius*
0 $2 $3 $4 $5 $6 $7 $8 $9 X,Y pos of 4 corners*
0 Add a 4 corners polygon primitive as box body*
4,1,4,$2,$3,$4,$5,$6,$7,$8,$9,$2,$3,0*
0 Add four circle primitives for the rounded corners*
1,1,$1+$1,$2,$3*
1,1,$1+$1,$4,$5*
1,1,$1+$1,$6,$7*
1,1,$1+$1,$8,$9*
0 Add four rect primitives between the rounded corners*
20,1,$1+$1,$2,$3,$4,$5,0*
20,1,$1+$1,$4,$5,$6,$7,0*
20,1,$1+$1,$6,$7,$8,$9,0*
20,1,$1+$1,$8,$9,$2,$3,0*%
G04 Aperture macros list end*
%ADD10RoundRect,0.250000X-0.650000X0.412500X-0.650000X-0.412500X0.650000X-0.412500X0.650000X0.412500X0*%
%ADD11RoundRect,0.250000X-0.450000X0.350000X-0.450000X-0.350000X0.450000X-0.350000X0.450000X0.350000X0*%
%ADD12RoundRect,0.250000X0.650000X-0.412500X0.650000X0.412500X-0.650000X0.412500X-0.650000X-0.412500X0*%
%ADD13R,1.524000X1.524000*%
%ADD14C,1.524000*%
%ADD15C,5.600000*%
%ADD16RoundRect,0.250000X0.625000X-0.312500X0.625000X0.312500X-0.625000X0.312500X-0.625000X-0.312500X0*%
%ADD17R,1.800000X1.800000*%
%ADD18C,1.800000*%
%ADD19RoundRect,0.250000X-0.412500X-0.650000X0.412500X-0.650000X0.412500X0.650000X-0.412500X0.650000X0*%
%ADD20RoundRect,0.250000X0.312500X0.625000X-0.312500X0.625000X-0.312500X-0.625000X0.312500X-0.625000X0*%
%ADD21R,0.431800X1.333500*%
%ADD22RoundRect,0.150000X-0.512500X-0.150000X0.512500X-0.150000X0.512500X0.150000X-0.512500X0.150000X0*%
%ADD23RoundRect,0.250000X-0.625000X0.312500X-0.625000X-0.312500X0.625000X-0.312500X0.625000X0.312500X0*%
%ADD24RoundRect,0.250000X-0.350000X-0.450000X0.350000X-0.450000X0.350000X0.450000X-0.350000X0.450000X0*%
%ADD25RoundRect,0.250000X0.500000X-0.950000X0.500000X0.950000X-0.500000X0.950000X-0.500000X-0.950000X0*%
%ADD26RoundRect,0.250000X0.500000X-0.275000X0.500000X0.275000X-0.500000X0.275000X-0.500000X-0.275000X0*%
%ADD27RoundRect,0.150000X0.150000X-0.587500X0.150000X0.587500X-0.150000X0.587500X-0.150000X-0.587500X0*%
%ADD28R,1.100000X0.400000*%
%ADD29RoundRect,0.250000X0.512000X-0.512000X0.512000X0.512000X-0.512000X0.512000X-0.512000X-0.512000X0*%
%ADD30RoundRect,0.725000X0.975000X0.725000X-0.975000X0.725000X-0.975000X-0.725000X0.975000X-0.725000X0*%
%ADD31C,1.200000*%
%ADD32O,1.200000X2.200000*%
%ADD33O,1.600000X2.300000*%
%ADD34O,2.200000X1.200000*%
%ADD35O,1.600000X2.500000*%
%ADD36R,0.850000X0.850000*%
%ADD37O,2.200000X3.500000*%
%ADD38R,1.500000X2.500000*%
%ADD39O,1.500000X2.500000*%
%ADD40C,1.440000*%
%ADD41C,1.397000*%
%ADD42RoundRect,0.250000X0.750000X-0.600000X0.750000X0.600000X-0.750000X0.600000X-0.750000X-0.600000X0*%
%ADD43O,2.000000X1.700000*%
%ADD44C,3.000000*%
%ADD45R,1.800000X2.600000*%
%ADD46O,1.800000X2.600000*%
%ADD47R,1.600000X1.600000*%
%ADD48C,1.600000*%
%ADD49C,4.000000*%
%ADD50RoundRect,0.250000X0.600000X0.750000X-0.600000X0.750000X-0.600000X-0.750000X0.600000X-0.750000X0*%
%ADD51O,1.700000X2.000000*%
%ADD52R,2.100000X2.100000*%
%ADD53C,2.100000*%
%ADD54RoundRect,0.250000X-0.725000X0.600000X-0.725000X-0.600000X0.725000X-0.600000X0.725000X0.600000X0*%
%ADD55O,1.950000X1.700000*%
%ADD56R,3.000000X4.500000*%
%ADD57RoundRect,0.750000X0.750000X1.000000X-0.750000X1.000000X-0.750000X-1.000000X0.750000X-1.000000X0*%
%ADD58RoundRect,0.750000X1.000000X0.750000X-1.000000X0.750000X-1.000000X-0.750000X1.000000X-0.750000X0*%
%ADD59C,0.600000*%
%ADD60C,1.000000*%
G04 APERTURE END LIST*
D10*
X235320000Y-166085000D03*
X235320000Y-169210000D03*
D11*
X221670000Y-171860000D03*
X221670000Y-173860000D03*
D12*
X187960000Y-185420000D03*
X187960000Y-182295000D03*
D13*
X213600000Y-148000000D03*
D14*
X216140000Y-148000000D03*
X218680000Y-148000000D03*
X221220000Y-148000000D03*
X223760000Y-148000000D03*
X226300000Y-148000000D03*
X228840000Y-148000000D03*
X231380000Y-148000000D03*
X231380000Y-124000000D03*
X228840000Y-124000000D03*
X226300000Y-124000000D03*
X223760000Y-124000000D03*
X221220000Y-124000000D03*
X218680000Y-124000000D03*
X216140000Y-124000000D03*
X213600000Y-124000000D03*
D13*
X117555000Y-148000000D03*
D14*
X120095000Y-148000000D03*
X122635000Y-148000000D03*
X125175000Y-148000000D03*
X127715000Y-148000000D03*
X130255000Y-148000000D03*
X132795000Y-148000000D03*
X135335000Y-148000000D03*
X135335000Y-124000000D03*
X132795000Y-124000000D03*
X130255000Y-124000000D03*
X127715000Y-124000000D03*
X125175000Y-124000000D03*
X122635000Y-124000000D03*
X120095000Y-124000000D03*
X117555000Y-124000000D03*
D15*
X207000000Y-70000000D03*
D16*
X191770000Y-177800000D03*
X191770000Y-174875000D03*
D13*
X309525000Y-148000000D03*
D14*
X312065000Y-148000000D03*
X314605000Y-148000000D03*
X317145000Y-148000000D03*
X319685000Y-148000000D03*
X322225000Y-148000000D03*
X324765000Y-148000000D03*
X327305000Y-148000000D03*
X327305000Y-124000000D03*
X324765000Y-124000000D03*
X322225000Y-124000000D03*
X319685000Y-124000000D03*
X317145000Y-124000000D03*
X314605000Y-124000000D03*
X312065000Y-124000000D03*
X309525000Y-124000000D03*
D13*
X153175000Y-112890000D03*
D14*
X155715000Y-112890000D03*
X158255000Y-112890000D03*
X160795000Y-112890000D03*
X163335000Y-112890000D03*
X163335000Y-77330000D03*
X160795000Y-77330000D03*
X158255000Y-77330000D03*
X155715000Y-77330000D03*
X153175000Y-77330000D03*
D13*
X221175000Y-112890000D03*
D14*
X223715000Y-112890000D03*
X226255000Y-112890000D03*
X228795000Y-112890000D03*
X231335000Y-112890000D03*
X231335000Y-77330000D03*
X228795000Y-77330000D03*
X226255000Y-77330000D03*
X223715000Y-77330000D03*
X221175000Y-77330000D03*
D13*
X114175000Y-112890000D03*
D14*
X116715000Y-112890000D03*
X119255000Y-112890000D03*
X121795000Y-112890000D03*
X124335000Y-112890000D03*
X124335000Y-77330000D03*
X121795000Y-77330000D03*
X119255000Y-77330000D03*
X116715000Y-77330000D03*
X114175000Y-77330000D03*
D16*
X176530000Y-185420000D03*
X176530000Y-182495000D03*
D15*
X76000000Y-70000000D03*
D13*
X277490000Y-148000000D03*
D14*
X280030000Y-148000000D03*
X282570000Y-148000000D03*
X285110000Y-148000000D03*
X287650000Y-148000000D03*
X290190000Y-148000000D03*
X292730000Y-148000000D03*
X295270000Y-148000000D03*
X295270000Y-124000000D03*
X292730000Y-124000000D03*
X290190000Y-124000000D03*
X287650000Y-124000000D03*
X285110000Y-124000000D03*
X282570000Y-124000000D03*
X280030000Y-124000000D03*
X277490000Y-124000000D03*
D17*
X208255000Y-85650000D03*
D18*
X208255000Y-83110000D03*
D13*
X181555000Y-148000000D03*
D14*
X184095000Y-148000000D03*
X186635000Y-148000000D03*
X189175000Y-148000000D03*
X191715000Y-148000000D03*
X194255000Y-148000000D03*
X196795000Y-148000000D03*
X199335000Y-148000000D03*
X199335000Y-124000000D03*
X196795000Y-124000000D03*
X194255000Y-124000000D03*
X191715000Y-124000000D03*
X189175000Y-124000000D03*
X186635000Y-124000000D03*
X184095000Y-124000000D03*
X181555000Y-124000000D03*
D17*
X140255000Y-86110000D03*
D18*
X140255000Y-83570000D03*
D16*
X192405000Y-185420000D03*
X192405000Y-182495000D03*
D19*
X292875000Y-176000000D03*
X296000000Y-176000000D03*
D13*
X182175000Y-112890000D03*
D14*
X184715000Y-112890000D03*
X187255000Y-112890000D03*
X189795000Y-112890000D03*
X192335000Y-112890000D03*
X192335000Y-77330000D03*
X189795000Y-77330000D03*
X187255000Y-77330000D03*
X184715000Y-77330000D03*
X182175000Y-77330000D03*
D13*
X245410000Y-148000000D03*
D14*
X247950000Y-148000000D03*
X250490000Y-148000000D03*
X253030000Y-148000000D03*
X255570000Y-148000000D03*
X258110000Y-148000000D03*
X260650000Y-148000000D03*
X263190000Y-148000000D03*
X263190000Y-124000000D03*
X260650000Y-124000000D03*
X258110000Y-124000000D03*
X255570000Y-124000000D03*
X253030000Y-124000000D03*
X250490000Y-124000000D03*
X247950000Y-124000000D03*
X245410000Y-124000000D03*
D16*
X172280000Y-185420000D03*
X172280000Y-182495000D03*
D20*
X299843900Y-196160000D03*
X296918900Y-196160000D03*
D21*
X245570001Y-171017250D03*
X246219999Y-171017250D03*
X246870001Y-171017250D03*
X247519999Y-171017250D03*
X247519999Y-166584950D03*
X246870001Y-166584950D03*
X246219999Y-166584950D03*
X245570001Y-166584950D03*
D17*
X206255000Y-107110000D03*
D18*
X206255000Y-104570000D03*
D22*
X226170000Y-169110000D03*
X226170000Y-170060000D03*
X226170000Y-171010000D03*
X228445000Y-171010000D03*
X228445000Y-170060000D03*
X228445000Y-169110000D03*
D17*
X276255000Y-85650000D03*
D18*
X276255000Y-83110000D03*
D15*
X76000000Y-202000000D03*
D23*
X240570000Y-166372500D03*
X240570000Y-169297500D03*
D15*
X338000000Y-202000000D03*
D17*
X205000000Y-160000000D03*
D18*
X207540000Y-160000000D03*
D13*
X318175000Y-112890000D03*
D14*
X320715000Y-112890000D03*
X323255000Y-112890000D03*
X325795000Y-112890000D03*
X328335000Y-112890000D03*
X328335000Y-77330000D03*
X325795000Y-77330000D03*
X323255000Y-77330000D03*
X320715000Y-77330000D03*
X318175000Y-77330000D03*
D13*
X149555000Y-148000000D03*
D14*
X152095000Y-148000000D03*
X154635000Y-148000000D03*
X157175000Y-148000000D03*
X159715000Y-148000000D03*
X162255000Y-148000000D03*
X164795000Y-148000000D03*
X167335000Y-148000000D03*
X167335000Y-124000000D03*
X164795000Y-124000000D03*
X162255000Y-124000000D03*
X159715000Y-124000000D03*
X157175000Y-124000000D03*
X154635000Y-124000000D03*
X152095000Y-124000000D03*
X149555000Y-124000000D03*
D13*
X250175000Y-112890000D03*
D14*
X252715000Y-112890000D03*
X255255000Y-112890000D03*
X257795000Y-112890000D03*
X260335000Y-112890000D03*
X260335000Y-77330000D03*
X257795000Y-77330000D03*
X255255000Y-77330000D03*
X252715000Y-77330000D03*
X250175000Y-77330000D03*
D15*
X328000000Y-70000000D03*
D13*
X289175000Y-112890000D03*
D14*
X291715000Y-112890000D03*
X294255000Y-112890000D03*
X296795000Y-112890000D03*
X299335000Y-112890000D03*
X299335000Y-77330000D03*
X296795000Y-77330000D03*
X294255000Y-77330000D03*
X291715000Y-77330000D03*
X289175000Y-77330000D03*
D20*
X299843900Y-192660000D03*
X296918900Y-192660000D03*
D24*
X247174000Y-176784000D03*
X249174000Y-176784000D03*
D15*
X207000000Y-202000000D03*
D25*
X182245000Y-183045000D03*
D26*
X182245000Y-185420000D03*
D13*
X85555000Y-148000000D03*
D14*
X88095000Y-148000000D03*
X90635000Y-148000000D03*
X93175000Y-148000000D03*
X95715000Y-148000000D03*
X98255000Y-148000000D03*
X100795000Y-148000000D03*
X103335000Y-148000000D03*
X103335000Y-124000000D03*
X100795000Y-124000000D03*
X98255000Y-124000000D03*
X95715000Y-124000000D03*
X93175000Y-124000000D03*
X90635000Y-124000000D03*
X88095000Y-124000000D03*
X85555000Y-124000000D03*
D17*
X138255000Y-107650000D03*
D18*
X138255000Y-105110000D03*
D13*
X85175000Y-112890000D03*
D14*
X87715000Y-112890000D03*
X90255000Y-112890000D03*
X92795000Y-112890000D03*
X95335000Y-112890000D03*
X95335000Y-77330000D03*
X92795000Y-77330000D03*
X90255000Y-77330000D03*
X87715000Y-77330000D03*
X85175000Y-77330000D03*
D17*
X274255000Y-107110000D03*
D18*
X274255000Y-104570000D03*
D27*
X184785000Y-177165000D03*
X186685000Y-177165000D03*
X185735000Y-175290000D03*
D28*
X229720000Y-178060000D03*
X229720000Y-177410000D03*
X229720000Y-176760000D03*
X229720000Y-176110000D03*
X225420000Y-176110000D03*
X225420000Y-176760000D03*
X225420000Y-177410000D03*
X225420000Y-178060000D03*
D17*
X325000000Y-194310000D03*
D18*
X322460000Y-194310000D03*
D29*
X73799500Y-175135000D03*
D14*
X73799500Y-170135000D03*
X73799500Y-172635000D03*
X76299500Y-175135000D03*
X76299500Y-170135000D03*
D30*
X74849500Y-166185000D03*
X74849500Y-179085000D03*
D17*
X311250000Y-191980000D03*
D18*
X311250000Y-194520000D03*
X311250000Y-197060000D03*
D31*
X182250000Y-203795000D03*
X182250000Y-201295000D03*
X177250000Y-196295000D03*
X172250000Y-203795000D03*
X172250000Y-201295000D03*
D32*
X182250000Y-196295000D03*
D33*
X179750000Y-196295000D03*
D34*
X177250000Y-201295000D03*
D32*
X172250000Y-196295000D03*
D35*
X174750000Y-196295000D03*
D36*
X324200000Y-117400000D03*
D37*
X244475000Y-203740000D03*
X236275000Y-203740000D03*
D38*
X242375000Y-203740000D03*
D39*
X240375000Y-203740000D03*
X238375000Y-203740000D03*
D40*
X272415000Y-170815000D03*
X272415000Y-168275000D03*
X272415000Y-165735000D03*
D41*
X98760000Y-198540000D03*
X106380000Y-198540000D03*
X98760000Y-193460000D03*
X106380000Y-193460000D03*
D31*
X273610000Y-95545000D03*
D42*
X275610000Y-93945000D03*
D43*
X275610000Y-91445000D03*
D41*
X146380000Y-198540000D03*
X154000000Y-198540000D03*
X146380000Y-193460000D03*
X154000000Y-193460000D03*
X130380000Y-198540000D03*
X138000000Y-198540000D03*
X130380000Y-193460000D03*
X138000000Y-193460000D03*
D44*
X164000000Y-187643200D03*
X164000000Y-156642500D03*
X89001420Y-187643200D03*
X89000900Y-156642500D03*
D45*
X158500900Y-156642500D03*
D46*
X155960900Y-156642500D03*
X153420900Y-156642500D03*
X150880900Y-156642500D03*
X148340900Y-156642500D03*
X145800900Y-156642500D03*
X143260900Y-156642500D03*
X140720900Y-156642500D03*
X138180900Y-156642500D03*
X135640900Y-156642500D03*
X133100900Y-156642500D03*
X130560900Y-156642500D03*
X128020900Y-156642500D03*
X125480900Y-156642500D03*
X122940900Y-156642500D03*
X120400900Y-156642500D03*
D47*
X329640000Y-170000000D03*
D48*
X329640000Y-167500000D03*
X331640000Y-167500000D03*
X331640000Y-170000000D03*
D49*
X334500000Y-162750000D03*
X334500000Y-174750000D03*
D31*
X242904000Y-179384000D03*
D50*
X241304000Y-177384000D03*
D51*
X238804000Y-177384000D03*
D41*
X114380000Y-198620000D03*
X122000000Y-198620000D03*
X114380000Y-193540000D03*
X122000000Y-193540000D03*
D52*
X304470000Y-175965000D03*
D53*
X284470000Y-175965000D03*
D31*
X317250000Y-165650000D03*
D54*
X315250000Y-167250000D03*
D55*
X315250000Y-169750000D03*
X315250000Y-172250000D03*
X315250000Y-174750000D03*
X315250000Y-177250000D03*
D56*
X331600000Y-190000000D03*
D57*
X337600000Y-190000000D03*
D58*
X334100000Y-194800000D03*
D36*
X302000000Y-116500000D03*
D31*
X196250000Y-203795000D03*
X196250000Y-201295000D03*
X191250000Y-196295000D03*
X186250000Y-203795000D03*
X186250000Y-201295000D03*
D32*
X196250000Y-196295000D03*
D33*
X193750000Y-196295000D03*
D34*
X191250000Y-201295000D03*
D32*
X186250000Y-196295000D03*
D35*
X188750000Y-196295000D03*
D59*
X277500000Y-163000000D03*
X285750000Y-96520000D03*
X266500000Y-176000000D03*
X134900000Y-137100000D03*
X78500000Y-170100000D03*
X227500000Y-176500000D03*
X315000000Y-81100000D03*
X123500000Y-162600000D03*
X158500000Y-152750000D03*
X276000000Y-186000000D03*
X276000000Y-191000000D03*
X79300000Y-175000000D03*
X134900000Y-135500000D03*
X266500000Y-175000000D03*
X315800000Y-81100000D03*
X244500000Y-128500000D03*
X122600000Y-162600000D03*
X81600000Y-131400000D03*
X291800000Y-104600000D03*
X81600000Y-129800000D03*
X295600000Y-106000000D03*
X81600000Y-132200000D03*
X134900000Y-134700000D03*
X78500000Y-175000000D03*
X81600000Y-130600000D03*
X114500000Y-128400000D03*
X119000000Y-126000000D03*
X275500000Y-163000000D03*
X277000000Y-186000000D03*
X124400000Y-162600000D03*
X279000000Y-186000000D03*
X275000000Y-191000000D03*
X114500000Y-126000000D03*
X148750000Y-152750000D03*
X276500000Y-163000000D03*
X321000000Y-177000000D03*
X81600000Y-133000000D03*
X266500000Y-173000000D03*
X257500000Y-128500000D03*
X273100000Y-120700000D03*
X134900000Y-136300000D03*
X278000000Y-191000000D03*
X126200000Y-162600000D03*
X277000000Y-191000000D03*
X134900000Y-137900000D03*
X114500000Y-127600000D03*
X321000000Y-175000000D03*
X244000000Y-96000000D03*
X273000000Y-94000000D03*
X314200000Y-81100000D03*
X216000000Y-126000000D03*
X240000000Y-94500000D03*
X261500000Y-95500000D03*
X79300000Y-170100000D03*
X266500000Y-172000000D03*
X278000000Y-186000000D03*
X279500000Y-163000000D03*
X321000000Y-176000000D03*
X114500000Y-129200000D03*
X266500000Y-174000000D03*
X331000000Y-89500000D03*
X321000000Y-178000000D03*
X226000000Y-133000000D03*
X275000000Y-186000000D03*
X321000000Y-179000000D03*
X252000000Y-128500000D03*
X278500000Y-163000000D03*
X272300000Y-120700000D03*
X213000000Y-126000000D03*
X279000000Y-191000000D03*
X125300000Y-162600000D03*
X114500000Y-126800000D03*
D60*
X286031400Y-138914100D03*
X296741700Y-141350300D03*
D59*
X322316700Y-88541700D03*
X312984900Y-91711200D03*
X239245700Y-92226100D03*
X326515400Y-120209900D03*
X245785600Y-102003600D03*
X316953000Y-101229100D03*
X198095300Y-165237600D03*
X318793900Y-102608900D03*
X293505100Y-102358100D03*
X329561300Y-108504300D03*
X329253200Y-115186600D03*
X313636600Y-100053300D03*
X293048300Y-100599700D03*
X262502200Y-99269400D03*
X323615300Y-88199700D03*
X237478500Y-100305400D03*
X288158300Y-109273200D03*
X233561000Y-115305400D03*
X218901000Y-115204700D03*
X230757600Y-75503400D03*
X198095300Y-75620300D03*
X318832900Y-109345100D03*
X236276200Y-100179400D03*
X318437100Y-101082900D03*
X304198500Y-101055800D03*
X143826300Y-152109900D03*
X324595700Y-109780300D03*
X328600000Y-89200000D03*
X321831000Y-171842700D03*
X332200000Y-109900000D03*
X328678100Y-91320800D03*
X305727700Y-139497600D03*
X304559700Y-137950100D03*
X271634400Y-136399100D03*
X272194900Y-85155600D03*
X332345500Y-88083900D03*
X274646800Y-136918500D03*
X286164700Y-108269700D03*
X326151800Y-106759200D03*
X308813700Y-118475800D03*
X271599900Y-87644500D03*
X331373500Y-87986200D03*
X272873400Y-136451400D03*
X146764400Y-141556400D03*
X324728200Y-115151000D03*
X311005900Y-92252700D03*
X114446800Y-140021000D03*
X309093200Y-114657800D03*
X313903700Y-90814400D03*
X332769800Y-102472500D03*
X278738800Y-100664200D03*
X183248800Y-163993900D03*
X246140000Y-100867200D03*
X300863000Y-185545900D03*
D60*
X245604100Y-162846500D03*
D59*
X328114600Y-122442500D03*
X260450600Y-164991400D03*
X146792400Y-139944900D03*
X308813700Y-115784700D03*
X132720000Y-142877900D03*
X198482700Y-139791500D03*
X298025800Y-134606600D03*
X233258600Y-88609000D03*
X308439800Y-124993100D03*
X230739600Y-139710500D03*
X103077700Y-142909000D03*
X166324100Y-140582700D03*
X325260300Y-142318200D03*
X317171000Y-91365500D03*
X198495600Y-135974800D03*
X218880400Y-105872800D03*
X247927900Y-99944100D03*
X313456100Y-97524700D03*
X309187400Y-99922200D03*
X301231800Y-111845300D03*
X251331900Y-111292500D03*
X230416000Y-79946200D03*
X141746100Y-75292100D03*
X241391700Y-81055600D03*
X245464900Y-85426000D03*
X94169800Y-115331800D03*
X304201300Y-78179300D03*
X188183500Y-78280500D03*
X116598000Y-75644900D03*
X156912400Y-111154200D03*
X141678600Y-111046500D03*
X227788300Y-114616000D03*
X194192000Y-114538300D03*
D60*
X331315800Y-121619700D03*
X233726900Y-192676500D03*
D59*
X162516600Y-129237700D03*
X155740200Y-129239200D03*
X200407000Y-133016500D03*
X194449700Y-133090700D03*
X188185400Y-132893300D03*
X127399000Y-142218500D03*
X158328700Y-138078600D03*
X222970200Y-138550700D03*
X316461700Y-142566300D03*
X255202000Y-138337900D03*
X287509000Y-138963800D03*
X192298600Y-139081100D03*
X185131800Y-137062500D03*
X96270300Y-142258800D03*
X310927500Y-153449300D03*
X117797700Y-138850700D03*
X93895600Y-136566700D03*
X94788300Y-132925600D03*
X93615000Y-133206200D03*
X94206900Y-142789000D03*
X88694100Y-138622200D03*
X125452100Y-143233100D03*
X124376200Y-138514500D03*
X148459900Y-139315800D03*
X123016600Y-150692800D03*
X127447100Y-144522200D03*
X129543000Y-143663500D03*
X158989500Y-142427700D03*
X160032400Y-127421200D03*
X152768700Y-138780200D03*
X156564600Y-126730900D03*
X156813900Y-133576200D03*
X161773100Y-142448000D03*
X160338800Y-144758900D03*
X193232400Y-137134900D03*
X185769200Y-139075400D03*
X185132900Y-133185200D03*
X190760200Y-135015200D03*
X189501500Y-128864100D03*
X189176400Y-139240800D03*
X229112900Y-137036500D03*
X221306800Y-136775800D03*
X223435700Y-142782900D03*
X225387900Y-129694400D03*
X217352900Y-137905800D03*
X225700500Y-142704200D03*
X253688800Y-138945000D03*
X267345200Y-139032300D03*
X254304400Y-142086500D03*
X255500200Y-127486800D03*
X245438600Y-144784600D03*
X249605100Y-136862600D03*
X255315100Y-133325000D03*
X253716700Y-142750600D03*
X255032700Y-146083100D03*
X285568200Y-142265400D03*
X266013500Y-129500600D03*
X277938100Y-132065200D03*
X308757300Y-139653200D03*
X285196200Y-136262500D03*
X281076600Y-127209600D03*
X326522900Y-139931200D03*
X322040600Y-142566300D03*
X313676400Y-133312800D03*
X317081100Y-135249700D03*
X326997800Y-132387500D03*
X316216300Y-134751000D03*
X313007200Y-138804600D03*
X134746500Y-130033500D03*
X230409300Y-103418900D03*
X196463600Y-129427100D03*
X164519200Y-129770800D03*
X309785400Y-93434600D03*
X230527800Y-131520400D03*
X260067000Y-133276600D03*
X332400000Y-112296349D03*
X325282800Y-129433200D03*
X294757500Y-130559300D03*
M02*
