%TF.GenerationSoftware,KiCad,Pcbnew,8.0.4*%
%TF.CreationDate,2024-09-13T09:32:51+02:00*%
%TF.ProjectId,DigiSlatePlus,44696769-536c-4617-9465-506c75732e6b,rev?*%
%TF.SameCoordinates,Original*%
%TF.FileFunction,Soldermask,Top*%
%TF.FilePolarity,Negative*%
%FSLAX46Y46*%
G04 Gerber Fmt 4.6, Leading zero omitted, Abs format (unit mm)*
G04 Created by KiCad (PCBNEW 8.0.4) date 2024-09-13 09:32:51*
%MOMM*%
%LPD*%
G01*
G04 APERTURE LIST*
G04 Aperture macros list*
%AMRoundRect*
0 Rectangle with rounded corners*
0 $1 Rounding radius*
0 $2 $3 $4 $5 $6 $7 $8 $9 X,Y pos of 4 corners*
0 Add a 4 corners polygon primitive as box body*
4,1,4,$2,$3,$4,$5,$6,$7,$8,$9,$2,$3,0*
0 Add four circle primitives for the rounded corners*
1,1,$1+$1,$2,$3*
1,1,$1+$1,$4,$5*
1,1,$1+$1,$6,$7*
1,1,$1+$1,$8,$9*
0 Add four rect primitives between the rounded corners*
20,1,$1+$1,$2,$3,$4,$5,0*
20,1,$1+$1,$4,$5,$6,$7,0*
20,1,$1+$1,$6,$7,$8,$9,0*
20,1,$1+$1,$8,$9,$2,$3,0*%
G04 Aperture macros list end*
%ADD10R,3.000000X4.500000*%
%ADD11RoundRect,0.750000X0.750000X1.000000X-0.750000X1.000000X-0.750000X-1.000000X0.750000X-1.000000X0*%
%ADD12RoundRect,0.750000X1.000000X0.750000X-1.000000X0.750000X-1.000000X-0.750000X1.000000X-0.750000X0*%
%ADD13R,1.600000X1.600000*%
%ADD14C,1.600000*%
%ADD15C,4.000000*%
%ADD16RoundRect,0.250000X-0.650000X0.412500X-0.650000X-0.412500X0.650000X-0.412500X0.650000X0.412500X0*%
%ADD17RoundRect,0.250000X-0.450000X0.350000X-0.450000X-0.350000X0.450000X-0.350000X0.450000X0.350000X0*%
%ADD18RoundRect,0.250000X0.650000X-0.412500X0.650000X0.412500X-0.650000X0.412500X-0.650000X-0.412500X0*%
%ADD19R,1.524000X1.524000*%
%ADD20C,1.524000*%
%ADD21C,5.600000*%
%ADD22RoundRect,0.250000X0.625000X-0.312500X0.625000X0.312500X-0.625000X0.312500X-0.625000X-0.312500X0*%
%ADD23R,1.800000X1.800000*%
%ADD24C,1.800000*%
%ADD25RoundRect,0.250000X-0.412500X-0.650000X0.412500X-0.650000X0.412500X0.650000X-0.412500X0.650000X0*%
%ADD26RoundRect,0.250000X0.312500X0.625000X-0.312500X0.625000X-0.312500X-0.625000X0.312500X-0.625000X0*%
%ADD27R,0.431800X1.333500*%
%ADD28RoundRect,0.150000X-0.512500X-0.150000X0.512500X-0.150000X0.512500X0.150000X-0.512500X0.150000X0*%
%ADD29RoundRect,0.250000X-0.625000X0.312500X-0.625000X-0.312500X0.625000X-0.312500X0.625000X0.312500X0*%
%ADD30RoundRect,0.250000X-0.350000X-0.450000X0.350000X-0.450000X0.350000X0.450000X-0.350000X0.450000X0*%
%ADD31RoundRect,0.250000X0.500000X-0.950000X0.500000X0.950000X-0.500000X0.950000X-0.500000X-0.950000X0*%
%ADD32RoundRect,0.250000X0.500000X-0.275000X0.500000X0.275000X-0.500000X0.275000X-0.500000X-0.275000X0*%
%ADD33RoundRect,0.150000X0.150000X-0.587500X0.150000X0.587500X-0.150000X0.587500X-0.150000X-0.587500X0*%
%ADD34R,1.100000X0.400000*%
%ADD35RoundRect,0.250000X0.512000X-0.512000X0.512000X0.512000X-0.512000X0.512000X-0.512000X-0.512000X0*%
%ADD36RoundRect,0.725000X0.975000X0.725000X-0.975000X0.725000X-0.975000X-0.725000X0.975000X-0.725000X0*%
%ADD37C,1.200000*%
%ADD38O,1.200000X2.200000*%
%ADD39O,1.600000X2.300000*%
%ADD40O,2.200000X1.200000*%
%ADD41O,1.600000X2.500000*%
%ADD42R,0.850000X0.850000*%
%ADD43O,2.200000X3.500000*%
%ADD44R,1.500000X2.500000*%
%ADD45O,1.500000X2.500000*%
%ADD46C,1.440000*%
%ADD47C,1.397000*%
%ADD48RoundRect,0.250000X0.750000X-0.600000X0.750000X0.600000X-0.750000X0.600000X-0.750000X-0.600000X0*%
%ADD49O,2.000000X1.700000*%
%ADD50C,3.000000*%
%ADD51R,1.800000X2.600000*%
%ADD52O,1.800000X2.600000*%
%ADD53RoundRect,0.250000X0.600000X0.750000X-0.600000X0.750000X-0.600000X-0.750000X0.600000X-0.750000X0*%
%ADD54O,1.700000X2.000000*%
%ADD55R,2.100000X2.100000*%
%ADD56C,2.100000*%
%ADD57RoundRect,0.250000X-0.725000X0.600000X-0.725000X-0.600000X0.725000X-0.600000X0.725000X0.600000X0*%
%ADD58O,1.950000X1.700000*%
G04 APERTURE END LIST*
D10*
%TO.C,J3*%
X331600000Y-190000000D03*
D11*
X337600000Y-190000000D03*
D12*
X334100000Y-194800000D03*
%TD*%
D13*
%TO.C,J2*%
X329640000Y-170000000D03*
D14*
X329640000Y-167500000D03*
X331640000Y-167500000D03*
X331640000Y-170000000D03*
D15*
X334500000Y-174750000D03*
X334500000Y-162750000D03*
%TD*%
D16*
%TO.C,C12*%
X235320000Y-166085000D03*
X235320000Y-169210000D03*
%TD*%
D17*
%TO.C,R21*%
X221670000Y-171860000D03*
X221670000Y-173860000D03*
%TD*%
D18*
%TO.C,C21*%
X187960000Y-185420000D03*
X187960000Y-182295000D03*
%TD*%
D19*
%TO.C,U11*%
X213600000Y-148000000D03*
D20*
X216140000Y-148000000D03*
X218680000Y-148000000D03*
X221220000Y-148000000D03*
X223760000Y-148000000D03*
X226300000Y-148000000D03*
X228840000Y-148000000D03*
X231380000Y-148000000D03*
X231380000Y-124000000D03*
X228840000Y-124000000D03*
X226300000Y-124000000D03*
X223760000Y-124000000D03*
X221220000Y-124000000D03*
X218680000Y-124000000D03*
X216140000Y-124000000D03*
X213600000Y-124000000D03*
%TD*%
D19*
%TO.C,U5*%
X117555000Y-148000000D03*
D20*
X120095000Y-148000000D03*
X122635000Y-148000000D03*
X125175000Y-148000000D03*
X127715000Y-148000000D03*
X130255000Y-148000000D03*
X132795000Y-148000000D03*
X135335000Y-148000000D03*
X135335000Y-124000000D03*
X132795000Y-124000000D03*
X130255000Y-124000000D03*
X127715000Y-124000000D03*
X125175000Y-124000000D03*
X122635000Y-124000000D03*
X120095000Y-124000000D03*
X117555000Y-124000000D03*
%TD*%
D21*
%TO.C,HOLE-2*%
X207000000Y-70000000D03*
%TD*%
D22*
%TO.C,R31*%
X191770000Y-177800000D03*
X191770000Y-174875000D03*
%TD*%
D19*
%TO.C,U32*%
X309525000Y-148000000D03*
D20*
X312065000Y-148000000D03*
X314605000Y-148000000D03*
X317145000Y-148000000D03*
X319685000Y-148000000D03*
X322225000Y-148000000D03*
X324765000Y-148000000D03*
X327305000Y-148000000D03*
X327305000Y-124000000D03*
X324765000Y-124000000D03*
X322225000Y-124000000D03*
X319685000Y-124000000D03*
X317145000Y-124000000D03*
X314605000Y-124000000D03*
X312065000Y-124000000D03*
X309525000Y-124000000D03*
%TD*%
D19*
%TO.C,U14*%
X153175000Y-112890000D03*
D20*
X155715000Y-112890000D03*
X158255000Y-112890000D03*
X160795000Y-112890000D03*
X163335000Y-112890000D03*
X163335000Y-77330000D03*
X160795000Y-77330000D03*
X158255000Y-77330000D03*
X155715000Y-77330000D03*
X153175000Y-77330000D03*
%TD*%
D19*
%TO.C,U17*%
X221175000Y-112890000D03*
D20*
X223715000Y-112890000D03*
X226255000Y-112890000D03*
X228795000Y-112890000D03*
X231335000Y-112890000D03*
X231335000Y-77330000D03*
X228795000Y-77330000D03*
X226255000Y-77330000D03*
X223715000Y-77330000D03*
X221175000Y-77330000D03*
%TD*%
D19*
%TO.C,U13*%
X114175000Y-112890000D03*
D20*
X116715000Y-112890000D03*
X119255000Y-112890000D03*
X121795000Y-112890000D03*
X124335000Y-112890000D03*
X124335000Y-77330000D03*
X121795000Y-77330000D03*
X119255000Y-77330000D03*
X116715000Y-77330000D03*
X114175000Y-77330000D03*
%TD*%
D22*
%TO.C,R34*%
X176530000Y-185420000D03*
X176530000Y-182495000D03*
%TD*%
D21*
%TO.C,HOLE-1*%
X76000000Y-70000000D03*
%TD*%
D19*
%TO.C,U30*%
X277490000Y-148000000D03*
D20*
X280030000Y-148000000D03*
X282570000Y-148000000D03*
X285110000Y-148000000D03*
X287650000Y-148000000D03*
X290190000Y-148000000D03*
X292730000Y-148000000D03*
X295270000Y-148000000D03*
X295270000Y-124000000D03*
X292730000Y-124000000D03*
X290190000Y-124000000D03*
X287650000Y-124000000D03*
X285110000Y-124000000D03*
X282570000Y-124000000D03*
X280030000Y-124000000D03*
X277490000Y-124000000D03*
%TD*%
D23*
%TO.C,D2*%
X208255000Y-85650000D03*
D24*
X208255000Y-83110000D03*
%TD*%
D19*
%TO.C,U9*%
X181555000Y-148000000D03*
D20*
X184095000Y-148000000D03*
X186635000Y-148000000D03*
X189175000Y-148000000D03*
X191715000Y-148000000D03*
X194255000Y-148000000D03*
X196795000Y-148000000D03*
X199335000Y-148000000D03*
X199335000Y-124000000D03*
X196795000Y-124000000D03*
X194255000Y-124000000D03*
X191715000Y-124000000D03*
X189175000Y-124000000D03*
X186635000Y-124000000D03*
X184095000Y-124000000D03*
X181555000Y-124000000D03*
%TD*%
D23*
%TO.C,D1*%
X140255000Y-86110000D03*
D24*
X140255000Y-83570000D03*
%TD*%
D22*
%TO.C,R32*%
X192405000Y-185420000D03*
X192405000Y-182495000D03*
%TD*%
D25*
%TO.C,C3*%
X292875000Y-176000000D03*
X296000000Y-176000000D03*
%TD*%
D19*
%TO.C,U15*%
X182175000Y-112890000D03*
D20*
X184715000Y-112890000D03*
X187255000Y-112890000D03*
X189795000Y-112890000D03*
X192335000Y-112890000D03*
X192335000Y-77330000D03*
X189795000Y-77330000D03*
X187255000Y-77330000D03*
X184715000Y-77330000D03*
X182175000Y-77330000D03*
%TD*%
D19*
%TO.C,U28*%
X245410000Y-148000000D03*
D20*
X247950000Y-148000000D03*
X250490000Y-148000000D03*
X253030000Y-148000000D03*
X255570000Y-148000000D03*
X258110000Y-148000000D03*
X260650000Y-148000000D03*
X263190000Y-148000000D03*
X263190000Y-124000000D03*
X260650000Y-124000000D03*
X258110000Y-124000000D03*
X255570000Y-124000000D03*
X253030000Y-124000000D03*
X250490000Y-124000000D03*
X247950000Y-124000000D03*
X245410000Y-124000000D03*
%TD*%
D22*
%TO.C,R33*%
X172280000Y-185420000D03*
X172280000Y-182495000D03*
%TD*%
D26*
%TO.C,R6*%
X299843900Y-196160000D03*
X296918900Y-196160000D03*
%TD*%
D27*
%TO.C,U23*%
X245570001Y-171017250D03*
X246219999Y-171017250D03*
X246870001Y-171017250D03*
X247519999Y-171017250D03*
X247519999Y-166584950D03*
X246870001Y-166584950D03*
X246219999Y-166584950D03*
X245570001Y-166584950D03*
%TD*%
D23*
%TO.C,D5*%
X206255000Y-107110000D03*
D24*
X206255000Y-104570000D03*
%TD*%
D28*
%TO.C,U22*%
X226170000Y-169110000D03*
X226170000Y-170060000D03*
X226170000Y-171010000D03*
X228445000Y-171010000D03*
X228445000Y-170060000D03*
X228445000Y-169110000D03*
%TD*%
D23*
%TO.C,D3*%
X276255000Y-85650000D03*
D24*
X276255000Y-83110000D03*
%TD*%
D21*
%TO.C,HOLE-4*%
X76000000Y-202000000D03*
%TD*%
D29*
%TO.C,R17*%
X240570000Y-166372500D03*
X240570000Y-169297500D03*
%TD*%
D21*
%TO.C,HOLE-6*%
X338000000Y-202000000D03*
%TD*%
D23*
%TO.C,D7*%
X205000000Y-160000000D03*
D24*
X207540000Y-160000000D03*
%TD*%
D19*
%TO.C,U20*%
X318175000Y-112890000D03*
D20*
X320715000Y-112890000D03*
X323255000Y-112890000D03*
X325795000Y-112890000D03*
X328335000Y-112890000D03*
X328335000Y-77330000D03*
X325795000Y-77330000D03*
X323255000Y-77330000D03*
X320715000Y-77330000D03*
X318175000Y-77330000D03*
%TD*%
D19*
%TO.C,U8*%
X149555000Y-148000000D03*
D20*
X152095000Y-148000000D03*
X154635000Y-148000000D03*
X157175000Y-148000000D03*
X159715000Y-148000000D03*
X162255000Y-148000000D03*
X164795000Y-148000000D03*
X167335000Y-148000000D03*
X167335000Y-124000000D03*
X164795000Y-124000000D03*
X162255000Y-124000000D03*
X159715000Y-124000000D03*
X157175000Y-124000000D03*
X154635000Y-124000000D03*
X152095000Y-124000000D03*
X149555000Y-124000000D03*
%TD*%
D19*
%TO.C,U18*%
X250175000Y-112890000D03*
D20*
X252715000Y-112890000D03*
X255255000Y-112890000D03*
X257795000Y-112890000D03*
X260335000Y-112890000D03*
X260335000Y-77330000D03*
X257795000Y-77330000D03*
X255255000Y-77330000D03*
X252715000Y-77330000D03*
X250175000Y-77330000D03*
%TD*%
D21*
%TO.C,HOLE-3*%
X328000000Y-70000000D03*
%TD*%
D19*
%TO.C,U19*%
X289175000Y-112890000D03*
D20*
X291715000Y-112890000D03*
X294255000Y-112890000D03*
X296795000Y-112890000D03*
X299335000Y-112890000D03*
X299335000Y-77330000D03*
X296795000Y-77330000D03*
X294255000Y-77330000D03*
X291715000Y-77330000D03*
X289175000Y-77330000D03*
%TD*%
D26*
%TO.C,R5*%
X299843900Y-192660000D03*
X296918900Y-192660000D03*
%TD*%
D30*
%TO.C,R22*%
X247174000Y-176784000D03*
X249174000Y-176784000D03*
%TD*%
D21*
%TO.C,HOLE-5*%
X207000000Y-202000000D03*
%TD*%
D31*
%TO.C,D14*%
X182245000Y-183045000D03*
D32*
X182245000Y-185420000D03*
%TD*%
D19*
%TO.C,U26*%
X85555000Y-148000000D03*
D20*
X88095000Y-148000000D03*
X90635000Y-148000000D03*
X93175000Y-148000000D03*
X95715000Y-148000000D03*
X98255000Y-148000000D03*
X100795000Y-148000000D03*
X103335000Y-148000000D03*
X103335000Y-124000000D03*
X100795000Y-124000000D03*
X98255000Y-124000000D03*
X95715000Y-124000000D03*
X93175000Y-124000000D03*
X90635000Y-124000000D03*
X88095000Y-124000000D03*
X85555000Y-124000000D03*
%TD*%
D23*
%TO.C,D4*%
X138255000Y-107650000D03*
D24*
X138255000Y-105110000D03*
%TD*%
D19*
%TO.C,U12*%
X85175000Y-112890000D03*
D20*
X87715000Y-112890000D03*
X90255000Y-112890000D03*
X92795000Y-112890000D03*
X95335000Y-112890000D03*
X95335000Y-77330000D03*
X92795000Y-77330000D03*
X90255000Y-77330000D03*
X87715000Y-77330000D03*
X85175000Y-77330000D03*
%TD*%
D23*
%TO.C,D6*%
X274255000Y-107110000D03*
D24*
X274255000Y-104570000D03*
%TD*%
D33*
%TO.C,Q4*%
X184785000Y-177165000D03*
X186685000Y-177165000D03*
X185735000Y-175290000D03*
%TD*%
D34*
%TO.C,Q3*%
X229720000Y-178060000D03*
X229720000Y-177410000D03*
X229720000Y-176760000D03*
X229720000Y-176110000D03*
X225420000Y-176110000D03*
X225420000Y-176760000D03*
X225420000Y-177410000D03*
X225420000Y-178060000D03*
%TD*%
D23*
%TO.C,D11*%
X325000000Y-194310000D03*
D24*
X322460000Y-194310000D03*
%TD*%
D35*
%TO.C,SW1*%
X73799500Y-175135000D03*
D20*
X73799500Y-170135000D03*
X73799500Y-172635000D03*
X76299500Y-175135000D03*
X76299500Y-170135000D03*
D36*
X74849500Y-166185000D03*
X74849500Y-179085000D03*
%TD*%
D23*
%TO.C,D9*%
X311250000Y-191980000D03*
D24*
X311250000Y-194520000D03*
X311250000Y-197060000D03*
%TD*%
D37*
%TO.C,J8*%
X182250000Y-203795000D03*
X182250000Y-201295000D03*
X177250000Y-196295000D03*
X172250000Y-203795000D03*
X172250000Y-201295000D03*
D38*
X182250000Y-196295000D03*
D39*
X179750000Y-196295000D03*
D40*
X177250000Y-201295000D03*
D38*
X172250000Y-196295000D03*
D41*
X174750000Y-196295000D03*
%TD*%
D42*
%TO.C,J10*%
X324200000Y-117400000D03*
%TD*%
D43*
%TO.C,SW7*%
X244475000Y-203740000D03*
X236275000Y-203740000D03*
D44*
X242375000Y-203740000D03*
D45*
X240375000Y-203740000D03*
X238375000Y-203740000D03*
%TD*%
D46*
%TO.C,RV4*%
X272415000Y-170815000D03*
X272415000Y-168275000D03*
X272415000Y-165735000D03*
%TD*%
D47*
%TO.C,SW5*%
X98760000Y-198540000D03*
X106380000Y-198540000D03*
X98760000Y-193460000D03*
X106380000Y-193460000D03*
%TD*%
D37*
%TO.C,J6*%
X273610000Y-95545000D03*
D48*
X275610000Y-93945000D03*
D49*
X275610000Y-91445000D03*
%TD*%
D47*
%TO.C,SW2*%
X146380000Y-198540000D03*
X154000000Y-198540000D03*
X146380000Y-193460000D03*
X154000000Y-193460000D03*
%TD*%
%TO.C,SW3*%
X130380000Y-198540000D03*
X138000000Y-198540000D03*
X130380000Y-193460000D03*
X138000000Y-193460000D03*
%TD*%
D50*
%TO.C,DS1*%
X164000000Y-187643200D03*
X164000000Y-156642500D03*
X89001420Y-187643200D03*
X89000900Y-156642500D03*
D51*
X158500900Y-156642500D03*
D52*
X155960900Y-156642500D03*
X153420900Y-156642500D03*
X150880900Y-156642500D03*
X148340900Y-156642500D03*
X145800900Y-156642500D03*
X143260900Y-156642500D03*
X140720900Y-156642500D03*
X138180900Y-156642500D03*
X135640900Y-156642500D03*
X133100900Y-156642500D03*
X130560900Y-156642500D03*
X128020900Y-156642500D03*
X125480900Y-156642500D03*
X122940900Y-156642500D03*
X120400900Y-156642500D03*
%TD*%
D37*
%TO.C,J4*%
X242904000Y-179384000D03*
D53*
X241304000Y-177384000D03*
D54*
X238804000Y-177384000D03*
%TD*%
D47*
%TO.C,SW4*%
X114380000Y-198620000D03*
X122000000Y-198620000D03*
X114380000Y-193540000D03*
X122000000Y-193540000D03*
%TD*%
D55*
%TO.C,BT1*%
X304470000Y-175965000D03*
D56*
X284470000Y-175965000D03*
%TD*%
D37*
%TO.C,J1*%
X317250000Y-165650000D03*
D57*
X315250000Y-167250000D03*
D58*
X315250000Y-169750000D03*
X315250000Y-172250000D03*
X315250000Y-174750000D03*
X315250000Y-177250000D03*
%TD*%
D42*
%TO.C,J9*%
X302000000Y-116500000D03*
%TD*%
D37*
%TO.C,J7*%
X196250000Y-203795000D03*
X196250000Y-201295000D03*
X191250000Y-196295000D03*
X186250000Y-203795000D03*
X186250000Y-201295000D03*
D38*
X196250000Y-196295000D03*
D39*
X193750000Y-196295000D03*
D40*
X191250000Y-201295000D03*
D38*
X186250000Y-196295000D03*
D41*
X188750000Y-196295000D03*
%TD*%
M02*
