M48
; DRILL file {KiCad 8.0.4} date 2024-09-13T17:14:42+0200
; FORMAT={-:-/ absolute / metric / decimal}
; #@! TF.CreationDate,2024-09-13T17:14:43+02:00
; #@! TF.GenerationSoftware,Kicad,Pcbnew,8.0.4
; #@! TF.FileFunction,Plated,1,2,PTH
FMAT,2
METRIC
; #@! TA.AperFunction,Plated,PTH,ComponentDrill
T1C0.200
; #@! TA.AperFunction,Plated,PTH,ViaDrill
T2C0.300
; #@! TA.AperFunction,Plated,PTH,ComponentDrill
T3C0.400
; #@! TA.AperFunction,Plated,PTH,ViaDrill
T4C0.500
; #@! TA.AperFunction,Plated,PTH,ComponentDrill
T5C0.500
; #@! TA.AperFunction,Plated,PTH,ComponentDrill
T6C0.762
; #@! TA.AperFunction,Plated,PTH,ComponentDrill
T7C0.800
; #@! TA.AperFunction,Plated,PTH,ComponentDrill
T8C0.813
; #@! TA.AperFunction,Plated,PTH,ComponentDrill
T9C0.900
; #@! TA.AperFunction,Plated,PTH,ComponentDrill
T10C0.950
; #@! TA.AperFunction,Plated,PTH,ComponentDrill
T11C1.000
; #@! TA.AperFunction,Plated,PTH,ComponentDrill
T12C1.200
; #@! TA.AperFunction,Plated,PTH,ComponentDrill
T13C1.300
; #@! TA.AperFunction,Plated,PTH,ComponentDrill
T14C1.500
; #@! TA.AperFunction,Plated,PTH,ComponentDrill
T15C2.100
; #@! TA.AperFunction,Plated,PTH,ComponentDrill
T16C2.300
; #@! TA.AperFunction,Plated,PTH,ComponentDrill
T17C2.500
; #@! TA.AperFunction,Plated,PTH,ComponentDrill
T18C3.200
%
G90
G05
T1
X323.88Y-96.05
X323.88Y-97.45
X324.58Y-95.35
X324.58Y-96.75
X324.58Y-98.15
X325.28Y-96.05
X325.28Y-97.45
X325.98Y-95.35
X325.98Y-96.75
X325.98Y-98.15
X326.68Y-96.05
X326.68Y-97.45
T2
X78.5Y-170.1
X78.5Y-175.0
X79.3Y-170.1
X79.3Y-175.0
X81.6Y-129.8
X81.6Y-130.6
X81.6Y-131.4
X81.6Y-132.2
X81.6Y-133.0
X88.694Y-138.622
X93.615Y-133.206
X93.896Y-136.567
X94.17Y-115.332
X94.207Y-142.789
X94.788Y-132.926
X96.27Y-142.259
X103.078Y-142.909
X114.447Y-140.021
X114.5Y-126.0
X114.5Y-126.8
X114.5Y-127.6
X114.5Y-128.4
X114.5Y-129.2
X116.598Y-75.645
X117.798Y-138.851
X119.0Y-126.0
X122.6Y-162.6
X123.017Y-150.693
X123.5Y-162.6
X124.376Y-138.514
X124.4Y-162.6
X125.3Y-162.6
X125.452Y-143.233
X126.2Y-162.6
X127.399Y-142.219
X127.447Y-144.522
X129.543Y-143.663
X132.72Y-142.878
X134.746Y-130.034
X134.9Y-134.7
X134.9Y-135.5
X134.9Y-136.3
X134.9Y-137.1
X134.9Y-137.9
X141.679Y-111.046
X141.746Y-75.292
X143.826Y-152.11
X146.764Y-141.556
X146.792Y-139.945
X148.46Y-139.316
X148.75Y-152.75
X152.769Y-138.78
X155.74Y-129.239
X156.565Y-126.731
X156.814Y-133.576
X156.912Y-111.154
X158.329Y-138.079
X158.5Y-152.75
X158.989Y-142.428
X160.032Y-127.421
X160.339Y-144.759
X161.773Y-142.448
X162.517Y-129.238
X164.519Y-129.771
X166.324Y-140.583
X183.249Y-163.994
X185.132Y-137.062
X185.133Y-133.185
X185.769Y-139.075
X188.183Y-78.281
X188.185Y-132.893
X189.176Y-139.241
X189.501Y-128.864
X190.76Y-135.015
X192.299Y-139.081
X193.232Y-137.135
X194.192Y-114.538
X194.45Y-133.091
X196.464Y-129.427
X198.095Y-75.62
X198.095Y-165.238
X198.483Y-139.791
X198.496Y-135.975
X200.407Y-133.017
X213.0Y-126.0
X216.0Y-126.0
X217.353Y-137.906
X218.88Y-105.873
X218.901Y-115.205
X221.307Y-136.776
X222.97Y-138.551
X223.436Y-142.783
X225.388Y-129.694
X225.7Y-142.704
X226.0Y-133.0
X227.5Y-176.5
X227.788Y-114.616
X229.113Y-137.036
X230.409Y-103.419
X230.416Y-79.946
X230.528Y-131.52
X230.74Y-139.71
X230.758Y-75.503
X233.259Y-88.609
X233.561Y-115.305
X236.276Y-100.179
X237.478Y-100.305
X239.246Y-92.226
X240.0Y-94.5
X241.392Y-81.056
X244.0Y-96.0
X244.5Y-128.5
X245.439Y-144.785
X245.465Y-85.426
X245.786Y-102.004
X246.14Y-100.867
X247.928Y-99.944
X249.605Y-136.863
X251.332Y-111.292
X252.0Y-128.5
X253.689Y-138.945
X253.717Y-142.751
X254.304Y-142.087
X255.033Y-146.083
X255.202Y-138.338
X255.315Y-133.325
X255.5Y-127.487
X257.5Y-128.5
X260.067Y-133.277
X260.451Y-164.991
X261.5Y-95.5
X262.502Y-99.269
X266.013Y-129.501
X266.5Y-172.0
X266.5Y-173.0
X266.5Y-174.0
X266.5Y-175.0
X266.5Y-176.0
X267.345Y-139.032
X271.6Y-87.644
X271.634Y-136.399
X272.195Y-85.156
X272.3Y-120.7
X272.873Y-136.451
X273.0Y-94.0
X273.1Y-120.7
X274.647Y-136.918
X275.0Y-186.0
X275.0Y-191.0
X275.5Y-163.0
X276.0Y-186.0
X276.0Y-191.0
X276.5Y-163.0
X277.0Y-186.0
X277.0Y-191.0
X277.5Y-163.0
X277.938Y-132.065
X278.0Y-186.0
X278.0Y-191.0
X278.5Y-163.0
X278.739Y-100.664
X279.0Y-186.0
X279.0Y-191.0
X279.5Y-163.0
X281.077Y-127.21
X285.196Y-136.262
X285.568Y-142.265
X285.75Y-96.52
X286.165Y-108.27
X287.509Y-138.964
X288.158Y-109.273
X291.8Y-104.6
X293.048Y-100.6
X293.505Y-102.358
X294.757Y-130.559
X295.6Y-106.0
X298.026Y-134.607
X300.863Y-185.546
X301.232Y-111.845
X304.198Y-101.056
X304.201Y-78.179
X304.56Y-137.95
X305.728Y-139.498
X308.44Y-124.993
X308.757Y-139.653
X308.814Y-115.785
X308.814Y-118.476
X309.093Y-114.658
X309.187Y-99.922
X309.785Y-93.435
X310.928Y-153.449
X311.006Y-92.253
X312.985Y-91.711
X313.007Y-138.805
X313.456Y-97.525
X313.637Y-100.053
X313.676Y-133.313
X313.904Y-90.814
X314.2Y-81.1
X315.0Y-81.1
X315.8Y-81.1
X316.216Y-134.751
X316.462Y-142.566
X316.953Y-101.229
X317.081Y-135.25
X317.171Y-91.365
X318.437Y-101.083
X318.794Y-102.609
X318.833Y-109.345
X321.0Y-175.0
X321.0Y-176.0
X321.0Y-177.0
X321.0Y-178.0
X321.0Y-179.0
X321.831Y-171.843
X322.041Y-142.566
X322.317Y-88.542
X323.615Y-88.2
X324.596Y-109.78
X324.728Y-115.151
X325.26Y-142.318
X325.283Y-129.433
X326.152Y-106.759
X326.515Y-120.21
X326.523Y-139.931
X326.998Y-132.387
X328.115Y-122.442
X328.6Y-89.2
X328.678Y-91.321
X329.253Y-115.187
X329.561Y-108.504
X331.0Y-89.5
X331.373Y-87.986
X332.2Y-109.9
X332.345Y-88.084
X332.4Y-112.296
X332.77Y-102.472
T4
X233.727Y-192.677
X245.604Y-162.846
X286.031Y-138.914
X296.742Y-141.35
X331.316Y-121.62
T5
X302.0Y-116.5
X324.2Y-117.4
T6
X85.175Y-77.33
X85.175Y-112.89
X85.555Y-124.0
X85.555Y-148.0
X87.715Y-77.33
X87.715Y-112.89
X88.095Y-124.0
X88.095Y-148.0
X90.255Y-77.33
X90.255Y-112.89
X90.635Y-124.0
X90.635Y-148.0
X92.795Y-77.33
X92.795Y-112.89
X93.175Y-124.0
X93.175Y-148.0
X95.335Y-77.33
X95.335Y-112.89
X95.715Y-124.0
X95.715Y-148.0
X98.255Y-124.0
X98.255Y-148.0
X100.795Y-124.0
X100.795Y-148.0
X103.335Y-124.0
X103.335Y-148.0
X114.175Y-77.33
X114.175Y-112.89
X116.715Y-77.33
X116.715Y-112.89
X117.555Y-124.0
X117.555Y-148.0
X119.255Y-77.33
X119.255Y-112.89
X120.095Y-124.0
X120.095Y-148.0
X121.795Y-77.33
X121.795Y-112.89
X122.635Y-124.0
X122.635Y-148.0
X124.335Y-77.33
X124.335Y-112.89
X125.175Y-124.0
X125.175Y-148.0
X127.715Y-124.0
X127.715Y-148.0
X130.255Y-124.0
X130.255Y-148.0
X132.795Y-124.0
X132.795Y-148.0
X135.335Y-124.0
X135.335Y-148.0
X149.555Y-124.0
X149.555Y-148.0
X152.095Y-124.0
X152.095Y-148.0
X153.175Y-77.33
X153.175Y-112.89
X154.635Y-124.0
X154.635Y-148.0
X155.715Y-77.33
X155.715Y-112.89
X157.175Y-124.0
X157.175Y-148.0
X158.255Y-77.33
X158.255Y-112.89
X159.715Y-124.0
X159.715Y-148.0
X160.795Y-77.33
X160.795Y-112.89
X162.255Y-124.0
X162.255Y-148.0
X163.335Y-77.33
X163.335Y-112.89
X164.795Y-124.0
X164.795Y-148.0
X167.335Y-124.0
X167.335Y-148.0
X181.555Y-124.0
X181.555Y-148.0
X182.175Y-77.33
X182.175Y-112.89
X184.095Y-124.0
X184.095Y-148.0
X184.715Y-77.33
X184.715Y-112.89
X186.635Y-124.0
X186.635Y-148.0
X187.255Y-77.33
X187.255Y-112.89
X189.175Y-124.0
X189.175Y-148.0
X189.795Y-77.33
X189.795Y-112.89
X191.715Y-124.0
X191.715Y-148.0
X192.335Y-77.33
X192.335Y-112.89
X194.255Y-124.0
X194.255Y-148.0
X196.795Y-124.0
X196.795Y-148.0
X199.335Y-124.0
X199.335Y-148.0
X213.6Y-124.0
X213.6Y-148.0
X216.14Y-124.0
X216.14Y-148.0
X218.68Y-124.0
X218.68Y-148.0
X221.175Y-77.33
X221.175Y-112.89
X221.22Y-124.0
X221.22Y-148.0
X223.715Y-77.33
X223.715Y-112.89
X223.76Y-124.0
X223.76Y-148.0
X226.255Y-77.33
X226.255Y-112.89
X226.3Y-124.0
X226.3Y-148.0
X228.795Y-77.33
X228.795Y-112.89
X228.84Y-124.0
X228.84Y-148.0
X231.335Y-77.33
X231.335Y-112.89
X231.38Y-124.0
X231.38Y-148.0
X245.41Y-124.0
X245.41Y-148.0
X247.95Y-124.0
X247.95Y-148.0
X250.175Y-77.33
X250.175Y-112.89
X250.49Y-124.0
X250.49Y-148.0
X252.715Y-77.33
X252.715Y-112.89
X253.03Y-124.0
X253.03Y-148.0
X255.255Y-77.33
X255.255Y-112.89
X255.57Y-124.0
X255.57Y-148.0
X257.795Y-77.33
X257.795Y-112.89
X258.11Y-124.0
X258.11Y-148.0
X260.335Y-77.33
X260.335Y-112.89
X260.65Y-124.0
X260.65Y-148.0
X263.19Y-124.0
X263.19Y-148.0
X277.49Y-124.0
X277.49Y-148.0
X280.03Y-124.0
X280.03Y-148.0
X282.57Y-124.0
X282.57Y-148.0
X285.11Y-124.0
X285.11Y-148.0
X287.65Y-124.0
X287.65Y-148.0
X289.175Y-77.33
X289.175Y-112.89
X290.19Y-124.0
X290.19Y-148.0
X291.715Y-77.33
X291.715Y-112.89
X292.73Y-124.0
X292.73Y-148.0
X294.255Y-77.33
X294.255Y-112.89
X295.27Y-124.0
X295.27Y-148.0
X296.795Y-77.33
X296.795Y-112.89
X299.335Y-77.33
X299.335Y-112.89
X309.525Y-124.0
X309.525Y-148.0
X312.065Y-124.0
X312.065Y-148.0
X314.605Y-124.0
X314.605Y-148.0
X317.145Y-124.0
X317.145Y-148.0
X318.175Y-77.33
X318.175Y-112.89
X319.685Y-124.0
X319.685Y-148.0
X320.715Y-77.33
X320.715Y-112.89
X322.225Y-124.0
X322.225Y-148.0
X323.255Y-77.33
X323.255Y-112.89
X324.765Y-124.0
X324.765Y-148.0
X325.795Y-77.33
X325.795Y-112.89
X327.305Y-124.0
X327.305Y-148.0
X328.335Y-77.33
X328.335Y-112.89
T7
X272.415Y-165.735
X272.415Y-168.275
X272.415Y-170.815
T8
X98.76Y-193.46
X98.76Y-198.54
X106.38Y-193.46
X106.38Y-198.54
X114.38Y-193.54
X114.38Y-198.62
X122.0Y-193.54
X122.0Y-198.62
X130.38Y-193.46
X130.38Y-198.54
X138.0Y-193.46
X138.0Y-198.54
X146.38Y-193.46
X146.38Y-198.54
X154.0Y-193.46
X154.0Y-198.54
T9
X138.255Y-105.11
X138.255Y-107.65
X140.255Y-83.57
X140.255Y-86.11
X205.0Y-160.0
X206.255Y-104.57
X206.255Y-107.11
X207.54Y-160.0
X208.255Y-83.11
X208.255Y-85.65
X238.375Y-203.74
X240.375Y-203.74
X242.375Y-203.74
X274.255Y-104.57
X274.255Y-107.11
X276.255Y-83.11
X276.255Y-85.65
X311.25Y-191.98
X311.25Y-194.52
X311.25Y-197.06
X322.46Y-194.31
X325.0Y-194.31
T10
X315.25Y-167.25
X315.25Y-169.75
X315.25Y-172.25
X315.25Y-174.75
X315.25Y-177.25
X329.64Y-167.5
X329.64Y-170.0
X331.64Y-167.5
X331.64Y-170.0
T11
X73.799Y-170.135
X73.799Y-172.635
X73.799Y-175.135
X76.299Y-170.135
X76.299Y-175.135
X238.804Y-177.384
X241.304Y-177.384
X275.61Y-91.445
X275.61Y-93.945
T12
X120.401Y-156.642
X122.941Y-156.642
X125.481Y-156.642
X128.021Y-156.642
X130.561Y-156.642
X133.101Y-156.642
X135.641Y-156.642
X138.181Y-156.642
X140.721Y-156.642
X143.261Y-156.642
X145.801Y-156.642
X148.341Y-156.642
X150.881Y-156.642
X153.421Y-156.642
X155.961Y-156.642
X158.501Y-156.642
T13
X284.47Y-175.965
X304.47Y-175.965
T14
X236.275Y-203.74
X244.475Y-203.74
T16
X334.5Y-162.75
X334.5Y-174.75
T17
X89.001Y-156.642
X89.001Y-187.643
X164.0Y-156.642
X164.0Y-187.643
T18
X76.0Y-70.0
X76.0Y-202.0
X207.0Y-70.0
X207.0Y-202.0
X328.0Y-70.0
X338.0Y-202.0
T3
G00X172.25Y-195.795
M15
G01X172.25Y-196.795
M16
G05
G00X177.75Y-201.295
M15
G01X176.75Y-201.295
M16
G05
G00X182.25Y-196.795
M15
G01X182.25Y-195.795
M16
G05
G00X186.25Y-195.795
M15
G01X186.25Y-196.795
M16
G05
G00X191.75Y-201.295
M15
G01X190.75Y-201.295
M16
G05
G00X196.25Y-196.795
M15
G01X196.25Y-195.795
M16
G05
T7
G00X174.75Y-195.945
M15
G01X174.75Y-196.645
M16
G05
G00X179.75Y-196.645
M15
G01X179.75Y-195.945
M16
G05
G00X188.75Y-195.945
M15
G01X188.75Y-196.645
M16
G05
G00X193.75Y-196.645
M15
G01X193.75Y-195.945
M16
G05
G00X331.6Y-191.5
M15
G01X331.6Y-188.5
M16
G05
G00X335.1Y-194.8
M15
G01X333.1Y-194.8
M16
G05
G00X337.6Y-191.0
M15
G01X337.6Y-189.0
M16
G05
T15
G00X75.249Y-166.185
M15
G01X74.849Y-166.185
M16
G05
G00X75.249Y-179.085
M15
G01X74.849Y-179.085
M16
G05
M30
